<?xml version="1.0" standalone="no"?>
<!DOCTYPE svg PUBLIC "-//W3C//DTD SVG 1.1//EN" "http://www.w3.org/Graphics/SVG/1.1/DTD/svg11.dtd" >
<svg xmlns="http://www.w3.org/2000/svg" xmlns:xlink="http://www.w3.org/1999/xlink" version="1.1">
<metadata></metadata>
<defs>
<font id="rosemaryregular" horiz-adv-x="916" >
<font-face units-per-em="2048" ascent="1638" descent="-410" />
<missing-glyph horiz-adv-x="509" />
<glyph horiz-adv-x="0" />
<glyph horiz-adv-x="0" />
<glyph unicode="&#xd;" horiz-adv-x="557" />
<glyph horiz-adv-x="0" />
<glyph unicode="&#x9;" horiz-adv-x="0" />
<glyph unicode="&#xa;" horiz-adv-x="0" />
<glyph horiz-adv-x="0" />
<glyph unicode=" "  horiz-adv-x="509" />
<glyph unicode="&#x09;" horiz-adv-x="509" />
<glyph unicode="&#xa0;" horiz-adv-x="509" />
<glyph unicode="!" horiz-adv-x="654" d="M141 -136q0 42 12 78.5t33.5 63t52.5 42t69 15.5q23 0 47.5 -5.5t46.5 -19.5h1q16 -8 25.5 -23.5t9.5 -37.5q0 -32 -34 -75t-91 -86q-33 -23 -62.5 -37.5t-52.5 -14.5q-26 0 -41.5 23.5t-15.5 76.5zM190 729q0 85 5.5 173.5t17.5 184.5t30.5 202.5t43.5 228.5q4 15 11 29 t21 24.5t36 17t55 6.5q68 0 96 -23.5t28 -59.5q0 -16 -4 -32l1 1q-41 -93 -72.5 -203t-55 -223t-39 -221t-25.5 -198t-14 -153.5t-4 -86.5v-11q0 -4 0.5 -7.5t0.5 -7.5q0 -38 -10.5 -51t-30.5 -21v1q-15 -5 -22 -5q-11 0 -21 10.5t-20 42.5v-2q-14 99 -21 193.5t-7 190.5z " />
<glyph unicode="&#x22;" horiz-adv-x="885" d="M70 1044q0 13 7 34q16 48 30 88t29.5 76.5t33 72t39.5 74.5t50.5 83.5t64.5 98.5q9 12 20 12q14 0 31.5 -16.5t33.5 -37.5q10 -17 18 -36t8 -38q0 -15 -6.5 -31t-22.5 -30q-38 -34 -67.5 -66.5t-53 -64t-43.5 -62t-38 -60.5q-11 -17 -21.5 -34.5t-21.5 -34.5 q-14 -20 -35.5 -35t-37.5 -15q-8 0 -13 5.5t-5 16.5zM452 1052q0 12 7 33q16 48 30 88t29.5 76.5t33 72t39 74.5t49.5 83.5t64 98.5l-1 -1q9 13 21 13q16 0 34.5 -16t32.5 -39q11 -17 18.5 -35t7.5 -38q0 -16 -6.5 -31.5t-22.5 -29.5q-38 -35 -67.5 -67.5t-53 -64 t-43.5 -62.5t-38 -61q-11 -16 -21.5 -33.5t-21.5 -34.5q-14 -20 -35 -35t-38 -15q-8 0 -13 6t-5 18z" />
<glyph unicode="#" horiz-adv-x="1530" d="M112 398.5v6.5q0 34 17 58t43 24h254q-1 31 -1.5 68t-0.5 75t-0.5 75t-0.5 69q0 23 -0.5 50t-0.5 51h-114q-36 0 -71 1.5t-61 9.5q-12 13 -23 28q-9 13 -18.5 29.5t-14.5 35.5q-1 6 -1.5 13t-0.5 11q0 31 16 49.5t43 18.5h254q0 40 1.5 84.5t5.5 89.5t10 88.5t15 79.5 q0 1 0.5 2.5t0.5 2.5q1 7 5.5 19t12.5 24t20.5 21.5t31.5 11.5q30 -1 52.5 -26.5t22.5 -70.5v-315q37 -1 78.5 -1.5t79.5 -0.5t78.5 0.5t78.5 1.5v41q0 72 5.5 145.5t16.5 145.5q3 17 7 30.5t11.5 24t20 17t32.5 8.5h4q25 0 48 -26t26 -71v-315h19q53 0 107.5 -3.5 t105.5 -16.5q13 -5 27.5 -12t25.5 -16t18.5 -20.5t7.5 -24.5v-6q0 -28 -18.5 -34t-55.5 -10q-13 -2 -30 -3.5t-36 -3.5q-35 -4 -79 -8.5t-87 -9.5q0 -71 -0.5 -151t-2.5 -152q-1 -26 -1 -54.5t-1 -53.5h231q7 -1 15 -1.5t15 -0.5q10 0 19 -1t16 -5.5t12 -13t8 -23.5 q-1 -47 -22 -68.5t-56 -26.5q-60 -12 -122.5 -20.5t-123.5 -16.5q-2 -54 -8.5 -109t-14.5 -111q-2 -11 -2.5 -22.5t-2.5 -22.5q-2 -23 -4.5 -44t-4.5 -41q-3 -33 -12 -60t-28 -27h-12q-23 0 -39 19.5t-18 61.5l-13 331h-330q0 -8 -1 -18.5t-1 -18.5q-4 -39 -8 -75t-9 -71 q-5 -32 -9 -65.5t-8 -70.5q-5 -43 -17 -65t-41 -22q-16 0 -29 16t-16 60q-11 63 -16 145.5t-8 178.5h-167q-8 -1 -17 -1h-17q-32 0 -65 3q-15 6 -26 18q-10 11 -19 29t-11 47q-1 5 -1 7.5zM609 497l294 6h16q0 33 -1.5 76.5t-4.5 77.5q-3 38 -5.5 96t-2.5 134 q-30 -4 -60.5 -6t-65.5 -3.5t-76.5 -2t-93.5 -0.5v-378z" />
<glyph unicode="$" horiz-adv-x="1252" d="M101 1025q0 50 14.5 97.5t40 88.5t60 74t73.5 56q57 32 123 60.5t131 42.5l6 3l22 187q2 25 10 44q7 17 19 31t33 14q13 0 26 -7t23.5 -20t18 -31.5t9.5 -40.5v-180h18q36 -4 78.5 -15.5t85 -29t81.5 -41t67 -52.5q19 -23 28.5 -40.5t9.5 -34.5q0 -18 -9.5 -36t-29.5 -39 q-24 -24 -57 -24q-18 0 -36 7t-32 19q-17 16 -40 29.5t-47.5 24t-48.5 17.5t-44 9h-17v-407h13q36 -6 75.5 -16.5t78.5 -24.5t75 -31.5t64 -37.5h1q56 -36 87 -104.5t31 -150.5q0 -72 -27.5 -142.5t-84.5 -128.5q-56 -56 -139 -92.5t-172 -48.5h-16q-2 -54 -5.5 -114 t-5.5 -115q-6 -32 -21 -50.5t-32 -18.5q-15 0 -28 16t-19 45l-17 241h-16q-39 5 -88.5 15t-102 24t-102 31.5t-88.5 37.5q-14 8 -26.5 19t-12.5 33q0 21 13 50q11 23 26.5 37.5t33.5 14.5q7 0 12.5 -2t11.5 -4q37 -15 79.5 -29.5t85.5 -25.5t82.5 -18t70.5 -7h17v17.5 t-0.5 23l-1 25t-0.5 22.5q0 5 -0.5 8.5t-0.5 7.5q-2 36 -4 80t-3.5 91t-2 94t-0.5 91h-14q-51 8 -102 18t-98 24.5t-86.5 33.5t-67.5 45q-49 45 -69 99t-20 111zM270 1013q0 -17 4 -32.5t15 -31.5q13 -18 39.5 -32.5t60 -26t70.5 -19t70 -10.5h18v377h-22 q-18 -5 -43.5 -15.5t-54 -26.5t-56.5 -36t-50.5 -43.5t-36.5 -49.5t-14 -54zM708 239h20q44 8 85.5 32t74 57t52 72t19.5 78v10q-1 37 -24 67t-57 51.5t-73 34.5t-73 18h-20v-23.5t-0.5 -30t-0.5 -30.5v-25q-1 -76 -1 -155t-2 -156z" />
<glyph unicode="%" horiz-adv-x="1760" d="M139 1083q-6 69 17 131t63.5 112.5t91.5 87t101 54.5q13 8 22.5 5.5t16 -11t10 -22t3.5 -28.5h18q56 -7 109 -54t85 -135h1q8 -21 12 -42t4 -43q0 -59 -26 -116t-68 -103t-96 -74t-110 -28h-15.5t-15.5 2q-45 7 -84.5 29.5t-69.5 57t-48 79.5t-21 98zM307 1152 q-1 -21 3 -40.5t13.5 -35t26 -26t40.5 -12.5q27 -4 58 11.5t55.5 41.5t38 57t6.5 58q-5 17 -13.5 27.5t-19.5 17.5t-25 11t-30 8h1q-2 1 -3.5 0.5t-3.5 0.5q-25 5 -33 17t-13 27q-51 -45 -73 -86t-28 -77zM435 -94q0 15 4 32.5t12 37.5q59 154 126.5 328t150 356.5t182 369 t221.5 367.5l-1 -1q7 7 16 13q8 5 19 9.5t26 4.5q20 0 41 -10q23 -11 35.5 -29.5t12.5 -44.5q0 -29 -15 -65v1l-712 -1371q-15 -25 -29.5 -39.5t-32.5 -14.5q-14 0 -29 6q-14 5 -20.5 18.5t-6.5 31.5zM1048 127q0 44 12.5 93t33 98t47.5 94.5t57 83.5t62 65t62 38 q13 5 26.5 -2t26.5 -20.5t23 -31t15.5 -34t5 -30.5t-9.5 -19q-6 -6 -12.5 -13.5t-11.5 -12.5q-6 -7 -18 -20t-18 -19h24q32 -2 63 -10.5t59 -25.5t52 -44t42 -66l-1 1q7 -23 10.5 -41.5t3.5 -37.5q0 -60 -26 -117.5t-69 -102t-97 -71.5t-110 -27h-15.5t-16.5 2 q-47 8 -85 31.5t-66 58.5t-45.5 81t-23.5 99zM1234 151q0 -31 14.5 -51.5t51.5 -23.5q24 -3 52.5 5t52 25.5t36.5 44t6 60.5q-3 17 -15.5 28t-32 17.5t-46 9.5t-58.5 5q-31 -19 -43 -41.5t-15 -44.5q-3 -17 -3 -34z" />
<glyph unicode="&#x26;" horiz-adv-x="1581" d="M62 325q0 53 25.5 115t77.5 125q32 41 73.5 79t78.5 67.5t62.5 47t27.5 17.5q-78 90 -119 174.5t-41 157.5q0 62 31 115t95 91q46 27 99.5 51.5t112 42.5t119.5 29t123 11q35 0 73.5 -3.5t76.5 -11.5q31 -5 60.5 -16.5t52 -29.5t36.5 -42t14 -54q0 -35 -18.5 -75 t-60.5 -85v1q-51 -52 -95.5 -93t-84.5 -75.5t-77 -64t-71 -56.5l1 1q-8 -6 -12 -8h1q-26 -20 -55 -42.5t-52 -45.5q30 -37 71 -81.5t88 -90.5t98 -90.5t101 -81.5q24 31 40.5 55.5t27.5 47t19.5 45t17.5 48.5q2 9 10.5 22t21.5 23t30 14t37 -3q38 -13 51.5 -36.5t8.5 -51.5 q-43 -156 -133 -262q49 -39 96 -73t94 -65.5t95.5 -62t101.5 -63.5h-1q11 -8 15.5 -24.5t4.5 -36.5q0 -17 -3.5 -35t-6.5 -30l1 -2q-14 -14 -28 -24t-27.5 -15t-24 -4.5t-16.5 7.5q-51 28 -95 57t-83 58.5t-75 58.5t-70 59l-90 72q-56 -48 -118 -83t-125.5 -58t-127 -34.5 t-123.5 -11.5t-113.5 10.5t-102.5 34.5q-44 21 -83.5 49.5t-70.5 64t-49 78t-18 92.5zM258 350q0 -29 10 -56t27 -49.5t41 -39t51 -25.5v1q26 -11 60.5 -15.5t73.5 -4.5q41 0 85 7.5t87.5 23t84 40t75.5 59.5l-368 363q-11 -9 -23.5 -20.5t-22.5 -20.5l-58 -54t-56 -62 q-33 -42 -50 -78t-17 -69zM399 1099q0 -49 30 -111t84 -123q100 73 192 144t174 157q26 26 26 58q0 18 -9 35t-25 29.5t-38 20.5t-48 8q-32 -2 -69 -8.5t-77 -18.5t-81 -28.5t-80 -38.5h1q-41 -20 -60.5 -52t-19.5 -72zM1502 -86l2 2l6 -13z" />
<glyph unicode="'" horiz-adv-x="637" d="M218 1493q-2 19 1.5 35.5t14 28.5t30 19t50.5 7q51 0 70.5 -16t19.5 -51q0 -9 -1 -19.5t-3 -23.5q-3 -25 -6 -47.5t-6 -44.5q-8 -62 -14.5 -109t-13 -89t-13.5 -83t-17 -89q-2 -13 -12.5 -19t-23.5 -6q-17 0 -32.5 8.5t-15.5 25.5q-2 59 -5.5 112t-7.5 115 q-3 47 -6.5 105.5t-8.5 140.5z" />
<glyph unicode="(" horiz-adv-x="754" d="M177 615v30q0 129 20.5 261.5t61 259.5t100 242.5t137.5 208.5q11 10 24.5 17.5t33.5 7.5q18 0 45 -8q32 -11 55 -36.5t23 -54.5q0 -25 -15 -41q-82 -100 -139 -210t-93.5 -225.5t-53.5 -233t-20 -232.5q0 -140 19.5 -272t55.5 -250.5t86.5 -221.5t111.5 -184l-1 1 q8 -13 8 -25q0 -21 -22 -37q-14 -10 -24 -10q-18 0 -44 25q-75 67 -139 168.5t-112.5 226.5t-79 268.5t-37.5 294.5q-1 15 -1 30z" />
<glyph unicode=")" horiz-adv-x="754" d="M103 1543q0 29 23 54.5t55 36.5q27 8 45 8q20 0 34 -7.5t25 -17.5q80 -94 140 -208.5t99.5 -241t59.5 -259.5t20 -263v-30t-1 -30q-7 -151 -37.5 -294.5t-79 -268.5t-112.5 -226.5t-139 -168.5q-15 -13 -25 -19t-19 -6q-10 0 -24 10q-22 16 -22 37q0 12 8 25l-1 -1 q61 81 111.5 184t86.5 221.5t55.5 250.5t19.5 272q-3 112 -22 230t-56.5 234.5t-94.5 227.5t-135 209q-14 19 -14 41z" />
<glyph unicode="*" horiz-adv-x="912" d="M39 1148q0 17 10 30.5t26.5 23t37 16.5t42.5 10q15 2 43 3.5t58 1.5q22 0 47.5 -2t58.5 -8q-18 16 -39 35t-43 39t-43.5 39.5t-39.5 35.5q-9 13 -15 28t-6 31q0 34 28 70q17 19 36.5 28t36.5 9q24 0 47.5 -12t34.5 -35q23 -44 46.5 -93t45.5 -96q20 49 38 90t41 75 q9 13 20.5 25t24 21.5t25.5 15t24 5.5q31 0 56 -28q33 -42 33 -85q0 -41 -26 -64l-151 -149q9 0 28 0.5t28 0.5q21 1 42 1h41q47 0 89 -3.5t71 -14.5q23 -9 31 -18.5t11 -26.5q2 -17 -9 -28t-31 -11l-262 -25q23 -49 48.5 -102.5t48.5 -102.5l-1 1q3 -11 5 -19.5t2 -14.5 q0 -9 -4.5 -17.5t-15.5 -18.5q-11 -9 -28.5 -3t-28.5 25l-140 176l-144 -205q-1 -11 -5 -16.5t-9 -7t-11.5 -1t-12.5 2.5q-2 0 -3.5 0.5t-3.5 0.5q-18 6 -27 21.5t-2 38.5v-1q4 12 14.5 40t23.5 62t27.5 71t27.5 67q-21 -6 -46 -12t-50 -10.5t-47.5 -7.5t-38.5 -3 q-14 0 -29.5 2.5t-30 9t-26 18.5t-18.5 31q-11 21 -11 40z" />
<glyph unicode="+" horiz-adv-x="1038" d="M54 681q0 18 5 34t13 29t19 20.5t22 7.5h316v359q-3 15 5 27.5t22.5 23t34.5 17.5t41 11q21 -1 38.5 -9.5t29.5 -21t19 -27t7 -28.5q1 -19 2 -39.5t3 -41.5q2 -43 4.5 -89t2.5 -91q0 -23 -1 -47t-3 -44q75 -1 156.5 -2.5t157.5 -2.5q13 -1 23.5 -7t18 -14.5t11.5 -17.5 t3 -17v-1q0 -26 -16.5 -46t-43.5 -26l-318 -23q-3 -71 -7 -132t-9 -109q-4 -40 -6.5 -78t-4.5 -76q0 -10 -7.5 -20.5t-18 -19.5t-22.5 -15.5t-21 -8.5q-19 -2 -35 3.5t-28 14.5t-19.5 20.5t-9.5 22.5v-2l-9 381q-29 0 -60.5 -1.5t-60.5 -3.5t-57.5 -3.5t-57.5 -1.5 q-20 0 -41.5 1.5t-41.5 3.5q-6 2 -15.5 9.5t-18.5 19t-15.5 27t-6.5 34.5z" />
<glyph unicode="," horiz-adv-x="456" d="M98 -212q0 53 7 107.5t18.5 107.5t26.5 104t32 97h-1q14 29 48 29q25 0 53.5 -13.5t53 -33.5t40.5 -44.5t16 -46.5q0 -16 -12 -28l-5 -5l-6 -6l-7 -7v1q-24 -25 -47 -53t-50 -76q-17 -38 -29.5 -79.5t-23.5 -79.5q-5 -19 -9.5 -33.5t-9.5 -28.5q-2 -14 -12.5 -21 t-24.5 -7q-18 0 -34.5 12.5t-20.5 37.5q-2 16 -2.5 33t-0.5 33z" />
<glyph unicode="-" horiz-adv-x="1035" d="M74 678q-6 34 10 53t36 19l759 51q31 4 48 -18.5t24 -64.5q0 -21 -7 -38.5t-17 -30.5t-22 -20.5t-24 -9.5q-118 -14 -215 -20.5t-171 -6.5q-80 0 -146 4.5t-129 10.5q-23 2 -46.5 4t-46.5 4q-18 0 -35.5 17t-17.5 46z" />
<glyph unicode="." horiz-adv-x="467" d="M94 21q0 24 5.5 53.5t15.5 56.5q17 44 49.5 71t73.5 21q23 -2 50.5 -29.5t46.5 -85.5h1q6 -15 10 -29t4 -28q0 -29 -26.5 -57.5t-95.5 -68.5q-36 -21 -62 -21q-36 0 -54 34t-18 83z" />
<glyph unicode="/" horiz-adv-x="1084" d="M133 -94q-1 10 5 24q19 52 51.5 133t75.5 181t94.5 215.5t108 237.5t117 246t120.5 242.5t119 226t113 196.5q9 15 27.5 16t32.5 -6q10 -5 20 -13.5t17 -19.5t9.5 -23.5t-3.5 -25.5q-52 -121 -116.5 -262t-136.5 -290t-147.5 -301.5t-148.5 -296.5t-140 -274.5 t-121 -236.5q-11 -20 -30.5 -23.5t-38.5 13.5q-6 5 -12 10.5t-10.5 13t-5.5 17.5z" />
<glyph unicode="0" horiz-adv-x="996" d="M73 660q0 77 10 160t29 165.5t46 161.5t61 147q11 20 25 29t27 9q19 0 32 -10q8 -6 9.5 -15.5t3.5 -22.5q0 -3 0.5 -12.5t0.5 -11.5q8 8 15 15.5t15 16.5q14 16 28 29t31 24q36 23 74.5 34t76.5 11q70 0 133 -33t105 -88q60 -78 95.5 -202.5t35.5 -284.5q0 -76 -9.5 -159 t-29.5 -173q-33 -152 -106.5 -255.5t-202.5 -151.5q-27 -11 -54 -15.5t-53 -4.5q-63 0 -120 30.5t-105 83.5t-85.5 125t-59.5 155q-14 53 -21 115.5t-7 127.5zM267 642q0 -84 8 -170.5t28.5 -157t56.5 -116.5t92 -50q49 -5 100 24t93 89.5t71 150t36 206.5q2 25 3 62.5 t1 82.5q0 62 -4.5 131t-18.5 131.5t-39 110t-66 66.5q-20 10 -42 10q-34 0 -75 -18.5t-82 -53.5t-78.5 -87t-64.5 -118q-3 -21 -6.5 -52t-6 -69t-4.5 -82t-2 -90z" />
<glyph unicode="1" horiz-adv-x="996" d="M247 1032q0 23 13 42t30 32q45 32 77.5 60.5t58.5 63t47.5 80t44.5 113.5h-1q9 23 32.5 34.5t49.5 11.5q27 0 48.5 -14t21.5 -43q0 -198 -6.5 -375.5t-17 -339.5t-24 -310.5t-28.5 -288.5q-2 -17 -8 -37t-15.5 -36.5t-21.5 -26.5t-27 -7q-26 0 -45 11t-19 44 q1 54 2 105.5t2 103.5q1 94 3 190.5t5 197t8 206.5t12 220q-3 -3 -8.5 -7.5t-11.5 -10l-12 -11t-10 -8.5q-15 -14 -31 -28t-31 -25h1q-20 -14 -39 -22.5t-36 -8.5q-22 0 -35 16q-16 18 -22.5 35t-6.5 33z" />
<glyph unicode="2" horiz-adv-x="996" d="M44 213q0 32 15 71q29 73 86.5 121.5t138.5 65.5q109 91 183 173.5t127 156.5h-1q13 18 25.5 40t21.5 45.5t14.5 46.5t5.5 44q0 23 -7 42t-23 33q-65 56 -147 56q-66 0 -146 -31.5t-180 -92.5q-14 -11 -24 -11q-11 0 -21 8t-20 19q-1 2 -2 2.5t-2 2.5q-19 33 -19 52 q0 15 12 29.5t36 32.5q35 34 79 62.5t94 48.5t104 31.5t108 11.5q73 0 140 -22.5t121 -73.5q32 -25 47.5 -65.5t15.5 -89.5q0 -60 -22.5 -129.5t-62.5 -132.5q-56 -85 -121.5 -161.5t-153.5 -155.5h15t19 0.5t18.5 0.5h14.5q51 0 96.5 -3t87 -8t80.5 -11.5t79 -14.5 q33 -8 54.5 -22.5t21.5 -44.5q0 -13 -6 -35q-3 -11 -6.5 -22.5t-10.5 -19.5t-19 -12t-33 -1q-29 4 -56 7t-51 6q-43 5 -79 9.5t-68.5 7.5t-61.5 4.5t-57 1.5q-54 0 -106 -6.5t-120 -21.5q-18 -12 -34 -22.5t-29 -20.5q-37 -25 -60 -38t-48 -18q-32 -6 -47.5 9.5t-15.5 44.5z " />
<glyph unicode="3" horiz-adv-x="996" d="M70 1264q0 15 6 29t15 28l-2 -1q70 58 164 92t192 34q93 0 177.5 -34t148.5 -112q56 -67 56 -141q0 -41 -16 -77q-20 -45 -74 -95.5t-136 -95.5q45 -13 92 -37.5t88.5 -56.5t72.5 -70.5t43 -79.5q25 -78 25 -160q0 -102 -42 -202t-115 -185q-27 -28 -63.5 -50.5t-79 -38 t-89.5 -23.5t-94 -8q-69 0 -134 17.5t-116 53.5q-9 5 -17.5 21t-8.5 38q0 16 6 33q11 28 32 40t39 3q118 -48 213 -48q118 0 197 78q23 24 40.5 56t29.5 67.5t18.5 72t6.5 71.5q0 27 -4 52t-12 46q-18 37 -45.5 67t-62.5 50t-75.5 31t-85.5 11q-49 0 -100 -13t-103 -41 q-14 -8 -26 -6t-22.5 11t-19 23.5t-14.5 31.5v-1q-6 25 -6 37q0 14 8 22.5t25 20.5q2 2 2 1t2 1h-1q16 14 43 27.5t58 25t64 20t63 12.5q69 43 121.5 86t72.5 72q12 20 17 38.5t5 30.5q0 23 -10.5 37t-21.5 24h1l-1 1q-45 36 -91 54t-100 18q-57 0 -124 -20t-148 -64l1 1 q-11 -4 -23.5 -3.5t-24 6t-20.5 16.5t-12 28q-5 17 -5 27z" />
<glyph unicode="4" horiz-adv-x="996" d="M56 508q0 7 0.5 15t1.5 17q25 109 55.5 206.5t64.5 189t71.5 180.5t76.5 180q13 31 27 64t28 65q4 16 14 26t22 16t25 8t24 2q21 -6 39 -24t18 -42q0 -15 -10 -35q-42 -121 -81.5 -230t-76.5 -204q-45 -118 -77 -205t-40 -132q0 -32 19 -56.5t58 -20.5q39 8 78 17.5 t77 19.5q29 7 62.5 15.5t66.5 16.5q-2 24 -3 44t-1 37q0 32 2 66.5t4 64.5q2 26 3.5 54t1.5 51q0 11 2.5 23.5t10 22.5t20.5 15.5t35 3.5q23 0 38 -7t24 -17.5t13 -23.5t4 -24q9 -42 13 -86t4 -89q0 -31 -2 -66t-4 -64q40 5 85 12t86 12q24 -7 36 -30.5t12 -49.5 q0 -15 -3.5 -29t-10.5 -25t-17 -18t-23 -7q-35 0 -53.5 -2.5t-35.5 -7.5q-14 -3 -33.5 -7t-45.5 -8q1 -40 -0.5 -84t-4.5 -89t-6.5 -88.5t-7.5 -82.5q-2 -15 -3 -30t-2 -29q-2 -29 -23.5 -43.5t-48.5 -14.5q-33 0 -39.5 15t-6.5 47q0 27 -1.5 63.5t-3.5 79.5q-3 54 -5.5 117 t-2.5 116l-258 -67q-54 -18 -107 -18q-39 0 -72.5 10.5t-58.5 31.5t-39.5 54t-14.5 78z" />
<glyph unicode="5" horiz-adv-x="996" d="M81 861q0 103 8 203t20 209q2 23 4.5 45.5t4.5 45.5q2 18 11 31t23 20t31.5 9t36.5 -2q30 -2 50 -19.5t20 -46.5q0 -10 -5 -27q-13 -74 -24.5 -144t-20 -131.5t-13.5 -112.5t-5 -86q0 -45 9 -65t31 -9q124 77 247 77q57 0 109 -16q50 -13 94.5 -36.5t81 -55.5t63.5 -70.5 t42 -81.5v1q9 -35 12.5 -66.5t3.5 -63.5q0 -121 -50 -218.5t-133 -160.5v1q-71 -49 -152 -79t-166 -30q-57 0 -117.5 17t-117.5 52q-6 5 -13.5 18.5t-7.5 32.5q0 8 2.5 18.5t9.5 22.5q8 24 19.5 33t23.5 9q10 0 19 -3t17 -7q48 -20 91.5 -28.5t82.5 -8.5q63 0 116 20.5 t97 55.5q48 47 73.5 107t25.5 126q0 41 -9 79q-17 52 -55.5 85.5t-95.5 51.5q-14 2 -27.5 3t-24.5 1q-48 0 -108.5 -14.5t-128.5 -52.5q-1 -1 -3 -4.5t-3 -5.5q-5 -8 -11.5 -19t-16.5 -21.5t-23.5 -17.5t-31.5 -7q-18 -3 -36 4t-33 22t-24.5 37.5t-11.5 49.5 q-6 60 -8.5 114.5t-2.5 108.5zM327 1177q-9 31 2 56.5t34 32.5h-1q33 6 59.5 11t49.5 10q31 7 59.5 13t61.5 11t74 10t98 10q8 3 24.5 2t32.5 -10t28 -28t12 -52v-1q3 -20 -2 -40.5t-15 -37.5t-24 -28t-29 -11q-44 -3 -80.5 -4.5t-65.5 -3.5q-39 -2 -70 -3.5t-60 -4.5 t-59 -7.5t-68 -12.5q-9 -2 -17.5 4.5t-17 19t-15.5 29.5t-11 35z" />
<glyph unicode="6" horiz-adv-x="996" d="M76 428q0 93 16.5 208t51.5 243.5t89.5 265.5t131.5 274q20 48 50 65.5t65 9.5q17 -3 32 -12.5t25.5 -23t16.5 -29t6 -30.5q0 -21 -12 -37q-69 -128 -126.5 -246.5t-98.5 -234t-64 -231.5t-23 -239q0 -59 21.5 -107t55 -81.5t74.5 -52t80 -18.5t82.5 10t83 33.5t70.5 63 t45 98.5q8 37 12 71t4 64q0 74 -20 122t-54 59l1 -2q-9 5 -18.5 6t-19.5 1q-24 0 -54.5 -7t-63.5 -18t-67.5 -26t-67.5 -31q-8 -8 -20 -7.5t-25 9t-24.5 25.5t-18.5 43q-8 35 5 63.5t36 34.5q66 27 132.5 44.5t128.5 17.5q31 0 61 -5.5t61 -19.5q36 -12 71.5 -37.5t63 -66 t45 -97.5t17.5 -133q0 -21 -1.5 -44.5t-5.5 -49.5q-15 -101 -58.5 -176t-103.5 -125t-131 -75t-140 -25h-16t-16 1q-71 10 -139.5 41.5t-123.5 87t-88.5 136.5t-33.5 190z" />
<glyph unicode="7" horiz-adv-x="996" d="M107 1264q0 30 12 47t33 24q42 11 94.5 22.5t110.5 21.5t118.5 16t117.5 6h19t20 -1q57 -2 104 -12.5t80 -30.5t51 -50.5t18 -71.5q0 -17 -3 -36t-10 -40q-40 -123 -73 -227t-61.5 -197t-53.5 -179.5t-49.5 -174t-50 -181.5t-54.5 -202q-8 -33 -25 -46.5t-38 -13.5 q-19 0 -38 7q-41 16 -59 38.5t-7 59.5q43 145 81.5 277t76 259.5t74.5 255t76 264.5q3 11 4 21t1 19q0 43 -28.5 60.5t-80.5 17.5q-41 0 -86.5 -7t-93.5 -18t-96.5 -24.5t-93.5 -26.5q-15 -5 -28 -0.5t-24 16t-19 28.5t-14 37v-1q-2 12 -3.5 23t-1.5 20z" />
<glyph unicode="8" horiz-adv-x="996" d="M58 354q0 66 17.5 123.5t48.5 106t73.5 87.5t91.5 67q-77 45 -128 106q-38 44 -58 107.5t-20 135.5q0 64 17 129.5t53 125.5t92.5 109t134.5 80q9 5 21.5 -0.5t25 -19t22 -33t11.5 -42.5q64 39 115 39q50 0 109 -32q43 -24 77 -59t56.5 -78t34.5 -91t12 -99 q0 -83 -34.5 -165.5t-107.5 -151.5q50 -21 91 -55.5t70 -82t45 -106.5t16 -130q0 -69 -16 -130q-16 -57 -38.5 -102t-55.5 -82t-78 -68t-105 -59q-45 -17 -91.5 -26t-88.5 -9q-57 0 -108.5 14t-97 40t-83.5 62.5t-67 81.5q-29 46 -43 98.5t-14 108.5zM227 412 q-2 -61 20 -113.5t58 -91.5t82 -61.5t93 -22.5q8 0 16.5 1t16.5 2q45 5 88.5 21.5t79.5 45t61.5 70t34.5 97.5q3 23 5 44.5t2 43.5q-1 79 -41.5 137t-124.5 88q-22 7 -45.5 11t-50.5 5q-53 2 -104.5 -20t-93.5 -60.5t-68.5 -89.5t-28.5 -107zM266 1094q0 -44 8.5 -81 t22.5 -57v1q32 -61 81 -87.5t99 -26.5q29 0 57 8.5t51 23.5q68 45 94.5 106t26.5 122q0 35 -7 68t-19 60t-27 46t-31 27h-1q-16 7 -30.5 10.5t-30.5 3.5q-20 0 -45.5 -7t-62.5 -22q-5 -4 -14.5 0t-20 12.5t-20 18t-12.5 17.5q-33 -18 -55.5 -45.5t-36.5 -60t-20.5 -68 t-6.5 -69.5z" />
<glyph unicode="9" horiz-adv-x="996" d="M45 905q0 62 14.5 125.5t42.5 126.5q26 60 63 113t80.5 93.5t93 64t100.5 23.5q28 0 53 -7q42 -15 79.5 -43.5t67 -67t50 -84t29.5 -93.5q-1 -20 -6 -37.5t-17 -29.5h1q-4 -3 -12.5 -6.5t-18.5 -5.5t-19.5 -2t-14.5 5q-1 1 -2 1t-2 1q-5 3 -10.5 9t-5.5 21q-9 28 -25 53 t-35.5 44.5t-39 33t-34.5 18.5q-13 4 -32 4q-44 0 -84 -34t-71 -85.5t-49 -113t-18 -116.5q0 -48 16 -86q24 -49 62 -70.5t83 -21.5q28 0 56.5 8t54.5 22h-1q37 14 75 38t75.5 54t73.5 64.5t71 69.5q12 17 34.5 33t49.5 16q15 0 30 -8.5t26 -21t17 -26.5t2 -26 q-33 -137 -55.5 -244t-35.5 -194t-18.5 -158.5t-5.5 -135.5q0 -57 3.5 -112t8.5 -115q10 -23 -11 -38t-54 -24q-23 -6 -41 -6q-27 0 -39.5 12t-12.5 31q-2 45 -3 85.5t-1 78.5q0 58 2 110t5.5 101t7.5 95.5t9 93.5q2 24 5 50t5 51q2 17 4 31t2 24q0 43 -28 43 q-13 0 -33.5 -11t-50.5 -29q-27 -20 -59.5 -42.5t-69.5 -41t-77 -31t-82 -12.5q-47 0 -94.5 19t-95.5 67v-1q-46 49 -67 112t-21 135z" />
<glyph unicode=":" horiz-adv-x="612" d="M206 42q0 23 4.5 48.5t13.5 51.5q12 42 39.5 64t61.5 23q32 -9 66.5 -33.5t56.5 -75.5h-1q5 -13 8 -27t3 -28q0 -32 -25 -69.5t-87 -75.5q-27 -15 -51 -15q-21 0 -37.5 10.5t-28 29t-17.5 43.5t-6 54zM206 1001q0 44 18 98q12 40 34 61.5t68 17.5q32 -3 63 -26.5 t54 -75.5q6 -15 10 -31t4 -33q0 -34 -26 -68.5t-89 -65.5q-24 -9 -44 -9q-21 0 -38 10t-29 28t-18.5 42t-6.5 52z" />
<glyph unicode=";" horiz-adv-x="610" d="M172 -191q0 52 7 106.5t18 106.5t26 100.5t32 89.5q6 18 17.5 26t26.5 8q19 0 41 -10.5t45 -28.5q32 -20 52 -48t20 -54q0 -9 -2.5 -17.5t-10.5 -15.5v1q-2 -2 -5 -4.5t-5 -4.5h1q-16 -14 -31.5 -28.5t-30 -32t-26.5 -38t-21 -46.5q-11 -33 -19 -69.5t-16 -70.5 q-5 -23 -9 -42.5t-9 -35.5q-5 -21 -21.5 -31.5t-36.5 -2.5h1q-13 8 -26 24t-13 32q-3 21 -4 43t-1 43zM206 1001q0 44 18 98q12 40 34 61.5t68 17.5q32 -3 63 -26.5t54 -75.5q6 -15 10 -31t4 -33q0 -34 -26 -68.5t-89 -65.5q-24 -9 -44 -9q-21 0 -38 10t-29 28t-18.5 42 t-6.5 52z" />
<glyph unicode="&#x3c;" horiz-adv-x="1012" d="M80 699q3 26 39 72t94 102.5t133.5 116.5t157.5 113.5t165.5 95t157.5 60.5q14 5 36.5 0t39.5 -21q19 -16 25 -46q7 -27 -0.5 -49.5t-22.5 -39.5q-29 -30 -56 -35h-1q-73 -19 -145 -50.5t-137.5 -69t-121.5 -76.5t-97.5 -74t-65 -61.5t-23.5 -37.5q0 -19 25 -49.5 t68.5 -68t102.5 -79t126.5 -80.5t140 -73t144.5 -57h-1q12 -6 23 -17q8 -8 10.5 -18t-1.5 -18q0 -14 -4 -23t-11 -15q-8 -8 -19 -11t-20 -1h1q-90 20 -181 58t-175 86t-157.5 101t-128.5 103t-87.5 92.5t-33.5 69.5z" />
<glyph unicode="=" horiz-adv-x="1015" d="M52 484q0 29 10.5 49t41.5 23h-1q85 4 162.5 8t149.5 9q51 3 103 6.5t109 6.5t119.5 6t133.5 5q17 4 32 -1.5t27 -17.5t20 -28t11 -34q0 -30 -7.5 -49t-19.5 -30.5t-28 -17t-34 -7.5q-84 -10 -168.5 -15.5t-144.5 -5.5q-81 0 -149 5.5t-125 11.5q-43 4 -89.5 7.5 t-88.5 3.5h1q-29 3 -47 17.5t-18 47.5zM52 987q0 27 10.5 50t40.5 27l778 34q34 7 58.5 -20t30.5 -72q0 -29 -7.5 -47t-20 -28t-29.5 -14t-36 -4q-104 -14 -187.5 -19t-152.5 -5q-80 0 -143.5 5t-119.5 11q-37 4 -78 7.5t-79 4.5q-29 4 -47 24t-18 46z" />
<glyph unicode="&#x3e;" horiz-adv-x="1012" d="M84 1192q6 30 25 46q17 16 39.5 21t36.5 0q74 -19 157.5 -60.5t165.5 -95t157.5 -113.5t133.5 -116.5t94 -102.5t39 -72q-2 -27 -34 -69.5t-87 -92.5t-128.5 -103t-157.5 -101t-175 -86t-181 -58h1q-9 -2 -20 1t-19 11q-7 6 -11 15t-4 23q-4 8 -1.5 18t10.5 18 q11 11 23 17h-1q71 23 144 57t140.5 73t126.5 80.5t102.5 79t68.5 68t25 49.5q0 11 -23.5 37.5t-65 61.5t-97.5 74t-121.5 76.5t-137.5 69t-145 50.5h-1q-27 5 -56 35q-15 17 -22.5 39.5t-0.5 49.5z" />
<glyph unicode="?" horiz-adv-x="1216" d="M102 1201q0 44 12 86q15 53 53.5 91.5t93 63.5t121 37t137.5 12q76 0 154 -13t148.5 -37t129 -59t95.5 -78q44 -51 63.5 -97.5t19.5 -89.5q0 -57 -30 -105t-75 -86v1q-56 -38 -112 -71q-38 -23 -75 -46.5t-70 -49t-60.5 -54t-44.5 -61.5q-10 -23 -13.5 -47t-3.5 -50 q0 -28 2.5 -56.5t7.5 -54.5q5 -10 2.5 -19.5t-10 -17t-18 -12t-21.5 -4.5q-34 0 -47.5 11t-17.5 24q-9 27 -14.5 77t-8.5 115q-5 43 10 81t42.5 72.5t63.5 65.5t73 61q17 14 34.5 28.5t33.5 28.5q24 18 45.5 39t38 42t26 42t9.5 41t-8 39t-25 37q-33 33 -79.5 58.5 t-98.5 43.5t-106 27.5t-102 9.5q-37 0 -68.5 -5.5t-54.5 -17.5t-36 -30.5t-13 -43.5t6 -48t15.5 -45t21.5 -41.5t23 -36.5q8 -14 15.5 -26t11.5 -18q5 -6 8.5 -15t3.5 -20q0 -14 -8 -32.5t-29 -38.5h1q-21 -15 -41 -24t-46 -9q-13 0 -31 3q-11 2 -23 10t-22.5 19t-19 23 t-12.5 21q-32 52 -54.5 116.5t-22.5 132.5zM499 -9q0 20 2.5 45t7.5 53v-2q9 25 26 45t39 33.5t46.5 20.5t48.5 7q31 0 56 -14h-1q19 -14 33 -32t14 -41q0 -26 -21.5 -60t-74.5 -77q-36 -40 -68.5 -57.5t-57.5 -17.5q-18 0 -30 10q-20 34 -20 87z" />
<glyph unicode="@" horiz-adv-x="1581" d="M80 311q4 106 29.5 228.5t71.5 244t112.5 233.5t154.5 198t196.5 137.5t237.5 51.5q119 0 215.5 -44t170.5 -123.5t125 -190t78 -243.5q19 -91 24 -187t-4 -186.5t-32.5 -170.5t-61.5 -140.5t-91 -95.5t-121 -35q-64 0 -121 45.5t-89 127.5q-38 -47 -77.5 -84 t-81.5 -59.5t-87 -29t-94 6.5q-47 13 -83 42t-61 69.5t-38.5 89t-17 100t4 103.5t25.5 98q16 42 38 90t49 95.5t59 91t68.5 77t77.5 53.5t86 20q76 0 131 -33t79 -97l-1 2q5 -28 -1 -46t-18.5 -28.5t-28.5 -15t-32 -4.5q-24 0 -39 10.5t-28.5 23.5t-28.5 23.5t-40 10.5 q-24 0 -49 -18.5t-49 -48t-46.5 -67t-41 -75.5t-32 -74t-19.5 -62q-11 -47 -15.5 -94t2.5 -86t27 -66t58 -33q53 -9 101.5 13.5t85 65.5t58.5 100t23 119q0 14 18 21t42 7q19 0 37 -3.5t31.5 -10.5t20 -18.5t1.5 -26.5q-20 -65 -12.5 -114.5t28.5 -83t49.5 -51t49.5 -17.5 q36 0 62.5 28.5t43.5 76.5t25.5 111t10 131t-4 136.5t-16.5 128.5q-20 106 -54 197.5t-89 158.5t-134 105.5t-188 38.5q-92 0 -172 -43t-147.5 -115.5t-121.5 -168t-93.5 -199.5t-63.5 -210.5t-32 -201.5q-11 -130 29 -238t117 -185.5t184 -120.5t232 -43q60 0 121.5 10 t124.5 31q28 11 49 2t28 -27t-4 -40t-45 -37q-73 -32 -149 -47t-151 -15q-94 0 -183.5 23t-167.5 66t-142.5 105t-109 140t-67 170t-16.5 196z" />
<glyph unicode="A" horiz-adv-x="1270" d="M60 46q7 94 34.5 209t70.5 240t97.5 254.5t115 253t123 235.5t121.5 201q20 17 43.5 32.5t43.5 19.5q6 3 13.5 -1.5t14 -14.5t11 -23t4.5 -27q0 -15 -6 -28q-64 -127 -124.5 -257.5t-115 -258t-101.5 -249t-84 -229.5t-62.5 -200t-37.5 -161v1q-9 -34 -28.5 -48 t-61.5 -14q-29 -11 -49 7t-22 58zM437 548.5q-3 19.5 0 34.5q11 20 29 40t38 30l-1 -1q85 29 175 48.5t191 33.5q-9 23 -20 56.5t-23.5 72.5t-25 79.5t-23 77t-19 65.5t-12.5 45q-9 16 -9 30q0 25 21 38.5t46 2.5q16 -7 34 -17t29 -33q35 -71 72 -158t72.5 -182t68.5 -193.5 t61 -192.5t49.5 -179t33.5 -152v-1q10 -34 10 -57q0 -20 -8 -28t-21 -8q-15 0 -35.5 7t-44.5 17h1q-2 2 -5 3.5t-5 3.5q-23 17 -49 38.5t-47 52.5v-1q-13 26 -24 73t-24 110q-11 54 -26 118.5t-34 132.5q-53 -2 -102 -6.5t-97 -12t-97.5 -18t-103.5 -24.5q-22 -10 -38 -3 t-25 22.5t-12 35z" />
<glyph unicode="B" horiz-adv-x="1311" d="M124 1330q0 16 5.5 31.5t13.5 28t18 20.5t18 8q163 15 290 15q194 0 308 -32.5t156 -91.5q26 -38 26 -86q0 -69 -50 -164t-150 -210q62 14 110.5 19t86.5 5q121 0 196.5 -39t104.5 -109q14 -36 14 -74q0 -74 -50 -157.5t-139 -172.5t-210.5 -180.5t-264.5 -180.5 q-10 -9 -30 -9q-26 0 -56 17.5t-48 46.5q-3 11 -4.5 24.5t-1.5 24.5q0 27 7 48t20 26q84 45 166.5 93.5t156.5 98.5t135.5 99.5t103.5 95t60 85.5q11 25 12 47q0 14 -5 26q-11 18 -41 28.5t-81 10.5q-59 0 -148.5 -18t-214.5 -61q-17 -7 -35 -1.5t-32.5 20t-24 35t-9.5 43.5 q0 11 2.5 23t7.5 23q6 20 18 40t24 38q56 68 100.5 124t73.5 100t40 76t-1 51q-17 26 -65 39t-132 13q-75 0 -179 -10t-241 -31q-9 -3 -20 -0.5t-20 14t-15 33t-6 57.5zM146 525q0 132 14.5 274.5t42.5 309.5q5 15 15 27q8 11 22 19.5t34 8.5q34 0 54 -20q16 -15 15 -47 q0 -9 -1 -20v-1q-5 -87 -9 -158.5t-9 -137.5q-5 -81 -10 -156.5t-8.5 -155.5t-5.5 -170.5t-2 -202.5q0 -26 -6.5 -42.5t-17.5 -25.5t-25.5 -12.5t-30.5 -3.5q-24 5 -34.5 16t-17.5 46v-1q-5 71 -8.5 133t-6 117.5t-4 105.5t-1.5 97z" />
<glyph unicode="C" horiz-adv-x="1258" d="M98 424q0 39 6 86q5 89 35 181t79.5 181.5t116 175t145 161.5t167.5 140t182 112h-1q19 9 41 2.5t36 -38.5q6 -15 4 -31.5t-9.5 -31t-18 -26t-19.5 -15.5q-109 -70 -211 -167.5t-181.5 -210.5t-127.5 -235t-48 -240q0 -58 18.5 -106t52 -84t79.5 -58.5t100 -28.5 q8 -1 19 -1h20q57 0 120 8.5t129 23t133 32t133 35.5q13 4 25.5 7t25.5 7q10 0 22 -3.5t23 -12.5t20 -26.5t14 -46.5q4 -26 -2.5 -48t-17.5 -38.5t-24 -25.5t-23 -10q-134 -39 -267 -62t-257 -23q-72 0 -138 9t-126 28t-110.5 51t-87 78.5t-57 108.5t-20.5 142z" />
<glyph unicode="D" horiz-adv-x="1327" d="M52 1322q1 21 6.5 38.5t14 30t17.5 20t17 7.5q66 9 128 13t119 4q149 0 274.5 -25t224.5 -63q149 -73 243 -184t120 -265v-1q12 -42 17.5 -79.5t5.5 -75.5q0 -57 -12 -111.5t-32.5 -105t-48.5 -97t-61 -87.5q-45 -54 -99 -101t-111.5 -87t-116 -74t-112.5 -61 q-23 -6 -39 -6q-20 0 -37 9.5t-28 33.5l1 -1q-5 15 -1.5 29t11 25t16 18.5t13.5 9.5q54 32 108 65.5t103.5 70.5t94 78t80.5 89q55 72 86 151.5t31 160.5q0 25 -2.5 48t-7.5 46q-15 58 -39.5 110.5t-60 95t-83 73.5t-107.5 46l1 -1q-75 32 -174 46.5t-225 14.5 q-61 0 -126.5 -3t-137.5 -10q-11 -3 -21.5 4t-20 21.5t-17 35t-12.5 44.5zM209 624q0 100 14.5 226t48.5 290q9 8 20 15q9 6 21 11t26 5q17 0 34 -7q15 -2 28.5 -7.5t23.5 -16t13 -25t-3 -33.5v-2q-13 -94 -20.5 -172.5t-12 -150t-6.5 -141t-3 -146.5q-2 -84 -4.5 -182.5 t-8.5 -221.5q-2 -11 -6.5 -24t-12.5 -23.5t-20.5 -17.5t-30.5 -7q-21 2 -39 22t-18 50q-5 67 -11 125.5t-11 111.5q-9 85 -15.5 161.5t-6.5 159.5z" />
<glyph unicode="E" horiz-adv-x="1281" d="M91 1280q0 13 4 27t10 26t14.5 20.5t19.5 10.5l906 71q18 4 31 -2t21.5 -19t12.5 -30.5t4 -36.5v-1q1 -8 1 -15v-14q0 -19 -3 -29.5t-9 -16.5t-15.5 -9.5t-22.5 -6.5q-2 -1 -5 -1t-5 -1h2q-104 -11 -191 -17.5t-163.5 -10t-145 -4.5t-134.5 -2q-63 -1 -130.5 -2 t-136.5 -4q-24 2 -41.5 24.5t-23.5 42.5zM144 504q0 117 34 270t101 326q12 27 25.5 36.5t25.5 9.5q7 0 14.5 -2t14.5 -4q1 0 2.5 -0.5t3.5 -0.5q17 -2 32.5 -17t15.5 -40q0 -10 -3.5 -22t-12.5 -27q-49 -147 -72.5 -265t-23.5 -214q0 -191 100 -280h-1q43 -43 101.5 -62 t132.5 -19q103 0 230.5 36t274.5 100q20 9 37.5 1.5t23.5 -24.5l-1 1q10 -34 10 -54q0 -23 -17 -48q-161 -97 -315 -148.5t-287 -51.5q-83 0 -153.5 20t-125.5 65q-78 59 -122.5 161t-44.5 253zM387 748q-5 32 3.5 55.5t22.5 31.5q72 16 145 26.5t139 18.5q63 8 132.5 17.5 t144.5 23.5q17 -1 30.5 -10t24 -22.5t19 -30.5t14.5 -33l-1 2q4 -24 -1.5 -48.5t-18 -43.5t-31.5 -30t-41 -7q-83 9 -159 9q-91 0 -176 -9.5t-172 -20.5q-8 -1 -15.5 -2t-15.5 -2q-11 0 -19.5 8t-14 19.5t-8 24.5t-2.5 23z" />
<glyph unicode="F" horiz-adv-x="1146" d="M46 1294q-5 41 11 59t37 19l941 65q22 6 37.5 1t25 -18t13.5 -31t4 -37v-1q2 -25 -1.5 -40t-12 -24.5t-21.5 -15.5t-30 -12v1q-2 -1 -4 -1.5t-4 -1.5h2q-94 -11 -179.5 -18t-165 -10.5t-154 -5t-145.5 -1.5q-38 0 -74.5 0.5t-73.5 0.5q-35 0 -70.5 0.5t-70.5 0.5 q-14 -4 -25.5 2t-20.5 17t-14 25t-5 26zM225 747q0 97 7 189.5t15 178.5q5 21 27 35t51 14q16 0 29 -4q20 0 37 -7t28 -18t16 -26t2 -31v-1q-16 -115 -25.5 -208t-14.5 -173t-6 -151.5t-2 -143.5q-1 -64 -1.5 -141t-3.5 -174v1q-5 -34 -19 -51t-45 -17q-9 -7 -16.5 -5.5 t-13 8.5t-9 18t-4.5 22q-4 43 -9 87t-10 89q-9 76 -17.5 163t-10.5 179q-3 45 -4 86.5t-1 80.5zM444 717q-11 29 3 55.5t49 30.5q110 15 225.5 31.5t225.5 33.5h21q17 0 31 -1.5t24.5 -9.5t18 -25t10.5 -49q0 -51 -15 -74.5t-44 -23.5q-92 0 -157.5 -1.5t-119 -5t-101.5 -10 t-106 -16.5q-26 -9 -43 9t-22 56z" />
<glyph unicode="G" horiz-adv-x="1467" d="M81 527q0 127 47 260.5t127.5 261t188.5 241.5t231 203l-1 -1q7 3 13.5 5t14.5 2q22 0 41 -14.5t30 -42.5q10 -16 14 -32t4 -31q0 -23 -8 -42t-19 -30h1q-76 -67 -142 -127.5t-122 -119.5t-100 -117.5t-74.5 -122.5t-46.5 -135t-16 -154v-19t1 -20q2 -41 14 -76t34 -61.5 t54 -42.5t75 -19h-1q11 -2 23.5 -3t26.5 -1q84 0 203.5 39t253.5 115q12 0 36.5 -9t46.5 -32q9 66 24 137.5t36 163.5l-1 -1q8 16 19 27q10 10 25.5 18t36.5 6q26 0 44 -29q13 -21 13 -52q0 -10 -1 -22q-9 -80 -14.5 -137.5t-9.5 -100.5t-5.5 -76.5t-1.5 -65.5 q0 -36 1.5 -75.5t4.5 -96.5q5 -27 -0.5 -44.5t-17 -27.5t-26.5 -14.5t-30 -5.5q-9 -3 -16.5 -5t-13.5 -2q-23 0 -40 17t-25 59v-1q-7 52 -11 94.5t-4 85.5q0 13 1 32t2 33l-18 -10q-3 -2 -7 -4t-11 -4q-155 -96 -294 -146.5t-260 -50.5q-18 0 -36.5 1t-37.5 4h1 q-110 35 -183.5 125.5t-90.5 234.5q-3 30 -3 58zM649 801q-5 29 4 48.5t26 26.5h-1q70 21 156.5 39t179 32.5t185.5 25.5t176 18q4 0 7 0.5t6 0.5q9 1 17.5 0t16 -7.5t13.5 -20.5t9 -41v-1q8 -27 8 -44q0 -31 -16.5 -46t-39.5 -15q-91 -2 -185.5 -10t-183 -19.5t-166.5 -24 t-136 -23.5q-12 -8 -24 -5t-22.5 12.5t-18 23.5t-11.5 30z" />
<glyph unicode="H" horiz-adv-x="1305" d="M128 723q0 94 5 190.5t16.5 188.5t31 178t48.5 159q15 18 33 26t55 8q31 0 50.5 -22t15.5 -53q-12 -81 -20 -144.5t-13.5 -126t-9 -131.5t-7.5 -161q58 2 105.5 9t95.5 15q64 10 131.5 18.5t142.5 8.5q25 0 50.5 -1.5t52.5 -3.5q18 0 28.5 -13.5t19.5 -41.5 q-1 -43 -14 -63.5t-47 -20.5q-70 -8 -131.5 -19t-121.5 -22q-74 -14 -150.5 -27.5t-172.5 -20.5q0 -145 -12 -290t-26 -276q-3 -16 -12 -28.5t-19.5 -20.5t-22 -11t-20.5 0q-17 0 -31.5 13t-16.5 47v-1q-1 12 -2 26.5t-3 28.5q-5 56 -10 123.5t-9 142.5t-7 155t-3 161z M971 609q0 192 21 400t82 422l-1 -1q12 29 39 40.5t53 2.5q9 0 19 -6.5t18 -17t14 -24t6 -27.5q-9 -80 -16 -156.5t-12.5 -151t-10.5 -148.5t-9 -150q-5 -72 -10.5 -155.5t-12.5 -174t-15.5 -185.5t-17.5 -190q-4 -33 -19.5 -50.5t-37.5 -17.5h1q-32 4 -51 17.5t-19 49.5 q-2 22 -3 48t-3 50q-5 94 -10 200.5t-5 224.5z" />
<glyph unicode="I" horiz-adv-x="707" d="M75.5 100.5q2.5 15.5 8 27t13 18t14.5 6.5l151 9q-3 50 -6 102.5t-7 100.5q-8 106 -14 210t-6 213q0 119 11 244.5t41 268.5h-51t-44 1q-10 0 -18 0.5t-13 0.5q-17 0 -32.5 19t-15.5 48q-6 41 5.5 58t34.5 17l420 52q29 5 46.5 -17t23.5 -60q-1 -44 -21.5 -67.5 t-49.5 -27.5q-36 -14 -95 -17q-20 -126 -32 -245.5t-19 -235t-11 -227.5t-7 -224q-2 -48 -3.5 -101t-3.5 -104l143 8q6 1 11 1q41 0 54 -85q0 -18 -7 -34t-17.5 -28.5t-22.5 -20t-22 -7.5q-30 -9 -71.5 -12.5t-87.5 -3.5q-50 0 -98.5 2.5t-88.5 5.5q-25 2 -45 3t-32 1 q-11 0 -23 18t-12 49q-3 18 -0.5 33.5z" />
<glyph unicode="J" horiz-adv-x="893" d="M59 191q0 17 8.5 38.5t19.5 42.5q33 45 68 45q14 0 26 -5.5t25 -13.5l-1 1q60 -52 108.5 -74t86.5 -22q28 0 45.5 14.5t38.5 49.5q32 59 44.5 178t12.5 313q0 77 -1.5 170.5t-4.5 197.5q1 11 6.5 23t15 22t22.5 15.5t30 4.5q9 0 16 -6t13 -14t10.5 -16t6.5 -12v-1v1l1 -2 q-1 0 -1 1q21 -157 31 -283t10 -231q0 -104 -9 -186t-26.5 -146.5t-41.5 -113t-54 -84.5q-36 -56 -83.5 -79t-104.5 -23q-37 1 -75 13.5t-75.5 33t-74.5 46.5t-73 55q-9 9 -14.5 22t-5.5 25zM68 1283q0 17 2.5 33t7.5 29t13 20.5t20 7.5q166 23 334 45.5t334 45.5 q10 0 22.5 -2.5t24 -12.5t20.5 -29t13 -53q3 -21 3 -36q0 -42 -18.5 -61t-45.5 -19h-63q-186 0 -335 -13.5t-258 -32.5q-30 -12 -52 11.5t-22 66.5z" />
<glyph unicode="K" horiz-adv-x="1265" d="M151 660q0 90 5 185t17.5 194.5t34 202t54.5 206.5q2 4 9 11t18 12t25.5 6.5t30.5 -4.5q21 -6 39 -21.5t19 -38.5q-18 -124 -30.5 -233.5t-20.5 -212.5t-13 -203.5t-9 -206.5q25 69 65 142t89.5 145.5t105.5 142t114.5 131.5t116 114.5t109.5 91.5l-1 -1q28 17 57 27.5 t57 10.5q23 0 41.5 -8.5t30.5 -27.5q41 -36 41 -72q0 -39 -47 -69q-107 -60 -207 -140.5t-186.5 -172.5t-155.5 -191t-113 -198q-12 -15 -27 -23t-29 -8q-20 0 -32 13q-5 3 -13.5 12t-16.5 20q-3 -89 -5 -195.5t-4 -214.5q0 -36 -18 -56q-12 -14 -36 -14q-11 0 -24 3 q-12 0 -25 2.5t-24.5 10t-19 20t-7.5 32.5q0 60 -2 125.5t-5 131.5q-3 76 -5.5 155.5t-2.5 163.5zM575 554q0 17 12.5 33t21.5 25h-1q16 13 26 13q11 0 23 -15.5t28 -43.5q104 -119 213.5 -199.5t238.5 -133.5q17 -7 34 -15.5t31 -20.5t23.5 -28t11.5 -38q3 -29 -14.5 -50.5 t-40.5 -42.5l2 2q-7 -3 -17 -5t-21 -3.5t-21.5 -1t-16.5 3.5q-77 24 -153.5 68t-145.5 107t-127 144t-100 179q-7 10 -7 22z" />
<glyph unicode="L" horiz-adv-x="1124" d="M133 599q0 156 19.5 356t56.5 452v-2q7 20 19 33t25.5 20.5t27.5 10t26 2.5q11 3 21.5 4t19.5 1q38 0 59 -19.5t10 -56.5q-22 -145 -38.5 -268.5t-28 -228.5t-17.5 -192t-6 -159q0 -85 8.5 -150t28.5 -114h-1q23 -63 71 -85.5t123 -22.5t177.5 26.5t246.5 83.5 q6 11 22 11t32.5 -14.5t20.5 -43.5q6 -41 -10.5 -61t-45.5 -31q-86 -36 -162.5 -66t-143.5 -51t-125 -31q-45 -8 -83 -8q-12 0 -23 1q-85 3 -146.5 43.5t-102.5 112.5q-42 75 -61.5 184.5t-19.5 262.5z" />
<glyph unicode="M" horiz-adv-x="1488" d="M93 142q0 9 1.5 20t3.5 23v-1q45 137 59.5 293t14.5 331q0 42 -0.5 91t-1.5 92q1 24 15 42t51 18q14 0 25 -9t13 -23q34 -94 53.5 -203t19.5 -222q0 -76 -4 -147t-13 -134.5t-24 -118.5t-38 -99q-4 -2 -7 -4q-8 -5 -19.5 -12t-24.5 -13t-27 -10t-26 -2q-29 9 -50 29.5 t-21 58.5zM158 1353q0 17 6 35t16 34q14 22 35 31t38 14q2 1 5.5 2t10.5 4q24 -5 40 -10.5t27.5 -14t19 -21t13.5 -30.5q60 -117 110 -185.5t90.5 -104t72 -46t55.5 -10.5q31 0 61 14.5t68 51.5t87 101t117 164q20 30 46.5 47.5t57.5 17.5q26 0 53.5 -15t53.5 -50 q24 -32 45.5 -80.5t38 -118.5t26.5 -163t10 -212q0 -35 -1 -71.5t-3 -76.5q-4 -87 -9 -170t-13.5 -160t-21 -148t-32.5 -134q0 -14 -8.5 -23.5t-27.5 -9.5q-18 0 -45 10l1 -1q-20 14 -32 27t-18 25.5t-8 24.5t-2 24q13 96 23 195.5t17 197.5t10.5 191.5t3.5 177.5 q0 90 -4.5 169.5t-12.5 139.5q-4 28 -16.5 41.5t-28.5 13.5q-26 0 -40 -20q-69 -123 -127.5 -198.5t-109 -118t-95 -58.5t-84.5 -20q-9 -1 -18 -1q-39 0 -86 20q-58 25 -123 82.5t-136 148.5t-142 217q-14 24 -14 50z" />
<glyph unicode="N" horiz-adv-x="1374" d="M112 68q0 12 3 27q9 64 18 148.5t15.5 178.5t10.5 193.5t4 193.5q0 57 -1.5 112.5t-5.5 102.5q1 27 13 52t39 39q37 -1 53 -13t20 -44q10 -59 17.5 -126t12.5 -138.5t7.5 -146t2.5 -148.5q0 -107 -5 -208.5t-16 -188.5q-4 -35 -31.5 -60t-72.5 -43l1 1q-13 -4 -26 -4 q-29 0 -44 20t-15 52zM254.5 1324.5q2.5 10.5 11 19.5t21 15t24.5 9q8 5 19 5t22 -4t19.5 -10t10.5 -13v1q58 -221 109.5 -386t97 -285t84 -200.5t70.5 -132.5q45 -55 81 -75.5t66 -20.5q8 0 16 1t14 3q42 4 77 53.5t59 161.5q12 84 20 207t8 300q0 78 -2 173t-6 199 q1 16 8 35.5t20 34.5t32.5 23.5t44.5 3.5q46 -8 73.5 -34.5t27.5 -62.5q2 -60 3 -115t1 -107q0 -267 -22 -452.5t-56 -303.5q-23 -90 -53.5 -151t-63.5 -99.5t-66.5 -58t-63.5 -25.5h1q-12 -2 -23.5 -3.5t-23.5 -1.5q-71 0 -139.5 43.5t-131.5 128.5q-51 67 -101.5 164.5 t-99 232.5t-95.5 310t-90 397q-6 10 -3.5 20.5z" />
<glyph unicode="O" horiz-adv-x="1188" d="M83 695q0 153 46.5 315.5t143.5 337.5l-1 -1q12 15 26 21t28 6q17 0 33.5 -8t27.5 -18q8 -12 14.5 -28.5t6.5 -36.5q78 75 151.5 110t139.5 35q73 0 139.5 -36t121.5 -99q71 -86 113.5 -213.5t42.5 -279.5q0 -93 -16 -193.5t-50 -209.5q-21 -69 -43 -131.5t-56.5 -115.5 t-87.5 -94.5t-136 -68.5q-35 -9 -68.5 -14t-64.5 -5q-88 0 -163.5 33t-136 92.5t-104 142.5t-67.5 183q-40 132 -40 276zM269 643q0 -115 23 -211.5t62 -165.5q40 -68 93 -104q44 -30 93 -30q10 0 20 1q35 6 76 19.5t82.5 38t80 61t70 88t53 120.5t27.5 157q4 48 5.5 90.5 t1.5 83.5q0 205 -47.5 317.5t-134.5 139.5q-26 8 -55 8q-43 0 -92 -19.5t-102 -60t-109 -104t-113 -151.5q-17 -72 -25.5 -142t-8.5 -136z" />
<glyph unicode="P" horiz-adv-x="1102" d="M42 1361q3 36 21.5 63.5t44.5 29.5q42 -4 86.5 -5t89.5 -1q30 0 60.5 0.5t59.5 0.5q29 1 58 1h58q85 0 163.5 -6t145 -25.5t118 -57t81.5 -100.5v-1q35 -69 35 -152q0 -65 -20.5 -131t-58.5 -130q-58 -89 -166.5 -171t-249.5 -154h1q-13 -5 -28 1t-20 33q-12 15 -12 34 q0 14 6.5 25.5t15.5 18.5h-1q125 69 207.5 143t114.5 155q15 32 22.5 64t7.5 59q0 26 -7 50.5t-18 42.5q-21 37 -59 60t-87.5 36t-108.5 17.5t-121 4.5h-54t-54 -1t-54 -1h-53q-45 0 -86 2t-76 8q-14 1 -26 4.5t-20.5 12.5t-13 26t-2.5 45v-1zM168 605q0 54 4 113.5 t13.5 127t26 145.5t42.5 169q5 23 29.5 39t58.5 11h-1q13 -3 24 -14.5t19 -28t12 -35.5t1 -38v1q-17 -84 -26.5 -155t-14.5 -133t-6.5 -119t-1.5 -114v-166q0 -72 -2 -155t-8 -187q-1 -19 -7 -35t-15.5 -27t-23.5 -16t-32 -1q-11 0 -22.5 4.5t-22 15t-17 26t-6.5 38.5 q0 12 0.5 24t0.5 24q0 69 -4 130.5t-9 121.5q-5 58 -8.5 114.5t-3.5 119.5z" />
<glyph unicode="Q" horiz-adv-x="1311" d="M79 660q0 94 14 191t42.5 192t72 186t101.5 172h-1q17 23 33.5 32t31.5 9q17 0 31 -11t20 -25q7 -3 13 -11t10.5 -17t6.5 -17.5t2 -13.5q74 66 139.5 96.5t122.5 30.5q83 0 151.5 -49.5t122.5 -137.5t84.5 -205t30.5 -250q0 -119 -28.5 -243.5t-89.5 -246.5 q57 -60 125.5 -100.5t140.5 -73.5l2 -1q14 -2 19.5 -14t5.5 -29q0 -13 -3 -27t-9 -26.5t-14 -22.5t-17 -15q-6 0 -16 -2q-9 -2 -19 -3t-18 -1q-15 0 -27 6q-32 7 -62.5 19.5t-59 28.5t-55.5 33t-52 34q-7 5 -17 11t-17 11q-21 -36 -43.5 -63.5t-49.5 -48.5t-59 -38.5 t-70 -33.5q-42 -16 -82.5 -24.5t-78.5 -8.5q-74 0 -137 29.5t-113.5 84.5t-87.5 132t-59 173q-19 67 -28 139.5t-9 148.5zM279 600q0 -102 14.5 -188.5t42.5 -148.5t68.5 -97t91.5 -35q47 0 86.5 6t73.5 21t63 41t56 65q-24 22 -49.5 51t-50 61t-46 67t-37.5 71 q-4 8 -3 20.5t5.5 26t13 25t20.5 17.5q20 14 32 14q16 0 19 -17q13 -8 27.5 -22.5t33.5 -32.5q23 -23 52 -49t69 -52q7 13 18 39t21.5 57t18.5 63t10 59v-1q12 127 12 233q0 160 -32 259t-105 132h1q-32 18 -69 18q-78 0 -178.5 -74t-229.5 -229q-25 -106 -37 -207t-12 -193 z" />
<glyph unicode="R" horiz-adv-x="1212" d="M32 1346l1 -1q-3 10 2 28.5t14 36.5t21.5 31.5t25.5 14.5q69 -4 136.5 -5.5t134.5 -2.5q118 -2 226 -6t197 -23t154 -59t96 -112q37 -87 37 -166q0 -56 -18.5 -106.5t-51.5 -92.5q-31 -36 -72 -69.5t-87 -63t-95 -54.5t-97 -45q79 -35 158.5 -88t150 -122t128.5 -152 t94 -179v-1q7 -11 3.5 -25t-13.5 -26.5t-24 -21t-27 -8.5q-9 0 -17 5t-13 19q-95 152 -244 265.5t-357 170.5q-10 -2 -18 8t-14 28t-9.5 40.5t-3.5 45.5q0 31 7 57t23 36h-1q55 25 107.5 51t99 54t84.5 57.5t65 60.5q26 38 40 72t14 71q0 30 -11 66q-12 36 -40.5 57.5 t-69 33.5t-91 16t-108.5 4q-29 0 -58.5 -0.5t-61.5 -1.5q-30 -1 -60.5 -1.5t-61.5 -0.5q-48 0 -96 2t-96 7q-23 1 -39 10.5t-28 23t-20.5 29.5t-15.5 32zM141 597q0 54 3.5 113t13.5 125t27 142t43 165q1 3 7 10.5t16.5 14.5t25 10.5t31.5 -1.5q13 -2 25.5 -11t22 -23 t14 -31.5t1.5 -35.5q-47 -260 -64.5 -504t-17.5 -476q0 -33 -16.5 -54.5t-50.5 -21.5q-26 0 -44 18t-18 60v39q0 58 -2 110q-3 70 -8 136q-4 54 -6.5 106.5t-2.5 108.5z" />
<glyph unicode="S" horiz-adv-x="1146" d="M65 972q0 20 4 43.5t12 48.5q19 62 66 115t112 96t143.5 76t160.5 56t162.5 36.5t149.5 16.5q26 -1 49.5 -13t41 -34.5t28 -54.5t10.5 -74q0 -38 -9.5 -85.5t-31.5 -102.5q-11 -32 -33 -47t-58 -15q-21 0 -38 10t-28 24.5t-15 31t2 30.5q20 46 20 74q0 29 -18.5 41.5 t-59.5 7.5q-71 -11 -144.5 -30.5t-140 -48t-119.5 -65.5t-81 -82q-10 -17 -14 -32.5t-4 -28.5q0 -30 20.5 -51.5t54.5 -37.5t77.5 -28t90.5 -23l49 -12q57 -16 119.5 -34.5t122.5 -40.5t114 -49t95 -59.5t65 -71.5t24 -85q-4 -84 -23.5 -145.5t-53 -106.5t-81.5 -77 t-108 -56q-88 -46 -198.5 -64.5t-244.5 -18.5q-38 0 -77 1.5t-81 3.5q-17 0 -30 18t-13 56q0 21 6 53l-1 -1q10 23 26.5 46.5t44.5 32.5q38 -1 71 -1.5t67 -0.5q97 0 176 6.5t144 24.5q39 15 72 31t57 38.5t37 55t13 81.5q0 41 -27 69.5t-72 50t-104 38t-123 32.5 q-40 10 -80 20.5t-79 23.5q-63 19 -120 44.5t-101 60t-70 79.5t-26 103z" />
<glyph unicode="T" horiz-adv-x="1068" d="M29 1245q0 36 11 55t38 22q25 2 51.5 5t52.5 5q177 17 375.5 34.5t399.5 28.5q15 7 30 7q24 0 39.5 -22t15.5 -59v-1q2 -13 2 -24q0 -36 -18 -55q-23 -25 -58 -28q-203 -29 -364.5 -37t-288.5 -8q-35 0 -67 0.5t-62 0.5q-26 0 -49.5 0.5t-44.5 0.5q-28 0 -45.5 20 t-17.5 55zM392 640q0 97 16 204.5t57 238.5v-1q4 10 13 22t21 20.5t26 11t29 -5.5q28 -3 44 -25q12 -16 12 -45q0 -11 -2 -23q-10 -72 -16.5 -133t-10.5 -114t-5.5 -100t-1.5 -92q0 -46 1 -91t3 -93q3 -63 4.5 -135t1.5 -163v-57q0 -19 -5.5 -34.5t-13.5 -26t-19 -15 t-21 -0.5q-27 0 -50 15t-25 49q-5 72 -12.5 137t-15.5 128q-11 83 -20.5 162.5t-9.5 165.5z" />
<glyph unicode="U" horiz-adv-x="1258" d="M101 806q0 106 10 231t33 276q4 38 30.5 52.5t67.5 18.5q14 2 25.5 4t21.5 2q35 0 51 -14t16 -40q0 -13 -4 -28q-23 -185 -35 -329t-12 -259q0 -103 10.5 -185t27.5 -145q33 -117 102.5 -175t161.5 -70q52 0 98.5 13.5t86.5 42.5t74 75.5t60 112.5q31 86 44.5 199 t13.5 265q0 113 -8 256.5t-22 308.5v8q0 31 9.5 45t44.5 16q24 10 47 10q29 0 45.5 -16.5t19.5 -32.5v1q19 -163 28.5 -301.5t9.5 -257.5q0 -189 -24 -328t-74 -242q-64 -157 -169 -234.5t-247 -77.5q-27 0 -55 3q-67 3 -127.5 21t-112 54t-94.5 91.5t-74 134.5 q-38 91 -59 211.5t-21 282.5z" />
<glyph unicode="V" horiz-adv-x="1245" d="M68 1247q-8 26 5 56t48 56q17 17 36 17q21 0 39.5 -14t23.5 -26l-1 1q68 -276 121 -475.5t96.5 -328.5t81 -190.5t73.5 -61.5q38 0 79.5 76t90 223.5t107 363.5t130.5 495q4 9 22 13.5t43 4.5q28 0 52 -7l-1 1q23 -10 39.5 -25t26.5 -31.5t12 -32.5t-3 -27l-1 -1 q-85 -349 -164 -597t-152 -406.5t-140.5 -232t-129.5 -73.5t-125.5 74t-129.5 225t-135 381t-144 542z" />
<glyph unicode="W" horiz-adv-x="1369" d="M37 1327q1 41 22.5 62.5t49.5 26.5q12 6 25 3t24.5 -12t20 -21t11.5 -23v1q15 -132 33 -258t36 -238t36 -206.5t33.5 -163t27.5 -107t19 -38.5q17 0 38.5 34.5t45 109t48.5 190.5t51 279l-18 331q-8 19 6.5 44.5t49.5 36.5q17 8 34 8q29 0 50.5 -19t21.5 -44 q28 -251 53 -435t47 -304t41.5 -178.5t36.5 -58.5q26 0 53.5 67.5t59.5 199t70.5 324t86.5 443.5q1 12 8.5 21.5t19 16.5t25 11t26.5 4q18 0 34 -10q13 -5 25.5 -13.5t21.5 -20t13.5 -25.5t0.5 -29q-75 -356 -139 -603.5t-118 -400.5q-53 -154 -99 -221q-42 -61 -77 -61h-6 q-31 1 -66.5 30.5t-69.5 91.5t-63 159.5t-47 235.5q-16 -100 -47 -188.5t-69 -154.5t-79.5 -104.5t-78.5 -38.5q-35 0 -81 83t-92 242t-87.5 391t-67.5 530z" />
<glyph unicode="X" horiz-adv-x="1281" d="M56 68.5q-11 25.5 3 40.5q33 55 78 125t97 148t107.5 160.5t109.5 160.5q-41 58 -90 131.5t-97 152.5t-91 159t-72 151q-14 22 -14 44q0 18 8.5 34t22.5 24q11 11 23.5 15.5t24.5 4.5q18 0 33 -8.5t21 -19.5q22 -34 52 -78t62.5 -92.5t67 -98.5t67 -96t61.5 -85.5 t50 -67.5q82 117 167.5 238.5t167.5 239.5h-1q13 17 28.5 33t33 29t36 20.5t36.5 7.5q32 0 60 -25q22 -23 40.5 -56.5t18.5 -65.5q0 -18 -6.5 -34.5t-23.5 -27.5q-52 -45 -100 -93t-100 -106.5t-110.5 -129.5t-131.5 -162q56 -72 126 -151t143 -155.5t144 -143.5t128 -115 h-1q17 -17 17 -40q0 -24 -15 -48t-35 -40v1q-14 -10 -30.5 -14.5t-33.5 -4.5q-31 0 -42 11q-70 42 -140 105t-137.5 136t-130.5 151t-119 151q-83 -110 -155.5 -210t-139.5 -194q-26 -36 -50 -69.5t-50 -70.5q-14 -27 -36 -27q-14 0 -29 10q-42 20 -53 45.5z" />
<glyph unicode="Y" horiz-adv-x="1170" d="M24 1328q0 11 4.5 24t11.5 24.5t15.5 20.5t17.5 13l-1 -1q11 3 25.5 6t26.5 3q18 0 32.5 -7.5t19.5 -30.5q40 -90 82 -176t88.5 -161.5t98.5 -138t114 -105.5l-1 2q9 -11 12.5 -25t3.5 -29q3 -22 -9.5 -38t-30.5 -26t-37.5 -14t-32.5 -1q-45 8 -89.5 39t-86 79.5 t-80.5 111t-72.5 133t-62 146.5t-49.5 151zM340 80.5q0 9.5 7 18.5q12 31 27 70t30 83q34 94 76 208t89 232.5t96 234t98 213t95.5 168.5t87.5 101q17 15 43 27t53 12q26 0 48 -15q25 -15 39 -51t14 -72q0 -29 -9.5 -52.5t-29.5 -34.5q-81 -51 -154 -151.5t-143 -238.5 t-140 -306.5t-145 -355.5q-14 -36 -28.5 -72.5t-29.5 -74.5q-8 -5 -23.5 -12t-30.5 -7q-16 0 -31 10l-4 4q-9 11 -17 21.5t-13 20.5t-5 19.5z" />
<glyph unicode="Z" horiz-adv-x="1102" d="M59 1315q0 20 15 34.5t47 21.5h-1q146 19 270 31t224 12q117 0 194.5 -20.5t110.5 -71.5q18 -28 27.5 -65t9.5 -78q0 -35 -7 -69.5t-19 -60.5v1q-5 -9 -10.5 -20.5t-13.5 -22.5q-18 -26 -39 -52.5t-45 -57t-52 -65.5t-62 -78l-84 -116q-8 -8 -22 -26t-32.5 -42.5t-40 -54 t-43.5 -60.5q-19 -27 -40.5 -56.5t-43 -58t-41.5 -54.5t-36 -46q73 8 141 13t129 5q109 0 211.5 -17t200.5 -61q6 -6 11 -17.5t8 -25.5t3.5 -27.5t-2.5 -23.5v-2q0 -4 -2.5 -11t-6.5 -13t-9 -9t-10 1q-61 8 -115.5 13.5t-104.5 9.5t-97.5 5.5t-94.5 1.5q-98 0 -197.5 -7 t-221.5 -19q-29 11 -45 45t-16 72q0 23 5.5 46t15.5 40q18 20 54 67.5t81 106.5q30 40 61 79.5t58.5 74t50 61.5t37.5 43q63 80 116 151.5t92 131.5t60.5 106.5t21.5 77.5q0 23 -15 40q-31 37 -128 37q-69 0 -182 -15t-274 -42q-28 2 -44.5 23.5t-30.5 50.5q-27 33 -27 63z " />
<glyph unicode="[" horiz-adv-x="661" d="M125 686q0 106 2 224.5t5 234t7 222t8 189.5q2 30 33.5 50.5t80.5 28.5q28 5 55.5 6.5t53.5 1.5q23 0 47.5 -0.5t41.5 -1.5q12 -1 22.5 -1h18.5q39 0 50 -22t8 -78q0 -54 -17.5 -74.5t-52.5 -15.5q-26 3 -56.5 7t-58.5 4q-31 0 -52.5 -10.5t-22.5 -47.5l-20 -1603 q0 -28 19 -40.5t43 -16.5q11 -2 27.5 -1.5t36.5 2.5q14 2 30.5 3t33.5 1h15.5t15.5 -1q14 -1 21 -16.5t7 -34.5q0 -21 -8.5 -42t-22.5 -31q-33 -15 -73.5 -21t-78.5 -6q-19 0 -36 1t-32 2q-23 2 -44 6t-37.5 13t-27 24t-11.5 39q-8 117 -14 244t-10 256.5t-5.5 257.5 t-1.5 247z" />
<glyph unicode="\" horiz-adv-x="1040" d="M64.5 1561.5q2.5 12.5 9.5 23.5t17 19.5t20 13.5q14 7 32.5 6t27.5 -16q54 -89 113 -196.5t119 -226t120.5 -242.5t117 -246t108 -237.5t94.5 -215.5t75.5 -181t51.5 -133q6 -14 5 -24t-5.5 -17.5t-10.5 -13t-12 -10.5q-19 -17 -38.5 -13.5t-30.5 23.5 q-54 106 -121 236.5t-140 274.5t-148.5 296.5t-147.5 301.5t-137 290t-116 262q-6 13 -3.5 25.5z" />
<glyph unicode="]" horiz-adv-x="661" d="M75 1571q0 38 15 53.5t43 15.5q7 0 16.5 0.5t21.5 0.5q17 0 38 0.5t44 0.5q36 0 65.5 -2t56.5 -7q23 -3 44 -6.5t37 -11.5t26 -22t12 -38q5 -84 9 -187t6.5 -212.5t4 -220.5t1.5 -212q0 -137 -2 -279.5t-6.5 -279t-10.5 -260.5t-13 -224q-2 -20 -12.5 -33t-27.5 -21 t-40.5 -13t-50.5 -9q-35 -6 -72 -6q-34 0 -70.5 5.5t-74.5 14.5q-21 7 -25.5 21.5t-4.5 44.5q0 12 0.5 22t3.5 18t10 12.5t20 4.5q21 0 36.5 -0.5t29.5 -0.5q9 0 17 -0.5t16 -0.5q11 0 22.5 0.5t21.5 1.5q21 1 33.5 11t19.5 28t9.5 43.5t2.5 55.5q0 21 0.5 49t0.5 57.5v57 v48.5q0 121 -2 240.5t-4 244.5q-2 65 -3 142t-2.5 158.5t-2 162.5t-0.5 153q0 32 0.5 64.5t0.5 66.5q0 48 -2 73.5t-8.5 37.5t-19 14t-33.5 2l-64 -2l-64 -2q-20 0 -31.5 5t-18.5 16t-10.5 29t-6.5 45q-1 8 -1.5 16.5t-0.5 13.5z" />
<glyph unicode="^" horiz-adv-x="967" d="M138 1280q0 27 11 44q96 143 185.5 219t169.5 76q76 0 150.5 -83t160.5 -246q3 -10 5 -20.5t2 -20.5q0 -11 -2.5 -21t-10.5 -17l1 1q-14 -9 -28.5 -15.5t-25.5 -6.5q-16 0 -21 11q-11 16 -23 31.5t-22 29.5q-57 78 -95.5 124t-67.5 46q-33 0 -69.5 -45.5t-89.5 -135.5 q-7 -14 -20 -32t-30 -34t-37 -26.5t-41 -10.5q-19 0 -38 12q-33 21 -48.5 55.5t-15.5 64.5z" />
<glyph unicode="_" horiz-adv-x="1051" d="M58 -303q0 13 4.5 27t11.5 24.5t16 17.5t17 7q84 5 162 7.5t148 4.5q55 1 111.5 3t119 4.5t132.5 6t152 8.5q32 6 51 -17.5t23 -69.5v-1q4 -21 -0.5 -38.5t-16 -30.5t-27 -21t-32.5 -9q-109 -10 -195.5 -14t-157.5 -4q-87 0 -154.5 4.5t-127.5 9.5q-46 4 -90 7t-92 4 q-18 0 -36.5 20t-18.5 50z" />
<glyph unicode="`" horiz-adv-x="657" d="M111 1456q0 23 8.5 46t20.5 42v-1q17 25 38.5 41t41.5 16t31 -17q58 -86 97.5 -150t68.5 -120.5t51.5 -114t47.5 -131.5l2 -2q8 -11 1.5 -26t-17.5 -26q-11 -2 -26.5 0.5t-23.5 15.5q-45 72 -83 125t-75.5 96.5t-77.5 81.5t-89 80q-8 8 -12 20.5t-4 23.5z" />
<glyph unicode="a" horiz-adv-x="1032" d="M86 416q0 53 10 111.5t27 113.5q23 68 55.5 128t72 108.5t84.5 84t95 53.5q27 14 57 21t61 7q57 0 111.5 -26t105.5 -80q6 -9 6 -31t-9 -49.5t-27 -50.5q-13 -15 -27 -27t-26.5 -18t-22 -5t-13.5 12q-64 61 -130 61q-36 0 -69 -16v1q-64 -22 -116.5 -85t-84.5 -160 q-12 -33 -18 -66.5t-6 -65.5q0 -38 8.5 -70.5t24.5 -57.5t40 -41t54 -20h-2q9 -3 19 -4t21 -1q42 0 86 23.5t82 69t67.5 112.5t41.5 154q1 7 8 13.5t17.5 11.5t24 8t27.5 3q15 0 28.5 -3.5t24.5 -12.5h-1q20 -20 31 -42t11 -42q0 -24 -15 -42q3 -41 13.5 -81t26.5 -74.5 t37 -61t46 -39.5q27 -16 27 -56q0 -37 -31 -87q-19 -20 -41.5 -34t-42.5 -14q-9 0 -18.5 2.5t-16.5 9.5q-29 26 -57.5 83t-51.5 134q-23 -46 -57.5 -89.5t-76 -77.5t-88.5 -54.5t-93 -20.5q-42 0 -83 19q-59 15 -102 49t-71 82t-41 107t-13 123z" />
<glyph unicode="b" horiz-adv-x="1053" d="M96 223q3 87 7.5 169.5t9.5 165.5q7 122 13 245t6 254q0 106 -5 218t-18 234q-2 11 -2 21q-1 24 13 41q20 24 56 24q10 1 19 1q29 0 44 -12q20 -16 24 -50q24 -133 34 -262t10 -246q0 -93 -5.5 -181t-14.5 -166q42 52 92 94.5t102.5 72.5t106 46.5t104.5 16.5 q41 0 79.5 -11t73.5 -34v1q64 -50 98 -133.5t34 -183.5q0 -63 -14.5 -127.5t-45.5 -125.5q-31 -60 -81.5 -114t-117.5 -95t-148 -65.5t-172 -24.5q-12 0 -24 0.5t-24 1.5q-32 0 -32 59q-4 16 -4 29q0 24 12.5 35.5t30.5 11.5q75 0 144 21t127 57t101 83t64 98q34 83 34 157 q0 50 -16.5 91.5t-54.5 67.5q-24 15 -60 15q-51 0 -115 -31t-124 -90.5t-107 -145.5t-65 -196q-5 -32 -13 -53t-18 -33t-21.5 -17t-22.5 -5q-16 -6 -37 -3t-39 12.5t-29.5 25t-8.5 36.5z" />
<glyph unicode="c" d="M88 408q0 87 37 175t104 168.5t160 149.5t204 117q21 11 39.5 -1.5t26.5 -36.5q5 -5 6.5 -13t1.5 -16q0 -23 -6 -43t-13 -25q-84 -45 -154.5 -96.5t-121.5 -107.5t-79.5 -116t-28.5 -123q0 -29 8 -54.5t23.5 -46.5t38 -35t51.5 -19h-1q47 -14 109 -14q59 0 132 15t163 49 q12 7 25 2.5t24.5 -18t18.5 -35t7 -48.5t-6.5 -50t-16 -40.5t-20.5 -29t-20 -16.5q-91 -23 -176.5 -36t-156.5 -13q-56 0 -104.5 8t-87.5 25h1q-91 47 -139.5 124.5t-48.5 199.5z" />
<glyph unicode="d" horiz-adv-x="1121" d="M82 373q0 59 14.5 120t44.5 118t76 108t107.5 90t139.5 63.5t173 30.5q24 7 37 -3.5t27 -28.5l-2 2q6 -19 8.5 -32t2.5 -22q0 -21 -12 -27.5t-27 -8.5q-102 -11 -176.5 -53.5t-124 -100t-73.5 -121.5t-24 -117q0 -23 3 -39q10 -35 32 -63t52 -47.5t65 -29.5q29 -9 61 -9 h12q42 1 87.5 22t85 58.5t67.5 91t34 120.5q13 113 15.5 250.5t2.5 294.5q0 111 0.5 232.5t5.5 256.5q0 27 20.5 49.5t67.5 22.5q28 6 43 6q25 0 33 -12.5t10 -31.5q8 -93 11.5 -179.5t2.5 -165.5q0 -131 -6 -244.5t-13 -219.5l-2 -32l-2 -32q-1 -41 -1 -76.5v-67.5 q0 -92 2.5 -156t7 -113t11 -89.5t14.5 -83.5l1 -2q6 -11 3 -22.5t-12 -23t-23 -22.5t-30 -21q-18 -6 -33 -6q-28 0 -43.5 17t-24.5 46q-6 12 -11.5 23.5t-10 26.5t-8.5 34t-7 45q-75 -87 -164 -133t-178 -46q-14 0 -28.5 1.5t-30.5 3.5q-48 4 -92.5 19.5t-82.5 41.5 t-67.5 62.5t-47.5 83.5q-11 33 -17 69.5t-6 71.5z" />
<glyph unicode="e" horiz-adv-x="1009" d="M98 496q0 61 13.5 120.5t40 113.5t65 101t89.5 85q67 51 144 75.5t152 24.5q64 0 123 -18.5t103.5 -55.5t71 -92.5t26.5 -130.5q0 -38 -9 -74.5t-24 -68.5t-34 -58t-38 -42q-37 -32 -83.5 -57.5t-98 -43t-105.5 -26.5t-106 -9q-13 0 -26.5 1.5t-25.5 7.5t-22 19.5 t-16 37.5v-1q-3 19 1.5 38t13.5 33.5t21 23t24 7.5q10 -1 21 -1q25 0 55 4q44 4 88 13.5t83 23t61 31.5q25 21 40 43t23 44t11 43.5t3 41.5q-1 20 -13.5 37t-34 29.5t-50 19.5t-60.5 7q-44 0 -92.5 -16.5t-91.5 -49.5q-81 -67 -123 -146.5t-42 -152.5q0 -62 26 -125 q27 -46 58 -80t68.5 -56t83 -33t102.5 -11q20 0 41 1.5t42 3.5q31 7 47.5 -12.5t16.5 -47.5q0 -24 -13.5 -45t-42.5 -29q-46 -12 -87 -17.5t-80 -5.5q-77 0 -140.5 20.5t-113.5 56t-86 83.5t-58 104q-20 52 -31 104.5t-11 106.5z" />
<glyph unicode="f" horiz-adv-x="1077" d="M41 655q1 22 4.5 35t9.5 20.5t15.5 11t23.5 7.5q9 3 21 6q29 9 65 15.5t73 11t72 6.5t62 2q-2 20 -5 47.5t-5 53.5q-3 32 -6.5 66t-6.5 67t-4.5 63.5t-1.5 56.5q0 118 20 207.5t54.5 149.5t80 90t96.5 30h6q48 0 101 -28q55 -30 109.5 -91t104 -152.5t87.5 -212.5l1 -1 q9 -20 2 -44t-32 -34q-10 -10 -24 -10q-13 0 -26 8.5t-22 22.5v-1q-34 79 -69 139t-68 100.5t-63 60.5t-54 20q-23 0 -43.5 -14.5t-36.5 -45t-26.5 -78.5t-14.5 -114q0 -26 1.5 -65.5t5 -86.5t9.5 -97.5t16 -96.5q108 7 209.5 10t182.5 3q17 0 29.5 -12t17.5 -27 q2 -11 3 -20t1 -17q0 -29 -11 -42t-28 -18q-17 -2 -35 -4t-34 -4q-81 -9 -160.5 -17t-157.5 -10q0 -14 0.5 -31t0.5 -30q0 -165 -17.5 -284t-32.5 -195q-5 -26 -9 -48.5t-6 -41.5q-8 -27 -20 -44.5t-32 -17.5q-14 0 -31 8q-14 4 -25 16.5t-11 39.5q0 11 3 28q5 31 10 65 t8.5 72.5t6 83.5t2.5 98q0 51 -3 113.5t-8 132.5q-74 -5 -154.5 -9.5t-154.5 -9.5q-12 0 -26.5 3.5t-26.5 12.5t-19 26t-4 45z" />
<glyph unicode="g" horiz-adv-x="1102" d="M91 499q0 92 22.5 183t65.5 163.5t106 117.5t143 45q11 0 22 -1t23 -3q43 -7 84 -29.5t74 -60t55 -90.5t27 -120q2 -20 -2.5 -34t-12 -23t-17.5 -14.5t-20 -9.5l1 1q-23 -8 -36 4.5t-18 32.5q-16 76 -56 112.5t-90 43.5q-9 1 -19 1q-37 0 -67 -20q-37 -25 -61.5 -70 t-36.5 -103t-12 -118q0 -63 13.5 -122t40.5 -98q23 -26 46 -37.5t48 -11.5q34 0 69.5 21.5t73.5 59.5q67 71 129 164.5t108 190.5q4 5 13 14.5t20.5 19.5t25 17.5t28.5 9.5q24 5 43 -1t32.5 -18.5t20.5 -28t6 -29.5q-3 -108 -10.5 -229.5t-26.5 -240.5t-54 -227t-93.5 -189 t-144.5 -127q-76 -41 -180 -41q-14 0 -28 1q-80 3 -149.5 34t-114.5 102q-17 27 -26.5 52t-9.5 48q0 32 19 57t63 42q24 9 42 9q30 0 42.5 -20.5t6.5 -45.5q-8 -34 2.5 -61.5t32.5 -46.5t50 -29t55 -10q59 0 105.5 22t82.5 59.5t61.5 87.5t42.5 106t27 115.5t14 115.5 q0 23 -6.5 40t-19.5 17q-21 0 -55.5 -29.5t-80.5 -72.5q-24 -23 -51 -45t-57.5 -39.5t-63.5 -28.5t-68 -11q-41 0 -83.5 17t-86.5 58q-33 27 -57.5 65.5t-40 84t-23.5 97t-8 104.5z" />
<glyph unicode="h" horiz-adv-x="1032" d="M118 377q0 111 3.5 249t11 293t20 321.5t30.5 334.5q0 23 9.5 35t35.5 12q27 0 68 -10q56 -12 79.5 -32t15.5 -40q-19 -123 -38 -251t-34 -249.5t-24 -231.5t-9 -197q0 -82 9 -137q5 -12 11.5 -8t19.5 24q8 17 31 53q35 64 75 124t82 106t86 73q42 26 83 26h3 q43 0 86.5 -36t82 -120.5t70.5 -225t52 -349.5q2 -19 -2 -37t-14.5 -32.5t-27 -24t-39.5 -11.5q-15 -4 -30 1t-27.5 15.5t-21 24.5t-10.5 28q-5 157 -15 271.5t-27 189.5t-41 111t-56 36q-38 0 -82 -47.5t-92 -128.5t-97 -187t-97 -223q-6 -27 -30.5 -49t-58.5 -22 q-14 0 -29.5 7.5t-28 18.5t-20.5 25t-8 28q-2 42 -3.5 103.5t-1.5 138.5z" />
<glyph unicode="i" horiz-adv-x="502" d="M161 653q0 69 8 133t28 122q2 6 10 15.5t20 18.5t26 15.5t28 6.5q11 0 24.5 -4.5t25 -12t20 -17.5t8.5 -20q0 -5 -1 -7t-2 -5q-7 -91 -8 -179t-1 -179q0 -114 -2.5 -232.5t-16.5 -256.5q-5 -23 -17.5 -38t-25.5 -15q-20 0 -43 15.5t-32 39.5q-3 62 -9 126t-14 130 q-10 86 -18 175t-8 169zM182 1342q0 26 5.5 57.5t16.5 63.5q5 19 24.5 28.5t43.5 9.5q38 0 75 -22h1q25 -13 42 -32t17 -44q0 -23 -15.5 -50t-53.5 -58q-33 -26 -58.5 -40t-45.5 -14q-18 0 -32 14v-1q-9 11 -14.5 34t-5.5 54z" />
<glyph unicode="j" horiz-adv-x="642" d="M28 -107q4 16 13.5 29t22.5 21.5t27 8.5q20 0 34.5 -3.5t28.5 -25.5v1l14 -32t13 -30q9 -21 17.5 -39t17.5 -29.5t19 -15.5t23 2q31 13 50 53.5t29.5 94t14.5 114t4 114.5q0 23 -0.5 43t-1.5 39q-2 40 -5 93t-7.5 111.5t-10.5 119.5t-12.5 120t-14.5 111.5t-17 92.5 q0 12 5 27t14.5 28.5t23 23.5t30.5 12q24 6 46 1t39 -16t27.5 -25t12.5 -25q18 -85 25.5 -191t7.5 -219q0 -80 -3.5 -161t-9.5 -157.5t-15 -146t-19 -127.5q-12 -79 -31.5 -133.5t-42 -89.5t-48 -53.5t-49.5 -26.5q-15 -5 -26 -5q-27 0 -58.5 18.5t-63.5 52t-64 81.5 t-59 108q-5 15 -1 31zM272 1333q0 29 3.5 62.5t11.5 68.5q4 21 24 31.5t45 10.5q35 0 62 -18q34 -16 57 -38.5t23 -51.5q0 -23 -17 -50t-55 -59l-1 -1q-29 -32 -54 -45.5t-45 -13.5q-14 0 -24 6t-17 15q-13 22 -13 83z" />
<glyph unicode="k" horiz-adv-x="984" d="M93 818q0 87 5 178.5t17 186.5t32 193t51 198l-1 -1q6 13 22.5 28t39.5 15q13 0 28 -8q23 -5 42 -23t20 -60q-21 -144 -35.5 -282.5t-23.5 -275t-15 -274t-11 -279.5q42 85 90 168.5t101.5 159.5t111.5 140.5t119 110.5q34 25 66 25q28 0 51 -17t40 -49q5 -23 5 -36 q0 -38 -21 -72t-55 -63v1q-64 -45 -117 -90.5t-101 -96.5t-93.5 -110t-94.5 -131q-5 -7 -14 -9.5t-18.5 -2.5t-18.5 2t-15 3q-11 2 -20.5 12.5t-16.5 30.5q-2 -67 -3.5 -135.5t-4.5 -139.5q0 -35 -16 -55.5t-52 -12.5q-8 0 -18 4.5t-18.5 12.5t-14.5 18.5t-6 22.5 q-1 60 -6 128t-10 143q-8 101 -14.5 211t-6.5 231zM467 436q0 16 8 31.5t19 22.5q10 14 21.5 20t23.5 6q15 0 28.5 -7.5t21.5 -18.5q68 -89 155 -166t200 -126q16 -7 16 -30q0 -12 -4.5 -25t-12.5 -26t-18.5 -23t-22.5 -16q-9 -6 -21.5 -8t-26.5 -2q-20 0 -40 4.5t-31 8.5 v-1q-91 34 -170.5 121t-138.5 210q-5 5 -6 11.5t-1 13.5z" />
<glyph unicode="l" horiz-adv-x="502" d="M161 834q0 137 7.5 297.5t24.5 344.5q0 12 3.5 26t11.5 26t21.5 20t34.5 8q13 0 29 -4q26 -3 44.5 -14t29.5 -26t15 -32.5t2 -33.5q-35 -270 -51.5 -486.5t-16.5 -381.5q0 -106 7.5 -192t19.5 -146l24 -120q0 -17 -2 -29t-15 -15q-6 -6 -15 -10t-18 -4q-8 0 -15 3.5 t-15 13.5q-20 17 -36 47.5t-30 62.5q-2 6 -5 12t-5 11l1 -1q-18 65 -34.5 223.5t-16.5 399.5z" />
<glyph unicode="m" horiz-adv-x="1511" d="M121 627q0 83 3.5 170t11.5 172q1 18 13 30t29.5 19t38.5 10t41 3q-1 0 -1 1l3 -1h-1q18 -8 33.5 -15.5t27 -17.5t18.5 -24t6 -33q0 -18 -5 -42q-9 -44 -15 -96t-9.5 -102t-5 -92t-1.5 -64q16 54 37.5 108t45.5 102.5t50 88.5t53 66q40 45 80.5 65.5t82.5 20.5 q20 0 39 -4t40 -12h-1q21 -10 43 -35t41.5 -62t35 -84.5t21.5 -102.5q38 78 84 144t94 106q24 23 53 32t59 9q26 0 48.5 -6.5t38.5 -17.5v1q19 -17 37.5 -35.5t34 -43t28.5 -57t22 -76.5v1q9 -48 13.5 -112t4.5 -141q0 -78 -4.5 -167t-13.5 -188q-2 -18 -11.5 -32.5t-24 -24 t-32.5 -13.5t-36 -1q-27 7 -45.5 20t-28.5 27t-12.5 28t2.5 25q19 113 27.5 206.5t8.5 168.5q0 57 -5 103t-13 78q-6 25 -15 44t-19 31.5t-20.5 17.5t-18.5 2h1q-62 -17 -125.5 -168t-136.5 -456q-2 -10 -4.5 -20.5t-4.5 -20.5q-7 -23 -19 -41t-27 -28.5t-31.5 -13.5 t-31.5 3q-18 7 -33.5 19t-26.5 28t-15.5 36t0.5 42q17 105 25 193.5t8 160.5q0 49 -3.5 88.5t-8.5 68.5q-23 110 -59 110q-4 0 -7 -1q-32 -12 -64.5 -50t-70 -116t-81.5 -202t-98 -307l1 1q-2 -5 -8 -16.5t-17 -23.5t-26.5 -21t-36.5 -9q-25 3 -47 19t-25 51q-19 83 -29 207 t-10 269z" />
<glyph unicode="n" horiz-adv-x="1032" d="M116 619q0 83 6 168t17 171q0 29 24 39t53 10q22 0 47 -5q38 -9 62 -26.5t24 -49.5q0 -14 -6 -32q-5 -32 -10.5 -78t-9.5 -92.5t-6.5 -86.5t-2.5 -59q45 115 94.5 197.5t109.5 136.5q37 29 76.5 46t77.5 17q40 0 79 -21q49 -29 83.5 -91.5t58.5 -165.5q17 -60 25.5 -133 t8.5 -165q0 -60 -4.5 -129.5t-12.5 -149.5q-6 -40 -30 -56t-63 -16q-6 0 -15 0.5t-17 1.5q-16 3 -31.5 12t-26.5 23t-16.5 32.5t-1.5 41.5v-1q20 94 28.5 170.5t8.5 139.5q0 60 -6 107t-15 85q-18 75 -44.5 112t-47.5 37q-37 -7 -73.5 -46t-75 -118.5t-80 -202t-87.5 -295.5 q-2 -14 -8.5 -30t-17.5 -30t-25.5 -23.5t-31.5 -9.5q-16 0 -28 7t-20 17t-12.5 22t-5.5 22q-23 103 -37.5 230t-14.5 267z" />
<glyph unicode="o" d="M57 468q0 59 9.5 122.5t30 127t51.5 124.5t74 116q14 20 32 28t37 8q14 0 27.5 -4t24.5 -10h-1q31 -23 43 -63q60 37 112.5 53.5t98.5 16.5q77 0 136 -38t94 -101v1q18 -38 28.5 -84.5t10.5 -99.5q0 -81 -28 -170.5t-91 -179.5q-11 -17 -22 -33.5l-21 -31.5 q-26 -39 -51 -73.5t-52 -63t-58 -49.5t-69 -33q-22 -5 -42.5 -8t-40.5 -3q-61 0 -113 24.5t-93 68t-70 102.5t-44 128q-6 29 -9.5 61t-3.5 64zM246 400q0 -46 10.5 -83t29 -63t43.5 -39t55 -10q42 4 81 15t73.5 34t63 61.5t51.5 96.5q31 82 45 147t14 114q0 89 -46 130 q-21 16 -50 16q-51 0 -131 -43.5t-181 -136.5q-30 -67 -44 -127.5t-14 -111.5z" />
<glyph unicode="p" horiz-adv-x="1009" d="M98 828q0 28 3.5 54.5t10.5 47.5t18 33.5t25 13.5q44 -2 87 -2t85 -1q106 -1 202 -5t176 -24t141.5 -62.5t97.5 -120.5q21 -45 32 -86t11 -81q0 -86 -57 -174q-24 -47 -70 -98t-106 -103t-128.5 -104t-137.5 -101q-16 -14 -35 -5.5t-35 33.5q-2 4 -4 13.5t-2 21.5 q0 14 4 28t17 20q60 49 116.5 98.5t104 96t82.5 88t52 73.5q15 52 15 93q0 47 -23 96q-18 28 -50.5 45.5t-75.5 27t-94.5 12.5t-106.5 3q-32 0 -64.5 -0.5t-64.5 -1.5t-62.5 -1.5t-60.5 -0.5q-45 0 -68 15.5t-35 57.5zM127 214q0 83 8.5 179.5t30.5 221.5q3 16 7 31.5 t11.5 27.5t20 19.5t30.5 7.5q13 0 28 -4q19 -5 34.5 -18t25 -31.5t13 -41t-0.5 -45.5q-13 -80 -21.5 -142t-13 -110.5t-6.5 -88t-2 -74.5q0 -59 3 -119q2 -42 3.5 -92.5t1.5 -119.5q0 -36 -0.5 -76.5t-2.5 -88.5q0 -15 -5.5 -29t-14.5 -24t-21 -14.5t-25 -1.5 q-27 0 -43.5 19t-19.5 51v-1q-4 75 -9.5 140.5t-11.5 125.5q-8 75 -14 147t-6 151z" />
<glyph unicode="q" horiz-adv-x="1077" d="M60 414q0 70 13.5 142t38 140t59.5 127.5t77.5 104t91.5 70.5t102 26q27 0 60 -9q86 -19 147.5 -101t94.5 -209q0 -30 -10.5 -45t-29.5 -32q-9 -1 -19 -1t-20 2.5t-17 9.5t-10 19q-13 41 -29 69t-35.5 47t-43.5 30t-52 19q-29 7 -57 -7t-53.5 -43t-47 -70t-37.5 -88 t-25 -97t-9 -97q0 -65 15 -111q20 -40 46 -58.5t56 -18.5q32 0 66.5 17t72.5 49l-1 -1q40 22 81.5 59t81.5 81.5t77 92.5t68 92q19 19 48 38t62 19q19 0 36.5 -6.5t30.5 -16t19.5 -21.5t3.5 -23q-30 -135 -50.5 -241.5t-32.5 -192.5t-17 -156t-5 -134q0 -57 3 -109.5 t8 -109.5q8 -26 -13 -50t-63 -39h2q-11 -2 -21 -2q-29 0 -49 17q-26 21 -30 51q-1 50 -1.5 90t-0.5 75q0 55 1.5 100.5t5 89.5t8.5 90.5t12 103.5q2 14 4.5 30t2.5 27q0 18 -6 28t-21 10q-16 0 -43 -18.5t-74 -61.5q-32 -31 -69 -61t-77.5 -53.5t-83 -38t-84.5 -14.5 q-49 0 -94.5 23t-86.5 78q-41 52 -59 121.5t-18 147.5z" />
<glyph unicode="r" horiz-adv-x="872" d="M130 922q0 35 34 54t82 19q26 0 49.5 -4t39 -13t21.5 -24.5t-3 -38.5q-19 -75 -26.5 -136.5t-7.5 -93.5q17 29 45.5 62t63.5 65.5t75.5 63t82 55t83 41.5t78.5 23q28 5 49 -4t25 -40l1 -2q6 -15 6 -28q0 -19 -11.5 -33t-19.5 -21q-17 -13 -36 -25l-38 -24 q-36 -24 -75 -50.5t-75.5 -54t-67.5 -56t-52 -56.5q-51 -71 -86 -194.5t-35 -301.5q0 -17 -9 -27.5t-22.5 -16.5t-29.5 -8.5t-31 -2.5q-26 0 -48.5 9.5t-37.5 45.5q2 45 3 87t1 84q0 106 -5 200.5t-10 184.5q-5 67 -8 131t-5 130zM153 108l1 -3q-1 1 -1 3z" />
<glyph unicode="s" horiz-adv-x="847" d="M90 726q0 64 48 118.5t127.5 93.5t181 61t208.5 22q21 0 35 -22.5t14 -60.5q0 -5 -0.5 -13t-1.5 -15q-3 -24 -8.5 -44.5t-13.5 -35.5t-19.5 -23.5t-27.5 -8.5q-72 0 -138.5 -7.5t-117 -19.5t-81 -28t-30.5 -33q0 -23 14.5 -38.5t39 -26t56.5 -18t68 -14.5q51 -10 107 -25 t102.5 -42.5t76.5 -71.5t30 -111q0 -51 -14.5 -96.5t-37.5 -81t-50.5 -59.5t-52.5 -33q-94 -37 -199 -49.5t-234 -12.5q-13 0 -24 4t-18 16t-10 33.5t-1 55.5v-1q2 31 9.5 51t16.5 31.5t18 16t15 4.5q93 0 169.5 3t135.5 21q50 19 76 42.5t26 67.5q0 19 -11.5 30.5t-32 18.5 t-48 11t-59.5 8q-36 5 -75 11t-77.5 17.5t-73 30.5t-61 49t-42 72.5t-15.5 101.5z" />
<glyph unicode="t" horiz-adv-x="874" d="M28 855q0 20 4 32.5t11.5 21t18 14.5t23.5 12l-2 -1q34 6 64.5 10.5t60.5 7t61.5 4t66.5 3.5q5 76 10.5 157t10.5 157q3 23 23.5 38t53.5 15q16 0 32 -4q23 -2 44.5 -5.5t37 -11t23.5 -19t5 -27.5l-33 -304h34t36 1q17 1 34 1.5t36 0.5q23 0 47.5 -1.5t49.5 -5.5 q26 -5 42.5 -24t19.5 -48q3 -23 0.5 -37.5t-8.5 -24t-15 -15t-18 -9.5l2 1l-276 -35q-2 -58 -3.5 -112.5t-1.5 -99.5q0 -76 5.5 -137.5t16.5 -100.5q14 -57 41 -96.5t50 -59.5q21 -11 34 -34t7 -49q-3 -15 -10.5 -26.5t-18.5 -18t-23 -8.5t-24 2v-1q-32 15 -62.5 32 t-56.5 38.5t-47 49t-33 63.5q-37 76 -55 210.5t-18 306.5v38l-217 -27q-20 -5 -34 1t-24 19.5t-15.5 33t-7.5 41.5q-1 8 -1.5 15.5t-0.5 15.5z" />
<glyph unicode="u" horiz-adv-x="1009" d="M98 627q0 120 24 275q1 9 9.5 21.5t23 23t35 16.5t45.5 3q18 0 33.5 -7t27.5 -18t19 -24.5t7 -26.5q-14 -93 -21.5 -172t-7.5 -140q0 -59 5.5 -106.5t14.5 -86.5q12 -40 30 -68.5t40 -47t46.5 -28.5t49.5 -13q5 -1 10 -1q41 0 86 38q50 42 86 124q17 59 25.5 137.5 t8.5 184.5q0 44 -1.5 93.5t-4.5 102.5v11q0 30 19.5 48t66.5 29q23 0 40.5 -6.5t30 -15.5t20 -18.5t10.5 -15.5q6 -45 9 -89t3 -92q0 -44 -2.5 -91.5t-7.5 -99.5q-2 -35 -3.5 -66.5t-1.5 -57.5q0 -78 9 -133.5t20 -100.5q2 -11 5 -22t6 -23v-1q9 -32 -6.5 -55.5t-50.5 -45.5 h1q-13 -5 -24.5 -7.5t-22.5 -2.5q-20 0 -33.5 9.5t-18.5 27.5q-8 11 -16.5 38t-14.5 50q-25 -34 -57.5 -59.5t-68 -41.5t-73.5 -22q-26 -4 -50 -5q-11 0 -22 1q-46 3 -90 19.5t-82.5 46t-70 70t-53.5 91.5q-29 67 -45.5 153t-16.5 197z" />
<glyph unicode="v" d="M63 884q0 32 16 55t43 33q18 5 33 5q23 0 41.5 -11t24.5 -31q18 -89 36 -170t34.5 -151.5t31.5 -127.5t27 -98q7 -24 17 -48t21.5 -43.5t22.5 -31.5t22 -12q15 0 28.5 12.5t25 32t20.5 43.5t15 47v-1q17 51 40.5 145.5t51.5 209.5q12 51 25 108t28 120q3 19 25 30.5 t51 11.5q30 0 60 -12q43 -20 56.5 -52t8.5 -58v1q-29 -114 -56.5 -208.5t-52 -172t-47 -138.5t-42.5 -108q-32 -69 -62 -113.5t-60 -70t-60 -33.5t-60 -3q-25 4 -50 16.5t-49.5 38.5t-48 67.5t-44.5 103.5q-32 79 -65.5 196.5t-71.5 262.5q-6 25 -12.5 50t-14.5 51 q-9 30 -9 54z" />
<glyph unicode="w" horiz-adv-x="1237" d="M56.5 894.5q1.5 14.5 9 29.5t22.5 27t41 15q17 6 31.5 3t25 -10.5t17.5 -18.5t9 -21q8 -49 21 -115t28 -137t32 -140.5t33 -124.5t29.5 -89t23.5 -34q13 0 29 28t32.5 74.5t32.5 106.5t30 125q-3 15 -7.5 48t-10 71.5t-10 76.5t-7.5 62q-5 11 -4.5 26t6.5 29.5t17.5 26.5 t29.5 17q19 11 32 11q22 0 38.5 -18t21.5 -47v1q8 -69 22 -145.5t31 -151.5t35 -143.5t34.5 -120.5t29.5 -83t20 -31q8 0 20 24t26 65t29.5 96.5t32 118.5t33 131t31.5 133q8 32 14.5 61.5t13.5 58.5q1 12 8 23.5t19 21t28 15t34 5.5q17 0 38 -6q19 -6 32 -20.5t20 -31 t8 -34t-4 -29.5l-1 -1q-16 -57 -29.5 -111.5t-27.5 -107.5q-37 -142 -69 -253t-65 -171q-23 -56 -46.5 -92.5t-46.5 -58.5t-45.5 -30.5t-44.5 -8.5q-47 0 -104 73t-113 234q-50 -140 -98 -209t-99 -69q-36 0 -77.5 41.5t-81.5 142.5q-15 34 -31.5 89.5t-34 125.5t-36 150.5 t-37.5 164.5q-5 23 -10 45t-10 45v-1q-2 8 -0.5 22.5z" />
<glyph unicode="x" horiz-adv-x="847" d="M54 135q0 14 13 34q17 26 43 61t54 72q33 43 68 90.5t62 86.5q-22 36 -49.5 86t-55 103t-51 102.5t-38.5 84.5q-7 10 -7 25q0 17 8.5 31.5t20.5 24.5q23 20 44 20q28 0 52 -32q16 -22 31.5 -47t32.5 -53q30 -45 60 -91t66 -84q13 20 29.5 43.5t30.5 43.5t29 41.5 t28.5 41.5t24.5 38.5t18 32.5v-1q15 27 36.5 42t45.5 15q27 0 47 -17h-1q23 -23 37 -44.5t14 -41.5q0 -25 -24 -48v1q-23 -23 -50 -57t-56 -71q-24 -31 -51.5 -64.5t-64.5 -73.5q26 -38 62.5 -87t74.5 -96.5t73.5 -86.5t59.5 -57q14 -11 19.5 -23.5t5.5 -24.5q0 -15 -8 -28 t-20 -21l-12 -6q-13 -7 -25.5 -12t-24.5 -5q-8 0 -16.5 2.5t-17.5 10.5q-32 11 -71.5 43t-79 72.5t-76 85t-62.5 80.5q-19 -29 -44.5 -68.5t-50.5 -75.5q-9 -14 -20 -31t-22.5 -35t-22.5 -34.5t-19 -29.5q-13 -17 -29 -28t-33 -11t-36 12q-20 13 -36 26t-16 33z" />
<glyph unicode="y" horiz-adv-x="1077" d="M85 760q0 26 0.5 51t1.5 52q0 20 8.5 34t22.5 23t32.5 13.5t39.5 4.5q20 0 37.5 -6.5t29.5 -17.5t17.5 -26.5t1.5 -33.5q-4 -63 -6 -120.5t-2 -107.5q0 -85 8 -148.5t31 -105.5v1q15 -35 34.5 -55t41.5 -30t45.5 -13t45.5 -3q48 0 94 23t96 84q48 71 72.5 203.5 t24.5 333.5q0 15 9 26.5t23 20t31 13t33 5.5q46 -8 76.5 -23t30.5 -44q-2 -200 -8 -353.5t-14 -269t-18 -196.5t-20.5 -136.5t-21.5 -89t-20 -53.5q-24 -51 -62 -89t-82.5 -63t-91.5 -37q-43 -11 -83 -11h-7q-36 1 -72 7t-69 22t-62 43.5t-52 71.5q-7 9 -9.5 18t-2.5 17 q0 15 6 26t12 13q13 11 28.5 19t29.5 8q20 0 29 -22q35 -39 76 -57q31 -15 62 -15q9 0 17 1q76 13 119.5 44.5t66.5 81t31 117t14 151.5q2 17 4 39.5t0 51.5q-20 -30 -54.5 -56.5t-75.5 -47t-83.5 -32.5t-76.5 -12q-92 0 -167 46t-131 127q-48 81 -69.5 205.5t-21.5 276.5z " />
<glyph unicode="z" horiz-adv-x="849" d="M44 919q0 27 15 47.5t39 22.5q69 9 138.5 12t132.5 3h56t50 -1q20 0 37 -0.5t31 -0.5q44 0 77.5 -6t57.5 -15.5t39 -22t24 -25.5q22 -32 34.5 -69t12.5 -75q0 -49 -24 -98t-82 -91q-44 -32 -87.5 -68t-90 -79.5t-97 -94t-106.5 -110.5h20q51 0 107 -4q66 -5 126 -14.5 t112 -22.5t87 -28q5 -3 10.5 -5t10.5 -4q9 -4 17 -8t14.5 -10t10.5 -15t5 -22q1 -23 -7 -36t-20.5 -19t-27.5 -7t-28 1h1q-54 11 -113.5 15.5t-120.5 4.5q-98 0 -191.5 -10.5t-172.5 -27.5q-19 -6 -33.5 1.5t-24.5 22.5t-15 35.5t-5 41.5q0 19 4.5 36.5t12.5 28.5 q42 55 95.5 118t109 124.5t110 116.5t98.5 93q17 16 34.5 33t31 34.5t22 34t8.5 33.5q0 21 -18 41q-6 5 -24.5 7.5t-44 4t-54.5 1.5h-55q-97 -14 -267 -53q-17 1 -37.5 21t-34.5 68q-10 21 -10 40z" />
<glyph unicode="{" horiz-adv-x="802" d="M90.5 595.5q-2.5 29.5 6.5 55t32 34.5q29 10 57.5 22t53 28.5t43.5 38t31 51.5q11 30 17.5 64.5t6.5 79.5q0 25 -2.5 72t-8 101.5t-14 109t-21.5 94.5q-20 62 -2.5 119t62.5 99q27 24 64 41t77.5 26.5t81 12t73.5 -0.5q37 -3 58.5 -27.5t21.5 -71.5q0 -27 -8.5 -46 t-21.5 -31t-28.5 -17t-29.5 -4q-44 4 -87.5 2.5t-77.5 -26.5q-16 -12 -24 -26t-10 -30t0.5 -32t6.5 -32q8 -33 14 -83t9.5 -101t5.5 -96.5t2 -69.5q0 -57 -7 -107t-24 -91q-26 -65 -67 -105t-91 -57q48 -26 89.5 -63t63.5 -94q17 -44 24.5 -98t7.5 -122q0 -29 -2 -76 t-5.5 -100.5t-8.5 -106.5t-11 -94q-4 -23 2 -45.5t20 -36.5q20 -21 47 -28t60 -7q14 0 30 1.5t34 3.5q19 3 29.5 -4t16 -18t6.5 -24.5t1 -23.5q0 -34 -14 -49t-36 -15q-17 0 -32 -1.5t-28 -1.5q-40 0 -70.5 6t-54.5 15.5t-43 22t-35 25.5q-19 15 -32 35t-20 42t-9 43t1 38 q7 43 14 95t11.5 102.5t7.5 94.5t3 71q0 49 -7 88t-21 74t-33 58t-43 40t-53 31.5t-63 32.5q-20 10 -32 36.5t-14.5 56z" />
<glyph unicode="|" horiz-adv-x="519" d="M159 822q0 180 10.5 364.5t38.5 353.5q1 8 5 18t11 18.5t15.5 14.5t19.5 6q16 0 34 -5t33 -14t24.5 -21t9.5 -25q2 -86 2.5 -187t0.5 -215q0 -62 1 -147t2 -186t1.5 -213t0.5 -226.5t-1.5 -227t-4.5 -214.5t-8.5 -189.5t-13.5 -151.5q-2 -13 -9.5 -24.5t-18.5 -19 t-25 -11t-28 0.5q-5 1 -12.5 5t-15 10t-14 14t-7.5 19q-4 30 -8.5 86.5t-8.5 131.5t-8.5 163.5t-8 183t-7 190.5t-5.5 186.5t-3.5 170t-1.5 141.5z" />
<glyph unicode="}" horiz-adv-x="802" d="M74 1544q0 47 21.5 71.5t58.5 27.5q33 3 73 0.5t80.5 -12t78 -26.5t64.5 -41q45 -42 62.5 -99t-2.5 -119q-13 -40 -21.5 -94.5t-14 -109t-8 -101.5t-2.5 -72q0 -45 6.5 -79.5t17.5 -64.5q12 -30 31 -51.5t43.5 -38t53 -28.5t57.5 -22q23 -9 32 -34.5t6.5 -55t-15 -56 t-31.5 -36.5q-34 -18 -63 -32.5t-53 -31.5t-43 -40t-33 -58t-21 -74t-7 -88q0 -27 3 -71t7.5 -94.5t11 -102.5t14.5 -95q3 -17 1 -38t-9 -43t-20 -42t-32 -35q-17 -13 -35.5 -25.5t-42.5 -22t-54.5 -15.5t-70.5 -6q-13 0 -28 1.5t-32 1.5q-22 0 -36 15t-14 49q0 10 1 23.5 t6.5 24.5t16 18t29.5 4q18 -2 34 -3.5t30 -1.5q33 0 60 7t47 28q14 14 20 36.5t2 45.5q-6 41 -11 94t-8.5 106.5t-5.5 100.5t-2 76q0 68 7.5 122t24.5 98q22 57 63.5 94t89.5 63q-50 17 -91 57t-67 105q-17 41 -24 91t-7 107q0 24 2 69.5t5.5 96.5t9.5 101t14 83 q4 16 6.5 32t0.5 32t-10 30t-24 26q-17 13 -37 19t-41 7.5t-43 0.5t-44 -3q-14 -1 -29.5 4t-28.5 17t-21.5 31t-8.5 46z" />
<glyph unicode="~" horiz-adv-x="1121" d="M61 575.5q0 12.5 3 23.5q23 65 58 118.5t76 92.5t86 61.5t89 27.5q17 5 32.5 6.5t31.5 1.5q42 0 79.5 -13.5t69 -39t55 -63t35.5 -85.5q48 -122 113 -122q36 0 81.5 21.5t99.5 69.5q11 11 36 11q11 0 21.5 -4.5t18.5 -16.5q16 -12 22 -23.5t6 -21.5q0 -18 -15 -31l-1 -1 q-32 -38 -67.5 -67.5t-72.5 -48.5t-73.5 -27.5t-71.5 -4.5t-68.5 19.5t-63.5 45t-54.5 73.5t-42.5 105q-9 28 -35.5 41t-55.5 13q-28 0 -55 -11v1q-22 -8 -46 -23.5t-47 -42t-43 -65t-35 -92.5v1q-4 -13 -18.5 -23t-35.5 -10q-12 0 -26.5 4t-29.5 15q-22 15 -34 29.5 t-17 28.5t-5 26.5z" />
<glyph unicode="&#xa0;" horiz-adv-x="622" d="M310 2145v1h1v-1h-1z" />
<glyph unicode="&#xa1;" horiz-adv-x="522" d="M84 1328q0 53 15.5 76.5t41.5 23.5q23 0 50 -12.5t62 -35.5l3 -2q57 -45 90.5 -87.5t33.5 -74.5q0 -46 -35 -63q-22 -12 -47 -17t-49 -5q-37 0 -67.5 15t-52 41.5t-33.5 62.5t-12 78zM132 494q0 94 6 184.5t20 188.5l1 4q6 22 13 33t15.5 15.5t17.5 3t19 -4.5l3 -1 q11 -4 19 -9t12.5 -14.5t5.5 -25.5t0 -41q-1 -18 3 -79t13 -150t24.5 -198.5t38.5 -224t54.5 -227.5t72.5 -208l1 -3q3 -10 4 -18.5t1 -16.5q0 -35 -28 -57.5t-95 -22.5q-33 0 -55 6t-35.5 16.5t-21 24.5t-10.5 29q-26 122 -44.5 229.5t-30.5 205t-18 186.5t-6 175z" />
<glyph unicode="&#xa2;" d="M88 408q0 60 22.5 120.5t62 119t94.5 114t121 105.5q5 107 16 214t28 211q2 9 6 19t10.5 18.5t14.5 14.5t19 6q32 0 55.5 -18.5t23.5 -46.5q1 -71 1.5 -147.5t1.5 -160.5q20 11 41.5 21t43.5 20q21 11 40.5 -1.5t27.5 -38.5q7 -11 7 -26q0 -23 -6.5 -43.5t-13.5 -25.5 q-37 -19 -72 -39.5t-68 -41.5q-1 -123 -4 -256.5t-9 -271.5q51 5 109.5 20t127.5 41q12 7 25 2.5t24.5 -18t18.5 -35t7 -48.5t-6.5 -50t-16 -40.5t-20.5 -29t-20 -16.5q-69 -17 -134.5 -29t-125.5 -17q-3 -48 -6 -94.5t-7 -91.5q-4 -25 -18 -42t-41 -12l2 -1 q-12 5 -29.5 16.5t-22.5 32.5q-3 40 -7 88t-8 104q-74 6 -128 30h1q-91 47 -139.5 124.5t-48.5 199.5zM264 440q0 -29 8 -54.5t23.5 -46.5t38 -35t51.5 -19h-1q4 -2 6 -2q-4 77 -6 158t-2 166v56q-55 -53 -86.5 -108.5t-31.5 -114.5z" />
<glyph unicode="&#xa3;" horiz-adv-x="1290" d="M58 323q0 33 13.5 76t44.5 82.5t81.5 69t123.5 35.5q27 -1 59.5 -9.5t64.5 -21.5q-9 38 -23 82t-25 82q-6 19 -12.5 41.5t-12.5 42.5q-20 1 -43 0.5t-43 -0.5h-42q-28 0 -55.5 1t-56.5 5q-32 3 -46.5 24.5t-14.5 47.5q0 18 7 36t19 31.5t29.5 21.5t38.5 7q27 -4 55.5 -6 t58.5 -4q10 -1 26 -2t27 -2q-11 42 -14.5 79.5t-3.5 67.5q0 106 25 184.5t71.5 130.5t114 77t152.5 25q38 0 70 -2.5t64 -9.5t67 -20t79 -34q24 -11 34 -29t10 -38q0 -31 -21 -56.5t-55 -25.5q-17 0 -36 9q-19 10 -45 18.5t-54.5 15.5t-57 11t-51.5 4q-63 0 -98.5 -16 t-52.5 -48.5t-21 -81t-4 -114.5q0 -33 4 -71.5t14 -79.5q14 -1 31.5 -1h31.5q60 0 117 3t114 8l45 3q22 2 40.5 -4.5t31 -18.5t19.5 -27.5t7 -30.5q0 -21 -15 -38t-46 -21q-86 -10 -172.5 -15.5t-187.5 -7.5q30 -100 48.5 -197t23.5 -176q28 -23 57.5 -51.5t52.5 -51.5 q26 -26 54 -51t57 -45.5t58 -33t57 -12.5q30 0 52.5 8.5t37.5 22.5t23 32.5t8 38.5q0 21 -2.5 41t-19.5 37v-1q-13 14 -18.5 28.5t-5.5 28.5q0 16 6 30t16.5 24.5t24 17t28.5 6.5q28 0 55 -27v1q39 -43 56 -91.5t17 -98.5q0 -120 -66 -186.5t-212 -66.5q-53 0 -95 13.5 t-78 36.5t-67.5 52.5t-64.5 62.5q-11 11 -26 25t-27 25q-36 -89 -114.5 -143t-202.5 -54q-30 0 -67 12.5t-70 43t-55 82.5t-22 131zM211 323q0 -68 20.5 -93t56.5 -25q45 0 78 12.5t54.5 34t33 50t14.5 60.5q-36 27 -71.5 44t-67.5 17q-24 0 -45 -6t-37.5 -18.5t-26 -31.5 t-9.5 -44z" />
<glyph unicode="&#xa4;" horiz-adv-x="1245" d="M77 1227q0 16 10.5 33.5t35.5 37.5q22 20 37.5 28.5t29.5 8.5q17 0 34.5 -16.5t34.5 -44.5q25 -43 47 -78.5t49 -81.5q16 19 34 27.5t35 8.5q14 0 26.5 -3t23.5 -10q17 -11 27 -26.5t17 -37.5q60 36 112 52.5t97 16.5q56 0 107 -21q17 23 28 38t19.5 26t16 21t17.5 24 t25 34l39 52q14 19 28.5 30.5t32.5 11.5q29 0 70 -34q23 -20 35 -37t12 -31q0 -31 -49 -71q-34 -29 -70 -56t-78 -56q-6 -4 -15.5 -11t-17.5 -12q3 -4 7.5 -11t9.5 -13.5t9 -12t6 -7.5q22 -46 36.5 -108.5t14.5 -134.5q0 -81 -24.5 -163t-75.5 -163q-10 -15 -22 -32.5 t-24 -31.5q48 -41 79.5 -67.5t58 -47.5t51.5 -42t60 -51q24 -21 36.5 -38t12.5 -33q0 -27 -46 -67q-43 -34 -70 -34q-19 0 -34 11t-29 31q-20 27 -41.5 57.5t-42.5 65.5q-21 32 -46.5 70t-51.5 73q-91 -84 -195 -113q-23 -6 -44 -8.5t-41 -2.5q-84 0 -162 55 q-12 -27 -23 -51t-21.5 -47t-22 -46t-24.5 -48q-15 -29 -32 -45t-34 -16q-15 0 -35 12t-38 28.5t-30.5 35t-12.5 32.5t9 28.5t25 31.5q21 19 40 38t37.5 38.5t38.5 40.5t44 45q-27 40 -46 89.5t-32 101.5q-6 30 -9 63t-3 66q0 91 23 190t74 195q-45 39 -90 76.5t-87 77.5 q-33 31 -33 59zM378 556q0 -45 10.5 -82t29.5 -63t44 -39t55 -10q42 3 84.5 13.5t81.5 33t71.5 60t54.5 94.5q25 69 36.5 126t11.5 103q0 61 -15.5 104.5t-42.5 66.5q-9 8 -22.5 12t-29.5 4q-25 0 -59.5 -10t-75 -31.5t-85.5 -56.5t-90 -86q-30 -67 -44.5 -127.5 t-14.5 -111.5z" />
<glyph unicode="&#xa5;" horiz-adv-x="1214" d="M42 1303q0 12 4.5 24.5t11.5 24t15.5 20.5t16.5 13l-1 -1q12 4 26.5 7t26.5 3q17 0 32 -8t20 -31q34 -77 69.5 -148t73.5 -134.5t80.5 -118.5t90.5 -99l168 6q39 91 79 175t79 153t76 119.5t70 73.5q17 17 42.5 29.5t51.5 12.5q24 0 47 -14q26 -16 40.5 -51.5t14.5 -72.5 q0 -28 -9.5 -52t-29.5 -36q-73 -46 -139.5 -130.5t-130.5 -199.5l147 6q17 4 32 -1.5t26.5 -18t20 -31t11.5 -40.5q0 -29 -7.5 -47t-20.5 -28.5t-30 -14.5t-36 -4q-67 -8 -127 -14t-117 -8q-14 -29 -27.5 -59t-27.5 -62q72 3 147 6t156 6q16 4 31 -1t27 -16.5t20.5 -28 t11.5 -34.5q0 -30 -7.5 -49t-20 -31t-28.5 -17.5t-33 -7.5q-94 -11 -179 -15.5t-159 -4.5h-48q-24 -60 -48.5 -121t-50.5 -124q-8 -20 -16 -40.5t-17 -42.5q-8 -5 -23.5 -12.5t-30.5 -7.5q-18 0 -32 11q-8 10 -16.5 21t-14 21.5t-6.5 20.5t5 18q8 21 19.5 49t21.5 56 q13 36 27 75t31 82q-37 2 -71 5t-64 5q-53 5 -101 8t-90 3h1q-30 3 -47.5 18t-17.5 48q0 28 11 48.5t43 23.5q76 3 151.5 7t153.5 8q25 1 49 2t49 3q12 31 24.5 63t25.5 64q-20 1 -40.5 1.5t-40.5 1.5q-17 -5 -32 0q-5 0 -11 2q-43 3 -82 6.5t-75 6.5q-45 4 -85.5 7t-76.5 4 h1q-30 3 -47.5 23t-17.5 48q0 26 10.5 48t42.5 27l112 4q-33 46 -63.5 100t-57.5 113t-49.5 121.5t-40.5 124.5zM585 706l2 2l-2 -1v-1z" />
<glyph unicode="&#xa6;" horiz-adv-x="433" d="M108 22q0 52 1 107.5t3 114.5q-2 20 1.5 36.5t14 28t30 18t50.5 6.5q53 0 70 -18.5t17 -60.5v-15t-1 -15q-3 -43 -5.5 -100t-5.5 -120t-6.5 -128.5t-7.5 -126.5t-8.5 -114t-10.5 -90q-3 -13 -16.5 -19t-32.5 -6q-25 0 -47 9.5t-24 27.5q-5 36 -9 96t-7 127t-4.5 132 t-1.5 110zM123 1335q0 30 0.5 67t1.5 68q1 19 4.5 36t14 29t29 19t48.5 7q63 0 89 -25t19 -85q-7 -63 -11.5 -118.5t-9.5 -105.5q-2 -26 -4 -63t-3.5 -79t-3.5 -86t-3.5 -83t-4 -71t-5.5 -50q-2 -12 -21.5 -18.5t-42.5 -6.5q-15 0 -30.5 2.5t-27.5 7t-19.5 11t-7.5 14.5 q-1 15 -1 35t-1 37q-1 22 -2 57.5t-2 77.5t-2 88t-2 90t-1.5 81.5t-0.5 63.5z" />
<glyph unicode="&#xa7;" horiz-adv-x="847" d="M90 592q0 39 18 78t50.5 76t78 70t100.5 60q-48 15 -92.5 37t-79 56t-55 80.5t-20.5 110.5q0 43 22 84t61 77.5t92.5 66.5t116 52t132 34.5t140.5 12.5q22 0 36 -23t14 -60q0 -5 -0.5 -13.5t-1.5 -15.5q-7 -47 -22.5 -79t-46.5 -32q-72 0 -138.5 -12.5t-117 -30.5 t-81 -39t-30.5 -38q0 -23 15 -39t41 -29t60 -23.5t72 -20.5q55 -15 114.5 -35t109 -52t82 -78.5t32.5 -114.5q0 -54 -11 -105.5t-33 -99t-55 -89t-76 -74.5q29 -17 55 -39t45.5 -49t31 -60.5t11.5 -73.5q0 -52 -14.5 -99t-37.5 -84.5t-50.5 -63.5t-52.5 -35 q-96 -35 -200.5 -54.5t-232.5 -19.5q-13 0 -23 3.5t-17 14.5t-10.5 31.5t-3.5 54.5v2q0 31 7 51.5t17 31.5t20 15.5t16 4.5q92 0 167.5 9t129.5 27q54 22 82 52t28 72q0 17 -12 29.5t-32.5 23t-47.5 18.5t-57 16q-53 14 -113.5 36t-112.5 59.5t-86 94.5t-34 140zM266 576 q0 -37 34 -59.5t86 -40.5q52 4 93 24.5t70.5 54t46.5 78.5t21 99h-18q-75 0 -136 -18t-105 -43.5t-68 -52t-24 -42.5z" />
<glyph unicode="&#xa8;" horiz-adv-x="816" d="M92 1488q0 22 5.5 46.5t13.5 51.5q13 40 36.5 61.5t66.5 18.5q31 -2 62.5 -27t53.5 -76q14 -31 14 -64q0 -34 -25.5 -70t-89.5 -64q-12 -5 -23 -7t-22 -2q-42 0 -67 37.5t-25 94.5zM473 1488q0 44 18 98q12 40 36 61.5t67 18.5q32 -2 63.5 -26.5t53.5 -76.5q6 -14 10 -30 t4 -33q0 -35 -25.5 -71t-90.5 -64q-12 -5 -23 -7t-21 -2q-43 0 -67.5 37.5t-24.5 94.5z" />
<glyph unicode="&#xa9;" horiz-adv-x="1650" d="M64 744q0 102 29 196t81 176.5t125 150t160 115.5t186.5 74.5t204.5 26.5t200.5 -26.5t177 -75t148 -117t113 -152t72 -180t25.5 -201.5q0 -99 -23.5 -191.5t-68.5 -173.5t-110.5 -148.5t-149 -116t-184 -75t-216.5 -26.5q-115 0 -216.5 27t-187 75.5t-153.5 116.5 t-115.5 150.5t-72.5 177.5t-25 197zM212 744q0 -89 24 -170t67 -149.5t101.5 -124t127 -95t145 -60.5t154.5 -21q134 0 246 46.5t193 128t126 192.5t45 240q0 78 -21 154.5t-59 145.5t-91.5 128t-118 102t-138 67.5t-152.5 24.5q-87 0 -169 -22.5t-154 -62.5t-132 -96 t-103 -124t-67 -145t-24 -159zM478 604q0 8 0.5 16t1.5 16q7 81 49 161.5t107.5 154t147.5 136.5t169 108l-1 -1q9 4 16.5 1t12.5 -11t8 -20t3 -25q0 -22 -8.5 -44t-25.5 -39q-28 -28 -55 -50.5t-53 -44.5q-39 -31 -75.5 -63.5t-65.5 -71t-46.5 -84.5t-17.5 -104 q0 -44 6 -74t21.5 -49t42.5 -28.5t70 -12.5h-1q8 -1 14.5 -1t14.5 -1q20 -2 41.5 -2.5t41.5 -0.5q52 0 110.5 7.5t121.5 25.5q6 -4 13 -19t11 -38v1q2 -24 -7.5 -39.5t-17.5 -15.5q-84 -23 -160.5 -37.5t-147.5 -14.5q-42 0 -79.5 5t-74.5 18q-38 11 -72 31t-59.5 49.5 t-40.5 69.5t-15 91z" />
<glyph unicode="&#xaa;" horiz-adv-x="845" d="M68 577q-6 34 11 53.5t37 19.5l576 49q32 5 48.5 -17.5t23.5 -64.5q0 -21 -7 -36t-17 -24.5t-22 -14t-24 -5.5q-102 -10 -193 -15.5t-182 -5.5q-48 0 -97.5 1.5t-100.5 5.5q-18 0 -35.5 13t-17.5 41zM99 1080q0 47 10.5 98t30.5 99.5t48.5 92t64 76.5t78 52t90.5 19 q38 0 76.5 -18t73.5 -54q5 -8 5 -21q0 -16 -6.5 -35t-18.5 -35q-14 -15 -26.5 -23.5t-21.5 -8.5q-8 0 -11 7q-25 23 -46 32t-42 9q-38 0 -71 -27t-57 -69t-37.5 -93.5t-13.5 -100.5q0 -25 5.5 -47.5t17 -39.5t28.5 -27t41 -10q29 0 58.5 17.5t55.5 50.5t45.5 80t28.5 106 q2 10 17.5 17t35.5 7q13 0 24.5 -6.5t20 -16.5t13 -22t4.5 -22q0 -15 -11 -29q2 -29 9.5 -57.5t18.5 -53t26 -43.5t33 -28q17 -11 17 -36q0 -27 -23 -59q-24 -35 -55 -35q-14 0 -22 8q-20 18 -40 59.5t-36 99.5q-17 -34 -41.5 -65.5t-54 -55.5t-62 -38.5t-65.5 -14.5 q-53 0 -93 22t-67 58t-41 83t-14 98z" />
<glyph unicode="&#xab;" horiz-adv-x="1104" d="M104 528q1 32 13 69t40 88t72.5 121t110.5 168q8 12 26.5 23t42.5 11q27 0 51 -18q23 -16 32.5 -38t9.5 -43q0 -19 -5.5 -35.5t-13.5 -27.5l-121 -170q-23 -33 -38.5 -55.5t-24.5 -39t-13 -29t-4 -24.5q0 -29 11.5 -63t37.5 -81t69.5 -111t108.5 -153l-1 1q8 -13 8 -26 q0 -12 -6 -22t-15 -14q-10 -10 -18.5 -13.5t-16.5 -3.5q-11 0 -20.5 5t-17.5 11q-74 82 -133 151.5t-100 128t-63 105.5t-22 85zM596 528q1 32 11 68.5t35 87.5t68 121t109 168q7 12 26.5 23t43.5 11q26 0 50 -18q24 -16 33.5 -37.5t9.5 -42.5q0 -19 -5.5 -36t-14.5 -28 l-109 -170q-22 -32 -37 -54.5t-24.5 -39t-13.5 -29t-4 -24.5q0 -29 9 -59.5t32 -74t64 -104t106 -149.5l-1 1q7 -11 7 -27q0 -12 -5.5 -21.5t-13.5 -13.5q-10 -10 -18.5 -13.5t-16.5 -3.5q-12 0 -21.5 5t-16.5 12v-1q-78 85 -135 151.5t-94.5 120t-55.5 96.5t-18 81z" />
<glyph unicode="&#xac;" horiz-adv-x="1450" d="M92.5 804.5q0.5 15.5 5.5 31t17 27.5t33 17q47 10 114.5 18t147 14t167 9t173.5 3q63 0 123.5 -2t115.5 -5.5t101.5 -9.5t82.5 -14q41 -9 73 -30t55 -51.5t36.5 -69.5t16.5 -82q1 -10 1 -18.5v-18.5q0 -57 -10 -115.5t-25 -112t-32.5 -97.5t-32.5 -72l-4 -9 q-6 -12 -12.5 -23t-15.5 -19.5t-22 -13t-33 -3.5t-32.5 8.5t-18.5 18.5t-6 23t4 21q12 22 23.5 63.5t20 88.5t14 92.5t5.5 74.5q0 37 -7 68.5t-22 55.5t-39 39.5t-58 19.5q-41 4 -89.5 6t-102.5 2q-87 0 -182 -4.5t-186.5 -13t-173 -20.5t-140.5 -26q-47 -13 -69.5 16.5 t-14.5 87.5q-2 10 -1.5 25.5z" />
<glyph unicode="&#xad;" horiz-adv-x="912" d="M75 678q-6 34 10 52t35 20l648 51q31 2 49.5 -19.5t20.5 -63.5q1 -22 -5 -39.5t-16.5 -30.5t-22.5 -20.5t-23 -8.5q-117 -17 -202.5 -22t-144.5 -5q-54 0 -97 3.5t-87 8.5q-26 3 -53.5 7t-59.5 4q-17 0 -34.5 17t-17.5 46z" />
<glyph unicode="&#xae;" horiz-adv-x="855" d="M67 1160q0 71 30 134.5t81 111.5t118.5 76t141.5 28q75 0 139 -28t110.5 -76.5t73 -113.5t26.5 -139q0 -70 -25 -132.5t-71.5 -110t-112.5 -75.5t-148 -28q-81 0 -148 28t-115 76t-74 112.5t-26 136.5zM155 1160q0 -59 23.5 -109.5t62 -87.5t87.5 -58t101 -21 q60 0 109.5 21t85.5 57t56 85t20 106q0 52 -20.5 101.5t-55.5 88.5t-81.5 62.5t-99.5 23.5q-58 0 -110.5 -21.5t-92 -58.5t-62.5 -86t-23 -103zM291 988q0 65 6.5 123.5t20.5 115.5q4 12 15 17t22.5 3.5t20 -9.5t7.5 -21q-8 -63 -11 -119t-3 -110q0 -11 -11.5 -17t-26.5 -6 q-14 0 -27 6t-13 17zM310.5 1297.5q-0.5 10.5 6 20.5t19.5 13q14 2 29 2.5t29 0.5q24 0 56.5 -4.5t62 -15.5t50 -30.5t20.5 -49.5q0 -27 -25.5 -55t-59.5 -49l100 -105q0 -6 -6.5 -15t-15.5 -17t-17.5 -12.5t-12.5 -1.5q-29 31 -63 65t-63 64q-24 25 -14 45t42 29 q9 3 20 7.5t19.5 11.5t12.5 16t0 20q-6 18 -37.5 22t-71.5 4q-13 0 -26.5 1t-25.5 3q-14 2 -21 11t-7.5 19.5z" />
<glyph unicode="&#xaf;" horiz-adv-x="912" d="M75 1449q-6 34 10 54t35 20l648 49q31 5 48 -18t22 -64q-1 -44 -23 -70t-44 -28q-123 -17 -205.5 -23.5t-142.5 -6.5q-54 0 -99 4.5t-90 9.5q-24 3 -50.5 6t-56.5 5q-17 0 -34.5 16.5t-17.5 45.5z" />
<glyph unicode="&#xb0;" d="M174 1066q0 43 10.5 92.5t29.5 99.5t45 98.5t57 90.5q9 10 20.5 17.5t20.5 7.5q13 0 24 -12.5t18 -35.5q43 27 82 38.5t74 11.5q60 0 106 -26t69 -71q14 -28 22.5 -65.5t8.5 -81.5q0 -62 -18.5 -128.5t-61.5 -126.5q-48 -70 -101.5 -109.5t-114.5 -56.5q-18 -5 -35 -6.5 t-33 -1.5q-85 0 -142 53.5t-75 148.5q-6 30 -6 63zM323 1070q0 -60 29.5 -91.5t72.5 -29.5q41 6 76 33t61 66t41 84.5t15 86.5q0 33 -8 60.5t-29 45.5l-2 2q-12 12 -38 12q-19 0 -42.5 -7.5t-47.5 -21t-46 -32.5t-38 -42q-44 -99 -44 -166z" />
<glyph unicode="&#xb1;" horiz-adv-x="1038" d="M56 926q0 18 5 34.5t13 29t19 20t22 7.5h316v316q-3 14 5 27t23 23t35 17.5t41 11.5q21 -1 38 -9t29 -20.5t19 -27.5t7 -29q0 -20 1.5 -42.5t3.5 -42.5q2 -35 4.5 -70t2.5 -73q0 -18 -1 -39.5t-3 -41.5q76 -1 157 -1t158 -4q12 -1 22.5 -6.5t18 -13.5t11.5 -17.5t3 -16.5 v-1q0 -27 -16.5 -47t-43.5 -26l-318 -23q-1 -39 -3 -68.5t-4 -52t-4.5 -40t-4.5 -32.5q-4 -24 -6.5 -49.5t-4.5 -63.5q0 -10 -7.5 -20t-18 -19t-22 -15.5t-20.5 -8.5q-20 -3 -35.5 1.5t-27.5 14t-19.5 21.5t-10.5 24l-9 288q-27 0 -60.5 -1t-61.5 -3q-30 -2 -59 -3.5 t-59 -1.5q-18 0 -38 1t-39 3q-7 2 -17 9.5t-19 19.5t-15.5 27.5t-6.5 33.5zM74 318q-6 34 10 52.5t35 20.5l760 49q31 2 50 -19t22 -63q1 -22 -5 -39.5t-16.5 -30t-23.5 -20t-25 -8.5q-121 -16 -214.5 -22.5t-169.5 -6.5q-80 0 -146.5 5t-128.5 11q-24 2 -47.5 5t-48.5 3 q-17 0 -34.5 17t-17.5 46z" />
<glyph unicode="&#xb2;" horiz-adv-x="1015" d="M74 726q0 20 9 50l-1 -1q10 26 31.5 47.5t51.5 38.5t67 31t79 26q40 31 80 62.5t75.5 61.5t66 58.5t52.5 54.5q16 22 25 45.5t9 43.5q0 37 -29 65q-60 43 -137 43q-50 0 -110.5 -18.5t-135.5 -60.5q-10 -7 -19.5 0t-17.5 18q-2 2 -4.5 6t-4.5 6v-1q-14 18 -14 33 q0 18 26 35q29 25 66 46.5t78.5 36.5t85.5 23.5t88 8.5q59 0 114.5 -18t100.5 -57q30 -21 49 -62.5t19 -92.5q0 -31 -10 -63t-31 -63h1q-24 -30 -47.5 -56t-50 -51t-56 -50.5t-64.5 -55.5q94 2 172 -9t143 -22q14 -2 26 -4.5t24 -4.5q21 -4 32 -11.5t11 -24.5q0 -11 -7 -31 v-1q-2 -8 -4 -15.5t-7 -12.5t-14 -7.5t-24 0.5q-105 10 -191 17t-164 7q-54 0 -104 -4t-101 -14q-64 -47 -112 -66t-77 -24q-23 -2 -34 8t-11 29z" />
<glyph unicode="&#xb3;" horiz-adv-x="808" d="M76.5 1371q3.5 15 13.5 26q54 41 130 66t157 25q73 0 140.5 -23.5t115.5 -77.5q42 -47 42 -97q0 -26 -12 -53v1q-8 -16 -18.5 -33.5t-27 -35.5t-40 -36t-56.5 -36q35 -9 68.5 -25.5t62 -38.5t50 -48t31.5 -55v1q9 -28 14 -54.5t5 -53.5q0 -73 -36.5 -142.5t-112.5 -130.5 q-54 -41 -116.5 -62.5t-126.5 -21.5q-46 0 -91.5 12t-86.5 38l1 -1q-3 3 -7.5 9t-7 15t-2.5 19.5t6 21.5q7 18 22 23t31 3h-1q70 -14 120 -14q51 0 91 14.5t78 43.5q44 35 63.5 74t19.5 78q0 38 -17 73t-47 61.5t-70.5 42.5t-88.5 16q-32 0 -67 -8t-71 -26q-20 -11 -36 3.5 t-23 36.5q-6 19 -6 27t5.5 13t15.5 10q2 2 4 2.5t4 2.5q13 9 33.5 18.5t44.5 17t49 13t49 8.5q15 10 40 28.5t48.5 40.5t41 46.5t17.5 47.5q0 13 -7 25.5t-23 23.5q-31 18 -63 26t-69 8q-45 0 -101.5 -12.5t-120.5 -33.5q-15 -4 -34.5 1.5t-23.5 24.5q-7 17 -3.5 32z" />
<glyph unicode="&#xb4;" horiz-adv-x="599" d="M61 1045q35 105 73.5 185.5t80 143.5t85.5 111.5t90 90.5q11 9 22 9q18 0 36 -14.5t27 -34.5q5 -11 10 -26.5t9 -33.5t6.5 -36.5t2.5 -34.5q0 -19 -3.5 -33t-11.5 -21q-32 -26 -74.5 -63t-89 -86t-92 -109.5t-83.5 -131.5q-3 -2 -11 -0.5t-17.5 5t-19.5 8.5t-16 10 q-9 7 -20 23.5t-4 37.5z" />
<glyph unicode="&#xb5;" horiz-adv-x="1009" d="M97 617q0 63 6 133.5t19 151.5q1 9 9.5 21.5t23 23t35 16.5t45.5 3q18 0 33.5 -7t27.5 -18t19 -24.5t7 -26.5q-14 -93 -21.5 -172t-7.5 -140q0 -59 5.5 -106.5t14.5 -86.5q12 -40 30 -68.5t40 -47t46.5 -28.5t49.5 -13q46 -5 96 37t86 124q17 59 25.5 137.5t8.5 184.5 q0 44 -1.5 93.5t-4.5 102.5v11q0 30 19.5 48t66.5 29q23 0 40.5 -6.5t30 -15.5t20 -18.5t10.5 -15.5q6 -45 9 -89t3 -92q0 -44 -2.5 -91.5t-7.5 -99.5q-2 -35 -3.5 -66.5t-1.5 -57.5q0 -78 9 -133.5t20 -100.5q2 -11 5 -22t6 -23v-1q9 -32 -6.5 -55.5t-50.5 -45.5h1 q-13 -5 -24.5 -7.5t-22.5 -2.5q-20 0 -33.5 9.5t-18.5 27.5q-8 11 -16.5 38t-14.5 50q-25 -35 -57.5 -60.5t-68.5 -41.5t-73.5 -22.5t-72.5 -2.5q-48 3 -95 23t-93 54q2 -48 4 -104t2 -107q0 -52 -2 -108t-8 -114q-4 -24 -17 -39t-25 -15q-22 0 -45 15.5t-31 39.5 q-3 76 -8.5 149.5t-11.5 145.5q-9 111 -17 229.5t-8 248.5v56q-3 43 -3 93z" />
<glyph unicode="&#xb6;" horiz-adv-x="1243" d="M50 1040q0 34 8.5 69.5t27.5 76.5q27 58 76 99.5t114.5 69t143.5 44t163 25.5t173 13t174 7q16 1 35 1.5t34 0.5q13 0 23.5 -12.5t17.5 -33.5t10.5 -48t3.5 -55v-2v-13q22 -125 30 -285t8 -334q0 -120 -3 -240t-7.5 -234t-10 -220t-10.5 -198q-3 -57 -4.5 -97.5 t-4.5 -81.5q-2 -32 -19.5 -51t-43.5 -19q-29 0 -47 19t-18 50q0 56 -1.5 106.5t-1.5 111.5v80.5t0.5 78.5t1 80t1.5 85q3 181 3 366q0 192 -7.5 377t-32.5 351q-23 -1 -44 -2t-42.5 -1.5t-44 -2t-48.5 -3.5q15 -120 21 -260t6 -291q0 -115 -3 -234t-7.5 -234t-10 -222.5 t-10.5 -199.5q-3 -58 -5 -100.5t-5 -84.5q-2 -32 -19 -51t-43 -19q-29 0 -48 19t-19 50q0 57 -2 108.5t-2 113.5q0 94 2 190.5t4 198.5q1 35 1.5 72t1.5 72q-74 42 -146.5 100t-135.5 124t-112 136.5t-77 137.5q-23 54 -36 102t-13 94z" />
<glyph unicode="&#xb7;" horiz-adv-x="612" d="M149 763q0 30 6.5 63.5t18.5 69.5q9 26 20.5 47t28 35.5t38.5 21t52 4.5q44 -3 86 -36t73 -102q19 -43 19 -86q0 -23 -8 -47t-26 -47.5t-48 -45.5t-74 -41q-30 -13 -61 -13q-29 0 -52 13.5t-39.5 37t-25 56t-8.5 70.5z" />
<glyph unicode="&#xb8;" horiz-adv-x="667" d="M95 -295q0 15 6.5 28.5t16.5 22t22.5 10.5t23.5 -7q42 -32 79 -45.5t69 -13.5q21 0 41 3t36 13.5t26 30t10 53.5q0 15 -10.5 26.5t-25 19t-30 11.5t-25.5 4q-14 0 -24.5 -1.5t-18.5 -3.5l-15 -5q-5 -4 -18 -4t-25.5 4.5t-21.5 14t-5 24.5q12 42 25 83t26 83 q31 -5 66 -7.5t67 -9.5l-24 -87q38 2 75 -8.5t65.5 -30.5t46 -50t17.5 -67q0 -46 -18.5 -83.5t-50 -65t-74 -43.5t-89.5 -18q-35 -2 -63.5 1.5t-52 10t-43.5 16t-39 21.5q-26 17 -35.5 35t-9.5 35z" />
<glyph unicode="&#xb9;" horiz-adv-x="619" d="M145 1211q0 17 9.5 30t22.5 21q34 22 59 43t45 46t37 57.5t34 77.5q8 14 27 22t40 8q23 0 41.5 -8.5t18.5 -27.5q0 -98 -1.5 -178.5t-5 -150t-8.5 -131t-12 -122t-16.5 -122t-20.5 -130.5q-3 -19 -12 -36t-21.5 -30t-26.5 -21t-26 -8q-10 0 -16.5 9t-6.5 30q2 88 4 162.5 t4.5 148.5t7 155.5t10.5 182.5q-22 -14 -31 -20.5t-12.5 -9.5t-4.5 -5t-6 -6q-9 -7 -16.5 -12t-12.5 -9h1q-16 -9 -30.5 -15t-27.5 -6q-16 0 -26 10v-1q-12 12 -16.5 23.5t-4.5 22.5z" />
<glyph unicode="&#xba;" horiz-adv-x="808" d="M75 584q-2 13 0.5 23t8 17t12.5 11t13 4l568 39q22 2 35.5 -16t17.5 -47q-1 -34 -18 -52.5t-33 -20.5q-97 -13 -169 -18t-129 -5t-104 3.5t-92 8.5l-69 6q-14 0 -27.5 12t-13.5 35zM133 1138q0 82 27 171.5t87 166.5q11 14 23 20t25 6q26 0 42.5 -17.5t22.5 -41.5 q44 28 81 40.5t67 12.5q46 0 83.5 -19.5t63.5 -54t40 -82.5t14 -106q0 -84 -30.5 -159t-80 -130.5t-111 -88t-123.5 -32.5q-55 0 -98 28t-72.5 73t-45 101t-15.5 112zM265 1104q0 -35 8.5 -63.5t23 -49t34 -32t41.5 -11.5q47 0 85 26t65 67t41.5 90t14.5 96q0 29 -4.5 54 t-16 43.5t-29.5 29t-45 10.5q-52 0 -92.5 -23t-68.5 -60t-42.5 -83.5t-14.5 -93.5z" />
<glyph unicode="&#xbb;" horiz-adv-x="1135" d="M109 115q0 16 7 27l-1 -1q64 89 105.5 149.5t64.5 104t32 74t9 59.5q0 12 -4 24.5t-13.5 29t-24.5 39t-37 54.5l-109 170q-9 11 -14.5 28t-5.5 36q0 21 9.5 42.5t33.5 37.5q24 18 50 18q24 0 43.5 -11t26.5 -23q66 -98 109 -168t68 -121t35 -87.5t11 -68.5q0 -38 -18 -81 t-55.5 -96.5t-94.5 -120t-135 -151.5v1q-7 -7 -16.5 -12t-21.5 -5q-8 0 -16.5 3.5t-18.5 13.5q-8 4 -13.5 13.5t-5.5 21.5zM584 95q0 13 8 26l-1 -1q64 89 108 153t70 111t37.5 81t11.5 63q0 12 -4 24.5t-13 29t-24.5 39t-38.5 55.5l-121 170q-8 11 -13.5 27.5t-5.5 35.5 q0 21 9.5 43t32.5 38q24 18 51 18q24 0 42.5 -11t26.5 -23q66 -98 110.5 -168t72.5 -121t40 -88t13 -69q0 -38 -22 -85t-63 -105.5t-100 -128t-133 -151.5q-8 -6 -17.5 -11t-20.5 -5q-8 0 -16.5 3.5t-18.5 13.5q-9 4 -15 14t-6 22z" />
<glyph unicode="&#xbc;" horiz-adv-x="1896" d="M210 1185.5q4 14.5 15 26.5t25 21q23 13 40 25t30.5 26t24 33t20.5 48q8 19 32 27t49.5 5.5t45 -15.5t19.5 -36q0 -97 -3.5 -178.5t-9 -154t-13 -139t-15.5 -133.5q-3 -14 -9.5 -28.5t-16.5 -26.5t-23 -18t-29 -3q-26 2 -43.5 12.5t-17.5 42.5v59q1 86 2.5 168t8.5 178 q-26 -17 -54.5 -21.5t-48.5 16.5q-20 18 -26.5 34.5t-2.5 31zM491 -8q-2 39 18 86q51 138 120 302t150.5 339.5t173.5 354.5t190 346q14 15 32 23q15 7 36.5 8t49.5 -12q41 -20 52 -58.5t-15 -97.5l-667 -1288q-23 -41 -47 -54.5t-59 0.5q-32 12 -34 51zM1116 321 q24 95 67 181t87 166q21 40 42.5 79.5t40.5 79.5v-1q8 23 22 32.5t30 9.5q15 0 30 -8t24.5 -20.5t12.5 -29.5t-4 -35q-34 -78 -62 -139.5t-52 -114.5q-22 -48 -39.5 -85.5t-31.5 -71.5q-8 -23 13 -20l21 3q19 2 38 4.5t39.5 5t43.5 4.5t51 4q-1 9 -1 19.5v21.5q0 35 2 73.5 t4 64.5q0 3 0.5 6t0.5 6q2 27 21 40.5t42 13.5q24 0 44.5 -14t22.5 -41q4 -35 8.5 -83.5t5.5 -89.5q29 3 57 5.5t57 5.5q23 -7 35.5 -28.5t12.5 -44.5q0 -20 -10 -36t-33 -16q-20 0 -40 -2.5t-41 -5.5h1q-14 -2 -24 -3.5t-25 -3.5q1 -40 -2 -83t-7 -82q-1 -9 -1.5 -20 t-1.5 -19q-4 -23 -20.5 -34t-39.5 -11q-30 0 -41.5 11.5t-11.5 37.5q0 15 -1 35t-3 43q-2 29 -3.5 54.5t-1.5 54.5q-43 -7 -86.5 -14.5t-86.5 -14.5h1q-41 -12 -81 -12q-28 0 -52.5 7t-42 21.5t-26 37.5t-5.5 56z" />
<glyph unicode="&#xbd;" horiz-adv-x="1896" d="M170 1185.5q4 14.5 15 26.5t25 21q23 13 40 25t30.5 26t24 33t20.5 48q8 19 32 27t49.5 5.5t45 -15.5t19.5 -36q0 -97 -3.5 -178.5t-9 -154t-13 -139t-15.5 -133.5q-3 -14 -9.5 -28.5t-16.5 -26.5t-23 -18t-29 -3q-26 2 -43.5 12.5t-17.5 42.5v59q1 86 2.5 168t8.5 178 q-26 -17 -54.5 -21.5t-48.5 16.5q-20 18 -26.5 34.5t-2.5 31zM451 -8q-2 39 18 86q51 138 120 302t150.5 339.5t173.5 354.5t190 346q14 15 32 23q15 7 36.5 8t49.5 -12q41 -20 52 -58.5t-15 -97.5l-667 -1288q-23 -41 -47 -54.5t-59 0.5q-32 12 -34 51zM1079 44q0 10 2 19 l4 18q19 50 69.5 79.5t116.5 48.5q61 48 104 88t75 80q11 14 16.5 31t5.5 33q0 31 -19 47q-11 8 -30.5 14.5t-45.5 6.5q-29 0 -66 -10t-84 -38q-15 -9 -31 -7.5t-28.5 9t-21 20t-8.5 27.5q0 12 6.5 24.5t21.5 23.5h-1q44 38 111.5 62.5t138.5 24.5q48 0 93 -13.5t81 -44.5 q23 -20 33.5 -45.5t10.5 -52.5q0 -38 -16 -78.5t-41 -78t-56 -70t-61 -55.5q58 -2 114.5 -10t101.5 -16q8 -2 14.5 -2.5t13.5 -2.5q30 -6 41.5 -22t-0.5 -52q-2 -9 -5 -17t-9 -14t-17 -8t-28 1q-7 1 -14 1.5t-14 1.5q-69 6 -126 10.5t-105 4.5q-36 0 -71.5 -2.5t-73.5 -9.5 q-52 -38 -89 -52.5t-60 -17.5q-29 -5 -41 7.5t-12 36.5z" />
<glyph unicode="&#xbe;" horiz-adv-x="1896" d="M145.5 1298q5.5 18 19.5 34q44 32 102 47.5t118 15.5q57 0 110.5 -16t94.5 -58q16 -17 25 -36t12 -37.5t0.5 -35t-10.5 -28.5t-24.5 -30.5t-39.5 -35.5q38 -18 70.5 -46.5t44.5 -60.5q9 -20 12.5 -41.5t3.5 -42.5q0 -110 -98 -200q-16 -15 -38.5 -27t-49.5 -20t-57 -12.5 t-60 -4.5q-41 0 -78 8t-70 27q-8 4 -16.5 13t-14 20.5t-6.5 25t7 26.5q12 25 34.5 35t46.5 1q29 -10 55.5 -16t50.5 -6q27 0 48.5 7t38.5 24q14 12 24 29t15.5 35t5 35t-6.5 30q-14 25 -47.5 41.5t-77.5 16.5q-23 0 -47 -7t-50 -18q-15 -7 -28.5 -5.5t-25 9t-20.5 19.5 t-16 27q-5 16 -5.5 25.5t3 16t11 11.5t18.5 12q22 16 62.5 29.5t79.5 18.5q35 5 57 23t32 36q2 5 2 11.5t-4 9.5q-17 11 -38.5 17t-46.5 6q-30 0 -64.5 -8.5t-79.5 -28.5q-23 -5 -48 2.5t-35 38.5q-7 20 -1.5 38zM551 -8q-2 39 18 86q51 138 120 302t150.5 339.5 t173.5 354.5t190 346q14 15 32 23q15 7 36.5 8t49.5 -12q41 -20 52 -58.5t-15 -97.5l-667 -1288q-23 -41 -47 -54.5t-59 0.5q-32 12 -34 51zM1126 321q24 95 67 181t87 166q21 40 42.5 79.5t40.5 79.5v-1q8 23 22 32.5t30 9.5q15 0 30 -8t24.5 -20.5t12.5 -29.5t-4 -35 q-34 -78 -62 -139.5t-52 -114.5q-22 -48 -39.5 -85.5t-31.5 -71.5q-8 -23 13 -20l21 3q19 2 38 4.5t39.5 5t43.5 4.5t51 4q-1 9 -1 19.5v21.5q0 35 2 73.5t4 64.5q0 3 0.5 6t0.5 6q2 27 21 40.5t42 13.5q24 0 44.5 -14t22.5 -41q4 -35 8.5 -83.5t5.5 -89.5q29 3 57 5.5 t57 5.5q23 -7 35.5 -28.5t12.5 -44.5q0 -20 -10 -36t-33 -16q-20 0 -40 -2.5t-41 -5.5h1q-14 -2 -24 -3.5t-25 -3.5q1 -40 -2 -83t-7 -82q-1 -9 -1.5 -20t-1.5 -19q-4 -23 -20.5 -34t-39.5 -11q-30 0 -41.5 11.5t-11.5 37.5q0 15 -1 35t-3 43q-2 29 -3.5 54.5t-1.5 54.5 q-43 -7 -86.5 -14.5t-86.5 -14.5h1q-41 -12 -81 -12q-28 0 -52.5 7t-42 21.5t-26 37.5t-5.5 56z" />
<glyph unicode="&#xbf;" horiz-adv-x="1095" d="M89 -34q0 54 28.5 103t67.5 87q24 18 52 36.5t54 36.5q34 21 68 44t64.5 48.5t55.5 54.5t41 62q9 20 12.5 43t3.5 48q0 27 -1.5 56t-9.5 56q-6 21 9 37.5t34 16.5q31 0 44.5 -10.5t17.5 -24.5q7 -26 11.5 -77t8.5 -116q5 -42 -8 -79.5t-38 -70.5t-57.5 -63.5t-65.5 -58.5 q-17 -15 -35 -30t-35 -31q-48 -40 -79 -81.5t-31 -83.5q0 -40 30 -74q31 -33 74.5 -59t91.5 -44t98 -27.5t95 -9.5q34 0 63.5 6t51.5 18t34 30.5t12 43.5q0 24 -5.5 47t-14.5 44t-19.5 40t-20.5 37q-11 18 -24.5 40t-13.5 42q0 14 5 34.5t28 36.5q31 20 54 27t56 2 q10 -2 21 -10t20 -19.5t16.5 -23.5t12.5 -21q27 -53 49.5 -116t22.5 -129q0 -23 -3.5 -45t-9.5 -44q-15 -53 -50.5 -92t-86 -64t-111.5 -37t-127 -12q-71 0 -142.5 13t-136 37t-118 59t-87.5 79q-42 51 -59.5 98.5t-17.5 89.5zM419 974q0 26 20.5 60t69.5 77q32 40 62 57.5 t53 17.5q19 0 28 -12l1 -2q10 -16 13 -35.5t3 -47.5v-46t-9 -52l-1 -3q-8 -25 -24 -44t-36 -31.5t-42.5 -19t-44.5 -6.5q-15 0 -28.5 2t-22.5 11l-3 3q-16 16 -27.5 32t-11.5 39z" />
<glyph unicode="&#xc0;" horiz-adv-x="1294" d="M58 41q6 88 34 195.5t71 224.5t97.5 237.5t115 235.5t123.5 218.5t122 185.5l-2 -1q21 18 44.5 33t42.5 19q7 3 14.5 -1.5t14.5 -13.5t11.5 -21.5t4.5 -25.5q0 -14 -6 -26q-65 -119 -125.5 -240.5t-115 -241t-101.5 -232.5t-84 -214t-62.5 -186.5t-37.5 -149.5v1 q-9 -32 -28.5 -44.5t-61.5 -12.5q-29 -11 -49 6t-22 54zM437 508q-3 18 0 32q11 20 28.5 39t37.5 28l-1 -1q84 26 174 44.5t192 32.5q-8 20 -19 51t-23 67t-24.5 74t-23.5 73t-19.5 62.5t-13.5 43.5q-8 13 -8 25q0 23 20.5 35.5t45.5 3.5q17 -6 34.5 -17.5t28.5 -30.5 q35 -66 72.5 -148t73 -171t69 -181t61.5 -179.5t49.5 -166.5t33.5 -140q10 -33 10 -53q0 -32 -27 -32q-15 0 -35.5 6t-45.5 16h1q-2 1 -3 2t-3 2q-23 14 -51.5 36t-48.5 51v-1q-14 25 -24.5 69.5t-24.5 103.5q-12 50 -26.5 110t-33.5 123q-54 -2 -103 -6t-97 -11.5 t-96.5 -18t-102.5 -24.5q-23 -9 -39 -2.5t-25.5 21t-12.5 32.5zM437 1675q0 17 9 36.5t20 31.5q6 6 17 11.5t24 8.5t26.5 3.5t23.5 -3.5q48 -22 95 -48t90.5 -59t83 -76t72.5 -100q5 -8 -5 -15.5t-18 -12.5l1 1q-8 -3 -20 -5t-23.5 -3.5t-20.5 -1t-12 3.5q-37 37 -83 68 t-94 56t-93 44.5t-79 33.5q-14 6 -14 26z" />
<glyph unicode="&#xc1;" horiz-adv-x="1294" d="M58 41q7 88 35 195t71 223.5t97.5 237.5t115 235.5t123 218.5t121.5 187q21 17 44 32t41 19q7 3 15 -1.5t15 -13.5t11.5 -21.5t4.5 -25.5q0 -14 -6 -26q-64 -119 -125 -240.5t-115.5 -241t-101.5 -232.5t-84 -214t-63 -186.5t-38 -149.5v1q-9 -32 -28.5 -44.5 t-61.5 -12.5q-29 -11 -49 6t-22 54zM384 1487.5q-2 3.5 0 7.5q33 58 72.5 101t83 76t90.5 58.5t96 47.5q10 5 23 5t26 -3.5t24.5 -9.5t17.5 -12v1q10 -13 19 -32.5t9 -36.5t-14 -23v-1q-34 -15 -79 -34.5t-92.5 -45.5t-94.5 -58t-86 -72h1q-3 -2 -11.5 -1.5t-19.5 2.5 t-22.5 5.5t-19.5 6.5q-4 2 -9 5t-8.5 6.5t-5.5 7zM437 508q-3 18 0 32q11 20 28.5 39t37.5 28l-1 -1q85 26 175 44.5t193 32.5q-13 31 -31.5 84t-37 109t-33.5 105.5t-22 72.5q-8 13 -8 25q0 23 21 35.5t46 3.5q15 -6 33 -17t29 -31q36 -66 73.5 -147t73 -169.5t69 -180.5 t61 -179.5t49 -167t33.5 -142.5q10 -33 10 -53q0 -32 -28 -32q-14 0 -35 6t-45 15q-2 1 -4 2.5t-4 3.5q-3 2 -5 4q-22 16 -48 35.5t-46 46.5l1 -1q-13 24 -23.5 67t-23.5 102q-12 51 -27 112t-34 125q-54 -2 -103 -6t-97 -11.5t-97 -18t-103 -24.5q-23 -9 -39 -2.5t-25.5 21 t-12.5 32.5z" />
<glyph unicode="&#xc2;" horiz-adv-x="1294" d="M58 41q7 88 35 195t71 223.5t97.5 237.5t115 235.5t123 218.5t121.5 187q21 17 44 32t41 19q7 3 15 -1.5t15 -13.5t11.5 -21.5t4.5 -25.5q0 -14 -6 -26q-64 -119 -125 -240.5t-115.5 -241t-101.5 -232.5t-84 -214t-63 -186.5t-38 -149.5v1q-9 -32 -28.5 -44.5 t-61.5 -12.5q-29 -11 -49 6t-22 54zM315 1490q0 9 3.5 18.5t8.5 17.5q45 53 89.5 98.5t88 78.5t85 51.5t79.5 18.5q72 0 143.5 -65t152.5 -191v1l1 -2h-1q6 -21 1 -35.5t-15.5 -24.5t-25 -14.5t-28.5 -4.5q-13 0 -24 3.5t-16 9.5q-69 83 -113 130.5t-75 47.5t-68 -35.5 t-90 -108.5q-7 -12 -18 -23.5t-24.5 -21t-30 -15.5t-34.5 -6q-13 0 -31 5h1q-32 11 -45.5 29.5t-13.5 37.5zM437 508q-3 18 0 32q11 20 28.5 39t37.5 28l-1 -1q85 26 175 44.5t193 32.5q-13 31 -31.5 84t-37 109t-33.5 105.5t-22 72.5q-8 13 -8 25q0 23 21 35.5t46 3.5 q15 -6 33 -17t29 -31q36 -66 73.5 -147t73 -169.5t69 -180.5t61 -179.5t49 -167t33.5 -142.5q10 -33 10 -53q0 -32 -28 -32q-14 0 -35 6t-45 15q-2 1 -4 2.5t-4 3.5q-3 2 -5 4q-22 16 -48 35.5t-46 46.5l1 -1q-13 24 -23.5 67t-23.5 102q-12 51 -27 112t-34 125 q-54 -2 -103 -6t-97 -11.5t-97 -18t-103 -24.5q-23 -9 -39 -2.5t-25.5 21t-12.5 32.5z" />
<glyph unicode="&#xc3;" horiz-adv-x="1294" d="M58 41q7 88 35 195t71 223.5t97.5 237.5t115 235.5t123 218.5t121.5 187q21 17 44 32t41 19q7 3 15 -1.5t15 -13.5t11.5 -21.5t4.5 -25.5q0 -14 -6 -26q-64 -119 -125 -240.5t-115.5 -241t-101.5 -232.5t-84 -214t-63 -186.5t-38 -149.5v1q-9 -32 -28.5 -44.5 t-61.5 -12.5q-29 -11 -49 6t-22 54zM279 1501q0 12 2 21q18 52 45.5 94.5t60.5 73t68.5 49t70.5 21.5q16 4 30 6t28 2q65 0 114 -37t69 -112q41 -101 94 -101q27 0 63.5 18t81.5 57q3 3 9.5 4t15 -1t17 -7.5t14.5 -15.5q24 -21 24 -41q0 -17 -12 -29v-1q-52 -60 -111.5 -91 t-116.5 -24q-27 3 -53.5 13t-50 31t-43.5 54t-34 81q-8 24 -28.5 35t-45.5 11q-24 0 -44 -10v1q-17 -6 -36.5 -17t-38.5 -30.5t-36 -49t-29 -71.5q-2 -8 -13 -15.5t-28 -7.5q-20 0 -45 15q-17 10 -26 23t-12.5 26t-3.5 25zM437 508q-3 18 0 32q11 20 28.5 39t37.5 28l-1 -1 q85 26 175 44.5t193 32.5q-13 31 -31.5 84t-37 109t-33.5 105.5t-22 72.5q-8 13 -8 25q0 23 21 35.5t46 3.5q15 -6 33 -17t29 -31q36 -66 73.5 -147t73 -169.5t69 -180.5t61 -179.5t49 -167t33.5 -142.5q10 -33 10 -53q0 -32 -28 -32q-14 0 -35 6t-45 15q-2 1 -4 2.5t-4 3.5 q-3 2 -5 4q-22 16 -48 35.5t-46 46.5l1 -1q-13 24 -23.5 67t-23.5 102q-12 51 -27 112t-34 125q-54 -2 -103 -6t-97 -11.5t-97 -18t-103 -24.5q-23 -9 -39 -2.5t-25.5 21t-12.5 32.5z" />
<glyph unicode="&#xc4;" horiz-adv-x="1294" d="M58 41q7 88 35 195t71 223.5t97.5 237.5t115 235.5t123 218.5t121.5 187q21 17 44 32t41 19q7 3 15 -1.5t15 -13.5t11.5 -21.5t4.5 -25.5q0 -14 -6 -26q-64 -119 -125 -240.5t-115.5 -241t-101.5 -232.5t-84 -214t-63 -186.5t-38 -149.5v1q-9 -32 -28.5 -44.5 t-61.5 -12.5q-29 -11 -49 6t-22 54zM330 1619q0 19 5.5 41t14.5 45q6 17 14 30t20 21.5t29.5 12t42.5 2.5h-1q31 -3 57.5 -23.5t49.5 -64.5q6 -13 10 -25.5t4 -23.5q0 -23 -24 -46t-90 -50v1q-29 -10 -52 -10q-38 0 -59 24.5t-21 65.5zM437 508q-3 18 0 32q11 20 28.5 39 t37.5 28l-1 -1q85 26 175 44.5t193 32.5q-13 31 -31.5 84t-37 109t-33.5 105.5t-22 72.5q-8 13 -8 25q0 23 21 35.5t46 3.5q15 -6 33 -17t29 -31q36 -66 73.5 -147t73 -169.5t69 -180.5t61 -179.5t49 -167t33.5 -142.5q10 -33 10 -53q0 -32 -28 -32q-14 0 -35 6t-45 15 q-2 1 -4 2.5t-4 3.5q-3 2 -5 4q-22 16 -48 35.5t-46 46.5l1 -1q-13 24 -23.5 67t-23.5 102q-12 51 -27 112t-34 125q-54 -2 -103 -6t-97 -11.5t-97 -18t-103 -24.5q-23 -9 -39 -2.5t-25.5 21t-12.5 32.5zM734 1628q0 32 17 77q14 35 37 52t71 14h-1q16 -2 32 -4.5t31 -9 t28.5 -19.5t25.5 -34v1q6 -14 10.5 -27t4.5 -26q0 -24 -24.5 -47.5t-89.5 -49.5v1q-35 -12 -60 -12q-38 0 -60 23t-22 61z" />
<glyph unicode="&#xc5;" horiz-adv-x="1294" d="M60 41q6 87 31 188t63.5 208t88 216.5t105 215t115 203t117.5 179.5q22 17 45 31.5t41 18.5q6 3 14 -1.5t15 -13.5t12 -21.5t5 -25.5t-6 -26q-97 -177 -178 -347t-143.5 -322.5t-104 -281.5t-59.5 -225v1q-9 -32 -28.5 -44.5t-61.5 -12.5q-29 -11 -49 6t-22 54zM439 508 q-3 18 0 32q11 20 28.5 39t37.5 28l-1 -1q85 26 175 44.5t193 32.5q-13 31 -31.5 84t-37 109t-33.5 105.5t-22 72.5q-8 13 -8 25q0 23 21 35.5t46 3.5q15 -6 33 -17t29 -31q36 -66 73.5 -147t73 -169.5t69 -180.5t61 -179.5t49 -167t33.5 -142.5q10 -33 10 -53 q0 -32 -28 -32q-14 0 -35 6t-45 15q-2 1 -4 2.5t-4 3.5q-3 2 -5 4q-22 16 -48 35.5t-46 46.5l1 -1q-13 24 -23.5 67t-23.5 102q-12 51 -27 112t-34 125q-54 -2 -103 -6t-97 -11.5t-97 -18t-103 -24.5q-23 -9 -39 -2.5t-25.5 21t-12.5 32.5zM466 1570q0 51 20.5 90t51.5 65.5 t68 39t70 10.5q47 -3 81 -20.5t56.5 -42.5t33 -54.5t10.5 -56.5q0 -42 -14 -79t-40 -66t-64 -48t-86 -24q-45 -5 -80 10t-59 42.5t-36 63t-12 70.5zM575 1571q0 -12 6 -26t17.5 -26.5t27 -21t33.5 -8.5q15 0 29.5 8t25.5 20t18 27t7 30q0 18 -6 35t-16.5 29.5t-25.5 20.5 t-32 8q-39 0 -59.5 -28.5t-24.5 -67.5z" />
<glyph unicode="&#xc6;" horiz-adv-x="1896" d="M51 56q19 92 59.5 201.5t95.5 227t122 238t139 235t145.5 217.5t141.5 185q24 28 47 37t44 3q14 -4 25.5 -21.5t11.5 -40.5q0 -20 -11 -36q-81 -117 -155.5 -238t-141 -240.5t-124 -233.5t-104 -216.5t-81 -190t-55.5 -153.5l1 1q-15 -32 -36.5 -44t-63.5 -6 q-31 4 -48 18.5t-12 56.5zM491.5 543.5q-2.5 19.5 0.5 34.5q11 21 29 40.5t39 30.5l-1 -1q85 29 181.5 48.5t196.5 33.5q2 19 4.5 41.5t4.5 41.5q11 108 21.5 208.5t27.5 185.5h-21q-12 0 -23 7t-19.5 17.5t-14.5 22.5t-10 22q1 13 5 27t10.5 26t15.5 20.5t19 10.5l724 71 q18 4 31 -2t21.5 -19t12.5 -30.5t4 -36.5v-1q1 -9 1 -16v-13q0 -19 -3 -29.5t-9.5 -16.5t-16 -9.5t-22.5 -6.5q-2 -1 -4 -1.5t-5 -1.5h1q-71 -8 -123.5 -13t-93 -8.5t-72 -6t-61.5 -3.5t-60.5 -2t-69.5 -1h-44t-47 -1q-5 -60 -9 -126t-7.5 -134t-5.5 -135.5t-2 -130.5 q0 -76 3 -145.5t10 -128t18 -103t27 -70.5q23 -36 62 -52t94 -16q46 0 94.5 11t104 31t120.5 48t145 63q20 9 37 1t22 -24v1q5 -19 8.5 -32t3.5 -23q0 -11 -4.5 -22.5t-12.5 -23.5q-89 -53 -163.5 -93.5t-141 -68t-127 -41.5t-121.5 -14q-50 0 -95.5 8.5t-84.5 24.5 q-12 5 -26 14.5t-28.5 22.5t-28 28.5t-23.5 33.5q-14 23 -23 66.5t-14 101.5t-7.5 126t-3.5 139q-54 -2 -99 -6t-87.5 -11.5t-87.5 -18.5t-99 -26q-23 -10 -39.5 -2.5t-26 23t-12 35zM1205 744q-5 32 4.5 55.5t22.5 31.5q47 10 80 17.5t59 14t48.5 12t49 12t59.5 13.5t81 16 q17 -1 30.5 -10t24.5 -22.5t19 -30t14 -32.5l-1 2q4 -24 -1 -48.5t-17 -43t-31 -29.5t-42 -8q-21 4 -45 5.5t-48 1.5q-27 0 -49.5 -2t-46 -5.5t-51 -8t-64.5 -9.5l-26 -4t-27 -4q-11 0 -19 8t-13.5 19.5t-8 24.5t-2.5 24z" />
<glyph unicode="&#xc7;" horiz-adv-x="1258" d="M98 424q0 39 6 86q5 89 35 181t79.5 181.5t116 175t145 161.5t167.5 140t182 112h-1q19 9 41 2.5t36 -38.5q6 -15 4 -31.5t-9.5 -31t-18 -26t-19.5 -15.5q-109 -70 -211 -167.5t-181.5 -210.5t-127.5 -235t-48 -240q0 -58 18.5 -106t52 -84t79.5 -58.5t100 -28.5 q8 -1 19 -1h20q57 0 120 8.5t129 23t133 32t133 35.5q13 4 25.5 7t25.5 7q10 0 22 -3.5t23 -12.5t20 -26.5t14 -46.5q4 -26 -2.5 -48t-17.5 -38.5t-24 -25.5t-23 -10q-124 -36 -246.5 -58.5t-238.5 -26.5l-14 -57q38 1 74.5 -9t65.5 -30.5t46.5 -50.5t17.5 -67 q0 -45 -18 -79t-49 -58t-71 -38t-85 -18h1q-12 -1 -24.5 -1.5t-23.5 -0.5q-31 0 -62.5 5.5t-63.5 19.5q-28 12 -40 29.5t-12 36.5q0 13 5.5 24t14.5 18.5t20.5 10t23.5 -1.5v1q24 -9 42 -14.5t33 -8.5t29 -4t30 -1q21 0 42.5 4t39 13.5t28.5 26t11 41.5q0 18 -16.5 29.5 t-41 18t-52.5 8.5t-51 0q-7 -1 -21 -1t-27 3t-21.5 10t-4.5 21q9 31 18.5 62.5t20.5 61.5q-45 5 -87 12.5t-81 20.5q-60 19 -110.5 51t-87 78.5t-57 108.5t-20.5 142z" />
<glyph unicode="&#xc8;" horiz-adv-x="1281" d="M91 1224q1 25 14 50t34 30l910 69q18 4 31 -2t21.5 -18t12.5 -29t4 -35v-1q1 -8 1 -15v-13q0 -18 -3 -28.5t-9.5 -16.5t-16 -9t-22.5 -6q-2 -1 -3.5 -0.5t-4.5 -0.5h1q-104 -11 -191.5 -17.5t-164.5 -10t-145.5 -4.5t-134.5 -2q-64 -1 -132 -2t-137 -4q-12 1 -22.5 7.5 t-19 16.5t-14.5 21t-9 20zM144 480q0 116 32 258t103 314v-1q14 26 27 34.5t25 8.5q5 0 14 -1.5t15 -3.5q2 -2 8 -2q17 -3 32 -16.5t15 -36.5q0 -11 -3.5 -22.5t-12.5 -25.5q-50 -140 -74 -253.5t-24 -204.5q0 -92 27 -159.5t75 -109.5q43 -39 102 -58t131 -19 q103 0 230.5 34t276.5 95q20 9 37.5 1t22.5 -22v1q10 -34 10 -52q0 -20 -16 -45q-162 -93 -317 -142.5t-289 -49.5q-83 0 -152.5 19.5t-125.5 61.5q-78 56 -123.5 154.5t-45.5 242.5zM389 716q-5 29 4.5 51.5t22.5 30.5q75 14 142.5 23t136.5 17q65 8 135 17.5t148 23.5 q17 -1 30.5 -9.5t24 -22t19 -29.5t14.5 -31l-1 2q4 -22 -1.5 -45.5t-18 -42t-31 -29t-40.5 -6.5q-42 5 -81.5 7t-77.5 2q-100 0 -193.5 -10.5t-189.5 -22.5q-11 1 -19 8.5t-13.5 19t-8 24t-2.5 22.5zM419 1690q0 17 9.5 36.5t20.5 32.5q8 9 26.5 16t38.5 7q17 0 25 -4 q49 -22 96 -47.5t90.5 -58.5t83 -76.5t72.5 -100.5q4 -8 -5.5 -15t-17.5 -11q-8 -3 -19.5 -6t-23 -4.5t-20 -1.5t-11.5 3q-38 38 -84.5 69t-94 56.5t-92.5 45.5t-79 35q-8 2 -11.5 9t-3.5 15z" />
<glyph unicode="&#xc9;" horiz-adv-x="1281" d="M91 1224q1 25 14 50t34 30l910 69q18 4 31 -2t21.5 -18t12.5 -29t4 -35v-1q1 -8 1 -15v-13q0 -18 -3 -28.5t-9.5 -16.5t-16 -9t-22.5 -6q-2 -1 -3.5 -0.5t-4.5 -0.5h1q-104 -11 -191.5 -17.5t-164.5 -10t-145.5 -4.5t-134.5 -2q-64 -1 -132 -2t-137 -4q-12 1 -22.5 7.5 t-19 16.5t-14.5 21t-9 20zM144 480q0 116 32 258t103 314v-1q14 26 27 34.5t25 8.5q5 0 14 -1.5t15 -3.5q2 -2 8 -2q17 -3 32 -16.5t15 -36.5q0 -11 -3.5 -22.5t-12.5 -25.5q-50 -140 -74 -253.5t-24 -204.5q0 -92 27 -159.5t75 -109.5q43 -39 102 -58t131 -19 q103 0 230.5 34t276.5 95q20 9 37.5 1t22.5 -22v1q10 -34 10 -52q0 -20 -16 -45q-162 -93 -317 -142.5t-289 -49.5q-83 0 -152.5 19.5t-125.5 61.5q-78 56 -123.5 154.5t-45.5 242.5zM386 1487.5q-2 3.5 0 7.5q33 58 72.5 101t83 76t90.5 58.5t96 47.5q10 5 23 5t26 -3.5 t24.5 -9.5t17.5 -12v1q10 -13 19 -32.5t9 -36.5t-14 -23v-1q-34 -15 -79 -34.5t-92.5 -45.5t-94.5 -58t-86 -72h1q-3 -2 -11.5 -1.5t-19.5 2.5t-22.5 5.5t-19.5 6.5q-4 2 -9 5t-8.5 6.5t-5.5 7zM389 716q-5 29 4.5 51.5t22.5 30.5q75 14 142.5 23t136.5 17q65 8 135 17.5 t148 23.5q17 -1 30.5 -9.5t24 -22t19 -29.5t14.5 -31l-1 2q4 -22 -1.5 -45.5t-18 -42t-31 -29t-40.5 -6.5q-42 5 -81.5 7t-77.5 2q-100 0 -193.5 -10.5t-189.5 -22.5q-11 1 -19 8.5t-13.5 19t-8 24t-2.5 22.5z" />
<glyph unicode="&#xca;" horiz-adv-x="1281" d="M91 1224q1 25 14 50t34 30l910 69q18 4 31 -2t21.5 -18t12.5 -29t4 -35v-1q1 -8 1 -15v-13q0 -18 -3 -28.5t-9.5 -16.5t-16 -9t-22.5 -6q-2 -1 -3.5 -0.5t-4.5 -0.5h1q-104 -11 -191.5 -17.5t-164.5 -10t-145.5 -4.5t-134.5 -2q-64 -1 -132 -2t-137 -4q-12 1 -22.5 7.5 t-19 16.5t-14.5 21t-9 20zM144 480q0 116 32 258t103 314v-1q14 26 27 34.5t25 8.5q5 0 14 -1.5t15 -3.5q2 -2 8 -2q17 -3 32 -16.5t15 -36.5q0 -11 -3.5 -22.5t-12.5 -25.5q-50 -140 -74 -253.5t-24 -204.5q0 -92 27 -159.5t75 -109.5q43 -39 102 -58t131 -19 q103 0 230.5 34t276.5 95q20 9 37.5 1t22.5 -22v1q10 -34 10 -52q0 -20 -16 -45q-162 -93 -317 -142.5t-289 -49.5q-83 0 -152.5 19.5t-125.5 61.5q-78 56 -123.5 154.5t-45.5 242.5zM319 1522q0 19 12 33q45 49 90.5 90.5t89 71.5t85 47t79.5 17q75 0 146 -59.5t153 -178.5 v2q7 -18 2.5 -31t-15 -22t-25.5 -13t-30 -4q-29 0 -42 13v-1q-5 5 -9 10t-9 10q-60 66 -100 104.5t-71 38.5q-30 0 -67.5 -33t-88.5 -99q-8 -10 -19.5 -20.5t-26 -19.5t-31 -15t-34.5 -6q-13 0 -31 5q-28 10 -43 26.5t-15 33.5zM389 716q-5 29 4.5 51.5t22.5 30.5 q75 14 142.5 23t136.5 17q65 8 135 17.5t148 23.5q17 -1 30.5 -9.5t24 -22t19 -29.5t14.5 -31l-1 2q4 -22 -1.5 -45.5t-18 -42t-31 -29t-40.5 -6.5q-42 5 -81.5 7t-77.5 2q-100 0 -193.5 -10.5t-189.5 -22.5q-11 1 -19 8.5t-13.5 19t-8 24t-2.5 22.5z" />
<glyph unicode="&#xcb;" horiz-adv-x="1281" d="M91 1224q1 25 14 50t34 30l910 69q18 4 31 -2t21.5 -18t12.5 -29t4 -35v-1q1 -8 1 -15v-13q0 -18 -3 -28.5t-9.5 -16.5t-16 -9t-22.5 -6q-2 -1 -3.5 -0.5t-4.5 -0.5h1q-104 -11 -191.5 -17.5t-164.5 -10t-145.5 -4.5t-134.5 -2q-64 -1 -132 -2t-137 -4q-12 1 -22.5 7.5 t-19 16.5t-14.5 21t-9 20zM144 480q0 116 32 258t103 314v-1q14 26 27 34.5t25 8.5q5 0 14 -1.5t15 -3.5q2 -2 8 -2q17 -3 32 -16.5t15 -36.5q0 -11 -3.5 -22.5t-12.5 -25.5q-50 -140 -74 -253.5t-24 -204.5q0 -92 27 -159.5t75 -109.5q43 -39 102 -58t131 -19 q103 0 230.5 34t276.5 95q20 9 37.5 1t22.5 -22v1q10 -34 10 -52q0 -20 -16 -45q-162 -93 -317 -142.5t-289 -49.5q-83 0 -152.5 19.5t-125.5 61.5q-78 56 -123.5 154.5t-45.5 242.5zM300 1616q0 38 19 84q13 33 35.5 51.5t68.5 17.5q33 -4 59.5 -24t51.5 -64v1 q5 -12 9 -24.5t4 -23.5q0 -24 -25 -48t-92 -50v1q-29 -10 -50 -10q-38 0 -59 24.5t-21 64.5zM389 716q-5 29 4.5 51.5t22.5 30.5q75 14 142.5 23t136.5 17q65 8 135 17.5t148 23.5q17 -1 30.5 -9.5t24 -22t19 -29.5t14.5 -31l-1 2q4 -22 -1.5 -45.5t-18 -42t-31 -29 t-40.5 -6.5q-42 5 -81.5 7t-77.5 2q-100 0 -193.5 -10.5t-189.5 -22.5q-11 1 -19 8.5t-13.5 19t-8 24t-2.5 22.5zM708 1625q0 33 17 75q14 34 36.5 52t68.5 17q17 -2 33.5 -5t31.5 -10.5t29 -20.5t26 -34v1q5 -13 9.5 -25t4.5 -25q0 -23 -25.5 -47t-90.5 -49 q-16 -5 -31.5 -8.5t-26.5 -3.5q-38 0 -60 22.5t-22 60.5z" />
<glyph unicode="&#xcc;" horiz-adv-x="707" d="M75.5 88.5q2.5 14.5 8 25t13 16.5t14.5 6l145 9q-2 48 -5.5 103.5t-7.5 104.5q-7 92 -12.5 182.5t-5.5 184.5q0 109 11 224.5t41 245.5h-49.5t-43.5 1q-11 0 -19 0.5t-13 0.5q-14 0 -29.5 17.5t-15.5 44.5q-6 36 5.5 52t32.5 16l411 46q29 5 45 -14.5t23 -53.5 q-2 -39 -21 -62t-50 -25q-18 -6 -39.5 -10t-50.5 -6q-19 -116 -31 -225.5t-19 -215t-11 -208.5t-7 -205q-2 -45 -3.5 -95t-3.5 -97l138 10q26 6 42 -14t24 -64q0 -17 -7 -31.5t-17.5 -25.5t-22.5 -17.5t-23 -6.5q-30 -8 -71 -11.5t-86 -3.5t-93.5 2.5t-86.5 4.5q-24 2 -43 3 t-31 1q-11 0 -23 16.5t-12 43.5q-3 16 -0.5 30.5zM133 1690q0 17 9 36.5t19 32.5q8 9 27.5 16t39.5 7q16 0 24 -4q49 -22 96 -47.5t90.5 -58.5t82.5 -76.5t72 -100.5q5 -8 -5 -15t-19 -11q-7 -3 -18 -6.5t-21.5 -6t-18.5 -3t-9 1.5q-38 38 -83 69t-90.5 56t-89 44.5 t-77.5 34.5q-4 2 -7.5 3.5t-7.5 3.5v1q-14 6 -14 23z" />
<glyph unicode="&#xcd;" horiz-adv-x="707" d="M75.5 88.5q2.5 14.5 8 25t13 16.5t14.5 6l145 9q-2 48 -5.5 103.5t-7.5 104.5q-7 92 -12.5 182.5t-5.5 184.5q0 109 11 224.5t41 245.5h-49.5t-43.5 1q-11 0 -19 0.5t-13 0.5q-14 0 -29.5 17.5t-15.5 44.5q-6 36 5.5 52t32.5 16l411 46q29 5 45 -14.5t23 -53.5 q-2 -39 -21 -62t-50 -25q-18 -6 -39.5 -10t-50.5 -6q-19 -116 -31 -225.5t-19 -215t-11 -208.5t-7 -205q-2 -45 -3.5 -95t-3.5 -97l138 10q26 6 42 -14t24 -64q0 -17 -7 -31.5t-17.5 -25.5t-22.5 -17.5t-23 -6.5q-30 -8 -71 -11.5t-86 -3.5t-93.5 2.5t-86.5 4.5q-24 2 -43 3 t-31 1q-11 0 -23 16.5t-12 43.5q-3 16 -0.5 30.5zM99 1495q33 58 72.5 101t83 76t90 58.5t94.5 47.5q5 2 11.5 3t13.5 1q20 0 39 -7t29 -17v1q9 -13 18 -32.5t9 -36.5t-14 -23v-1q-4 -2 -7.5 -3.5t-7.5 -3.5q-35 -15 -78.5 -35t-89 -45t-89.5 -55.5t-80 -67.5h1 q-3 -2 -11.5 -1.5t-19.5 2.5t-22 5.5t-19 6.5q-8 4 -18 11t-5 15z" />
<glyph unicode="&#xce;" horiz-adv-x="752" d="M51 1499q0 9 4 18t9 15q45 49 90.5 90.5t89 71.5t85 47t78.5 17q75 0 146.5 -59t152.5 -177q6 -18 1.5 -31.5t-15.5 -21.5t-25.5 -12t-28.5 -4q-13 0 -23.5 2.5t-17.5 8.5v-1q-69 77 -113 121t-77 44q-30 0 -67 -33t-88 -99q-17 -21 -45 -40.5t-65 -19.5q-8 0 -16 1 t-17 4q-31 8 -44.5 24t-13.5 34zM97.5 88.5q2.5 14.5 8 25t13 16.5t15.5 6l145 9q-2 50 -5.5 105.5t-7.5 106.5q-7 92 -12.5 183t-5.5 186q0 108 10.5 222t39.5 242h-49.5t-43.5 1q-10 0 -17.5 0.5t-12.5 0.5q-17 0 -31.5 17.5t-14.5 44.5q-7 36 5 52t33 16l411 46 q29 5 45 -14t22 -54q-2 -39 -21.5 -61.5t-49.5 -25.5q-17 -6 -38.5 -10t-50.5 -6q-19 -116 -31 -225.5t-19.5 -215t-11.5 -208.5t-7 -205q-2 -45 -3 -95t-3 -97l138 10q26 6 42 -14t24 -64q0 -17 -7 -31.5t-17.5 -25.5t-22.5 -17.5t-23 -6.5q-29 -8 -70 -11.5t-86 -3.5 q-47 0 -95 2.5t-86 4.5q-24 2 -43 3t-30 1t-23.5 16.5t-12.5 43.5q-3 16 -0.5 30.5z" />
<glyph unicode="&#xcf;" horiz-adv-x="707" d="M17 1618q0 37 20 85q13 33 35 51t69 17q32 -3 59 -23.5t51 -64.5v1q5 -12 9 -24.5t4 -23.5q0 -24 -25 -47.5t-92 -50.5v1q-27 -10 -50 -10q-38 0 -59 24t-21 65zM75.5 88.5q2.5 14.5 8 25t13 16.5t14.5 6l145 9q-2 48 -5.5 103.5t-7.5 104.5q-7 92 -12.5 182.5 t-5.5 184.5q0 109 11 224.5t41 245.5h-49.5t-43.5 1q-11 0 -19 0.5t-13 0.5q-14 0 -29.5 17.5t-15.5 44.5q-6 36 5.5 52t32.5 16l411 46q29 5 45 -14.5t23 -53.5q-2 -39 -21 -62t-50 -25q-18 -6 -39.5 -10t-50.5 -6q-19 -116 -31 -225.5t-19 -215t-11 -208.5t-7 -205 q-2 -45 -3.5 -95t-3.5 -97l138 10q26 6 42 -14t24 -64q0 -17 -7 -31.5t-17.5 -25.5t-22.5 -17.5t-23 -6.5q-30 -8 -71 -11.5t-86 -3.5q-46 0 -94 2.5t-86 4.5q-24 2 -43 3t-31 1q-11 0 -23 16.5t-12 43.5q-3 16 -0.5 30.5zM425 1628q0 17 4 36t12 39q14 33 37 51t69 17 q17 -2 33.5 -4.5t32 -10t29.5 -20.5t26 -34v1q5 -13 9.5 -25t4.5 -25q0 -24 -25 -48t-92 -50v1q-33 -12 -58 -12q-38 0 -60 23t-22 61z" />
<glyph unicode="&#xd0;" horiz-adv-x="1327" d="M50 663q-6 35 10.5 54.5t36.5 19.5l161 13q7 82 21 178t37 212q9 8 20 15q9 6 21 11t26 5q17 0 34 -7q15 -2 29 -7.5t23.5 -16t13 -25t-3.5 -33.5v-2q-12 -92 -19.5 -168t-11.5 -146l250 21q31 5 48.5 -18t23.5 -65q0 -21 -7 -38t-17.5 -29t-22.5 -20t-24 -11 q-63 -12 -129.5 -18.5t-130.5 -7.5q-1 -27 -1.5 -54t-0.5 -56q-2 -84 -4.5 -182.5t-8.5 -221.5q-2 -11 -6.5 -24t-12.5 -23.5t-20 -17.5t-29 -7q-22 2 -40 22t-18 50q-5 68 -11 126.5t-11 112.5q-8 75 -14.5 142.5t-8.5 139.5q-39 3 -77 6.5t-73 8.5q-18 0 -35.5 16 t-17.5 45zM97 1322q1 21 6.5 38.5t14 30t17.5 20t17 7.5q139 18 260 18q148 0 268 -23.5t217 -65.5q156 -67 243 -181.5t122 -268.5q9 -39 13 -76t4 -73q0 -117 -41.5 -219.5t-107.5 -187.5q-45 -54 -99 -101t-111.5 -87t-116.5 -74t-113 -61q-23 -6 -39 -6q-20 0 -37 9.5 t-28 33.5l1 -1q-5 15 -1.5 29t11 25t16.5 18.5t14 9.5q54 32 107 66t102.5 71t94 78t81.5 88q54 71 85.5 151t31.5 161q0 50 -10 94q-28 118 -100 201.5t-190 123.5q-80 26 -186.5 42t-243.5 16q-54 0 -112 -2.5t-120 -8.5q-11 -3 -21.5 4t-19.5 21.5t-17 35t-12 44.5z" />
<glyph unicode="&#xd1;" horiz-adv-x="1374" d="M116 91q9 61 17.5 141.5t15 171t10.5 185.5t4 185q0 54 -1.5 107t-5.5 98q1 26 12 51t40 36q38 -1 54 -11.5t19 -41.5q9 -56 16 -119.5t11.5 -131.5t7 -138.5t2.5 -140.5q0 -104 -4.5 -202.5t-15.5 -182.5q-3 -34 -30 -58t-72 -40h1q-13 -4 -27 -4q-34 0 -48 27t-6 68z M254.5 1267.5q2.5 9.5 11 18t20 15t23.5 9.5q8 4 19 4t21.5 -3.5t19 -9.5t10.5 -13v1q57 -211 108.5 -369t96.5 -273.5t83.5 -193t68.5 -126.5q28 -33 52.5 -52t46.5 -28.5t40.5 -10.5t35.5 3q21 2 40 14.5t36.5 37t32.5 63t27 92.5q12 79 20 197t8 288q0 76 -2 166.5 t-6 189.5q1 16 7.5 34t19.5 32.5t31.5 22.5t43.5 3q47 -8 74 -33t27 -59q3 -105 3 -201q0 -262 -20.5 -441t-55.5 -293q-23 -86 -53 -144.5t-62.5 -95.5t-66 -56t-62.5 -25q-25 -5 -48 -5q-142 0 -265 165q-51 64 -101 158t-98.5 223t-94.5 296.5t-88 379.5q-6 10 -3.5 19.5 zM291 1504q0 12 2 21v-2q18 54 45.5 97t60.5 73.5t69 48t71 20.5q17 4 31 6t28 2q64 0 113 -38t68 -113q21 -50 43.5 -74t51.5 -24q28 0 64.5 17.5t80.5 57.5q2 3 9 4t15 -1.5t16.5 -8t14.5 -15.5q25 -22 25 -41q0 -9 -3.5 -17t-8.5 -13q-53 -60 -112 -90.5t-116 -23.5 q-27 2 -54 12.5t-50.5 31.5t-43 54t-32.5 81q-8 23 -30 34t-46 11q-22 0 -43 -9v1q-18 -6 -37.5 -17t-38.5 -30.5t-35.5 -49t-28.5 -72.5l1 1q-3 -8 -14.5 -16t-29.5 -8q-21 0 -43 15q-17 11 -26 24t-13 26t-4 25z" />
<glyph unicode="&#xd2;" horiz-adv-x="1188" d="M83 653q0 146 46.5 301t145.5 322l-1 -1q11 14 25 20.5t28 6.5q17 0 33.5 -7.5t29.5 -18.5q1 -2 2 -4.5t3 -4.5l10 -20t5 -31q79 72 152.5 104t140.5 32q72 0 140 -35t124 -92q72 -83 115 -204.5t43 -267.5q0 -88 -15.5 -182.5t-50.5 -197.5v-1q-21 -66 -43.5 -125.5 t-57.5 -109.5t-88.5 -89t-136.5 -65q-34 -9 -69 -13.5t-66 -4.5q-89 0 -165 31.5t-136.5 88t-104.5 135t-69 172.5q-40 124 -40 261zM271 606q0 -109 23 -201t63 -157.5t93.5 -100t114.5 -27.5q35 6 75.5 19t82 36t80.5 58t71 84t53.5 114.5t28.5 149.5q4 44 5.5 84t1.5 77 q0 196 -47.5 304t-134.5 134q-24 7 -55 7q-43 0 -92 -18t-102.5 -56.5t-110.5 -98.5t-115 -143q-18 -71 -26.5 -137t-8.5 -128zM420 1690q0 17 9 36.5t20 32.5q8 9 27 16t39 7q16 0 24 -4q49 -22 96.5 -47.5t91 -58.5t82.5 -76.5t72 -100.5q4 -8 -5 -15t-17 -11 q-8 -3 -19.5 -6t-23 -4.5t-20.5 -1.5t-11 3q-38 38 -84.5 69t-94.5 56.5t-93 45.5t-79 35q-8 2 -11 9t-3 15z" />
<glyph unicode="&#xd3;" horiz-adv-x="1188" d="M83 653q0 146 46.5 301t145.5 322l-1 -1q11 14 25 20.5t28 6.5q17 0 33.5 -7.5t29.5 -18.5q1 -2 2 -4.5t3 -4.5l10 -20t5 -31q79 72 152.5 104t140.5 32q72 0 140 -35t124 -92q72 -83 115 -204.5t43 -267.5q0 -88 -15.5 -182.5t-50.5 -197.5v-1q-21 -66 -43.5 -125.5 t-57.5 -109.5t-88.5 -89t-136.5 -65q-34 -9 -69 -13.5t-66 -4.5q-89 0 -165 31.5t-136.5 88t-104.5 135t-69 172.5q-40 124 -40 261zM271 606q0 -109 23 -201t63 -157.5t93.5 -100t114.5 -27.5q35 6 75.5 19t82 36t80.5 58t71 84t53.5 114.5t28.5 149.5q4 44 5.5 84t1.5 77 q0 196 -47.5 304t-134.5 134q-24 7 -55 7q-43 0 -92 -18t-102.5 -56.5t-110.5 -98.5t-115 -143q-18 -71 -26.5 -137t-8.5 -128zM387 1493q33 55 73 98t84.5 77t92 61t96.5 49q8 4 22 4q19 0 37 -7.5t27 -17.5q11 -13 20 -32.5t9 -36.5t-14 -23v-1q-33 -14 -78 -34t-93 -46 t-95 -58.5t-86 -71.5q-6 0 -15 1t-19 2.5t-19.5 3.5t-16.5 4h-1q-8 5 -17.5 13t-6.5 15z" />
<glyph unicode="&#xd4;" horiz-adv-x="1188" d="M83 653q0 146 46.5 301t145.5 322l-1 -1q11 14 25 20.5t28 6.5q17 0 33.5 -7.5t29.5 -18.5q1 -2 2 -4.5t3 -4.5l10 -20t5 -31q79 72 152.5 104t140.5 32q72 0 140 -35t124 -92q72 -83 115 -204.5t43 -267.5q0 -88 -15.5 -182.5t-50.5 -197.5v-1q-21 -66 -43.5 -125.5 t-57.5 -109.5t-88.5 -89t-136.5 -65q-34 -9 -69 -13.5t-66 -4.5q-89 0 -165 31.5t-136.5 88t-104.5 135t-69 172.5q-40 124 -40 261zM271 606q0 -109 23 -201t63 -157.5t93.5 -100t114.5 -27.5q35 6 75.5 19t82 36t80.5 58t71 84t53.5 114.5t28.5 149.5q4 44 5.5 84t1.5 77 q0 196 -47.5 304t-134.5 134q-24 7 -55 7q-43 0 -92 -18t-102.5 -56.5t-110.5 -98.5t-115 -143q-18 -71 -26.5 -137t-8.5 -128zM320 1522q0 19 12 33q45 49 90 90.5t89 71.5t85.5 47t79.5 17q75 0 146 -59.5t152 -178.5v2q7 -18 2.5 -31t-15 -22t-25.5 -13t-30 -4 q-28 0 -41 13v-1q-5 5 -9 10t-9 10q-60 66 -100.5 104.5t-70.5 38.5q-31 0 -68 -33t-89 -99q-8 -10 -19.5 -20.5t-25.5 -19.5t-30.5 -15t-34.5 -6q-12 0 -32 5q-28 10 -42.5 26.5t-14.5 33.5z" />
<glyph unicode="&#xd5;" horiz-adv-x="1188" d="M83 653q0 146 46.5 301t145.5 322l-1 -1q11 14 25 20.5t28 6.5q17 0 33.5 -7.5t29.5 -18.5q1 -2 2 -4.5t3 -4.5l10 -20t5 -31q79 72 152.5 104t140.5 32q72 0 140 -35t124 -92q72 -83 115 -204.5t43 -267.5q0 -88 -15.5 -182.5t-50.5 -197.5v-1q-21 -66 -43.5 -125.5 t-57.5 -109.5t-88.5 -89t-136.5 -65q-34 -9 -69 -13.5t-66 -4.5q-89 0 -165 31.5t-136.5 88t-104.5 135t-69 172.5q-40 124 -40 261zM236 1531q0 11 2 18v-2q18 49 45 88t59.5 67t68 43.5t71.5 18.5q16 4 30.5 5.5t28.5 1.5q64 0 113 -34.5t66 -102.5q41 -89 94 -89 q57 0 149 71q2 2 8.5 2t14.5 -2.5t16 -8.5t14 -15q13 -8 18 -17t5 -18q0 -16 -11 -25l-1 -1q-51 -54 -111.5 -82t-116.5 -24q-26 3 -52 13.5t-50 30t-44 49t-34 71.5q-8 21 -29.5 31t-46.5 10q-24 0 -40 -6q-18 -6 -37 -16t-38 -28t-35.5 -45t-29.5 -67l1 1q-3 -8 -14 -14.5 t-28 -6.5q-20 0 -43 13q-17 10 -26 22.5t-13 24.5t-4 23zM271 606q0 -109 23 -201t63 -157.5t93.5 -100t114.5 -27.5q35 6 75.5 19t82 36t80.5 58t71 84t53.5 114.5t28.5 149.5q4 44 5.5 84t1.5 77q0 196 -47.5 304t-134.5 134q-24 7 -55 7q-43 0 -92 -18t-102.5 -56.5 t-110.5 -98.5t-115 -143q-18 -71 -26.5 -137t-8.5 -128z" />
<glyph unicode="&#xd6;" horiz-adv-x="1188" d="M83 653q0 146 46.5 301t145.5 322l-1 -1q11 14 25 20.5t28 6.5q17 0 33.5 -7.5t29.5 -18.5q1 -2 2 -4.5t3 -4.5l10 -20t5 -31q79 72 152.5 104t140.5 32q72 0 140 -35t124 -92q72 -83 115 -204.5t43 -267.5q0 -88 -15.5 -182.5t-50.5 -197.5v-1q-21 -66 -43.5 -125.5 t-57.5 -109.5t-88.5 -89t-136.5 -65q-34 -9 -69 -13.5t-66 -4.5q-89 0 -165 31.5t-136.5 88t-104.5 135t-69 172.5q-40 124 -40 261zM271 606q0 -109 23 -201t63 -157.5t93.5 -100t114.5 -27.5q35 6 75.5 19t82 36t80.5 58t71 84t53.5 114.5t28.5 149.5q4 44 5.5 84t1.5 77 q0 196 -47.5 304t-134.5 134q-24 7 -55 7q-43 0 -92 -18t-102.5 -56.5t-110.5 -98.5t-115 -143q-18 -71 -26.5 -137t-8.5 -128zM311 1619q0 41 18 86q12 35 34.5 52t72.5 14h-1q32 -3 58 -23.5t50 -64.5q6 -13 10 -25t4 -23q0 -23 -24.5 -47t-90.5 -50v1q-29 -10 -51 -10 q-39 0 -59.5 24.5t-20.5 65.5zM715 1628q0 32 17 77q13 35 36 52t71 14h-1q16 -2 31.5 -4.5t30.5 -9t29 -19.5t26 -34v1q6 -14 10 -27t4 -26q0 -23 -24 -47t-89 -50v1q-35 -12 -59 -12q-38 0 -60 23t-22 61z" />
<glyph unicode="&#xd7;" horiz-adv-x="1038" d="M92 260q0 24 11 41l1 1l281 393q-63 81 -121.5 169t-121.5 172q-7 9 -7 23t4 29t11 28.5t16 22.5q17 17 37.5 25.5t38.5 8.5t31 -11l236 -346l269 361q17 23 44 23q21 0 43.5 -9t42.5 -26q17 -17 23 -34.5t6 -34.5q-36 -56 -71.5 -105t-74.5 -99.5t-82 -107t-93 -126.5 q30 -37 67 -86t74.5 -99.5t72 -96t58.5 -76.5q17 -20 14.5 -43.5t-16.5 -35.5q-25 -22 -51 -22q-21 0 -44 14l-292 334q-32 -42 -58 -76t-56 -72.5t-69 -87.5t-97 -121q-9 -10 -37 -10q-16 0 -32.5 5t-25.5 13q-17 11 -24.5 28t-7.5 34z" />
<glyph unicode="&#xd8;" horiz-adv-x="1188" d="M83 695q0 153 46.5 315.5t143.5 337.5l-1 -1q12 15 26 21t28 6q17 0 33.5 -8t27.5 -18q8 -12 14.5 -28.5t6.5 -36.5q78 75 151.5 110t139.5 35q82 0 159 -48q22 37 44 70t44 65q3 4 8 8q4 3 10.5 5.5t14.5 2.5q6 0 13.5 -2t16.5 -5h-1q9 -5 18 -13.5t15.5 -19.5t9.5 -24 t-1 -26l1 1q-19 -42 -38 -83t-39 -84q65 -86 103.5 -208.5t38.5 -266.5q0 -93 -16 -193.5t-50 -209.5q-21 -69 -43 -131.5t-56.5 -115.5t-87.5 -94.5t-136 -68.5q-35 -9 -68.5 -14t-64.5 -5q-60 0 -114.5 15.5t-102.5 44.5q-26 -48 -50.5 -93.5t-49.5 -89.5 q-4 -12 -15.5 -20.5t-25.5 -8.5q-8 0 -15.5 3.5t-13.5 12.5q-6 4 -12.5 9.5t-11 13.5t-5 18t4.5 24q5 11 11 26t13 33q12 32 28 73t35 90q-51 58 -88.5 133.5t-58.5 166.5q-40 132 -40 276zM269 643q0 -105 19 -194t52 -157q43 106 94 226.5t107.5 245t116.5 247.5t122 235 q-2 1 -3 1t-3 1q-26 8 -55 8q-43 0 -92 -19.5t-102 -60t-109 -104t-113 -151.5q-17 -72 -25.5 -142t-8.5 -136zM445 162q27 -17 55.5 -25t59.5 -4q35 6 76 19.5t82.5 38t80 61t70 88t53 120.5t27.5 157q4 48 5.5 90.5t1.5 83.5q0 109 -14 191t-40 139q-55 -119 -112 -242.5 t-114.5 -245.5t-115.5 -241t-115 -230z" />
<glyph unicode="&#xd9;" horiz-adv-x="1258" d="M101 806q0 106 10 231t33 276q4 38 30.5 52.5t67.5 18.5q14 2 25.5 4t21.5 2q35 0 51 -14t16 -40q0 -13 -4 -28q-23 -185 -35 -329t-12 -259q0 -103 10.5 -185t27.5 -145q33 -117 102.5 -175t161.5 -70q52 0 98.5 13.5t86.5 42.5t74 75.5t60 112.5q31 86 44.5 199 t13.5 265q0 113 -8 256.5t-22 308.5v8q0 31 9.5 45t44.5 16q24 10 47 10q29 0 45.5 -16.5t19.5 -32.5v1q19 -163 28.5 -301.5t9.5 -257.5q0 -189 -24 -328t-74 -242q-64 -157 -169 -234.5t-247 -77.5q-27 0 -55 3q-67 3 -127.5 21t-112 54t-94.5 91.5t-74 134.5 q-38 91 -59 211.5t-21 282.5zM412 1690q0 17 9 36.5t18 32.5v-1q10 10 29 17t39 7q16 0 24 -4q48 -23 95 -48.5t90.5 -58.5t83 -76t72.5 -100q5 -8 -5 -15t-19 -11q-8 -3 -18.5 -6.5t-21 -5.5t-18.5 -2.5t-10 1.5q-40 40 -88 72t-96 58t-92.5 45.5t-78.5 34.5q-13 6 -13 24z " />
<glyph unicode="&#xda;" horiz-adv-x="1258" d="M101 806q0 106 10 231t33 276q4 38 30.5 52.5t67.5 18.5q14 2 25.5 4t21.5 2q35 0 51 -14t16 -40q0 -13 -4 -28q-23 -185 -35 -329t-12 -259q0 -103 10.5 -185t27.5 -145q33 -117 102.5 -175t161.5 -70q52 0 98.5 13.5t86.5 42.5t74 75.5t60 112.5q31 86 44.5 199 t13.5 265q0 113 -8 256.5t-22 308.5v8q0 31 9.5 45t44.5 16q24 10 47 10q29 0 45.5 -16.5t19.5 -32.5v1q19 -163 28.5 -301.5t9.5 -257.5q0 -189 -24 -328t-74 -242q-64 -157 -169 -234.5t-247 -77.5q-27 0 -55 3q-67 3 -127.5 21t-112 54t-94.5 91.5t-74 134.5 q-38 91 -59 211.5t-21 282.5zM378 1495q33 58 72 101t82.5 76t90.5 58.5t96 47.5q10 5 23 5t26 -3.5t24.5 -9.5t17.5 -12v1q10 -13 19 -32.5t9 -36.5t-14 -23v-1q-4 -2 -7.5 -3.5t-7.5 -3.5q-35 -15 -78.5 -35t-89 -45t-89.5 -55.5t-80 -67.5h1q-3 -2 -12 -1.5t-19.5 2.5 t-22 5.5t-18.5 6.5q-8 4 -18 11t-5 15z" />
<glyph unicode="&#xdb;" horiz-adv-x="1258" d="M101 806q0 106 10 231t33 276q4 38 30.5 52.5t67.5 18.5q14 2 25.5 4t21.5 2q35 0 51 -14t16 -40q0 -13 -4 -28q-23 -185 -35 -329t-12 -259q0 -103 10.5 -185t27.5 -145q33 -117 102.5 -175t161.5 -70q52 0 98.5 13.5t86.5 42.5t74 75.5t60 112.5q31 86 44.5 199 t13.5 265q0 113 -8 256.5t-22 308.5v8q0 31 9.5 45t44.5 16q24 10 47 10q29 0 45.5 -16.5t19.5 -32.5v1q19 -163 28.5 -301.5t9.5 -257.5q0 -189 -24 -328t-74 -242q-64 -157 -169 -234.5t-247 -77.5q-27 0 -55 3q-67 3 -127.5 21t-112 54t-94.5 91.5t-74 134.5 q-38 91 -59 211.5t-21 282.5zM297 1571q0 20 13 33q46 51 91 93t88 71.5t84 46t79 16.5q75 0 146.5 -59.5t153.5 -177.5q6 -18 1 -31t-16 -21.5t-25.5 -12.5t-28.5 -4q-28 0 -41 13v-1q-5 6 -11 12t-11 12q-59 65 -97.5 102t-70.5 37q-30 0 -67.5 -33t-87.5 -99 q-8 -10 -20 -20.5t-26 -19.5t-31 -15t-35 -6q-12 0 -30 5q-32 8 -45 25t-13 34z" />
<glyph unicode="&#xdc;" horiz-adv-x="1258" d="M101 806q0 106 10 231t33 276q4 38 30.5 52.5t67.5 18.5q14 2 25.5 4t21.5 2q35 0 51 -14t16 -40q0 -13 -4 -28q-23 -185 -35 -329t-12 -259q0 -103 10.5 -185t27.5 -145q33 -117 102.5 -175t161.5 -70q52 0 98.5 13.5t86.5 42.5t74 75.5t60 112.5q31 86 44.5 199 t13.5 265q0 113 -8 256.5t-22 308.5v8q0 31 9.5 45t44.5 16q24 10 47 10q29 0 45.5 -16.5t19.5 -32.5v1q19 -163 28.5 -301.5t9.5 -257.5q0 -189 -24 -328t-74 -242q-64 -157 -169 -234.5t-247 -77.5q-27 0 -55 3q-67 3 -127.5 21t-112 54t-94.5 91.5t-74 134.5 q-38 91 -59 211.5t-21 282.5zM313 1642q0 38 20 84q13 33 35.5 51t69.5 17q32 -3 59 -23.5t50 -63.5q6 -13 10 -25t4 -23q0 -24 -25 -48t-92 -50v1q-27 -10 -50 -10q-38 0 -59.5 24.5t-21.5 65.5zM722 1651q0 37 16 75q14 34 37 52t68 16q17 -2 33.5 -4.5t32 -10t29.5 -20.5 t26 -34q6 -13 10 -25t4 -25q0 -23 -25 -46.5t-90 -48.5q-35 -12 -60 -12q-38 0 -59.5 22.5t-21.5 60.5z" />
<glyph unicode="&#xdd;" horiz-adv-x="1146" d="M24 1351q0 12 4.5 25.5t11 25.5t14.5 21.5t16 12.5l-1 -1q14 4 27.5 7t26.5 3q17 0 30.5 -7.5t19.5 -30.5q38 -92 79 -180t86.5 -166.5t96.5 -143.5t110 -110q16 -24 16 -55q0 -22 -7 -41q-28 -23 -52.5 -34t-47.5 -7q-44 10 -87 43t-84 83t-79 114.5t-71 137t-61 150 t-48 153.5zM333 64q0 11 7 20q12 30 25.5 69.5t27.5 83.5q25 73 55 158.5t62.5 176.5t68 184t71.5 181.5t73 169t72.5 146.5t69 114t64.5 71q15 15 39 27t50 12q23 0 46 -14q25 -17 39 -53.5t14 -74.5q0 -30 -10 -55t-30 -37q-51 -34 -99.5 -93t-95.5 -137t-93 -173.5 t-91 -203t-91 -225t-92 -240.5q-16 -42 -31 -82t-31 -83q-4 -3 -18.5 -11.5t-32.5 -8.5q-8 0 -16.5 2.5t-16.5 10.5q-9 10 -17.5 21t-13.5 22t-5 22zM379 1495q33 58 72 101t82.5 76t90.5 58.5t96 47.5q10 5 23 5t26 -3.5t24 -9.5t18 -12v1q10 -13 19 -32.5t9 -36.5t-14 -23 v-1q-4 -2 -7.5 -3.5t-7.5 -3.5q-35 -15 -78.5 -35t-89 -45t-89.5 -55.5t-80 -67.5h1q-3 -2 -12 -1.5t-20 2.5t-22 5.5t-18 6.5q-8 4 -18 11t-5 15zM554 710v1q1 0 3 2z" />
<glyph unicode="&#xde;" horiz-adv-x="1084" d="M154 751q0 160 11.5 333t39.5 341q1 8 5 18t10.5 19t15 15t19.5 6q33 0 56 -20t23 -46q1 -72 1.5 -148.5t1.5 -158.5q76 18 148 28t132 10q115 0 193 -34h-1q88 -46 138 -135t50 -210q0 -87 -41 -164t-112 -144.5t-167.5 -125t-208.5 -105.5q-18 -9 -31.5 -3.5t-23.5 19 t-15 32.5t-5 37q0 17 5.5 30.5t14.5 19.5q82 43 149.5 90t117.5 94t80.5 94.5t36.5 92.5q3 28 -0.5 56t-15 52t-31.5 42.5t-50 26.5q-23 5 -50 8.5t-59 3.5q-53 0 -116.5 -11t-138.5 -36q-2 -196 -11 -412t-26 -427q-3 -23 -16.5 -40.5t-41.5 -11.5l1 -1q-6 2 -14 6 t-15.5 10t-13.5 14t-7 19l-2 22t-2 23q-5 61 -11 135.5t-11 160t-8.5 180t-3.5 195.5z" />
<glyph unicode="&#xdf;" horiz-adv-x="1311" d="M98 648q0 134 10 264t35 262q13 68 44.5 116t75 78t96 43.5t107.5 13.5q45 0 91 -9t89 -25t80.5 -37.5t65.5 -45.5q33 -32 55 -76t22 -95q0 -57 -35.5 -129t-118.5 -159q61 14 110.5 19t90.5 5q121 0 196.5 -39t104.5 -109q14 -36 14 -73q0 -72 -50.5 -152.5t-139 -165.5 t-210.5 -173.5t-264 -177.5q-12 -9 -30 -9q-26 0 -56.5 17.5t-47.5 46.5q-6 24 -6 48q0 27 6.5 49t20.5 26q126 67 236 135.5t188 133t116 123t20 106.5q-13 21 -42.5 35.5t-86.5 14.5q-50 0 -125 -15t-184 -53q-18 -7 -36 -1t-33 20t-24 35t-9 44q0 19 7 38 q46 43 81.5 91.5t60.5 96.5t38 91.5t13 76.5q0 23 -7 42t-18 30q-26 22 -67.5 39.5t-86.5 17.5q-28 0 -55.5 -10t-51 -31.5t-41 -56t-25.5 -82.5q-17 -114 -26 -225t-14 -224t-6 -232t-1 -249v-81q0 -27 -9 -43.5t-23.5 -25.5t-31.5 -12t-33 -3q-12 3 -20 6.5t-14 10t-10 17 t-8 27.5v-1q-11 163 -19.5 310.5t-8.5 290.5z" />
<glyph unicode="&#xe0;" horiz-adv-x="1032" d="M86 416q0 53 10 111.5t27 113.5q23 68 55.5 128t72 108.5t84.5 84t95 53.5q27 14 57 21t61 7q57 0 111.5 -26t105.5 -80q6 -9 6 -31t-9 -49.5t-27 -50.5q-13 -15 -27 -27t-26.5 -18t-22 -5t-13.5 12q-64 61 -130 61q-36 0 -69 -16v1q-64 -22 -116.5 -85t-84.5 -160 q-12 -33 -18 -66.5t-6 -65.5q0 -38 8.5 -70.5t24.5 -57.5t40 -41t54 -20h-2q9 -3 19 -4t21 -1q42 0 86 23.5t82 69t67.5 112.5t41.5 154q1 7 8 13.5t17.5 11.5t24 8t27.5 3q15 0 28.5 -3.5t24.5 -12.5h-1q20 -20 31 -42t11 -42q0 -24 -15 -42q3 -41 13.5 -81t26.5 -74.5 t37 -61t46 -39.5q27 -16 27 -56q0 -37 -31 -87q-19 -20 -41.5 -34t-42.5 -14q-9 0 -18.5 2.5t-16.5 9.5q-29 26 -57.5 83t-51.5 134q-23 -46 -57.5 -89.5t-76 -77.5t-88.5 -54.5t-93 -20.5q-42 0 -83 19q-59 15 -102 49t-71 82t-41 107t-13 123zM245 1453q0 17 8.5 36.5 t19.5 31.5q10 10 28 17t38 7q16 0 24 -4q49 -22 96.5 -47.5t91 -58.5t82.5 -76.5t72 -100.5q5 -7 -5 -14.5t-18 -12.5l1 1q-8 -3 -19.5 -5.5t-22 -5t-19 -3.5t-9.5 1q-39 39 -86.5 71t-95.5 58t-93 46t-79 35q-14 6 -14 24z" />
<glyph unicode="&#xe1;" horiz-adv-x="1032" d="M86 416q0 53 10 111.5t27 113.5q23 68 55.5 128t72 108.5t84.5 84t95 53.5q27 14 57 21t61 7q57 0 111.5 -26t105.5 -80q6 -9 6 -31t-9 -49.5t-27 -50.5q-13 -15 -27 -27t-26.5 -18t-22 -5t-13.5 12q-64 61 -130 61q-36 0 -69 -16v1q-64 -22 -116.5 -85t-84.5 -160 q-12 -33 -18 -66.5t-6 -65.5q0 -38 8.5 -70.5t24.5 -57.5t40 -41t54 -20h-2q9 -3 19 -4t21 -1q42 0 86 23.5t82 69t67.5 112.5t41.5 154q1 7 8 13.5t17.5 11.5t24 8t27.5 3q15 0 28.5 -3.5t24.5 -12.5h-1q20 -20 31 -42t11 -42q0 -24 -15 -42q3 -41 13.5 -81t26.5 -74.5 t37 -61t46 -39.5q27 -16 27 -56q0 -37 -31 -87q-19 -20 -41.5 -34t-42.5 -14q-9 0 -18.5 2.5t-16.5 9.5q-29 26 -57.5 83t-51.5 134q-23 -46 -57.5 -89.5t-76 -77.5t-88.5 -54.5t-93 -20.5q-42 0 -83 19q-59 15 -102 49t-71 82t-41 107t-13 123zM317 1247q33 57 72.5 100.5 t83.5 76.5t91 59t97 49q8 4 23 4q19 0 37 -7.5t27 -17.5q11 -12 20 -32.5t9 -37.5q0 -18 -13 -24q-33 -13 -78 -33.5t-93.5 -47t-96 -59t-85.5 -69.5q-6 0 -15 1t-19.5 3t-20.5 4.5t-17 4.5q-8 5 -17.5 11.5t-4.5 14.5z" />
<glyph unicode="&#xe2;" horiz-adv-x="1011" d="M86 416q0 53 10 111.5t27 113.5q23 68 55.5 128t72 108.5t84.5 84t95 53.5q27 14 57 21t61 7q57 0 111.5 -26t105.5 -80q6 -9 6 -31t-9 -49.5t-27 -50.5q-13 -15 -27 -27t-26.5 -18t-22 -5t-13.5 12q-64 61 -130 61q-36 0 -69 -16v1q-64 -22 -116.5 -85t-84.5 -160 q-12 -33 -18 -66.5t-6 -65.5q0 -38 8.5 -70.5t24.5 -57.5t40 -41t54 -20h-2q9 -3 19 -4t21 -1q42 0 86 23.5t82 69t67.5 112.5t41.5 154q1 7 8 13.5t17.5 11.5t24 8t27.5 3q15 0 28.5 -3.5t24.5 -12.5h-1q20 -20 31 -42t11 -42q0 -24 -15 -42q3 -41 13.5 -81t26.5 -74.5 t37 -61t46 -39.5q27 -16 27 -56q0 -37 -31 -87q-19 -20 -41.5 -34t-42.5 -14q-9 0 -18.5 2.5t-16.5 9.5q-29 26 -57.5 83t-51.5 134q-23 -46 -57.5 -89.5t-76 -77.5t-88.5 -54.5t-93 -20.5q-42 0 -83 19q-59 15 -102 49t-71 82t-41 107t-13 123zM186 1238q0 9 4 18t9 15 q45 49 90 90.5t88.5 71.5t85 46.5t79.5 16.5q75 0 146 -59t152 -177q6 -18 1.5 -31t-15 -21.5t-25 -12.5t-28.5 -4q-13 0 -24 3t-17 9q-4 4 -7 8.5t-7 8.5v-1q-62 69 -103 108t-73 39q-30 0 -68.5 -34t-87.5 -97q-16 -21 -45.5 -41.5t-66.5 -20.5q-12 0 -30 5 q-32 10 -45 26.5t-13 33.5z" />
<glyph unicode="&#xe3;" horiz-adv-x="1032" d="M86 416q0 53 10 111.5t27 113.5q23 68 55.5 128t72 108.5t84.5 84t95 53.5q27 14 57 21t61 7q57 0 111.5 -26t105.5 -80q6 -9 6 -31t-9 -49.5t-27 -50.5q-13 -15 -27 -27t-26.5 -18t-22 -5t-13.5 12q-64 61 -130 61q-36 0 -69 -16v1q-64 -22 -116.5 -85t-84.5 -160 q-12 -33 -18 -66.5t-6 -65.5q0 -38 8.5 -70.5t24.5 -57.5t40 -41t54 -20h-2q9 -3 19 -4t21 -1q42 0 86 23.5t82 69t67.5 112.5t41.5 154q1 7 8 13.5t17.5 11.5t24 8t27.5 3q15 0 28.5 -3.5t24.5 -12.5h-1q20 -20 31 -42t11 -42q0 -24 -15 -42q3 -41 13.5 -81t26.5 -74.5 t37 -61t46 -39.5q27 -16 27 -56q0 -37 -31 -87q-19 -20 -41.5 -34t-42.5 -14q-9 0 -18.5 2.5t-16.5 9.5q-29 26 -57.5 83t-51.5 134q-23 -46 -57.5 -89.5t-76 -77.5t-88.5 -54.5t-93 -20.5q-42 0 -83 19q-59 15 -102 49t-71 82t-41 107t-13 123zM128 1271.5q0 8.5 2 16.5v-2 q18 54 45.5 96t60 71.5t68.5 45.5t71 19q34 8 54 8q30 0 55.5 -9.5t48 -27t43 -41t40.5 -50.5q31 -44 53 -68t50 -24t59.5 18t76.5 56q3 4 10 5t15.5 -1.5t17 -8t14.5 -15.5q13 -9 18 -19t5 -20q0 -9 -3.5 -17t-8.5 -13l-1 -1q-51 -60 -110.5 -91.5t-116.5 -24.5 q-27 2 -49 9t-43 22.5t-42.5 41t-46.5 64.5q-8 12 -22 25t-30 22t-33 12.5t-32 -3.5v1q-18 -6 -37.5 -17.5t-38.5 -31t-35.5 -49t-28.5 -71.5q-2 -4 -8 -7t-14 -3q-11 0 -28 5.5t-36 19.5q-17 11 -26 21t-13 19t-4 17.5z" />
<glyph unicode="&#xe4;" horiz-adv-x="1032" d="M86 416q0 53 10 111.5t27 113.5q23 68 55.5 128t72 108.5t84.5 84t95 53.5q27 14 57 21t61 7q57 0 111.5 -26t105.5 -80q6 -9 6 -31t-9 -49.5t-27 -50.5q-13 -15 -27 -27t-26.5 -18t-22 -5t-13.5 12q-64 61 -130 61q-36 0 -69 -16v1q-64 -22 -116.5 -85t-84.5 -160 q-12 -33 -18 -66.5t-6 -65.5q0 -38 8.5 -70.5t24.5 -57.5t40 -41t54 -20h-2q9 -3 19 -4t21 -1q42 0 86 23.5t82 69t67.5 112.5t41.5 154q1 7 8 13.5t17.5 11.5t24 8t27.5 3q15 0 28.5 -3.5t24.5 -12.5h-1q20 -20 31 -42t11 -42q0 -24 -15 -42q3 -41 13.5 -81t26.5 -74.5 t37 -61t46 -39.5q27 -16 27 -56q0 -37 -31 -87q-19 -20 -41.5 -34t-42.5 -14q-9 0 -18.5 2.5t-16.5 9.5q-29 26 -57.5 83t-51.5 134q-23 -46 -57.5 -89.5t-76 -77.5t-88.5 -54.5t-93 -20.5q-42 0 -83 19q-59 15 -102 49t-71 82t-41 107t-13 123zM193 1311q0 38 18 85 q14 34 37.5 51t69.5 15q30 -3 56.5 -24t50.5 -63q6 -13 10 -24.5t4 -22.5q0 -25 -24.5 -49t-90.5 -50v1q-14 -5 -27 -7.5t-24 -2.5q-38 0 -59 24.5t-21 66.5zM597 1320q0 33 17 76q13 34 37 51t69 15q16 -2 32 -4.5t31 -9.5t28.5 -19.5t24.5 -33.5v1q7 -14 11.5 -27t4.5 -26 q0 -24 -24.5 -48t-89.5 -48v1q-33 -12 -59 -12q-39 0 -60.5 22.5t-21.5 61.5z" />
<glyph unicode="&#xe5;" horiz-adv-x="1032" d="M86 416q0 53 10 111.5t27 113.5q23 68 55.5 128t72 108.5t84.5 84t95 53.5q27 14 57 21t61 7q57 0 111.5 -26t105.5 -80q6 -9 6 -31t-9 -49.5t-27 -50.5q-13 -15 -27 -27t-26.5 -18t-22 -5t-13.5 12q-64 61 -130 61q-36 0 -69 -16v1q-64 -22 -116.5 -85t-84.5 -160 q-12 -33 -18 -66.5t-6 -65.5q0 -38 8.5 -70.5t24.5 -57.5t40 -41t54 -20h-2q9 -3 19 -4t21 -1q42 0 86 23.5t82 69t67.5 112.5t41.5 154q1 7 8 13.5t17.5 11.5t24 8t27.5 3q15 0 28.5 -3.5t24.5 -12.5h-1q20 -20 31 -42t11 -42q0 -24 -15 -42q3 -41 13.5 -81t26.5 -74.5 t37 -61t46 -39.5q27 -16 27 -56q0 -37 -31 -87q-19 -20 -41.5 -34t-42.5 -14q-9 0 -18.5 2.5t-16.5 9.5q-29 26 -57.5 83t-51.5 134q-23 -46 -57.5 -89.5t-76 -77.5t-88.5 -54.5t-93 -20.5q-42 0 -83 19q-59 15 -102 49t-71 82t-41 107t-13 123zM320 1328q0 48 20.5 86 t52 64.5t68 40.5t69.5 15q43 -6 76.5 -24t57 -43t35.5 -54t12 -55q0 -41 -14 -78t-40 -65.5t-63.5 -47.5t-85.5 -23q-46 -5 -81 10t-59 42t-36 62t-12 70zM429 1329q0 -12 6 -26t17 -26t26.5 -20.5t34.5 -8.5q15 0 29.5 8t25.5 20t18 27t7 29q0 18 -6 35t-17 29.5 t-25.5 20.5t-31.5 8q-39 0 -59.5 -28.5t-24.5 -67.5z" />
<glyph unicode="&#xe6;" horiz-adv-x="1566" d="M46 321q0 38 9 74.5t23.5 68t33 57t38.5 41.5q37 33 84 58.5t99 43t105.5 26.5t104.5 9q13 0 27 -1.5t26 -7.5t22 -19t16 -37v1q3 -19 -2 -37t-13.5 -32.5t-20 -23.5t-22.5 -10q-33 1 -77.5 -3.5t-89 -13.5t-83.5 -22.5t-61 -31.5q-24 -20 -39.5 -42t-23.5 -44.5 t-11 -44.5t-3 -42q1 -19 14 -36t34.5 -29.5t50 -19.5t60.5 -7q45 0 92.5 15.5t90.5 51.5q77 60 116 126.5t47 134.5q1 8 1.5 15t1.5 14v8q0 32 -7 63t-19 63q-27 46 -57.5 79.5t-67.5 55.5t-82 33t-101 11q-21 0 -43 -1t-45 -4q-30 -8 -46 12t-16 47q0 25 12.5 46t41.5 29 q45 12 86.5 17.5t79.5 5.5q65 0 121 -15t102.5 -41.5t82.5 -63.5t62 -80q20 28 45 52.5t54 45.5q67 51 144 75.5t153 24.5q64 0 123 -18.5t103.5 -55.5t71 -92.5t26.5 -130.5q0 -38 -9 -74.5t-23.5 -68.5t-33.5 -58t-38 -42q-38 -32 -84.5 -57.5t-98.5 -43t-105.5 -26.5 t-104.5 -9q-14 0 -27.5 1.5t-25.5 7.5t-22 19.5t-16 37.5v-1q-3 19 1.5 38t13.5 33.5t20.5 23t22.5 7.5q32 -2 76 2.5t88.5 14t84 23t62.5 31.5q24 20 39.5 42t23.5 44.5t11 44t3 41.5q-1 20 -14 37t-34.5 29.5t-49.5 19.5t-60 7q-45 0 -93 -15.5t-91 -50.5 q-78 -61 -117 -128t-47 -135q-1 -4 -1 -7.5t-1 -8.5v-19q0 -32 7 -63.5t19 -62.5q27 -46 58 -80t68.5 -56t83 -33t102.5 -11q20 0 40.5 1.5t43.5 3.5q30 7 46 -12.5t16 -47.5q0 -23 -12.5 -44.5t-41.5 -29.5q-46 -12 -88 -17.5t-80 -5.5q-66 0 -122 15t-102.5 42t-82.5 64 t-61 81q-43 -55 -97 -100q-66 -48 -145 -73.5t-153 -25.5q-65 0 -123.5 18.5t-102.5 55t-70.5 92.5t-26.5 131z" />
<glyph unicode="&#xe7;" d="M88 408q0 87 37 175t104 168.5t160 149.5t204 117q21 11 39.5 -1.5t26.5 -36.5q5 -5 6.5 -13t1.5 -16q0 -23 -6 -43t-13 -25q-84 -45 -154.5 -96.5t-121.5 -107.5t-79.5 -116t-28.5 -123q0 -29 8 -54.5t23.5 -46.5t38 -35t51.5 -19h-1q47 -14 109 -14q59 0 132 15t163 49 q12 7 25 2.5t24.5 -18t18.5 -35t7 -48.5t-6.5 -50t-16 -40.5t-20.5 -29t-20 -16.5q-75 -19 -147 -31t-135 -17l-26 -100q38 2 74.5 -8.5t65 -30.5t46 -50t17.5 -67q0 -44 -18.5 -78t-49.5 -58t-71.5 -38.5t-83.5 -19.5q-11 -1 -21.5 -1.5t-21.5 -0.5q-31 0 -63.5 6t-66.5 20 q-26 12 -39 29.5t-13 35.5q0 13 5.5 24t14.5 18.5t20.5 10t23.5 -1.5q23 -8 40.5 -13.5t33.5 -8.5t30.5 -4t31.5 -1q21 0 42 4t38 13.5t28 26t11 41.5q0 18 -16.5 29.5t-41 18.5t-52.5 8.5t-51 0.5q-6 -1 -19.5 -1.5t-26.5 2.5t-22 10.5t-6 21.5q4 14 10 34t13 43l14 46 t13 43q-61 9 -106 28h1q-91 47 -139.5 124.5t-48.5 199.5z" />
<glyph unicode="&#xe8;" horiz-adv-x="1009" d="M98 496q0 61 13.5 120.5t40 113.5t65 101t89.5 85q67 51 144 75.5t152 24.5q64 0 123 -18.5t103.5 -55.5t71 -92.5t26.5 -130.5q0 -38 -9 -74.5t-24 -68.5t-34 -58t-38 -42q-37 -32 -83.5 -57.5t-98 -43t-105.5 -26.5t-106 -9q-13 0 -26.5 1.5t-25.5 7.5t-22 19.5 t-16 37.5v-1q-3 19 1.5 38t13.5 33.5t21 23t24 7.5q32 -2 76 2.5t88 14t83 23t61 31.5q25 21 40 43t23 44t11 43.5t3 41.5q-1 20 -13.5 37t-34 29.5t-50 19.5t-60.5 7q-44 0 -92.5 -16.5t-91.5 -49.5q-81 -67 -123 -146.5t-42 -152.5q0 -62 26 -125q27 -46 58 -80t68.5 -56 t83 -33t102.5 -11q20 0 41 1.5t42 3.5q31 7 47.5 -12.5t16.5 -47.5q0 -24 -13.5 -45t-42.5 -29q-46 -12 -87 -17.5t-80 -5.5q-77 0 -140.5 20.5t-113.5 56t-86 83.5t-58 104q-20 52 -31 104.5t-11 106.5zM258 1426q0 17 9 36t19 32q10 11 28 18.5t37 7.5q13 0 25 -5 q48 -22 95.5 -49t91.5 -61t83.5 -76.5t72.5 -96.5q4 -8 -6 -15.5t-18 -12.5l1 1q-6 -3 -16 -5t-20 -3.5t-19.5 -2.5t-14.5 -1q-39 39 -86.5 71t-95.5 58t-93 46t-79 34v1q-14 6 -14 23z" />
<glyph unicode="&#xe9;" horiz-adv-x="1009" d="M98 496q0 61 13.5 120.5t40 113.5t65 101t89.5 85q67 51 144 75.5t152 24.5q64 0 123 -18.5t103.5 -55.5t71 -92.5t26.5 -130.5q0 -38 -9 -74.5t-24 -68.5t-34 -58t-38 -42q-37 -32 -83.5 -57.5t-98 -43t-105.5 -26.5t-106 -9q-13 0 -26.5 1.5t-25.5 7.5t-22 19.5 t-16 37.5v-1q-3 19 1.5 38t13.5 33.5t21 23t24 7.5q32 -2 76 2.5t88 14t83 23t61 31.5q25 21 40 43t23 44t11 43.5t3 41.5q-1 20 -13.5 37t-34 29.5t-50 19.5t-60.5 7q-44 0 -92.5 -16.5t-91.5 -49.5q-81 -67 -123 -146.5t-42 -152.5q0 -62 26 -125q27 -46 58 -80t68.5 -56 t83 -33t102.5 -11q20 0 41 1.5t42 3.5q31 7 47.5 -12.5t16.5 -47.5q0 -24 -13.5 -45t-42.5 -29q-46 -12 -87 -17.5t-80 -5.5q-77 0 -140.5 20.5t-113.5 56t-86 83.5t-58 104q-20 52 -31 104.5t-11 106.5zM311 1226q32 55 71.5 97.5t83 76.5t90.5 60t95 49q13 5 26 5 q18 0 35.5 -6t25.5 -16q12 -14 22 -34.5t10 -37.5q0 -19 -14 -25q-33 -14 -78 -34t-93 -46.5t-95 -59t-86 -70.5q-6 0 -15.5 1t-20 3t-20 4t-15.5 5q-8 4 -18 12t-4 16z" />
<glyph unicode="&#xea;" horiz-adv-x="1009" d="M94 497q0 61 13.5 120t39.5 113t65 101t89 85q67 51 144 75.5t152 24.5q64 0 123 -18.5t103.5 -55.5t71 -92.5t26.5 -130.5q0 -38 -9 -74.5t-23.5 -68.5t-33 -58t-38.5 -42q-38 -32 -84.5 -57.5t-98 -43t-105.5 -26.5t-106 -9q-13 0 -26.5 1.5t-25.5 7.5t-22 19.5 t-16 37.5v-1q-3 19 1.5 38t13.5 33.5t21 23t24 7.5q32 -2 76 2.5t88 14t83 23t61 31.5q24 20 39.5 42t24 44.5t11.5 44t3 41.5q-1 20 -13.5 37t-34 29.5t-50 19.5t-60.5 7q-44 0 -92.5 -16.5t-91.5 -49.5q-81 -67 -123 -146.5t-42 -152.5q0 -62 26 -125q27 -46 57.5 -80 t68 -56t83 -33t102.5 -11q20 0 41 1.5t43 3.5q31 7 47 -12.5t16 -47.5q0 -23 -13 -44.5t-42 -29.5q-46 -12 -87.5 -17.5t-80.5 -5.5q-77 0 -140.5 20.5t-113.5 56t-86 83.5t-57 104q-20 52 -31 105t-11 107zM188 1195q0 19 12 34q43 50 87.5 93t88 74.5t84.5 49.5t78 18 q72 0 142 -62t152 -183v1l1 -2h-1q5 -19 0.5 -33t-15 -23t-25 -13t-27.5 -4t-24 3.5t-16 9.5q-8 8 -15.5 17t-14.5 17q-52 60 -90.5 98.5t-66.5 38.5q-30 0 -67.5 -36t-86.5 -104q-17 -21 -45 -41.5t-64 -20.5q-13 0 -31 5h1q-30 11 -43.5 28t-13.5 35z" />
<glyph unicode="&#xeb;" horiz-adv-x="1009" d="M98 496q0 61 13.5 120.5t40 113.5t65 101t89.5 85q67 51 144 75.5t152 24.5q64 0 123 -18.5t103.5 -55.5t71 -92.5t26.5 -130.5q0 -38 -9 -74.5t-24 -68.5t-34 -58t-38 -42q-37 -32 -83.5 -57.5t-98 -43t-105.5 -26.5t-106 -9q-13 0 -26.5 1.5t-25.5 7.5t-22 19.5 t-16 37.5v-1q-3 19 1.5 38t13.5 33.5t21 23t24 7.5q32 -2 76 2.5t88 14t83 23t61 31.5q25 21 40 43t23 44t11 43.5t3 41.5q-1 20 -13.5 37t-34 29.5t-50 19.5t-60.5 7q-44 0 -92.5 -16.5t-91.5 -49.5q-81 -67 -123 -146.5t-42 -152.5q0 -62 26 -125q27 -46 58 -80t68.5 -56 t83 -33t102.5 -11q20 0 41 1.5t42 3.5q31 7 47.5 -12.5t16.5 -47.5q0 -24 -13.5 -45t-42.5 -29q-46 -12 -87 -17.5t-80 -5.5q-77 0 -140.5 20.5t-113.5 56t-86 83.5t-58 104q-20 52 -31 104.5t-11 106.5zM214 1307q0 40 18 87q12 32 34 50.5t67 17.5q31 -3 57 -24t49 -66v1 q5 -14 9 -26t4 -24q0 -26 -24 -50t-88 -50v1q-27 -10 -49 -10q-38 0 -57.5 25.5t-19.5 67.5zM607 1317q0 17 4 36.5t12 40.5q13 33 35 51t67 17q16 -2 31.5 -4.5t30 -9.5t27.5 -20t25 -35v1q5 -14 9.5 -26.5t4.5 -26.5q0 -25 -24.5 -50t-85.5 -50q-31 -11 -56 -11 q-38 0 -59 23t-21 64z" />
<glyph unicode="&#xec;" horiz-adv-x="562" d="M59 1422q0 17 9.5 36t19.5 32q8 11 27 18t39 7q8 0 14.5 -1t11.5 -3q46 -22 93 -49t91 -61t84 -76.5t72 -96.5q3 -4 1 -8.5t-6 -8t-9 -6.5t-9 -5q-8 -3 -19 -6t-21.5 -5t-18.5 -2.5t-10 1.5q-40 39 -87.5 71.5t-95.5 58t-92.5 45.5t-78.5 34q-15 5 -15 25zM181 653 q0 69 8 133t28 122q2 6 10 15.5t20 18.5t26 15.5t28 6.5q11 0 24.5 -4.5t25 -12t20 -17.5t8.5 -20q0 -5 -1 -7t-2 -5q-7 -91 -8 -179t-1 -179q0 -114 -2.5 -232.5t-16.5 -256.5q-5 -23 -17.5 -38t-25.5 -15q-20 0 -43 15.5t-32 39.5q-3 62 -9 126t-14 130q-10 86 -18 175 t-8 169z" />
<glyph unicode="&#xed;" horiz-adv-x="562" d="M61 1226q32 55 71.5 97.5t83.5 76.5t91 60t94 49q13 5 27 5q19 0 37.5 -7.5t27.5 -18.5q10 -13 19.5 -32.5t9.5 -36.5q0 -18 -15 -23v-1q-33 -14 -77.5 -34t-92.5 -46.5t-95.5 -59t-86.5 -70.5q-6 0 -15.5 1t-19.5 3t-19.5 4t-15.5 5q-8 4 -18.5 11t-5.5 17zM181 653 q0 69 8 133t28 122q2 6 10 15.5t20 18.5t26 15.5t28 6.5q11 0 24.5 -4.5t25 -12t20 -17.5t8.5 -20q0 -5 -1 -7t-2 -5q-7 -91 -8 -179t-1 -179q0 -114 -2.5 -232.5t-16.5 -256.5q-5 -23 -17.5 -38t-25.5 -15q-20 0 -43 15.5t-32 39.5q-3 62 -9 126t-14 130q-10 86 -18 175 t-8 169z" />
<glyph unicode="&#xee;" horiz-adv-x="562" d="M-27 1198q0 22 12 33q90 106 170 169.5t155 63.5q74 0 144 -61.5t151 -180.5q5 -19 0.5 -32.5t-15 -22.5t-25 -13t-27.5 -4t-24.5 3t-16.5 9q-7 8 -14.5 16t-13.5 15q-56 63 -93.5 101t-65.5 38q-30 0 -62 -35t-82 -104q-15 -21 -42.5 -41.5t-64.5 -20.5q-17 0 -32.5 6 t-27.5 16t-19 21.5t-7 23.5zM181 653q0 69 8 133t28 122q2 6 10 15.5t20 18.5t26 15.5t28 6.5q11 0 24.5 -4.5t25 -12t20 -17.5t8.5 -20q0 -5 -1 -7t-2 -5q-7 -91 -8 -179t-1 -179q0 -114 -2.5 -232.5t-16.5 -256.5q-5 -23 -17.5 -38t-25.5 -15q-20 0 -43 15.5t-32 39.5 q-3 62 -9 126t-14 130q-10 86 -18 175t-8 169z" />
<glyph unicode="&#xef;" horiz-adv-x="562" d="M-26 1301q0 20 5.5 40.5t14.5 42.5q14 33 37.5 51.5t62.5 18.5q32 0 55 -21t45 -66q13 -26 13 -48q0 -12 -4 -24.5t-15.5 -25t-32.5 -25t-55 -24.5q-14 -5 -27 -7t-23 -2q-38 0 -57 24.5t-19 65.5zM181 653q0 69 8 133t28 122q2 6 10 15.5t20 18.5t26 15.5t28 6.5 q11 0 24.5 -4.5t25 -12t20 -17.5t8.5 -20q0 -5 -1 -7t-2 -5q-7 -91 -8 -179t-1 -179q0 -114 -2.5 -232.5t-16.5 -256.5q-5 -23 -17.5 -38t-25.5 -15q-20 0 -43 15.5t-32 39.5q-3 62 -9 126t-14 130q-10 86 -18 175t-8 169zM348 1311q0 17 6 35t14 38q15 35 41 52.5t55 17.5 q34 0 59.5 -13.5t47.5 -57.5q6 -12 10 -24t4 -24t-4.5 -24t-16.5 -24t-32.5 -23.5t-53.5 -23.5q-16 -5 -26.5 -8.5t-21.5 -3.5q-38 0 -60 22.5t-22 60.5z" />
<glyph unicode="&#xf0;" horiz-adv-x="1097" d="M104 472q0 96 25.5 163t69 109.5t102 62t125.5 19.5q63 0 130.5 -17t138.5 -43q30 -7 45.5 -35.5t7.5 -64.5q-8 -25 -21.5 -42.5t-28 -26.5t-28 -9.5t-20.5 7.5q-56 25 -105.5 35.5t-91.5 10.5q-36 0 -68.5 -6t-56.5 -23.5t-38 -48t-14 -78.5q0 -68 23.5 -126.5 t65.5 -101.5t98.5 -67.5t122.5 -24.5q42 0 88.5 19.5t86 54.5t65 83.5t25.5 107.5q0 90 -14 174t-40 166.5t-63 164t-83 166.5q-49 -26 -90.5 -46.5t-79 -38t-73.5 -32.5t-74 -30q-11 -4 -21 -6.5t-19 -2.5q-28 0 -42 26q-5 11 -9 22.5t-4 22.5q0 14 6.5 26.5t20.5 20.5 l307 178q-17 29 -35 59t-36 61q-13 16 -13 39q0 15 6.5 30.5t17.5 28.5t27 22.5t36 12.5q40 8 74.5 -10t57.5 -66q12 -19 22.5 -37.5t21.5 -36.5l168 97q15 14 37 14t45.5 -14t39.5 -40q8 -14 11 -25t3 -20q0 -20 -15 -31.5t-37 -24.5q-54 -30 -96 -54.5t-79 -46.5 q52 -109 90.5 -215.5t63.5 -205.5t37 -187.5t12 -162.5q0 -107 -38 -187.5t-99.5 -136.5t-138.5 -88t-155 -43q-8 -1 -17.5 -1h-17.5q-75 0 -148.5 25t-135.5 75.5t-107 125.5t-64 175q-4 27 -5.5 51.5t-1.5 47.5z" />
<glyph unicode="&#xf1;" horiz-adv-x="1032" d="M116 619q0 83 6 168t17 171q0 29 24 39t53 10q22 0 47 -5q38 -9 62 -26.5t24 -49.5q0 -14 -6 -32q-5 -32 -10.5 -74t-10 -83.5t-7 -77.5t-2.5 -55l14 -3q36 95 83.5 176t107.5 135q36 29 76 46t78 17q40 0 79 -21q49 -29 83.5 -91.5t58.5 -165.5q17 -60 25 -133t8 -165 q0 -60 -4 -129.5t-12 -149.5q-6 -40 -30 -56t-63 -16q-6 0 -15 0.5t-17 1.5q-16 3 -31.5 12t-26.5 23t-16.5 32.5t-1.5 41.5v-1q20 94 28 170.5t8 139.5q0 60 -5.5 107t-14.5 85q-18 75 -45 112t-47 37q-37 -7 -73.5 -46t-75 -118.5t-80 -202t-87.5 -295.5q-2 -14 -8.5 -30 t-17.5 -30t-25.5 -23.5t-31.5 -9.5q-16 0 -28 7t-20 17t-12.5 22t-5.5 22q-23 103 -37.5 230t-14.5 267zM131 1268.5q0 11.5 2 20.5q18 52 45.5 94.5t60 73t68 49t70.5 21.5q17 4 31 6t28 2q65 0 114 -37.5t68 -112.5q41 -100 94 -100q28 0 64.5 18.5t80.5 56.5q3 3 10 4 t15.5 -1t17 -7.5t14.5 -15.5q13 -10 18 -20t5 -20q0 -19 -12 -31q-52 -60 -111.5 -90.5t-116.5 -23.5q-27 2 -53.5 12t-50 31t-43.5 54.5t-33 81.5q-8 23 -29 34t-45 11t-44 -10v1q-17 -6 -36.5 -17t-38.5 -30.5t-36 -49t-29 -72.5q-2 -8 -12.5 -15t-27.5 -7q-11 0 -22 3.5 t-24 11.5q-17 11 -26 24t-12.5 26t-3.5 24.5z" />
<glyph unicode="&#xf2;" d="M57 468q0 59 9.5 122.5t30 127t51.5 124.5t74 116q14 20 32 28t37 8q14 0 27.5 -4t24.5 -10h-1q31 -23 43 -63q60 37 112.5 53.5t98.5 16.5q77 0 136 -38t94 -101v1q18 -38 28.5 -84.5t10.5 -99.5q0 -81 -28 -170.5t-91 -179.5q-11 -17 -22 -33.5l-21 -31.5 q-26 -39 -51 -73.5t-52 -63t-58 -49.5t-69 -33q-22 -5 -42.5 -8t-40.5 -3q-61 0 -113 24.5t-93 68t-70 102.5t-44 128q-6 29 -9.5 61t-3.5 64zM242 1416q0 17 8.5 36.5t19.5 31.5q6 7 17 12t24 8t26 3.5t24 -3.5q48 -23 95 -49t91 -60t84 -78t73 -102q4 -5 -7 -11t-19 -10 q-8 -3 -19 -6.5t-21.5 -6t-18.5 -3t-9 1.5q-38 37 -83.5 68.5t-92.5 57t-91.5 46t-80.5 35.5q-5 2 -3.5 2t-2.5 2q-14 6 -14 25zM246 400q0 -46 10.5 -83t29 -63t43.5 -39t55 -10q42 4 81 15t73.5 34t63 61.5t51.5 96.5q31 82 45 147t14 114q0 89 -46 130q-21 16 -50 16 q-51 0 -131 -43.5t-181 -136.5q-30 -67 -44 -127.5t-14 -111.5z" />
<glyph unicode="&#xf3;" d="M57 468q0 59 9.5 122.5t30 127t51.5 124.5t74 116q14 20 32 28t37 8q14 0 27.5 -4t24.5 -10h-1q31 -23 43 -63q60 37 112.5 53.5t98.5 16.5q77 0 136 -38t94 -101v1q18 -38 28.5 -84.5t10.5 -99.5q0 -81 -28 -170.5t-91 -179.5q-11 -17 -22 -33.5l-21 -31.5 q-26 -39 -51 -73.5t-52 -63t-58 -49.5t-69 -33q-22 -5 -42.5 -8t-40.5 -3q-61 0 -113 24.5t-93 68t-70 102.5t-44 128q-6 29 -9.5 61t-3.5 64zM246 400q0 -46 10.5 -83t29 -63t43.5 -39t55 -10q42 4 81 15t73.5 34t63 61.5t51.5 96.5q31 82 45 147t14 114q0 89 -46 130 q-21 16 -50 16q-51 0 -131 -43.5t-181 -136.5q-30 -67 -44 -127.5t-14 -111.5zM254 1194.5q-2 3.5 0 7.5q33 57 72.5 100t83 76.5t91 59.5t95.5 48q10 4 23 3.5t26 -3.5t24.5 -8.5t17.5 -12.5q10 -12 19 -31.5t9 -36.5q0 -19 -14 -25q-35 -14 -79.5 -34t-92.5 -46t-95 -58 t-85 -71h1q-2 -2 -11 -1.5t-20 3t-22.5 5.5t-19.5 6q-4 2 -9 5t-8.5 6.5t-5.5 7z" />
<glyph unicode="&#xf4;" d="M57 468q0 59 9.5 122.5t30 127t51.5 124.5t74 116q14 20 32 28t37 8q14 0 27.5 -4t24.5 -10h-1q31 -23 43 -63q60 37 112.5 53.5t98.5 16.5q77 0 136 -38t94 -101v1q18 -38 28.5 -84.5t10.5 -99.5q0 -81 -28 -170.5t-91 -179.5q-11 -17 -22 -33.5l-21 -31.5 q-26 -39 -51 -73.5t-52 -63t-58 -49.5t-69 -33q-22 -5 -42.5 -8t-40.5 -3q-61 0 -113 24.5t-93 68t-70 102.5t-44 128q-6 29 -9.5 61t-3.5 64zM165 1208q0 20 13 33q45 51 90 92.5t88.5 71t84.5 46t79 16.5q75 0 146.5 -59t152.5 -176q6 -18 1 -31.5t-15.5 -21.5t-25.5 -12 t-29 -4q-13 0 -23.5 2.5t-16.5 8.5v-1q-7 8 -13.5 14.5l-13.5 13.5q-57 63 -95 100t-68 37q-31 0 -67.5 -34t-87.5 -100q-8 -10 -19.5 -20.5t-25.5 -19t-30.5 -14t-34.5 -5.5q-14 0 -32 5q-27 9 -42.5 25t-15.5 33zM246 400q0 -46 10.5 -83t29 -63t43.5 -39t55 -10 q42 4 81 15t73.5 34t63 61.5t51.5 96.5q31 82 45 147t14 114q0 89 -46 130q-21 16 -50 16q-51 0 -131 -43.5t-181 -136.5q-30 -67 -44 -127.5t-14 -111.5z" />
<glyph unicode="&#xf5;" d="M50 1291.5q0 11.5 2 20.5q18 54 45.5 96.5t60 72.5t68.5 47.5t71 21.5q15 4 30 5.5t28 1.5q65 0 114.5 -37t68.5 -112q40 -100 95 -100q27 0 63.5 18t81.5 56q3 4 9.5 5t15 -1t16.5 -7.5t14 -15.5q24 -20 24 -40q0 -9 -3 -17t-8 -13l-1 -1q-51 -60 -110.5 -91t-116.5 -25 q-27 3 -53.5 13.5t-50.5 31.5t-43.5 54t-33.5 81q-8 23 -29.5 34.5t-45.5 11.5q-22 0 -44 -9v1q-17 -6 -36.5 -17.5t-38 -31t-35.5 -49.5t-29 -72q-2 -8 -13.5 -16t-29.5 -8q-20 0 -43 16h1q-17 12 -26.5 25.5t-13.5 26t-4 24zM58 468q0 59 9.5 122.5t29.5 127t51 124.5 t74 116q14 20 32 28t37 8q14 0 27.5 -4t24.5 -10h-1q31 -23 43 -63q60 37 112.5 53.5t98.5 16.5q77 0 136 -38t94 -101v1q18 -38 28.5 -84.5t10.5 -99.5q0 -81 -28 -170.5t-91 -179.5q-11 -17 -22 -33.5l-21 -31.5q-26 -39 -51 -73.5t-52 -63t-58 -49.5t-69 -33 q-22 -5 -42.5 -8t-40.5 -3q-61 0 -113 24.5t-93 68t-70 102.5t-44 128q-12 58 -12 125zM246 400q0 -46 10.5 -83t29 -63t43.5 -39t55 -10q42 4 81 15t73.5 34t63.5 61.5t51 96.5q31 82 45 147t14 114q0 89 -46 130q-21 16 -50 16q-51 0 -131 -43.5t-181 -136.5 q-30 -67 -44 -127.5t-14 -111.5z" />
<glyph unicode="&#xf6;" d="M57 468q0 59 9.5 122.5t30 127t51.5 124.5t74 116q14 20 32 28t37 8q14 0 27.5 -4t24.5 -10h-1q31 -23 43 -63q60 37 112.5 53.5t98.5 16.5q77 0 136 -38t94 -101v1q18 -38 28.5 -84.5t10.5 -99.5q0 -81 -28 -170.5t-91 -179.5q-11 -17 -22 -33.5l-21 -31.5 q-26 -39 -51 -73.5t-52 -63t-58 -49.5t-69 -33q-22 -5 -42.5 -8t-40.5 -3q-61 0 -113 24.5t-93 68t-70 102.5t-44 128q-6 29 -9.5 61t-3.5 64zM161 1294q0 41 18 86q12 35 34.5 52t71.5 14h-1q32 -3 58.5 -23t50.5 -65v1q6 -13 9.5 -24.5t3.5 -22.5q0 -25 -24 -48.5 t-91 -49.5v1q-28 -11 -51 -11q-38 0 -58.5 25t-20.5 65zM246 400q0 -46 10.5 -83t29 -63t43.5 -39t55 -10q42 4 81 15t73.5 34t63 61.5t51.5 96.5q31 82 45 147t14 114q0 89 -46 130q-21 16 -50 16q-51 0 -131 -43.5t-181 -136.5q-30 -67 -44 -127.5t-14 -111.5zM564 1305 q0 34 16 75q14 35 37.5 52t71.5 14h-1q16 -2 31.5 -4.5t30.5 -9t29 -19.5t26 -34v1q5 -13 9.5 -25.5t4.5 -25.5q0 -26 -24 -49.5t-90 -48.5v1q-17 -6 -32 -8.5t-27 -2.5q-39 0 -60.5 22t-21.5 62z" />
<glyph unicode="&#xf7;" horiz-adv-x="1035" d="M74 668q0 35 13 52.5t33 19.5l759 51q31 2 50 -19t22 -64q1 -21 -5 -38.5t-16.5 -30.5t-23.5 -20.5t-25 -9.5q-118 -14 -215 -20.5t-171 -6.5q-80 0 -146 4.5t-129 10.5q-23 2 -46.5 5t-46.5 3q-18 0 -35.5 17t-17.5 46zM390 247q0 46 18 99q12 42 34 61t69 19h2 q32 0 61.5 -25.5t52.5 -77.5q14 -33 14 -64q0 -33 -24.5 -66.5t-91.5 -62.5q-22 -11 -46 -11q-42 0 -65.5 36t-23.5 92zM390 1048q0 22 5 47.5t13 51.5q13 42 34 61t68 19h3q65 0 114 -102l1 -2q6 -17 9.5 -32.5t3.5 -30.5q0 -34 -24.5 -67t-91.5 -62q-22 -11 -46 -11 q-42 0 -65.5 36t-23.5 92z" />
<glyph unicode="&#xf8;" d="M57 468q0 59 9.5 122.5t30 127t51.5 124.5t74 116q13 20 31.5 28t37.5 8q14 0 27 -4t25 -10h-1q31 -23 43 -63q60 37 112.5 53.5t97.5 16.5q27 0 53 -6q61 105 122 191q6 5 14 9q7 3 16.5 3.5t21.5 -4.5h-1q7 -4 15 -10.5t13.5 -14.5t8 -18t-0.5 -20l1 1 q-23 -46 -46 -94.5t-48 -99.5q37 -31 62 -76v1q23 -48 38.5 -115.5t15.5 -144.5q0 -81 -22 -165t-74 -159q-35 -51 -71 -89.5t-74 -66t-79.5 -46.5t-86.5 -32q-45 -12 -86 -12q-37 0 -71 9q-26 -48 -51 -93t-50 -87q-5 -11 -15 -18.5t-21 -7.5q-14 0 -25 12q-9 7 -17.5 18 t-0.5 32l9 22.5t12 26.5q11 29 26.5 66t33.5 82q-54 45 -91.5 112.5t-55.5 149.5q-7 29 -10 61t-3 64zM238 449q0 -61 14.5 -111.5t38.5 -82.5q58 134 128 283t145 292q-53 -2 -121.5 -32t-147.5 -103q-29 -65 -43 -127t-14 -119zM410 207q40 4 80.5 13t77 29.5t67 54.5 t51.5 88q24 64 34 118.5t10 101.5q0 52 -10.5 92t-28.5 69q-69 -143 -140 -286.5t-141 -279.5z" />
<glyph unicode="&#xf9;" horiz-adv-x="1009" d="M98 627q0 120 24 275q1 9 9.5 21.5t23 23t35 16.5t45.5 3q18 0 33.5 -7t27.5 -18t19 -24.5t7 -26.5q-14 -93 -21.5 -172t-7.5 -140q0 -59 5.5 -106.5t14.5 -86.5q12 -40 30 -68.5t40 -47t46.5 -28.5t49.5 -13q46 -5 96 37t86 124q17 59 25.5 137.5t8.5 184.5 q0 44 -1.5 93.5t-4.5 102.5v11q0 30 19.5 48t66.5 29q23 0 40.5 -6.5t30 -15.5t20 -18.5t10.5 -15.5q6 -45 9 -89t3 -92q0 -44 -2.5 -91.5t-7.5 -99.5q-2 -35 -3.5 -66.5t-1.5 -57.5q0 -78 9 -133.5t20 -100.5q2 -11 5 -22t6 -23v-1q9 -32 -6.5 -55.5t-50.5 -45.5h1 q-13 -5 -24.5 -7.5t-22.5 -2.5q-20 0 -33.5 9.5t-18.5 27.5q-8 11 -16.5 38t-14.5 50q-25 -34 -57.5 -59.5t-68 -41.5t-73 -22.5t-72.5 -3.5q-46 3 -90 19.5t-82.5 46t-70 70t-53.5 91.5q-29 67 -45.5 153t-16.5 197zM265 1402q0 17 9 36.5t19 31.5v-1q7 7 18 13t24 9.5 t26 3.5t24 -5q48 -22 95 -47.5t90.5 -59t82.5 -77t72 -100.5q5 -8 -5.5 -15t-18.5 -12l1 1q-8 -3 -19 -5.5t-21.5 -5t-18.5 -3t-10 1.5q-39 39 -86.5 71t-95.5 57.5t-93 45.5t-79 35v1q-14 6 -14 24z" />
<glyph unicode="&#xfa;" horiz-adv-x="1009" d="M98 627q0 120 24 275q1 9 9.5 21.5t23 23t35 16.5t45.5 3q18 0 33.5 -7t27.5 -18t19 -24.5t7 -26.5q-14 -93 -21.5 -172t-7.5 -140q0 -59 5.5 -106.5t14.5 -86.5q12 -40 30 -68.5t40 -47t46.5 -28.5t49.5 -13q46 -5 96 37t86 124q17 59 25.5 137.5t8.5 184.5 q0 44 -1.5 93.5t-4.5 102.5v11q0 30 19.5 48t66.5 29q23 0 40.5 -6.5t30 -15.5t20 -18.5t10.5 -15.5q6 -45 9 -89t3 -92q0 -44 -2.5 -91.5t-7.5 -99.5q-2 -35 -3.5 -66.5t-1.5 -57.5q0 -78 9 -133.5t20 -100.5q2 -11 5 -22t6 -23v-1q9 -32 -6.5 -55.5t-50.5 -45.5h1 q-13 -5 -24.5 -7.5t-22.5 -2.5q-20 0 -33.5 9.5t-18.5 27.5q-8 11 -16.5 38t-14.5 50q-25 -34 -57.5 -59.5t-68 -41.5t-73 -22.5t-72.5 -3.5q-46 3 -90 19.5t-82.5 46t-70 70t-53.5 91.5q-29 67 -45.5 153t-16.5 197zM292 1210q-2 4 0 8q33 57 72.5 100t83 76.5t90 59 t95.5 48.5q12 5 27 5q19 0 37 -7.5t27 -18.5q11 -13 20 -32t9 -36t-14 -23v-1q-33 -14 -78 -34.5t-93 -47t-95.5 -59t-85.5 -70.5q-4 -1 -13 0t-19.5 2.5t-21.5 4.5t-18 6h1q-4 2 -9 5t-9 6.5t-6 7.5z" />
<glyph unicode="&#xfb;" horiz-adv-x="1009" d="M98 627q0 120 24 275q1 9 9.5 21.5t23 23t35 16.5t45.5 3q18 0 33.5 -7t27.5 -18t19 -24.5t7 -26.5q-14 -93 -21.5 -172t-7.5 -140q0 -59 5.5 -106.5t14.5 -86.5q12 -40 30 -68.5t40 -47t46.5 -28.5t49.5 -13q46 -5 96 37t86 124q17 59 25.5 137.5t8.5 184.5 q0 44 -1.5 93.5t-4.5 102.5v11q0 30 19.5 48t66.5 29q23 0 40.5 -6.5t30 -15.5t20 -18.5t10.5 -15.5q6 -45 9 -89t3 -92q0 -44 -2.5 -91.5t-7.5 -99.5q-2 -35 -3.5 -66.5t-1.5 -57.5q0 -78 9 -133.5t20 -100.5q2 -11 5 -22t6 -23v-1q9 -32 -6.5 -55.5t-50.5 -45.5h1 q-13 -5 -24.5 -7.5t-22.5 -2.5q-20 0 -33.5 9.5t-18.5 27.5q-8 11 -16.5 38t-14.5 50q-25 -34 -57.5 -59.5t-68 -41.5t-73 -22.5t-72.5 -3.5q-46 3 -90 19.5t-82.5 46t-70 70t-53.5 91.5q-29 67 -45.5 153t-16.5 197zM186 1197q0 17 14 29q46 46 90.5 84t88 65t84.5 41.5 t79 14.5q75 0 147.5 -53.5t152.5 -159.5q6 -16 1.5 -28t-15.5 -19.5t-25.5 -11t-28.5 -3.5q-29 0 -41 12q-69 68 -114 107.5t-77 39.5q-30 0 -68 -30.5t-90 -90.5q-15 -19 -42.5 -36t-64.5 -17q-13 0 -33 5q-31 8 -44.5 22.5t-13.5 28.5z" />
<glyph unicode="&#xfc;" horiz-adv-x="1009" d="M98 627q0 120 24 275q1 9 9.5 21.5t23 23t35 16.5t45.5 3q18 0 33.5 -7t27.5 -18t19 -24.5t7 -26.5q-14 -93 -21.5 -172t-7.5 -140q0 -59 5.5 -106.5t14.5 -86.5q12 -40 30 -68.5t40 -47t46.5 -28.5t49.5 -13q46 -5 96 37t86 124q17 59 25.5 137.5t8.5 184.5 q0 44 -1.5 93.5t-4.5 102.5v11q0 30 19.5 48t66.5 29q23 0 40.5 -6.5t30 -15.5t20 -18.5t10.5 -15.5q6 -45 9 -89t3 -92q0 -44 -2.5 -91.5t-7.5 -99.5q-2 -35 -3.5 -66.5t-1.5 -57.5q0 -78 9 -133.5t20 -100.5q2 -11 5 -22t6 -23v-1q9 -32 -6.5 -55.5t-50.5 -45.5h1 q-13 -5 -24.5 -7.5t-22.5 -2.5q-20 0 -33.5 9.5t-18.5 27.5q-8 11 -16.5 38t-14.5 50q-25 -34 -57.5 -59.5t-68 -41.5t-73 -22.5t-72.5 -3.5q-46 3 -90 19.5t-82.5 46t-70 70t-53.5 91.5q-29 67 -45.5 153t-16.5 197zM184 1292q0 42 19 86q13 34 35 51.5t72 14.5h-1 q31 -3 57 -23t50 -65q6 -13 10 -25t4 -23q0 -24 -24 -47t-90 -49v1q-15 -6 -28 -8.5t-24 -2.5q-38 0 -59 25t-21 65zM588 1302q0 34 17 76q13 35 36.5 52t70.5 14h-1q16 -2 32 -4.5t31 -9t29 -19.5t26 -34v1q6 -14 10.5 -26.5t4.5 -24.5q0 -25 -25 -49t-90 -49v1 q-35 -12 -58 -12q-39 0 -61 22.5t-22 61.5z" />
<glyph unicode="&#xfd;" horiz-adv-x="1077" d="M85 760q0 26 0.5 51t1.5 52q0 20 8.5 34t22.5 23t32.5 13.5t39.5 4.5q20 0 37.5 -6.5t29.5 -17.5t17.5 -26.5t1.5 -33.5q-4 -63 -6 -120.5t-2 -107.5q0 -85 8 -148.5t31 -105.5v1q15 -35 34.5 -55t41.5 -30t45.5 -13t45.5 -3q48 0 94 23t96 84q48 71 72.5 203.5 t24.5 333.5q0 15 9 26.5t23 20t31 13t33 5.5q46 -8 76.5 -23t30.5 -44q-2 -200 -8 -353.5t-14 -269t-18 -196.5t-20.5 -136.5t-21.5 -89t-20 -53.5q-24 -51 -62 -89t-82.5 -63t-91.5 -37t-90 -11q-36 1 -72 7t-69 22t-62 43.5t-52 71.5q-7 9 -9.5 18t-2.5 17q0 15 6 26 t12 13q13 11 28.5 19t29.5 8q20 0 29 -22q35 -39 75.5 -57.5t79.5 -13.5q76 13 119.5 44.5t66.5 81t31 117t14 151.5q2 17 2.5 38t2.5 41l-13 4q-20 -30 -52.5 -55.5t-71.5 -44t-79.5 -29.5t-74.5 -11q-92 0 -167 46t-131 127q-48 81 -69.5 205.5t-21.5 276.5zM300 1214 q33 57 73 100.5t84 76.5t91.5 59t96.5 49q6 3 23 3q18 0 37 -7.5t28 -18.5q9 -12 18.5 -31t9.5 -36q0 -8 -3.5 -15.5t-11.5 -10.5q-32 -13 -76 -33t-92 -46t-95 -59t-86 -71q-4 -1 -13.5 -0.5t-20 2.5t-21.5 4.5t-18 5.5l3 -1q-2 2 -6 4q-8 5 -16.5 11t-4.5 14z" />
<glyph unicode="&#xfe;" horiz-adv-x="1084" d="M155 642q0 111 2.5 223t8.5 218t15.5 204t23.5 182q1 8 5 18t10.5 19t15 15t19.5 6q33 0 56 -19t23 -46q2 -86 2.5 -205t0.5 -259q77 17 148.5 27.5t131.5 10.5q113 0 193 -33h-1q88 -46 138 -124.5t50 -199.5q0 -87 -37.5 -175.5t-104 -169.5t-159.5 -149.5t-204 -116.5 q-22 -10 -41.5 2t-27.5 38q-6 9 -6 28q0 22 5.5 42.5t12.5 25.5q82 45 153 96.5t122.5 107.5t81 116.5t29.5 122.5q0 28 -8 54t-23.5 47t-38 34.5t-52.5 18.5h1q-23 7 -50.5 11t-59.5 4q-52 0 -115.5 -12t-138.5 -38q-1 -141 -4 -289t-7.5 -291.5t-10.5 -276.5t-15 -243 q-3 -24 -17 -40.5t-41 -11.5q-6 2 -13.5 5.5t-15 9.5t-13 14t-7.5 19q-5 60 -11.5 162.5t-12 232t-9.5 279.5t-4 306z" />
<glyph unicode="&#xff;" horiz-adv-x="1077" d="M113 812q0 24 0.5 48.5t1.5 50.5q0 41 31.5 59.5t73.5 18.5q20 0 37 -6.5t29 -18.5t17.5 -28t1.5 -34q-4 -63 -6 -120.5t-2 -106.5q0 -85 8 -148t31 -105v1q15 -35 34.5 -55t41.5 -30.5t45.5 -13t45.5 -2.5q24 0 47 5t46.5 17t47.5 32.5t49 51.5q48 71 72.5 203.5 t24.5 333.5q0 15 9 27t23 20t30.5 13t32.5 6q47 -9 77.5 -24.5t30.5 -43.5q-3 -200 -8.5 -353.5t-14 -269t-18.5 -197t-20.5 -137t-21 -89t-20.5 -53.5q-24 -51 -61.5 -88.5t-81.5 -62.5t-92 -37.5t-91 -11.5q-36 1 -71.5 7.5t-68.5 22.5t-62 43.5t-51 71.5q-7 9 -10 18 t-3 17q0 15 6 26.5t12 13.5q13 11 28.5 19t29.5 8q22 0 32 -24q34 -40 74 -57t78 -12q78 12 121.5 42.5t66 79t30 117t13.5 157.5q1 18 2 37.5t3 38.5l-13 4q-20 -30 -52.5 -55.5t-71.5 -44.5t-79.5 -29.5t-74.5 -10.5q-95 0 -167.5 44t-131.5 130v-1q-51 81 -71 205 t-20 280zM214 1273q0 19 5.5 43t17.5 51q11 30 32 45.5t68 14.5q33 -4 59.5 -24.5t51.5 -63.5v1q5 -13 9.5 -25t4.5 -24q0 -24 -25 -47.5t-92 -49.5v1q-29 -10 -51 -10q-38 0 -59 24.5t-21 63.5zM623 1283q0 36 16 74q14 35 36 53t69 17q17 -2 33.5 -5t31.5 -10.5 t28.5 -20.5t25.5 -35q7 -13 11 -25t4 -24q0 -24 -24.5 -47.5t-90.5 -47.5v1q-32 -13 -58 -13q-38 0 -60 22.5t-22 60.5z" />
<glyph unicode="&#x152;" horiz-adv-x="1880" d="M82 696q0 153 45 315t142 337l-1 -1q11 15 25.5 21t28.5 6q17 0 33.5 -8t27.5 -18q8 -12 14.5 -28.5t6.5 -36.5q79 75 144.5 109.5t122.5 34.5q49 0 96 -22t96 -64q8 9 15.5 15t14.5 8l781 71q18 4 31 -2.5t21.5 -19t13 -30.5t4.5 -37q1 -9 1 -16v-14q0 -18 -3 -28.5 t-10 -16.5t-17 -9.5t-24 -6.5q-3 -1 -7 -2h1q-101 -12 -174 -18.5t-131 -10t-106.5 -4.5t-100.5 -2h-41.5t-44.5 -1q-11 -66 -19 -131t-13 -124q-2 -24 -3.5 -56.5t-3 -69.5t-2 -75.5t-0.5 -74.5q0 -28 0.5 -52.5t1.5 -44.5q10 -113 37.5 -193t69.5 -122q45 -41 90.5 -60 t99.5 -19q75 0 176 35t247 99q20 9 38 1t24 -24l-1 1q10 -34 10 -54q0 -23 -17 -48q-160 -96 -286.5 -147t-229.5 -51q-64 0 -124 21t-117 62q-31 25 -59 67t-51 101q-13 -42 -33 -82.5t-51 -76.5t-73 -65t-98 -47q-32 -8 -68.5 -14.5t-65.5 -6.5q-84 0 -155 34t-127 94 t-97.5 143t-67.5 182q-37 133 -37 277zM270 677q0 -122 27 -225t72 -176t103.5 -110.5t121.5 -27.5q43 7 88 29.5t83 72.5t65 134.5t33 217.5q0 8 0.5 16t1.5 18q1 22 2 48t2 52.5t1.5 52t0.5 46.5v24t-1 19t-1 16.5t-1 16.5v-1q-5 76 -10 135.5t-17 102.5t-34 70.5 t-60 39.5q-27 8 -53 8q-82 0 -181 -79.5t-214 -255.5q-16 -63 -22.5 -124t-6.5 -120zM1143 749q-7 32 2 55t22 31q43 9 78 16t65 12.5t57.5 10.5t56.5 10q39 8 89.5 16.5t112.5 20.5q18 0 31.5 -9t24 -23t18 -31t13.5 -33l-1 2q4 -24 -1 -48.5t-18 -43.5t-31.5 -30t-41.5 -7 q-80 9 -137 9q-53 0 -97 -6t-95 -13q-24 -4 -49.5 -7.5t-55.5 -7.5h1q-12 0 -20 8t-13.5 19.5t-8 24.5t-2.5 24z" />
<glyph unicode="&#x153;" horiz-adv-x="1579" d="M54 468q0 59 9.5 122.5t29.5 127t51 124.5t75 116q13 20 31 28t37 8q14 0 27.5 -4t24.5 -10h-1q31 -23 43 -63q60 37 112.5 53.5t98.5 16.5q77 0 136 -38.5t94 -100.5l4 -7q36 42 81 75q67 51 143.5 75.5t152.5 24.5q64 0 123 -18.5t103 -55.5t70.5 -92.5t26.5 -130.5 q0 -38 -9 -74.5t-23.5 -68.5t-33.5 -58t-38 -42q-37 -32 -83.5 -57.5t-98.5 -43t-106 -26.5t-105 -9q-14 0 -27.5 1.5t-25.5 7.5t-21.5 19.5t-15.5 37.5v-1q-3 19 1.5 38t13 33.5t20.5 23t24 7.5q32 -2 76 2.5t88.5 14t83.5 23t61 31.5q25 21 40 43t23 44t11 43.5t3 41.5 q-1 20 -13.5 37t-34 29.5t-50 19.5t-60.5 7q-45 0 -93.5 -16.5t-90.5 -49.5q-81 -67 -123 -146.5t-42 -152.5q0 -63 25 -125q28 -46 59 -80t68.5 -56t83 -33t102.5 -11q20 0 40.5 1.5t43.5 3.5q29 7 45.5 -12t16.5 -47q0 -24 -13 -45.5t-42 -29.5q-46 -12 -87.5 -17.5 t-79.5 -5.5q-77 0 -140.5 20.5t-113.5 56t-86.5 83.5t-58.5 104q-2 4 -3.5 8t-3.5 9q-9 -14 -17.5 -27t-16.5 -25q-26 -39 -51 -73.5t-52 -63t-57.5 -49.5t-69.5 -33q-22 -5 -42.5 -8t-40.5 -3q-61 0 -112.5 24.5t-92.5 68t-70.5 102.5t-44.5 128q-12 58 -12 125zM242 400 q0 -46 10.5 -83t29 -63t44 -39t54.5 -10q43 4 82 15t73 34t63 61.5t51 96.5q31 82 45 147t14 114q0 88 -45 130q-22 16 -51 16q-51 0 -131 -43.5t-180 -136.5q-31 -67 -45 -127.5t-14 -111.5z" />
<glyph unicode="&#x178;" horiz-adv-x="1167" d="M24 1328q0 11 4.5 24t11.5 24.5t15.5 20.5t17.5 13l-1 -1q11 3 25.5 6t26.5 3q18 0 32.5 -7.5t19.5 -30.5q40 -90 82 -176t88.5 -161.5t98.5 -138t114 -105.5q8 -10 11.5 -23.5t3.5 -28.5q0 -22 -12.5 -38t-30 -26t-36 -14t-31.5 -1q-45 8 -89.5 39t-86 79.5t-80.5 111 t-72.5 133t-62 146.5t-49.5 151zM244 1595q0 40 18 87q13 34 35.5 52.5t71.5 16.5q31 -3 56.5 -24t51.5 -65v1q5 -14 9 -26.5t4 -24.5q0 -25 -24 -49.5t-91 -51.5v1q-29 -10 -50 -10q-38 0 -59.5 25.5t-21.5 67.5zM340 80.5q0 9.5 7 18.5q12 31 27 70t30 83q34 94 76 208 t89 232.5t96 234t98 213t95.5 168.5t87.5 101q17 15 43 27t53 12q26 0 48 -15q25 -15 39 -51t14 -72q0 -29 -9.5 -52.5t-29.5 -34.5q-81 -51 -154 -151.5t-143 -238.5t-140 -306.5t-145 -355.5q-14 -36 -28.5 -72.5t-29.5 -74.5q-8 -5 -23.5 -12t-30.5 -7q-16 0 -31 10l-4 4 q-9 11 -17 21.5t-13 20.5t-5 19.5zM648 1605q0 34 17 77q13 34 36 52t70 17q16 -2 32 -4.5t31 -10t28.5 -20.5t24.5 -35v1q6 -14 11 -27t5 -26q0 -25 -25 -50t-90 -50v1q-17 -6 -31 -8.5t-26 -2.5q-39 0 -61 23t-22 63z" />
<glyph unicode="&#x2c6;" horiz-adv-x="967" d="M138 1280q0 27 11 44q96 143 185.5 219t169.5 76q76 0 150.5 -83t160.5 -246q3 -10 5 -20.5t2 -20.5q0 -11 -2.5 -21t-10.5 -17l1 1q-14 -9 -28.5 -15.5t-25.5 -6.5q-16 0 -21 11q-11 16 -23 31.5t-22 29.5q-57 78 -95.5 124t-67.5 46q-33 0 -69.5 -45.5t-89.5 -135.5 q-7 -14 -20 -32t-30 -34t-37 -26.5t-41 -10.5q-19 0 -38 12q-33 21 -48.5 55.5t-15.5 64.5z" />
<glyph unicode="&#x2dc;" horiz-adv-x="1032" d="M128 1314q0 12 2 21v-2q18 54 45.5 97t60 73.5t68.5 48t71 20.5q34 8 60 8q64 0 113 -37.5t68 -112.5q40 -99 93 -99q29 0 65 17.5t81 56.5q3 3 9.5 4.5t15 -1t17 -8.5t14.5 -16q24 -18 24 -39q0 -8 -4 -16.5t-9 -13.5v-1q-51 -61 -110.5 -91.5t-116.5 -23.5 q-27 2 -53.5 12.5t-50 31.5t-43.5 54t-33 81q-8 24 -29.5 35t-45.5 11q-22 0 -44 -9v1q-18 -6 -37.5 -17t-38 -30.5t-35 -49t-28.5 -72.5v1q-3 -9 -14 -16.5t-28 -7.5q-22 0 -44 15q-17 11 -26 24t-13 26t-4 25z" />
<glyph unicode="&#x2000;" horiz-adv-x="1073" />
<glyph unicode="&#x2001;" horiz-adv-x="2146" />
<glyph unicode="&#x2002;" horiz-adv-x="1073" />
<glyph unicode="&#x2003;" horiz-adv-x="2146" />
<glyph unicode="&#x2004;" horiz-adv-x="715" />
<glyph unicode="&#x2005;" horiz-adv-x="536" />
<glyph unicode="&#x2006;" horiz-adv-x="357" />
<glyph unicode="&#x2007;" horiz-adv-x="357" />
<glyph unicode="&#x2008;" horiz-adv-x="268" />
<glyph unicode="&#x2009;" horiz-adv-x="429" />
<glyph unicode="&#x200a;" horiz-adv-x="119" />
<glyph unicode="&#x2010;" horiz-adv-x="1035" d="M74 678q-6 34 10 53t36 19l759 51q31 4 48 -18.5t24 -64.5q0 -21 -7 -38.5t-17 -30.5t-22 -20.5t-24 -9.5q-118 -14 -215 -20.5t-171 -6.5q-80 0 -146 4.5t-129 10.5q-23 2 -46.5 4t-46.5 4q-18 0 -35.5 17t-17.5 46z" />
<glyph unicode="&#x2011;" horiz-adv-x="1035" d="M74 678q-6 34 10 53t36 19l759 51q31 4 48 -18.5t24 -64.5q0 -21 -7 -38.5t-17 -30.5t-22 -20.5t-24 -9.5q-118 -14 -215 -20.5t-171 -6.5q-80 0 -146 4.5t-129 10.5q-23 2 -46.5 4t-46.5 4q-18 0 -35.5 17t-17.5 46z" />
<glyph unicode="&#x2012;" horiz-adv-x="1035" d="M74 678q-6 34 10 53t36 19l759 51q31 4 48 -18.5t24 -64.5q0 -21 -7 -38.5t-17 -30.5t-22 -20.5t-24 -9.5q-118 -14 -215 -20.5t-171 -6.5q-80 0 -146 4.5t-129 10.5q-23 2 -46.5 4t-46.5 4q-18 0 -35.5 17t-17.5 46z" />
<glyph unicode="&#x2013;" horiz-adv-x="924" d="M39 601q0 21 5.5 42.5t15.5 39.5t22 29.5t26 11.5t29 0.5t32 0.5q82 0 176 -3.5t190 -8.5q89 -4 170.5 -7.5t147.5 -3.5q27 0 38.5 -22.5t11.5 -51.5q0 -18 -4 -36.5t-10.5 -33.5t-16 -24.5t-19.5 -10.5q-48 2 -105.5 2.5t-121.5 0.5q-73 0 -150 -0.5t-150 -1.5 q-61 -1 -116 -1h-102q-38 0 -53.5 23t-15.5 55z" />
<glyph unicode="&#x2014;" horiz-adv-x="1700" d="M115 598q0 21 5.5 43.5t15.5 40.5t22 29.5t26 12.5q146 8 262.5 12t217 4t194 -3t195 -8t218 -12t264.5 -15q26 -3 38 -25.5t12 -51.5q0 -18 -4 -36t-10.5 -32.5t-15 -23.5t-18.5 -10q-143 8 -261.5 13t-223.5 6.5t-203.5 0t-201 -4t-215.5 -6.5t-248 -9 q-38 -1 -53.5 21.5t-15.5 53.5z" />
<glyph unicode="&#x2018;" horiz-adv-x="524" d="M147 1266q0 56 5 112t12 112q6 52 26.5 99t50.5 84.5t68 63t81 34.5q21 5 31 -2t10 -21q0 -20 -13 -40.5t-33 -28.5l-2 -1q-21 -11 -42 -28.5t-38 -39.5t-27.5 -47t-11.5 -50q25 -15 46.5 -38.5t37 -59.5t24 -87.5t8.5 -123.5q0 -24 -18.5 -34.5t-45.5 -10.5 q-26 0 -56 8.5t-55 22.5t-41.5 33.5t-16.5 42.5z" />
<glyph unicode="&#x2019;" horiz-adv-x="526" d="M175 1169q0 18 13 38.5t33 30.5l2 1q21 10 42 27.5t38 39.5t27.5 47t11.5 51q-26 15 -47 38t-36.5 59t-24 87.5t-8.5 123.5q0 23 18 34.5t45 11.5q26 0 55.5 -8.5t55 -23.5t42 -35t16.5 -42q0 -54 -4 -110.5t-12 -111.5q-6 -53 -26 -99.5t-50.5 -83.5t-69 -62.5 t-80.5 -35.5q-21 -4 -31 3t-10 20z" />
<glyph unicode="&#x201a;" horiz-adv-x="637" d="M175 -263q0 18 13 39t33 30h1q21 10 42 28t38 40t28 47t12 51q-26 15 -47 38t-36.5 59t-24 87.5t-8.5 123.5q0 24 18 35t45 11q26 0 55.5 -8.5t55 -23t42 -34.5t16.5 -42q0 -55 -4 -110.5t-12 -112.5q-6 -52 -26 -98.5t-50.5 -84t-69 -63t-80.5 -35.5q-21 -4 -31 2.5 t-10 20.5z" />
<glyph unicode="&#x201c;" horiz-adv-x="878" d="M145 1266q0 56 5 112t12 112q6 52 26.5 99t50.5 84.5t68 63t81 34.5q21 5 31 -2t10 -21q0 -20 -13 -39.5t-33 -29.5l-4 -2q-21 -11 -41.5 -28t-37 -39t-27 -47t-11.5 -50q25 -15 46.5 -38.5t37 -59.5t24 -87.5t8.5 -123.5q0 -24 -18.5 -34.5t-45.5 -10.5q-26 0 -56 8.5 t-55 22.5t-41.5 33.5t-16.5 42.5zM504 1266q0 56 4.5 112t11.5 112q6 52 26.5 99t50.5 84.5t68 63t81 34.5q21 5 31 -2.5t10 -20.5q0 -19 -13 -39t-33 -30l-4 -2q-21 -11 -41.5 -28t-37 -39t-27 -47t-11.5 -50q25 -15 46.5 -38.5t37 -59.5t24 -87.5t8.5 -123.5 q0 -24 -18 -34.5t-45 -10.5q-26 0 -55.5 8.5t-55 22.5t-42 33.5t-16.5 42.5z" />
<glyph unicode="&#x201d;" horiz-adv-x="893" d="M107 1169q0 18 11 37.5t31 29.5l4 2q21 10 42 28t38.5 40t28.5 47t12 51q-26 15 -47.5 38t-37 59t-24 87.5t-8.5 123.5q0 23 18.5 34.5t45.5 11.5q26 0 56 -8.5t55.5 -23.5t42 -35t16.5 -42q0 -54 -6 -110.5t-12 -111.5q-6 -53 -26 -100t-50 -84t-68.5 -62.5t-81.5 -34.5 q-21 -5 -30.5 2t-9.5 21zM464 1169q0 19 11.5 39t31.5 28l5 2q21 9 42 26t38 39.5t27.5 48.5t11.5 52q-26 15 -47 38t-36 59t-23.5 87.5t-8.5 123.5q0 23 18 34.5t45 11.5q26 0 55.5 -8.5t55 -23.5t42 -35t16.5 -42q0 -54 -5 -110.5t-11 -111.5q-6 -53 -26 -100t-50 -84 t-68.5 -62.5t-81.5 -34.5q-21 -5 -31.5 2t-10.5 21z" />
<glyph unicode="&#x201e;" horiz-adv-x="893" d="M107 -263q0 18 12.5 39t32.5 30h1q21 10 42 28t38.5 40t28.5 47t12 51q-26 15 -47.5 38t-37 59t-24 87.5t-8.5 123.5q0 24 18.5 35t45.5 11q26 0 56 -8.5t55.5 -23t42 -34.5t16.5 -42q0 -55 -5.5 -110.5t-12.5 -112.5q-6 -53 -25.5 -100t-49.5 -84t-69 -62.5t-82 -34.5 q-21 -5 -30.5 2t-9.5 21zM464 -263q0 18 13.5 39t33.5 30h1q21 10 41.5 28t37.5 40t28 47t12 51q-26 15 -47 38t-36 59t-23.5 87.5t-8.5 123.5q0 24 18 35t45 11q26 0 55.5 -8.5t55 -23t42 -34.5t16.5 -42q0 -54 -5 -110.5t-11 -112.5q-6 -52 -26.5 -99t-50.5 -84.5t-68 -63 t-81 -34.5q-22 -5 -32 2t-10 21z" />
<glyph unicode="&#x2022;" horiz-adv-x="553" d="M122 722q0 51 23 108q14 43 41 65t86 19h-1q41 -3 77.5 -29t68.5 -83v1q8 -17 12.5 -34t4.5 -34q0 -35 -32 -72.5t-111 -70.5q-30 -11 -55 -11q-54 0 -84 40t-30 101z" />
<glyph unicode="&#x2026;" horiz-adv-x="1400" d="M88 21q0 24 5.5 53.5t16.5 56.5q17 44 49 70.5t74 21.5q11 -2 24.5 -9t27 -21t25.5 -35t20 -50l15 -57q0 -29 -26.5 -57.5t-95.5 -68.5q-36 -21 -62 -21q-36 0 -54.5 34t-18.5 83zM560 20q0 26 5.5 54t16.5 57q16 45 48 71t74 21q24 -3 51.5 -30.5t47.5 -84.5 q6 -16 10 -30t4 -26q0 -15 -6 -29.5t-20 -29.5t-37.5 -31.5t-58.5 -36.5q-36 -21 -62 -21q-36 0 -54.5 33t-18.5 83zM1032 20q0 54 21 111q16 45 48.5 71.5t74.5 20.5q23 -2 51 -30t49 -85q6 -16 10 -30t4 -26q0 -15 -6.5 -29.5t-21 -29.5t-38 -31.5t-58.5 -36.5 q-36 -21 -61 -21q-36 0 -54.5 33t-18.5 83z" />
<glyph unicode="&#x202f;" horiz-adv-x="429" />
<glyph unicode="&#x2039;" horiz-adv-x="832" d="M64 555q0 24 8.5 44.5t20.5 33.5q63 71 132.5 135.5t146.5 118.5t161.5 96t178.5 68q20 5 29.5 -15.5t9.5 -48.5q0 -14 -3 -32t-8 -35.5t-13.5 -30.5t-18.5 -16q-60 -17 -118.5 -40t-111.5 -50t-99 -57.5t-82 -63.5q-26 -23 -44.5 -49t-18.5 -55q0 -30 17 -50.5t43 -45.5 q37 -34 77 -65.5t86.5 -64.5t102 -70.5t123.5 -82.5q7 -5 10.5 -13t5 -16.5t1.5 -16v-11.5q0 -13 -7 -26.5t-16 -24.5t-18.5 -17t-14.5 -3q-83 41 -149.5 84.5t-126 91t-115.5 100.5t-117 113q-11 11 -24 23.5t-23.5 27t-17.5 30.5t-7 34z" />
<glyph unicode="&#x203a;" horiz-adv-x="834" d="M64 987q0 28 9.5 48.5t29.5 15.5q94 -26 178.5 -68t161.5 -96t146.5 -118.5t132.5 -135.5q12 -13 20.5 -33.5t8.5 -44.5q0 -18 -7 -34t-17.5 -30.5t-23.5 -27t-24 -23.5q-61 -60 -117 -113t-115.5 -100.5t-126.5 -91t-149 -84.5q-5 -3 -14.5 3t-18.5 17t-16 24.5t-7 26.5 v11.5t1.5 16t5 16.5t10.5 13q68 45 123.5 82.5t102 70.5t86 64.5t77.5 65.5q26 25 43 45.5t17 50.5q0 29 -18.5 55t-44.5 49q-36 33 -82 63.5t-99 57.5t-111.5 50t-118.5 40q-11 3 -19 16t-13 30.5t-8 35.5t-3 32z" />
<glyph unicode="&#x205f;" horiz-adv-x="536" />
<glyph unicode="&#x20ac;" horiz-adv-x="1252" d="M20 440q0 28 11.5 50t43.5 22h14t15 1q5 65 22 131.5t46 133.5q-22 2 -44 3.5t-46 1.5q-29 0 -45.5 10.5t-16.5 36.5q0 28 11 50.5t43 27.5l170 7q50 84 117.5 161.5t144 146.5t159.5 129t164 109l5 3q15 9 36 1t35 -40q6 -15 4 -31.5t-9.5 -30.5t-17.5 -25.5t-19 -16.5 q-54 -31 -110.5 -75t-111 -95.5t-105 -109.5t-92.5 -118l407 19q16 4 31.5 -1.5t28 -18t20 -31.5t9.5 -42q1 -27 -6 -41.5t-20 -20.5t-30.5 -7t-37.5 -1q-106 -14 -189.5 -19.5t-152.5 -5.5q-89 0 -158 6q-29 -59 -47.5 -118.5t-24.5 -119.5q28 2 55.5 3.5t54.5 3.5 q51 3 103 6t108.5 6t119.5 6t135 5q16 3 32 -2t28 -16.5t20 -28t10 -34.5q2 -27 -3.5 -43t-17 -24.5t-26 -11t-30.5 -2.5q-5 0 -8 -0.5t-9 -2.5q-94 -11 -169 -15t-140 -4q-73 0 -136 4.5t-117 9.5q14 -43 40 -79.5t60 -64.5t75 -46t85 -22q8 -1 19 -1h21q57 0 121 9 t131.5 23t135.5 32t134 36q12 3 23.5 6.5t28.5 5.5q10 1 20.5 0.5t20.5 -6.5t18 -20.5t12 -40.5t-2.5 -48t-17.5 -37.5t-24.5 -25t-23.5 -11.5q-68 -12 -135.5 -27t-133.5 -28t-130 -21.5t-125 -8.5q-72 0 -138 9t-126 28q-58 18 -106.5 48t-84.5 73t-57.5 100t-25.5 130 q-6 0 -14.5 0.5t-10.5 0.5q-12 1 -22 3t-17 6.5t-11 12.5t-4 22z" />
<glyph unicode="&#x2122;" horiz-adv-x="1644" d="M101 1318q0 32 12.5 52.5t44.5 23.5q105 9 232 21t253 18q38 17 62.5 -4.5t26.5 -65.5q7 -49 -14.5 -71.5t-55.5 -26.5q-48 -6 -92 -10.5t-85 -7.5q4 -11 5 -23t-2 -27v3q-9 -79 -13 -133t-4 -101v-50t2 -52q2 -42 3.5 -90.5t1.5 -110.5q0 -21 -6.5 -37t-17.5 -26.5 t-25 -14t-29 1.5q-23 3 -42 20t-22 46q-3 38 -7 74t-9 71q-6 43 -10 90t-4 96q0 56 8 117.5t32 136.5v2q-10 -1 -19.5 -0.5t-18.5 0.5q-25 0 -47.5 1.5t-40.5 1.5h-50q-31 0 -50 20t-19 55zM751 694q-3 19 3 45q23 74 32 154t9 171v55t-2 56q0 30 13 49t50 21 q-14 20 -28.5 41.5t-28.5 46.5q-14 28 -11.5 52.5t17.5 47.5q11 15 26.5 24.5t29.5 14.5q3 2 6.5 5t5.5 5q24 -6 40 -11.5t27.5 -12.5t18.5 -17.5t12 -25.5l-2 2q30 -59 54 -93t43 -51.5t33 -22.5t24 -5q12 0 25.5 7.5t32 26.5t42.5 51t57 80q17 22 38.5 38t47.5 16 q47 0 86 -51q14 -20 27 -49t23.5 -69.5t17 -94t6.5 -121.5v-42.5t-2 -43.5q0 -7 -1 -12.5t-1 -8.5q-5 -90 -11.5 -170t-29.5 -149q0 -25 -24.5 -40.5t-71.5 1.5q-18 12 -28 22.5t-14.5 20.5t-5.5 21t-1 24q15 106 22.5 212.5t7.5 199.5q0 43 -1.5 81t-6.5 70 q-37 -60 -70.5 -99t-64 -62.5t-58.5 -33.5t-53 -12h2q-36 -4 -82 19t-98 74q12 -45 18.5 -94t6.5 -99q0 -91 -10.5 -166.5t-42.5 -134.5q-6 -3 -15.5 -9t-21 -11t-24.5 -9t-25 -2q-18 5 -33 13.5t-24 22t-12 32.5z" />
<glyph unicode="&#x25fc;" horiz-adv-x="955" d="M0 0v955h955v-955h-955z" />
<glyph unicode="&#xfb01;" horiz-adv-x="1443" d="M41 655q1 22 4.5 35t9.5 20.5t15.5 11t23.5 7.5q9 3 21 6q29 9 65 15.5t73 11t72 6.5t62 2q-2 20 -5 47.5t-5 53.5q-3 32 -6.5 66t-6.5 67t-4.5 63.5t-1.5 56.5q0 118 20 207.5t54.5 149.5t80 90t96.5 30q51 2 106.5 -28t110 -91t104 -152.5t87.5 -212.5l1 -1 q9 -20 2 -44t-32 -34q-10 -10 -24 -10q-13 0 -26 8.5t-22 22.5v-1q-34 79 -69 139t-68 100.5t-63 60.5t-54 20q-23 0 -43.5 -14.5t-36.5 -45t-26.5 -78.5t-14.5 -114q0 -26 1.5 -65.5t5 -86.5t9.5 -97.5t16 -96.5q108 7 209.5 10t182.5 3q17 0 29.5 -12t17.5 -27 q2 -11 3 -20t1 -17q0 -29 -11 -42t-28 -18q-17 -2 -35 -4t-34 -4q-81 -9 -160.5 -17t-157.5 -10q0 -14 0.5 -31t0.5 -30q0 -165 -17.5 -284t-32.5 -195q-5 -26 -9 -48.5t-6 -41.5q-8 -27 -20 -44.5t-32 -17.5q-14 0 -31 8q-14 4 -25 16.5t-11 39.5q0 11 3 28q5 31 10 65 t8.5 72.5t6 83.5t2.5 98q0 51 -3 113.5t-8 132.5q-74 -5 -154.5 -9.5t-154.5 -9.5q-12 0 -26.5 3.5t-26.5 12.5t-19 26t-4 45zM1091 653q0 69 8 133t28 122q2 6 10 15.5t20 18.5t26 15.5t28 6.5q11 0 24.5 -4.5t25 -12t20 -17.5t8.5 -20q0 -5 -1 -7t-2 -5q-7 -91 -8 -179 t-1 -179q0 -114 -2.5 -232.5t-16.5 -256.5q-5 -23 -17.5 -38t-25.5 -15q-20 0 -43 15.5t-32 39.5q-3 62 -9 126t-14 130q-10 86 -18 175t-8 169zM1112 1342q0 26 5.5 57.5t16.5 63.5q5 19 24.5 28.5t43.5 9.5q38 0 75 -22h1q25 -13 42 -32t17 -44q0 -23 -15.5 -50t-53.5 -58 q-33 -26 -58.5 -40t-45.5 -14q-18 0 -32 14v-1q-9 11 -14.5 34t-5.5 54z" />
<glyph unicode="&#xfb02;" horiz-adv-x="1499" d="M41 655q1 22 4.5 35t9.5 20.5t15.5 11t23.5 7.5q9 3 21 6q29 9 65 15.5t73 11t72 6.5t62 2q-2 20 -5 47.5t-5 53.5q-3 32 -6.5 66t-6.5 67t-4.5 63.5t-1.5 56.5q0 118 20 207.5t54.5 149.5t80 90t96.5 30q51 2 106.5 -28t110 -91t104 -152.5t87.5 -212.5l1 -1 q9 -20 2 -44t-32 -34q-10 -10 -24 -10q-13 0 -26 8.5t-22 22.5v-1q-34 79 -69 139t-68 100.5t-63 60.5t-54 20q-23 0 -43.5 -14.5t-36.5 -45t-26.5 -78.5t-14.5 -114q0 -26 1.5 -65.5t5 -86.5t9.5 -97.5t16 -96.5q108 7 209.5 10t182.5 3q17 0 29.5 -12t17.5 -27 q2 -11 3 -20t1 -17q0 -29 -11 -42t-28 -18q-17 -2 -35 -4t-34 -4q-81 -9 -160.5 -17t-157.5 -10q0 -14 0.5 -31t0.5 -30q0 -165 -17.5 -284t-32.5 -195q-5 -26 -9 -48.5t-6 -41.5q-8 -27 -20 -44.5t-32 -17.5q-14 0 -31 8q-14 4 -25 16.5t-11 39.5q0 11 3 28q5 31 10 65 t8.5 72.5t6 83.5t2.5 98q0 51 -3 113.5t-8 132.5q-74 -5 -154.5 -9.5t-154.5 -9.5q-12 0 -26.5 3.5t-26.5 12.5t-19 26t-4 45zM1131 834q0 137 7.5 297.5t24.5 344.5q0 12 3.5 26t11.5 26t21.5 20t34.5 8q13 0 29 -4q26 -3 44.5 -14t29.5 -26t15 -32.5t2 -33.5 q-35 -270 -51.5 -486.5t-16.5 -381.5q0 -106 7.5 -192t19.5 -146l24 -120q0 -17 -2 -29t-15 -15q-6 -6 -15 -10t-18 -4q-8 0 -15 3.5t-15 13.5q-20 17 -36 47.5t-30 62.5q-2 6 -5 12t-5 11l1 -1q-18 65 -34.5 223.5t-16.5 399.5z" />
<glyph unicode="&#xfb03;" horiz-adv-x="2197" d="M87 642q1 22 4.5 35t9.5 20.5t15.5 11t23.5 7.5q61 20 113.5 30t109.5 11q-2 20 -5 47.5t-5 53.5q-3 32 -6.5 66t-6.5 67t-4.5 63.5t-1.5 56.5q0 118 20 207.5t54.5 149.5t80 90t96.5 30q102 4 196.5 -118.5t171.5 -365.5l1 -1q9 -20 2 -44t-32 -34q-10 -10 -24 -10 q-13 0 -26 8.5t-22 22.5v-1q-137 320 -234 320q-46 0 -70 -59.5t-31 -192.5q0 -26 1.5 -65.5t5 -86.5t9.5 -97.5t16 -96.5q54 3 89.5 4t65 1t58.5 -1t69 -1q17 0 29.5 -12t17.5 -27q2 -11 3 -20t1 -17q0 -29 -11 -42t-28 -18q-88 -9 -159.5 -16.5t-117.5 -8.5q0 -14 0.5 -31 t0.5 -30q0 -165 -17.5 -284t-32.5 -195q-5 -26 -9 -48.5t-6 -41.5q-8 -27 -20 -44.5t-32 -17.5q-14 0 -31 8q-14 4 -25 16.5t-11 39.5q0 11 3 28q5 31 10 65t8.5 72.5t6 83.5t2.5 98q0 51 -3 113.5t-8 132.5q-37 -3 -65 -5.5t-54.5 -4.5t-54.5 -4.5t-65 -4.5 q-12 0 -26.5 3.5t-26.5 12.5t-19 26t-4 45zM947 642q1 22 4.5 35t9.5 20.5t15.5 11t23.5 7.5q61 20 113.5 30t109.5 11q-2 20 -5 47.5t-5 53.5q-3 32 -6.5 66t-6.5 67t-4.5 63.5t-1.5 56.5q0 118 20 207.5t54.5 149.5t80 90t96.5 30q102 4 196.5 -118.5t171.5 -365.5l1 -1 q9 -20 2 -44t-32 -34q-10 -10 -24 -10q-13 0 -26 8.5t-22 22.5v-1q-137 320 -234 320q-46 0 -70 -59.5t-31 -192.5q0 -26 1.5 -65.5t5 -86.5t9.5 -97.5t16 -96.5q54 3 89.5 4t65 1t58.5 -1t69 -1q17 0 29.5 -12t17.5 -27q2 -11 3 -20t1 -17q0 -29 -11 -42t-28 -18 q-88 -9 -159.5 -16.5t-117.5 -8.5q0 -14 0.5 -31t0.5 -30q0 -165 -17.5 -284t-32.5 -195q-5 -26 -9 -48.5t-6 -41.5q-8 -27 -20 -44.5t-32 -17.5q-14 0 -31 8q-14 4 -25 16.5t-11 39.5q0 11 3 28q5 31 10 65t8.5 72.5t6 83.5t2.5 98q0 51 -3 113.5t-8 132.5q-37 -3 -65 -5.5 t-54.5 -4.5t-54.5 -4.5t-65 -4.5q-12 0 -26.5 3.5t-26.5 12.5t-19 26t-4 45zM1859 653q0 69 8 133t28 122q2 6 10 15.5t20 18.5t26 15.5t28 6.5q11 0 24.5 -4.5t25 -12t20 -17.5t8.5 -20q0 -5 -1 -7t-2 -5q-7 -91 -8 -179t-1 -179q0 -114 -2.5 -232.5t-16.5 -256.5 q-5 -23 -17.5 -38t-25.5 -15q-20 0 -43 15.5t-32 39.5q-3 62 -9 126t-14 130q-10 86 -18 175t-8 169zM1880 1342q0 26 5.5 57.5t16.5 63.5q5 19 24.5 28.5t43.5 9.5q38 0 75 -22h1q25 -13 42 -32t17 -44q0 -23 -15.5 -50t-53.5 -58q-33 -26 -58.5 -40t-45.5 -14 q-18 0 -32 14v-1q-9 11 -14.5 34t-5.5 54z" />
<glyph unicode="&#xfb04;" horiz-adv-x="2201" d="M87 642q1 22 4.5 35t9.5 20.5t15.5 11t23.5 7.5q61 20 113.5 30t109.5 11q-2 20 -5 47.5t-5 53.5q-3 32 -6.5 66t-6.5 67t-4.5 63.5t-1.5 56.5q0 118 20 207.5t54.5 149.5t80 90t96.5 30q102 4 196.5 -118.5t171.5 -365.5l1 -1q9 -20 2 -44t-32 -34q-10 -10 -24 -10 q-13 0 -26 8.5t-22 22.5v-1q-137 320 -234 320q-46 0 -70 -59.5t-31 -192.5q0 -26 1.5 -65.5t5 -86.5t9.5 -97.5t16 -96.5q54 3 89.5 4t65 1t58.5 -1t69 -1q17 0 29.5 -12t17.5 -27q2 -11 3 -20t1 -17q0 -29 -11 -42t-28 -18q-88 -9 -159.5 -16.5t-117.5 -8.5q0 -14 0.5 -31 t0.5 -30q0 -165 -17.5 -284t-32.5 -195q-5 -26 -9 -48.5t-6 -41.5q-8 -27 -20 -44.5t-32 -17.5q-14 0 -31 8q-14 4 -25 16.5t-11 39.5q0 11 3 28q5 31 10 65t8.5 72.5t6 83.5t2.5 98q0 51 -3 113.5t-8 132.5q-37 -3 -65 -5.5t-54.5 -4.5t-54.5 -4.5t-65 -4.5 q-12 0 -26.5 3.5t-26.5 12.5t-19 26t-4 45zM947 642q1 22 4.5 35t9.5 20.5t15.5 11t23.5 7.5q61 20 113.5 30t109.5 11q-2 20 -5 47.5t-5 53.5q-3 32 -6.5 66t-6.5 67t-4.5 63.5t-1.5 56.5q0 118 20 207.5t54.5 149.5t80 90t96.5 30q102 4 196.5 -118.5t171.5 -365.5l1 -1 q9 -20 2 -44t-32 -34q-10 -10 -24 -10q-13 0 -26 8.5t-22 22.5v-1q-137 320 -234 320q-46 0 -70 -59.5t-31 -192.5q0 -26 1.5 -65.5t5 -86.5t9.5 -97.5t16 -96.5q54 3 89.5 4t65 1t58.5 -1t69 -1q17 0 29.5 -12t17.5 -27q2 -11 3 -20t1 -17q0 -29 -11 -42t-28 -18 q-88 -9 -159.5 -16.5t-117.5 -8.5q0 -14 0.5 -31t0.5 -30q0 -165 -17.5 -284t-32.5 -195q-5 -26 -9 -48.5t-6 -41.5q-8 -27 -20 -44.5t-32 -17.5q-14 0 -31 8q-14 4 -25 16.5t-11 39.5q0 11 3 28q5 31 10 65t8.5 72.5t6 83.5t2.5 98q0 51 -3 113.5t-8 132.5q-37 -3 -65 -5.5 t-54.5 -4.5t-54.5 -4.5t-65 -4.5q-12 0 -26.5 3.5t-26.5 12.5t-19 26t-4 45zM1891 834q0 137 7.5 297.5t24.5 344.5q0 12 3.5 26t11.5 26t21.5 20t34.5 8q13 0 29 -4q26 -3 44.5 -14t29.5 -26t15 -32.5t2 -33.5q-35 -270 -51.5 -486.5t-16.5 -381.5q0 -106 7.5 -192 t19.5 -146l24 -120q0 -17 -2 -29t-15 -15q-6 -6 -15 -10t-18 -4q-8 0 -15 3.5t-15 13.5q-20 17 -36 47.5t-30 62.5q-2 6 -5 12t-5 11l1 -1q-18 65 -34.5 223.5t-16.5 399.5z" />
</font>
</defs>
</svg>
