<?xml version="1.0" encoding="UTF-8"?>
<!DOCTYPE svg PUBLIC "-//W3C//DTD SVG 1.1//EN" "http://www.w3.org/Graphics/SVG/1.1/DTD/svg11.dtd">
<!-- Creator: CorelDRAW 2019 (64-Bit Evaluation Version) -->
<svg xmlns="http://www.w3.org/2000/svg" xml:space="preserve" width="128px" height="128px" version="1.1" style="shape-rendering:geometricPrecision; text-rendering:geometricPrecision; image-rendering:optimizeQuality; fill-rule:evenodd; clip-rule:evenodd"
viewBox="0 0 128 128"
 xmlns:xlink="http://www.w3.org/1999/xlink">
 <defs>
  <style type="text/css">
   <![CDATA[
    .fil0 {fill:#109D58}
   ]]>
  </style>
 </defs>
 <g id="Layer_x0020_1">
  <metadata id="CorelCorpID_0Corel-Layer"/>
  <path class="fil0" d="M114.3 37.42l-4.74 0 0 -4.14 0 0c0,-0.79 -0.43,-1.51 -1.13,-1.9 -0.49,-0.28 -0.96,-0.53 -1.44,-0.76 -0.14,-0.08 -0.27,-0.14 -0.39,-0.2 -0.35,-0.17 -0.68,-0.35 -1.03,-0.52 -0.18,-0.08 -0.37,-0.18 -0.54,-0.25 -0.3,-0.14 -0.61,-0.28 -0.9,-0.41 -0.19,-0.1 -0.39,-0.18 -0.6,-0.25 -0.27,-0.12 -0.57,-0.26 -0.84,-0.37 -0.21,-0.08 -0.41,-0.18 -0.62,-0.26 -0.27,-0.11 -0.55,-0.21 -0.82,-0.31 -0.21,-0.08 -0.43,-0.15 -0.64,-0.23 -0.27,-0.1 -0.52,-0.2 -0.8,-0.29 -0.21,-0.08 -0.44,-0.16 -0.66,-0.22 -0.25,-0.07 -0.52,-0.17 -0.78,-0.25 -0.21,-0.08 -0.44,-0.14 -0.66,-0.19 -0.25,-0.08 -0.5,-0.16 -0.77,-0.24 -0.24,-0.06 -0.45,-0.11 -0.69,-0.17 -0.25,-0.06 -0.5,-0.14 -0.75,-0.2 -0.24,-0.06 -0.45,-0.09 -0.68,-0.15 -0.26,-0.06 -0.51,-0.12 -0.76,-0.18 -0.24,-0.04 -0.45,-0.09 -0.68,-0.13 -0.26,-0.06 -0.51,-0.1 -0.76,-0.14 -0.24,-0.04 -0.45,-0.08 -0.68,-0.12 -0.26,-0.04 -0.51,-0.07 -0.76,-0.11 -0.23,-0.04 -0.47,-0.06 -0.68,-0.1 -0.25,-0.04 -0.51,-0.06 -0.76,-0.1 -0.23,-0.02 -0.47,-0.04 -0.68,-0.06 -0.25,-0.02 -0.51,-0.04 -0.76,-0.05 -0.23,-0.02 -0.47,-0.04 -0.68,-0.04 -0.25,-0.02 -0.5,-0.02 -0.76,-0.04 -0.23,0 -0.46,-0.02 -0.68,-0.02 -0.25,0 -0.5,-0.02 -0.76,-0.02 -0.23,0 -0.46,0 -0.68,0 -0.25,0 -0.5,0 -0.76,0.02 -0.23,0 -0.46,0.02 -0.68,0.02 -0.25,0.02 -0.5,0.02 -0.75,0.04 -0.24,0.02 -0.47,0.04 -0.68,0.05 -0.26,0.02 -0.51,0.04 -0.76,0.06 -0.24,0.02 -0.47,0.04 -0.68,0.08 -0.26,0.02 -0.51,0.06 -0.76,0.1 -0.24,0.04 -0.47,0.06 -0.68,0.1 -0.26,0.03 -0.51,0.07 -0.76,0.11 -0.23,0.04 -0.45,0.08 -0.68,0.12 -0.25,0.04 -0.51,0.1 -0.76,0.14 -0.23,0.03 -0.45,0.09 -0.68,0.13 -0.25,0.06 -0.51,0.12 -0.76,0.18 -0.23,0.05 -0.45,0.09 -0.68,0.15 -0.25,0.06 -0.51,0.14 -0.76,0.2 -0.23,0.05 -0.44,0.11 -0.68,0.19 -0.25,0.08 -0.5,0.16 -0.76,0.21 -0.23,0.06 -0.44,0.14 -0.68,0.22 -0.25,0.08 -0.5,0.16 -0.76,0.25 -0.23,0.08 -0.44,0.16 -0.68,0.23 -0.25,0.1 -0.5,0.18 -0.75,0.28 -0.24,0.07 -0.45,0.17 -0.69,0.25 -0.25,0.1 -0.5,0.19 -0.75,0.31 -0.24,0.1 -0.45,0.18 -0.69,0.27 -0.25,0.12 -0.5,0.22 -0.75,0.33 -0.22,0.1 -0.45,0.2 -0.67,0.3 -0.25,0.11 -0.5,0.23 -0.75,0.35 -0.22,0.09 -0.45,0.21 -0.66,0.31 -0.26,0.11 -0.51,0.25 -0.76,0.38 -0.22,0.12 -0.45,0.24 -0.66,0.34 -0.06,0.04 -0.14,0.05 -0.2,0.09 -0.06,-0.04 -0.13,-0.05 -0.19,-0.09 -0.24,-0.12 -0.45,-0.24 -0.68,-0.35 -0.26,-0.14 -0.51,-0.26 -0.76,-0.39 -0.23,-0.12 -0.45,-0.22 -0.68,-0.33 -0.26,-0.12 -0.51,-0.24 -0.76,-0.35 -0.23,-0.1 -0.47,-0.2 -0.68,-0.31 -0.25,-0.12 -0.51,-0.22 -0.74,-0.34 -0.23,-0.09 -0.47,-0.19 -0.7,-0.29 -0.25,-0.09 -0.49,-0.19 -0.74,-0.29 -0.23,-0.1 -0.46,-0.17 -0.7,-0.25 -0.25,-0.1 -0.49,-0.18 -0.74,-0.27 -0.23,-0.08 -0.46,-0.16 -0.7,-0.24 -0.25,-0.07 -0.48,-0.15 -0.74,-0.23 -0.23,-0.08 -0.46,-0.14 -0.7,-0.21 -0.25,-0.08 -0.48,-0.16 -0.74,-0.22 -0.23,-0.06 -0.46,-0.13 -0.7,-0.19 -0.25,-0.06 -0.48,-0.14 -0.74,-0.2 -0.23,-0.06 -0.46,-0.11 -0.7,-0.17 -0.25,-0.06 -0.48,-0.12 -0.73,-0.16 -0.24,-0.06 -0.47,-0.09 -0.7,-0.13 -0.26,-0.04 -0.49,-0.1 -0.74,-0.14 -0.24,-0.04 -0.47,-0.08 -0.7,-0.12 -0.24,-0.04 -0.49,-0.07 -0.72,-0.11 -0.24,-0.04 -0.47,-0.06 -0.72,-0.1 -0.24,-0.04 -0.49,-0.06 -0.72,-0.08 -0.24,-0.02 -0.47,-0.06 -0.72,-0.08 -0.23,-0.02 -0.49,-0.04 -0.72,-0.05 -0.23,-0.02 -0.47,-0.04 -0.72,-0.06 -0.23,-0.02 -0.49,-0.02 -0.72,-0.04 -0.23,-0.02 -0.47,-0.02 -0.72,-0.02 -0.23,0 -0.48,-0.02 -0.72,-0.02 -0.23,0 -0.46,0 -0.72,0 -0.25,0 -0.48,0 -0.74,0.02 -0.23,0 -0.46,0.02 -0.72,0.02 -0.25,0.02 -0.48,0.02 -0.74,0.04 -0.23,0.02 -0.46,0.02 -0.7,0.04 -0.25,0.02 -0.48,0.03 -0.73,0.05 -0.24,0.02 -0.47,0.04 -0.7,0.08 -0.26,0.02 -0.49,0.06 -0.74,0.1 -0.24,0.04 -0.47,0.06 -0.7,0.1 -0.26,0.04 -0.49,0.07 -0.74,0.11 -0.24,0.04 -0.47,0.08 -0.7,0.12 -0.26,0.04 -0.49,0.1 -0.74,0.14 -0.23,0.04 -0.47,0.09 -0.7,0.13 -0.25,0.06 -0.51,0.12 -0.74,0.18 -0.23,0.06 -0.47,0.09 -0.7,0.15 -0.25,0.06 -0.51,0.14 -0.76,0.2 -0.23,0.06 -0.47,0.11 -0.68,0.17 -0.25,0.08 -0.51,0.16 -0.76,0.22 -0.23,0.05 -0.44,0.13 -0.68,0.19 -0.25,0.08 -0.5,0.18 -0.76,0.25 -0.21,0.08 -0.44,0.14 -0.66,0.22 -0.25,0.09 -0.52,0.19 -0.77,0.27 -0.22,0.08 -0.45,0.16 -0.67,0.23 -0.27,0.1 -0.52,0.22 -0.79,0.31 -0.22,0.08 -0.43,0.18 -0.65,0.26 -0.27,0.11 -0.54,0.23 -0.83,0.35 -0.2,0.09 -0.41,0.17 -0.6,0.25 -0.3,0.14 -0.59,0.27 -0.9,0.41 -0.17,0.08 -0.37,0.17 -0.54,0.25 -0.35,0.18 -0.69,0.35 -1.03,0.51 -0.14,0.07 -0.28,0.13 -0.41,0.19 -0.49,0.25 -0.96,0.51 -1.44,0.76 -0.7,0.39 -1.13,1.11 -1.13,1.91l0 0 0 4.14 -4.7 0c-1.21,0 -2.18,0.97 -2.18,2.17l0 63.2c0,0.72 0.35,1.38 0.93,1.79 0.59,0.41 1.32,0.5 2,0.25l9.32 -3.42c6.36,-2.33 12.75,-3.52 19.04,-3.52 6.28,0 12.69,1.19 19.05,3.52l2.39 0.88c0.02,0 0.04,0.01 0.08,0.01 0.02,0 0.04,0.02 0.06,0.02 0.02,0 0.04,0.02 0.06,0.02 0.06,0.02 0.12,0.02 0.17,0.04 0,0 0.02,0 0.02,0 0.02,0 0.02,0 0.04,0 0.02,0 0.04,0 0.04,0 0.04,0 0.06,0.02 0.1,0.02 0,0 0,0 0.02,0 0.05,0 0.13,0 0.19,0l0 0 0 0 0 0 0 0c0.06,0 0.14,0 0.2,0 0.02,0 0.04,0 0.05,0 0.02,0 0.04,0 0.06,0 0.02,0 0.04,0 0.04,0 0.02,0 0.02,0 0.04,0 0.04,0 0.08,-0.02 0.12,-0.02 0.02,0 0.04,0 0.07,-0.02 0.02,0 0.04,-0.02 0.06,-0.02 0.02,0 0.04,-0.02 0.06,-0.02 0.02,0 0.06,-0.02 0.08,-0.02l2.39 -0.87c6.36,-2.33 12.76,-3.52 19.06,-3.52 6.28,0 12.7,1.19 19.05,3.52l9.32 3.42c0.25,0.1 0.5,0.14 0.76,0.14 0.44,0 0.87,-0.14 1.24,-0.39 0.58,-0.41 0.93,-1.07 0.93,-1.79l0 -63.2c-0.09,-1.12 -1.06,-2.12 -2.27,-2.12zm-94.04 59.91l-6.38 2.34 0 -57.89 2.57 0 0 51.08c0,0.1 0,0.18 0.02,0.27 0.06,0.43 0.23,0.84 0.53,1.17 0.11,0.14 0.25,0.25 0.38,0.35 0.59,0.41 1.33,0.51 2.01,0.25 5.6,-2.06 11.2,-2.16 16.88,-1.16 -5.33,0.46 -10.7,1.65 -16.01,3.59zm91.86 2.36l-6.38 -2.34c-5.31,-1.94 -10.67,-3.15 -15.98,-3.57 5.68,-0.98 11.28,-0.88 16.88,1.16 0.66,0.25 1.42,0.16 2,-0.25 0.58,-0.41 0.94,-1.07 0.94,-1.79l0 -51.08 2.56 0 0 57.87 -0.02 0zm-49.84 -37.56c-4.01,0.4 -7.13,2.65 -8.9,5.75 -0.69,1.21 -1.02,2.24 -1.95,2.94 -2.12,1.59 -3.72,0.78 -7,2.8 -7.33,4.51 -3.84,16.77 2.83,18.26 2.2,0.49 5.77,-1.06 8.1,-1.54 5.8,-1.19 11.72,-1.18 17.44,0.37 2.7,0.73 5.11,2.12 7.89,0.61 1.93,-1.05 3.54,-2.94 4.5,-5.31 2.02,-5 0.67,-10.79 -4.51,-13.1 -2.84,-1.26 -5.04,-0.75 -6.65,-3.16 -1.43,-2.17 -1.39,-3.45 -4.26,-5.53 -1.87,-1.36 -4.59,-2.37 -7.49,-2.09zm11.98 -28.49c-6.35,1.12 -10.35,12.53 -7.71,18.97 2.31,5.67 7.41,4.69 10.96,-0.32 5.34,-7.56 3.39,-19.81 -3.25,-18.65zm-20.61 -0.11c-4.9,1.28 -5.41,9.02 -4.38,13.55 2.25,9.92 10.76,13.01 13.41,4.18 0.8,-2.65 0.71,-5.6 0.14,-8.33 -0.87,-4.14 -4.35,-10.65 -9.17,-9.4zm31.72 18.56c-6.48,1.19 -10.14,10.64 -6.77,15.55 3.74,5.45 12.02,1.14 13.46,-6.47 0.92,-4.89 -1.56,-10.02 -6.69,-9.08zm-44.58 -0.63c-6.62,1.21 -6.17,11.22 -0.9,15.83 1.32,1.15 3.5,2.56 6.1,2.09 5.27,-0.96 6.26,-8.39 2.67,-13.71 -1.57,-2.33 -4.59,-4.81 -7.87,-4.21z"/>
 </g>
</svg>
