<?xml version="1.0" standalone="no"?>
<!DOCTYPE svg PUBLIC "-//W3C//DTD SVG 1.1//EN" "http://www.w3.org/Graphics/SVG/1.1/DTD/svg11.dtd">
<svg xmlns="http://www.w3.org/2000/svg">
<metadata>Generated by Fontastic.me</metadata>
<defs>
<font id="blizzard" horiz-adv-x="512">
<font-face font-family="blizzard" units-per-em="512" ascent="480" descent="-32"/>
<missing-glyph horiz-adv-x="512" />

<glyph glyph-name="a" unicode="&#97;" d="M80 350c0-35-2-42 12-76 33-85 109-188 159-271l9 0c47 83 106 162 147 246 8 15 9 15 16 33 8 23 9 39 9 65 0 9-7 33-11 41l-9 22c-8 16-13 24-24 38-29 36-82 60-127 60-22 0-29 1-51-5-28-7-58-22-79-43-6-6-13-14-18-21-12-16-22-35-27-54-2-10-6-24-6-35z m224-90l-14 45-68 0-14-45-43 0 67 188 48 0 67-188z m-23 78c-13 41-20 63-22 69-1 5-2 9-3 12-3-11-11-38-24-81z"/>
<glyph glyph-name="b" unicode="&#98;" d="M80 350c0-35-2-42 12-76 33-85 109-188 159-271l9 0c47 83 106 162 147 246 8 15 9 15 16 33 8 23 9 39 9 65 0 9-7 33-11 41l-9 22c-8 16-13 24-24 38-29 36-82 60-127 60-22 0-29 1-51-5-28-7-58-22-79-43-6-6-13-14-18-21-12-16-22-35-27-54-2-10-6-24-6-35z m106 98l59 0c26 0 46-4 58-11 12-8 18-20 18-36 0-12-3-21-8-28-5-7-12-11-21-13l0-1c12-3 20-8 26-15 5-8 8-17 8-29 0-17-7-31-19-40-12-10-29-15-50-15l-71 0z m40-74l23 0c11 0 19 1 24 5 5 3 7 9 7 16 0 8-3 13-8 16-5 3-13 5-25 5l-21 0z m0-32l0-49 26 0c11 0 19 2 24 6 6 5 8 11 8 20 0 15-11 23-33 23z"/>
<glyph glyph-name="c" unicode="&#99;" d="M80 350c0-35-2-42 12-76 33-85 109-188 159-271l9 0c47 83 106 162 147 246 8 15 9 15 16 33 8 23 9 39 9 65 0 9-7 33-11 41l-9 22c-8 16-13 24-24 38-29 36-82 60-127 60-22 0-29 1-51-5-28-7-58-22-79-43-6-6-13-14-18-21-12-16-22-35-27-54-2-10-6-24-6-35z m193 61c-16 0-27-6-35-17-9-11-13-27-13-47 0-42 16-63 48-63 13 0 29 3 47 10l0-34c-15-6-32-9-51-9-28 0-48 8-63 24-14 17-22 41-22 72 0 19 4 37 11 51 7 15 17 26 31 34 13 8 29 12 47 12 18 0 36-5 55-13l-13-33c-7 3-14 6-22 9-7 2-14 4-20 4z"/>
<glyph glyph-name="d" unicode="&#100;" d="M80 350c0-35-2-42 12-76 33-85 109-188 159-271l9 0c47 83 106 162 147 246 8 15 9 15 16 33 8 23 9 39 9 65 0 9-7 33-11 41l-9 22c-8 16-13 24-24 38-29 36-82 60-127 60-22 0-29 1-51-5-28-7-58-22-79-43-6-6-13-14-18-21-12-16-22-35-27-54-2-10-6-24-6-35z m261 6c0-31-9-54-27-71-17-16-42-25-76-25l-53 0 0 188 59 0c31 0 55-8 72-24 16-16 25-39 25-68z m-41-1c0 40-18 61-54 61l-21 0 0-123 17 0c38 0 58 21 58 62z"/>
<glyph glyph-name="e" unicode="&#101;" d="M80 350c0-35-2-42 12-76 33-85 109-188 159-271l9 0c47 83 106 162 147 246 8 15 9 15 16 33 8 23 9 39 9 65 0 9-7 33-11 41l-9 22c-8 16-13 24-24 38-29 36-82 60-127 60-22 0-29 1-51-5-28-7-58-22-79-43-6-6-13-14-18-21-12-16-22-35-27-54-2-10-6-24-6-35z m230-90l-108 0 0 188 108 0 0-32-68 0 0-42 63 0 0-32-63 0 0-49 68 0z"/>
<glyph glyph-name="f" unicode="&#102;" d="M80 350c0-35-2-42 12-76 33-85 109-188 159-271l9 0c47 83 106 162 147 246 8 15 9 15 16 33 8 23 9 39 9 65 0 9-7 33-11 41l-9 22c-8 16-13 24-24 38-29 36-82 60-127 60-22 0-29 1-51-5-28-7-58-22-79-43-6-6-13-14-18-21-12-16-22-35-27-54-2-10-6-24-6-35z m161-90l-39 0 0 188 108 0 0-32-69 0 0-49 64 0 0-32-64 0z"/>
<glyph glyph-name="g" unicode="&#103;" d="M80 350c0-35-2-42 12-76 33-85 109-188 159-271l9 0c47 83 106 162 147 246 8 15 9 15 16 33 8 23 9 39 9 65 0 9-7 33-11 41l-9 22c-8 16-13 24-24 38-29 36-82 60-127 60-22 0-29 1-51-5-28-7-58-22-79-43-6-6-13-14-18-21-12-16-22-35-27-54-2-10-6-24-6-35z m179 9l74 0 0-97c-12-4-23-7-34-9-11-1-22-2-33-2-28 0-50 8-65 25-15 17-22 40-22 72 0 30 9 54 26 71 17 17 41 25 72 25 19 0 38-4 56-12l-13-31c-14 7-28 10-43 10-17 0-31-6-42-17-10-12-15-27-15-47 0-20 4-36 12-47 9-10 21-16 37-16 8 0 17 1 25 3l0 39-35 0z"/>
<glyph glyph-name="h" unicode="&#104;" d="M80 350c0-35-2-42 12-76 33-85 109-188 159-271l9 0c47 83 106 162 147 246 8 15 9 15 16 33 8 23 9 39 9 65 0 9-7 33-11 41l-9 22c-8 16-13 24-24 38-29 36-82 60-127 60-22 0-29 1-51-5-28-7-58-22-79-43-6-6-13-14-18-21-12-16-22-35-27-54-2-10-6-24-6-35z m253-90l-40 0 0 81-74 0 0-81-40 0 0 188 40 0 0-73 74 0 0 73 40 0z"/>
<glyph glyph-name="i" unicode="&#105;" d="M80 350c0-35-2-42 12-76 33-85 109-188 159-271l9 0c47 83 106 162 147 246 8 15 9 15 16 33 8 23 9 39 9 65 0 9-7 33-11 41l-9 22c-8 16-13 24-24 38-29 36-82 60-127 60-22 0-29 1-51-5-28-7-58-22-79-43-6-6-13-14-18-21-12-16-22-35-27-54-2-10-6-24-6-35z m156-90l0 188 40 0 0-188z"/>
<glyph glyph-name="j" unicode="&#106;" d="M80 350c0-35-2-42 12-76 33-85 109-188 159-271l9 0c47 83 106 162 147 246 8 15 9 15 16 33 8 23 9 39 9 65 0 9-7 33-11 41l-9 22c-8 16-13 24-24 38-29 36-82 60-127 60-22 0-29 1-51-5-28-7-58-22-79-43-6-6-13-14-18-21-12-16-22-35-27-54-2-10-6-24-6-35z m158-145c-9 0-17 1-23 2l0 34c6-2 13-3 18-3 9 0 15 3 19 8 4 6 6 14 6 26l0 176 39 0 0-176c0-22-5-39-14-50-11-12-25-17-45-17z"/>
<glyph glyph-name="k" unicode="&#107;" d="M80 350c0-35-2-42 12-76 33-85 109-188 159-271l9 0c47 83 106 162 147 246 8 15 9 15 16 33 8 23 9 39 9 65 0 9-7 33-11 41l-9 22c-8 16-13 24-24 38-29 36-82 60-127 60-22 0-29 1-51-5-28-7-58-22-79-43-6-6-13-14-18-21-12-16-22-35-27-54-2-10-6-24-6-35z m252-90l-46 0-49 79-17-12 0-67-40 0 0 188 40 0 0-86 16 22 51 64 44 0-66-83z"/>
<glyph glyph-name="l" unicode="&#108;" d="M80 350c0-35-2-42 12-76 33-85 109-188 159-271l9 0c47 83 106 162 147 246 8 15 9 15 16 33 8 23 9 39 9 65 0 9-7 33-11 41l-9 22c-8 16-13 24-24 38-29 36-82 60-127 60-22 0-29 1-51-5-28-7-58-22-79-43-6-6-13-14-18-21-12-16-22-35-27-54-2-10-6-24-6-35z m125-90l0 188 40 0 0-155 76 0 0-33z"/>
<glyph glyph-name="m" unicode="&#109;" d="M80 350c0-35-2-42 12-76 33-85 109-188 159-271l9 0c47 83 106 162 147 246 8 15 9 15 16 33 8 23 9 39 9 65 0 9-7 33-11 41l-9 22c-8 16-13 24-24 38-29 36-82 60-127 60-22 0-29 1-51-5-28-7-58-22-79-43-6-6-13-14-18-21-12-16-22-35-27-54-2-10-6-24-6-35z m155-90l-45 148-1 0c1-30 2-50 2-60l0-88-35 0 0 188 54 0 44-144 1 0 47 144 54 0 0-188-37 0 0 89c0 4 0 9 1 15 0 5 0 20 1 43l-1 0-48-147z"/>
<glyph glyph-name="n" unicode="&#110;" d="M80 350c0-35-2-42 12-76 33-85 109-188 159-271l9 0c47 83 106 162 147 246 8 15 9 15 16 33 8 23 9 39 9 65 0 9-7 33-11 41l-9 22c-8 16-13 24-24 38-29 36-82 60-127 60-22 0-29 1-51-5-28-7-58-22-79-43-6-6-13-14-18-21-12-16-22-35-27-54-2-10-6-24-6-35z m259-90l-50 0-82 142-1 0c1-25 2-43 2-53l0-89-35 0 0 188 50 0 81-141 1 0c-1 25-1 42-1 52l0 89 35 0z"/>
<glyph glyph-name="o" unicode="&#111;" d="M80 350c0-35-2-42 12-76 33-85 109-188 159-271l9 0c47 83 106 162 147 246 8 15 9 15 16 33 8 23 9 39 9 65 0 9-7 33-11 41l-9 22c-8 16-13 24-24 38-29 36-82 60-127 60-22 0-29 1-51-5-28-7-58-22-79-43-6-6-13-14-18-21-12-16-22-35-27-54-2-10-6-24-6-35z m265 0c0-31-7-55-23-72-15-16-37-25-66-25-29 0-51 9-66 25-16 17-23 41-23 72 0 32 7 55 23 72 15 17 37 25 66 25 29 0 51-8 66-25 16-17 23-41 23-72z m-137 0c0-21 4-37 12-47 8-11 20-16 36-16 32 0 48 21 48 63 0 42-16 64-48 64-16 0-28-6-36-17-8-10-12-26-12-47z"/>
<glyph glyph-name="p" unicode="&#112;" d="M80 350c0-35-2-42 12-76 33-85 109-188 159-271l9 0c47 83 106 162 147 246 8 15 9 15 16 33 8 23 9 39 9 65 0 9-7 33-11 41l-9 22c-8 16-13 24-24 38-29 36-82 60-127 60-22 0-29 1-51-5-28-7-58-22-79-43-6-6-13-14-18-21-12-16-22-35-27-54-2-10-6-24-6-35z m151 10l13 0c12 0 21 2 28 7 6 5 9 12 9 21 0 9-3 16-8 21-5 4-13 7-24 7l-18 0z m90 30c0-21-7-36-19-47-13-11-31-16-54-16l-17 0 0-67-40 0 0 188 60 0c23 0 40-5 52-15 12-9 18-24 18-43z"/>
<glyph glyph-name="q" unicode="&#113;" d="M80 350c0-35-2-42 12-76 33-85 109-188 159-271l9 0c47 83 106 162 147 246 8 15 9 15 16 33 8 23 9 39 9 65 0 9-7 33-11 41l-9 22c-8 16-13 24-24 38-29 36-82 60-127 60-22 0-29 1-51-5-28-7-58-22-79-43-6-6-13-14-18-21-12-16-22-35-27-54-2-10-6-24-6-35z m265-1c0-22-4-41-11-56-8-15-20-26-35-33l45-50-51 0-34 42-3 0c-29 0-51 8-66 25-16 17-23 41-23 72 0 31 7 55 23 72 15 16 37 24 66 24 29 0 51-8 66-25 16-16 23-40 23-71z m-137 0c0-21 4-37 12-48 8-10 20-16 36-16 32 0 48 22 48 64 0 42-16 63-48 63-16 0-28-5-36-16-8-10-12-26-12-47z"/>
<glyph glyph-name="r" unicode="&#114;" d="M80 350c0-35-2-42 12-76 33-85 109-188 159-271l9 0c47 83 106 162 147 246 8 15 9 15 16 33 8 23 9 39 9 65 0 9-7 33-11 41l-9 22c-8 16-13 24-24 38-29 36-82 60-127 60-22 0-29 1-51-5-28-7-58-22-79-43-6-6-13-14-18-21-12-16-22-35-27-54-2-10-6-24-6-35z m141 15l13 0c12 0 22 2 27 6 7 4 10 11 10 20 0 9-4 15-10 19-6 4-15 6-28 6l-12 0z m0-33l0-72-40 0 0 188 55 0c25 0 44-4 56-14 13-9 19-23 19-42 0-11-3-21-9-30-6-8-15-15-26-20 28-42 46-69 55-82l-44 0-45 72z"/>
<glyph glyph-name="s" unicode="&#115;" d="M80 350c0-35-2-42 12-76 33-85 109-188 159-271l9 0c47 83 106 162 147 246 8 15 9 15 16 33 8 23 9 39 9 65 0 9-7 33-11 41l-9 22c-8 16-13 24-24 38-29 36-82 60-127 60-22 0-29 1-51-5-28-7-58-22-79-43-6-6-13-14-18-21-12-16-22-35-27-54-2-10-6-24-6-35z m237-45c0-16-6-30-18-40-12-10-29-14-51-14-20 0-38 3-53 11l0 37c12-6 23-10 32-12 9-2 17-3 24-3 9 0 16 1 20 5 5 3 7 8 7 14 0 4-1 7-3 10-2 3-5 6-9 9-4 2-12 6-24 12-12 6-21 11-26 16-6 5-10 11-14 17-3 7-5 15-5 23 0 17 6 30 17 39 11 10 27 15 47 15 9 0 19-1 27-4 9-2 19-5 28-9l-12-31c-11 4-19 7-25 8-7 2-13 3-20 3-7 0-13-2-17-6-4-3-6-8-6-13 0-4 1-7 2-10 2-2 5-5 8-7 4-3 12-7 25-13 18-9 30-17 36-26 7-8 10-18 10-31z"/>
<glyph glyph-name="t" unicode="&#116;" d="M80 350c0-35-2-42 12-76 33-85 109-188 159-271l9 0c47 83 106 162 147 246 8 15 9 15 16 33 8 23 9 39 9 65 0 9-7 33-11 41l-9 22c-8 16-13 24-24 38-29 36-82 60-127 60-22 0-29 1-51-5-28-7-58-22-79-43-6-6-13-14-18-21-12-16-22-35-27-54-2-10-6-24-6-35z m196-90l-40 0 0 155-51 0 0 33 142 0 0-33-51 0z"/>
<glyph glyph-name="u" unicode="&#117;" d="M80 350c0-35-2-42 12-76 33-85 109-188 159-271l9 0c47 83 106 162 147 246 8 15 9 15 16 33 8 23 9 39 9 65 0 9-7 33-11 41l-9 22c-8 16-13 24-24 38-29 36-82 60-127 60-22 0-29 1-51-5-28-7-58-22-79-43-6-6-13-14-18-21-12-16-22-35-27-54-2-10-6-24-6-35z m253 99l0-121c0-14-3-26-9-37-7-10-15-18-27-24-12-5-26-8-42-8-24 0-43 6-56 19-13 12-20 29-20 50l0 121 40 0 0-114c0-15 2-26 8-32 6-7 16-10 29-10 13 0 23 3 29 10 6 7 8 17 8 32l0 114z"/>
<glyph glyph-name="v" unicode="&#118;" d="M80 350c0-35-2-42 12-76 33-85 109-188 159-271l9 0c47 83 106 162 147 246 8 15 9 15 16 33 8 23 9 39 9 65 0 9-7 33-11 41l-9 22c-8 16-13 24-24 38-29 36-82 60-127 60-22 0-29 1-51-5-28-7-58-22-79-43-6-6-13-14-18-21-12-16-22-35-27-54-2-10-6-24-6-35z m221 98l40 0-63-188-44 0-63 188 40 0 35-112c2-6 4-14 6-23 2-9 4-15 4-18 1 8 4 22 10 41z"/>
<glyph glyph-name="w" unicode="&#119;" d="M80 350c0-35-2-42 12-76 33-85 109-188 159-271l9 0c47 83 106 162 147 246 8 15 9 15 16 33 8 23 9 39 9 65 0 9-7 33-11 41l-9 22c-8 16-13 24-24 38-29 36-82 60-127 60-22 0-29 1-51-5-28-7-58-22-79-43-6-6-13-14-18-21-12-16-22-35-27-54-2-10-6-24-6-35z m255-97l-45 0-25 99c-1 3-3 11-5 22-3 11-4 18-4 22-1-5-2-12-4-22-2-11-4-18-5-22l-25-99-45 0-48 188 39 0 24-102c4-19 7-36 9-50 1 5 2 13 4 23 2 10 3 18 5 24l27 105 38 0 27-105c1-5 3-12 5-22 2-9 3-18 4-25 1 7 2 15 4 25 2 10 3 18 5 25l24 102 39 0z"/>
<glyph glyph-name="x" unicode="&#120;" d="M80 350c0-35-2-42 12-76 33-85 109-188 159-271l9 0c47 83 106 162 147 246 8 15 9 15 16 33 8 23 9 39 9 65 0 9-7 33-11 41l-9 22c-8 16-13 24-24 38-29 36-82 60-127 60-22 0-29 1-51-5-28-7-58-22-79-43-6-6-13-14-18-21-12-16-22-35-27-54-2-10-6-24-6-35z m264-89l-46 0-43 70-44-70-43 0 63 96-59 91 44 0 41-67 39 67 43 0-59-93z"/>
<glyph glyph-name="y" unicode="&#121;" d="M80 350c0-35-2-42 12-76 33-85 109-188 159-271l9 0c47 83 106 162 147 246 8 15 9 15 16 33 8 23 9 39 9 65 0 9-7 33-11 41l-9 22c-8 16-13 24-24 38-29 36-82 60-127 60-22 0-29 1-51-5-28-7-58-22-79-43-6-6-13-14-18-21-12-16-22-35-27-54-2-10-6-24-6-35z m176 21l39 77 43 0-62-114 0-73-40 0 0 71-62 116 43 0z"/>
<glyph glyph-name="z" unicode="&#122;" d="M80 350c0-35-2-42 12-76 33-85 109-188 159-271l9 0c47 83 106 162 147 246 8 15 9 15 16 33 8 23 9 39 9 65 0 9-7 33-11 41l-9 22c-8 16-13 24-24 38-29 36-82 60-127 60-22 0-29 1-51-5-28-7-58-22-79-43-6-6-13-14-18-21-12-16-22-35-27-54-2-10-6-24-6-35z m246-90l-140 0 0 26 90 129-87 0 0 33 134 0 0-25-90-130 93 0z"/>
<glyph glyph-name="marker" unicode="&#65;" d="M237 505c-55-7-103-38-129-84-10-18-17-38-21-61-2-11-2-40-1-51 5-29 18-59 54-117 8-12 24-38 35-57 19-32 42-69 72-118l11-17 8 0 7 13c4 7 17 30 30 52 34 58 38 65 44 73 4 4 7 9 8 11 2 5 15 25 28 46 28 45 38 63 46 84 7 18 9 29 9 52 1 19 0 22-6 41-9 28-22 53-36 71-28 35-69 57-115 62-11 2-34 2-44 0z"/>
<glyph glyph-name="drinking-water" unicode="&#66;" d="M248 418c0-60 90-64 90 3 0 54-90 55-90-3z m-184-110l0-244c0-53 67-55 67-4l0 215 58 31c6 3 14 6 20 10 0-40-6-43 20-68 12-12 34-42 47-42 10 0 39 16 12 43-4 3-6 5-9 8-3 5-3 6-8 10-19 21-19 12-19 51 0 17 3 54-2 66-10 23-39 38-68 21l-99-55c-13-9-19-21-19-42z m294-119l68 0 0 129-141 0c-19 0-25-20-15-33l79-88c3-4 4-8 9-8z m-18 184c14-6 7 2 15 1 9-1-3-2 7-2 6 0 4 0 9 3-1 6-2 7-4 10-12 0-8-3-15-7 0 4 0 7-7 6-6-2-5-4-5-11z m-31-28c8-12 8-5 16-3 4-6-2-1 7-6 0 0 3 3 3 3 1 2 3 3 3 3l-5 8c0 0-1 1-1 1-9-5-3 1-7-6-4 3-9 12-16 0z m64 6c-3-6-3-6 0-12 13-7 15 1 12 12-4 1-4 1-10 2z m12 0c7-3 9-1 14 2 0 21-21 13-14-2z m-14 24l0-10 2-2c8 0 13-1 12 9 0 9-9 6-14 3z m-10-14c0-13 3-12 12-10l2 2c0 8 0 5-2 10l-2 2c-9 0-4 0-10-4z m-15-2l6-4 8 5c0 0 0 1 1 1-3 7-2 7-9 8-5-4-5-2-6-10z m-6 14c-4 5-4 5-10 6-3-4-2-1-5-7 4-6 2-5 9-7 5 3 5 1 6 8z m-25-8l0-10c20-4 16 16 0 10z m-6-36c0-10 13-10 13 0 0 8-13 8-13 0z m37 30c-4 3-4 4-12 4-2-8-3-10 6-12 5 4 5 1 6 8z m-22-30c0-5 1-7 6-7 7 0 9 7 4 10-4 4-10 0-10-3z"/>
<glyph glyph-name="wheelchair" unicode="&#67;" d="M294 285c3-42-31-79-74-79-40 0-73 33-73 74 0 29 17 55 44 67l-3 21c-37-13-62-49-62-88 0-52 42-95 94-95 41 0 78 27 90 66z m89-17l-32-16-37 74c-2 4-6 6-10 6l-74 0-3 21 67 0 0 21-70 0-6 47c15-1 29 12 29 26 0 15-12 27-27 27-11 0-22-8-25-19 0-2-1-5-1-7l16-127c1-6 5-10 10-10l78 0 39-78c1-3 5-6 9-6 2 0 3 1 5 2l42 21z"/>
<glyph glyph-name="wifi" unicode="&#68;" d="M98 366c0-6 1-9 5-14 4-4 9-5 15-5 3 0 6 2 8 4l20 17c15 12 38 24 56 29 13 3 17 5 31 7 15 2 31 2 46 0 15-2 25-5 39-10 24-8 40-19 58-34 5-5 11-13 18-13 7 0 10 1 15 6l0 0c3 3 4 7 5 10l0 4c0 2-1 3-1 5-3 5-7 8-11 11l-7 7c-1 1-1 1-2 2l-10 7c-21 16-46 27-72 35-13 3-35 7-49 7l-4 0c-13 0-19 0-34-2-22-4-45-11-64-21-15-7-27-15-39-25l-11-10c-5-4-12-8-12-17z m45-46c0-2 0-5 1-7 2-3 4-7 8-9 7-2 14-1 19 4 1 1 2 1 2 2l7 6c2 1 3 2 5 3 3 3 9 7 12 8 10 5 15 8 27 11 21 6 43 6 64 0 6-1 18-6 24-9 7-4 16-10 22-15l6-6c12-11 29-2 29 11 0 4 0 6-3 10-2 3-5 6-7 8-54 49-139 53-198 7-5-4-16-13-18-20 0-1 0-3 0-4z m42-42c0-5 1-8 5-12 6-6 14-7 20-3 1 0 2 1 3 2 6 6 12 10 20 13 23 10 49 4 66-13 6-6 17-6 23 1 3 3 5 7 5 12 0 8-9 15-15 19l-8 6c-1 1-3 1-4 2-9 5-20 9-31 10l-13 1-12-1c-4 0-8-1-12-2-4-1-7-2-10-3-4-2-10-4-14-7l-4-2c-1-1-3-2-4-3-6-5-15-11-15-20z m50-48c0-7 1-11 6-16 4-4 9-5 13-6l3 0c8 1 15 5 18 12 0 1 0 3 1 4 4 15-12 30-28 24-7-3-13-10-13-18z"/>
<glyph glyph-name="zoo-atm" unicode="&#69;" d="M352 456l-192 0c-5 0-9-4-9-10l0-233c0-6 4-10 9-10l192 0c5 0 9 4 9 10l0 233c0 6-4 10-9 10z m-167-33c0 2 2 3 4 3l134 0c2 0 4-1 4-3l0-79c0-2-2-4-4-4l-134 0c-2 0-4 2-4 4z m53-186c0-2-2-4-3-4l-38 0c-2 0-3 2-3 4l0 57c0 2 1 4 3 4l38 0c1 0 3-2 3-4z m13 63c0-2-2-3-4-3l-4 0c-2 0-3 1-3 3l0 2-48 0 0-2c0-2-2-3-4-3l-4 0c-1 0-3 1-3 3l0 9c0 2 2 4 3 4l63 0c2 0 4-2 4-4z m26-66c0-1-1-2-2-2l-14 0c-1 0-2 1-2 2l0 14c0 1 1 2 2 2l14 0c1 0 2-1 2-2z m0 27c0-1-1-2-2-2l-14 0c-1 0-2 1-2 2l0 14c0 1 1 2 2 2l14 0c1 0 2-1 2-2z m0 27c0-1-1-2-2-2l-14 0c-1 0-2 1-2 2l0 14c0 1 1 2 2 2l14 0c1 0 2-1 2-2z m27-54c0-1-1-2-2-2l-14 0c-1 0-2 1-2 2l0 14c0 1 1 2 2 2l14 0c1 0 2-1 2-2z m0 27c0-1-1-2-2-2l-14 0c-1 0-2 1-2 2l0 14c0 1 1 2 2 2l14 0c1 0 2-1 2-2z m0 27c0-1-1-2-2-2l-14 0c-1 0-2 1-2 2l0 14c0 1 1 2 2 2l14 0c1 0 2-1 2-2z m27-54c0-1-1-2-2-2l-14 0c-1 0-2 1-2 2l0 14c0 1 1 2 2 2l14 0c1 0 2-1 2-2z m0 27c0-1-1-2-2-2l-14 0c-1 0-2 1-2 2l0 14c0 1 1 2 2 2l14 0c1 0 2-1 2-2z m0 27c0-1-1-2-2-2l-14 0c-1 0-2 1-2 2l0 14c0 1 1 2 2 2l14 0c1 0 2-1 2-2z m-61 75l5 0c1 0 2 1 2 2l1 15c0 3 0 7 1 11 0 1 0 1 0 2 1-4 2-8 3-13l4-15c0-1 1-1 2-1l5 0c1 0 2 0 2 1l5 16c1 4 3 9 4 13 0-5 0-10 0-14l1-15c0-1 1-2 2-2l6 0c0 0 1 0 1 1 1 0 1 1 1 2l-2 38c0 1-1 2-2 2l-10 0c-1 0-2 0-2-1l-4-13c-2-5-3-9-4-13 0 3-2 8-3 13 0 0 0 0 0 0l-4 13c0 1-1 1-2 1l-10 0c-1 0-2-1-2-2l-2-38c-1-1 0-2 0-2 1-1 1-1 2-1z m-36 34l9 0 0-32c0-1 1-2 2-2l6 0c2 0 3 1 3 2l0 32 9 0c1 0 2 1 2 3l0 4c0 1-1 2-2 2l-29 0c-1 0-2-1-2-2l0-4c0-2 1-3 2-3z m-35-34l7 0c1 0 1 1 2 2l2 9 11 0 3-9c1-1 1-2 3-2l6 0c1 0 2 0 2 1 0 0 1 1 0 2l-12 39c0 1-1 1-2 1l-10 0c-1 0-2 0-2-1l-12-39c0-1 0-2 1-2 0-1 1-1 1-1z m15 27c1 2 1 4 1 5 1 1 1 1 1 2 0-2 1-5 1-7l3-8-8 0z"/>
<glyph glyph-name="zoo-bat" unicode="&#70;" d="M257 373c-6 0-9-1-14-1-2 4-4 7-9 7-1-3 0-3-1-6 0-3-1-5-1-6 0-5 2-3-1-8-1-2-2-4-2-8-12 0-9 1-19 5-8 4-17 8-25 13-4 2-7 2-13 6 0 2 1 2 1 4-7 0-4-4-12-4-2 0-5 0-7 0-3 0-4-1-7-1-15 0-32-8-40-18-3-4-8-9-9-14-1-13 7-2 12-1 6 1 12-5 16-8 3-4 4-7 8-6 13 1 21 1 32-13 6-6 5-7 10-7 6 0 13 1 18 0 8-1 18-6 22-11l8-11c2-5-7-5-7-9 0-3 5-5 8-5 1 3 0 0 1 2 2 7 3 5 4 9 6 20 17-2 35 8 6 4 3 5 12 5 5 0 8-7 10-9 1-3 5-3 6-6 2-2 1-3 4-3 3 0 7 8 0 10-2 1-4 2-6 2 0 4 1 5 3 7 6 4 10 9 19 11 8 2 18 0 25-3 3-1 4-2 8-2 2 6 6 13 10 18 6 6 13 4 24 4 3 6 2 18 18 18 6 0 6-3 16-3 0 9-13 20-20 23-13 8-29 11-44 9-17-3-6 0-14 0-2 0-2-2-2-4l-12-4c-10-4-30-12-39-12-2 0-4 1-6 2-4 2-2 2-6 8-4 6-1 5-2 9 0 2-1 2-2 3-3 4 1 5-4 8-2-1-2-1-3-3-2-2-3-3-3-5z"/>
<glyph glyph-name="zoo-bear" unicode="&#71;" d="M113 283c4-2 10-5 16-8l12-4c4-1 4 0 6 0 0 11-6 5-13 18 5 10 21 16 32 19 11-25-7-48 53-39-5 13-8 6-21 14-1 19 5 28 13 38l45-3c3-19 1-33 6-50l35 0c0 2-1 3-1 3 0-1-1 1-1 1-2 1-1 1-6 3-5 3-2 0-9 5-1 14-1 21 7 30l42-23c17-12 14-23 48-19-5 15-9 2-27 26-20 28-11 13-24 25 2 11 0 8 8 15 23 0 32-41 66-19-2 12-7 8-8 22-3 16 2 15-7 31-3 6-8 16-14 20-9 6-12 4-24 12-12 9-22 27-44 25-25-2-19-17-60-3-47 15-79 1-95-32-9-20-1-45-12-58-6-9-26-20-23-49z"/>
<glyph glyph-name="zoo-birds" unicode="&#72;" d="M132 450c2-1 1-1 4-1 2 0 2 0 4 0l38-6c0 0 4 0 4 0 2-1-1-2 1-11 1-9 8-12 15-20 5-6 10-21 10-25-2 0-8-3-10-4-35-15-23-10-61-15-5 0-7 0-11-3-6-4-7-7-7-11 0-14 13-14 23-14 4 0 4 0 7 0l28 1c4 0 10 1 14 1l29 1c5 0 27 0 32-2 2-1 7-6 9-8 1-2 3-2 4-4 8-8 17-14 24-23 1-1 2-2 2-3 2-1 3-2 4-4 7-7 16-15 19-24 2-3 1-4 2-8 1-10 2-20 4-30 2-10 3-20 5-30 1-6 1-8 5-12 2-1 3-2 4-4 2-1 4-4 4-5 3 0 2-1 5 3l9 13c11 20 19 45 19 71 0 28 2 25-19 42l-28 25c-6 6-6 7-9 14l10 5c3 2 6 4 9 6 15 10 22 11 41 4 6-2 12-4 18-6 0 13-14 10-25 22-9 9-8 18-24 23-22 8-37 4-59 4-4 0-9 3-12 5-4 3-15 10-19 14-3 2-6 6-8 8-16 13-41 14-63 14-4 0-15-1-21-1-6 0-10-1-15-1-5 0-9-1-15-1z"/>
<glyph glyph-name="zoo-bonobo" unicode="&#75;" d="M271 451c2-3 4-5 7-9-3-8-6 1-10-22l-15 12c-6-24-11-11-27-23-10-7-13-23-11-40-12-5-26-17-32-27-9-15-10-33-7-52 6-33 3-22-8-46-8-18-8-29-3-49-3-2-14-6-10-14 5-1 3 2 9 4-2-5-3-5-1-10 8 2 4 0 7 8l1-2c2-9 0-7 5-8 5 5 0 10 9 14-2-6-3-7 2-10 5 3 2 5 7 11 8 1 11-4 18-3 1 10-9 10-16 13 6 13 5 21 5 36 15 12 22 29 22 56l16-4c0-7-1-13 0-19 2-9 5-10 7-14-10-17-11-32-7-54-4-1-10-2-12-6-1-5 1-7 1-7 8 0 4 5 15 5 2-2 2-2 4-5 3-6-2-1 4-5l3 8c0 0 0 1 0 1 2-3 2-2 4-6 3-8-1-6 6-7l1 11c3-5 1-6 6-8 3 4 3 4 0 10 6-3 2-3 9-5-1 12-5 12-12 15-1 0-1 0-1 0l-3 1c7 14 7 26 9 42 1-24 22-44 20-55-5 3-1 4-8 4-1-15 28-18 35-7 4 10-4 17-4 30 0 11 0 21-2 32-5 20-10 15-10 25 0 17 1 18-5 32l4 2c2 1 2 1 4 2 9 4 15 14 21 20-3-10-7-18-5-31 3-23-2-10-3-31-2-27 15-44 13-62-4 0 2 1-3 1l-5-1c5-15 29-14 38-4 3 15-5 15-2 31 2 10 4 21 4 32 0 33-12 19 4 41 14 20 21 46 14 72-2 10-4 21-9 27-11 11-17 7-24 12 12 43-35 78-59 60-4-4-6-7-9-13-4-9-5-4-11-11z m33-60l4 6z m-9-6l-4 6z m-3-7c-4 5-4 8 0 10 3 3 6 1 9-2 3 5 7 6 12 2 1-4 0-7-3-10z m-28 13c-7 4-12 10-8 22 0 0 6 15 19 9 3-1 4-1 7-3 1 3 10 6 13 6 2-2 5-3 7-5 6-4 6-10 6-14-2-5-3-9-5-13 4-27-17-28-23-30-10 3-23 9-16 28z m14 13l-8 5-7-4 7-5z m23 0l-8 5-7-4 7-5z m7 25c2-7 7-4 8-18 25 12 5 40-8 18z m-58-16c1 10-1 5-7 12l2 9c5 0 5-1 8-3 0-6-2-3-3-11 2 2-1-1 2 3l6 8c-11 20-30 0-14-15 3-3 1-3 6-3z m63 19c-1-5-3-4 5-14l5 5c0 7-2 13-10 9z m-47-42z m16-10l-5 5z m5 0l4 6z"/>
<glyph glyph-name="zoo-butterfly" unicode="&#76;" d="M180 296c-1-2-6-5-9-12-1-3-3-5-3-8-2-9-1-17 1-26 0-1 1-3 1-4 1-4 4-8 6-12 2-2 4-5 7-7 4-3 4-3 9-6 9-5 22-6 31-3 5 2 9 5 12 9 1 1 1 3 2 4 4 7 7 17 8 25 1 5 2 11 2 15 0 3 0 7 0 10 0 1 0 2 0 4 0 1 0 1 0 3 1-2 4-9 4-11 1-4 1-7 1-10 0-2 1-3 0-4l0-11c0-4-1-10-1-14 0-4 0-19 5-19 3 0 4 3 4 5 2 8 0 18 0 25 0 2 0 3 0 4 0 2 0 2 0 4 0 8-1 13 1 20 1 3 2 8 4 11 0 0 0 0 0 0l0-16c1-6 1-12 2-18 2-8 4-16 8-23 0-1 1-1 1-2 1-2 3-4 5-6 10-10 30-8 43 0l7 6c1 1 3 2 4 4 1 2 2 3 3 5 2 2 3 4 3 6 1 2 2 4 3 7 0 1 0 2 0 3 2 13 2 27-8 37 0 1 0 1 0 2l-4 3c8-2 18 0 24 7l8 12c3 4 6 8 8 13 3 4 6 9 8 14 0 1 0 1 1 1 0 1 0 1 0 2 1 0 1 0 1 1 0 0 0 0 0 0l3 6c2 3 3 7 5 11l7 19c0 1 1 3 1 4 2 5 2 7 2 13 0 4-3 6-7 7-4 2-11 2-16 2-6 0-14-2-21-4-8-3-16-7-23-11l-4-3c-1 0-1 0-2-1l-11-7c-1-2-2-2-4-3l-16-15-6-7c-3-3-9-10-11-14-4-5-7-10-10-16-1-2-2-6-3-9-1 1-2 4-5 7 0 0-1 1-2 1 1 2 3 7 5 9 2 4 6 9 9 13l5 8c1 0 1 1 1 1 2 3 4 7 6 10 0 1 1 3 1 4 0 1-2 2-3 2-1 0-1-2-1-3-3-8-8-16-13-23-3-4-5-8-8-13 0 0 0 0 0-1-1-1-1-2-1-3-1-1-1-2-1-3-1 0-2 0-3 0-1 0-2 0-3 0 0 4-6 14-8 17-6 8-12 17-15 26 0 1 0 3-1 3-1 0-3-1-3-2 0-2 2-4 3-7 0-1 1-1 1-2 2-3 4-6 6-9 0-1 1-1 1-2l6-8c3-5 8-12 10-17-2-1-6-6-6-8-1 1-2 4-2 5-2 4-4 8-6 12-3 4-5 8-8 12-3 4-6 7-8 10l-3 3c-1 1-1 1-2 2l-4 4c-1 1-2 3-4 4 0 0-1 1-1 1l-2 2c-6 5-18 14-25 18l-8 5c-5 3-13 6-18 8-11 3-24 5-36 2-1 0-3-1-4-2-1 0-2-1-3-3-3-6 3-22 6-30 0-1 1-3 1-4l7-16c4-7 8-15 12-22 1-2 1-3 2-4 1-2 2-3 3-4 0-1 1-2 2-4l5-7c1-2 2-3 3-4 2-2 4-4 6-6 2-2 6-3 9-4 3-1 8-1 11 0z"/>
<glyph glyph-name="zoo-camel" unicode="&#77;" d="M131 418c-5 0-9 0-12-3l-7-8c0-2 1-8 2-10 10-3 9 2 18-2 14-5 7-1 14-11 9-13 1-11 9-38 9-30 19-39 51-45-1-11 3-18 3-28 1-8-1-7-2-12 0-6 1-7 0-13-3-7-13-29-16-30-4-2-11-1-15-3 1-9 10-8 14-8 20 0 9 1 21 32 5 12 2 5 7 13 4 6 2 8 5 14 2 5 3 6 6 13 2 8 6 21 13 24 4-3 9-16 12-22 7-12 7-11 10-25 2-8 6-4 4-30-1-23-6-9-13-21 0 0 0 0 1 0 0-1 5-6 15-5 9 2 12 3 8 10 12 0 13-1 17 7 0 0 0 1 0 2l5 11c4 13 11 16 15 26 4 9 5 21 9 32 3 5 5 9 7 15 2 7 2 12 9 10 1-5-2-9 1-16 1-3 5-8 7-11 7-14-1-15 3-26 3-9 4-19 4-30 2-21-7-13-11-24l3-2c0 0 0 0 1 0 5-3 16-4 19 1 1 4-2 5-3 10-3 16-2 32 0 47 1 11-4 17-1 30 1 7 5 21 8 26 8-4 12-7 21-9 0 8-7 9-13 13-7 4-3 12-3 21 0 14-11 30-18 35-13 9-6 24-22 31-21 9-22-8-31-18-17 2-5 24-22 27-8 2-15 1-21-2-8-4-8-5-12-13-5-10-9-4-25-26-8-10-16-18-34-14-2 7-4 21-3 29 2 12 8 7-4 25-6 10-9 6-16 5-3-1-5 0-9 0-9 1-5-2-13-3-6-2-10-1-16-1z m147-120c0-9 0-14-1-22-2-11 1-11 1-19 0-11-8-14 0-39 25 9 27 67 24 82-4 0-5-2-10-3-5-1-9 1-14 1z"/>
<glyph glyph-name="zoo-cat" unicode="&#78;" d="M160 440c-28-10-21-12-30-29-3-6-5-6-7-12 11-24 14-18 24-22l5-3c11-27-22-31 10-76 24-35 14-33 10-76l-14-7c0-10 0-9 8-14-4-3-3-3-3-10 6-2 17-5 25-3 10 1 9 8 13 16l30-2c-2-3-15-11-6-19 12-6 19 0 31 0 14 0 17-1 32 1 25 4 13-1 25 8l19 15c34 20 49 54 36 93-13 40-45 57-39 95 4 28 31 22 40 12 5-6 7-18 0-23-6-5-20-4-15-17 0 0 1-5 11-3 16 3 40 37 10 62-16 14-66 15-65-34 0-61 52-87 40-127-4-16-12-27-24-35 1 48-8 126-67 135-18 2-30-2-37 13-13 33 3 32-37 64-19 15-9 11-22 12-5 1-4 3-7 4z"/>
<glyph glyph-name="zoo-cheetha" unicode="&#79;" d="M355 391c-11 0-13-6-34-12-19-5-17-14-37-14-32 0-57 12-83-5-32-22-31-39-74-39-8 0-5 4-16 4 2-25 47-9 62 2 6 3 27 22 33 23-1-6-4-15-6-21-6-15-24-10-32-26-4-6-7-13-7-22 2-2 8-8 11-7 7 3-17 16 11 27 17 7 21 6 39 20 12 10 12 13 22 13 22 0 20-23 74-11 19 4 12-5 24-5 12 0 20 8 41-1 10-5 2-8 15-5-1 6-3 6-8 8-24 11-5 6-30 10-5 1-8 3-13 6 6 13 1 30 19 30 10 0 10-8 16 0 6 7 3 14-2 19-4 7-15 10-25 10 2-7 1-2 0-4z m-131-38c4 0 7-2 7-5 0-3-3-5-7-5-3 0-6 2-6 5 0 3 3 5 6 5z m51 5c2 0 4-1 4-3 0-2-2-3-4-3-2 0-4 1-4 3 0 2 2 3 4 3z m-26 5c2 0 4-1 4-3 0-2-2-3-4-3-2 0-4 1-4 3 0 2 2 3 4 3z m72-3c4 0 7-2 7-5 0-3-3-5-7-5-3 0-6 2-6 5 0 3 3 5 6 5z m10-14c2 0 4-2 4-4 0-2-2-3-4-3-2 0-4 1-4 3 0 2 2 4 4 4z m-35-2c3 0 6-2 6-5 0-3-3-5-6-5-4 0-7 2-7 5 0 3 3 5 7 5z m0 16c2 0 4-1 4-3 0-2-2-3-4-3-3 0-4 1-4 3 0 2 1 3 4 3z m-39-11c4 0 7-2 7-5 0-3-3-5-7-5-4 0-6 2-6 5 0 3 2 5 6 5z m19-5c3 0 4-2 4-3 0-2-1-3-4-3-2 0-4 1-4 3 0 1 2 3 4 3z m39-5c2 0 4-1 4-3 0-2-2-3-4-3-2 0-4 1-4 3 0 2 2 3 4 3z m19 31c2 0 4-2 4-4 0-1-2-3-4-3-2 0-4 2-4 3 0 2 2 4 4 4z m-115-54c0-6 1-3 1-9 0-14-19-32 2-37 0 12-6 8 0 18 9 14 14 12 20 28 15 38-17 2-23 0z m130 0l0-3c11-4-2-10 0-15 6-12 11 14 11 17-2 5-4 2-11 1z"/>
<glyph glyph-name="dining" unicode="&#80;" d="M392 418c-2-1-5-3-6-4l0-1c-1 0-1 0-1-1-7-8-8-16-10-27-2-16 0-39 7-53 2-4 3-5 3-10 0-7-2-15-2-22-1-11-2-23-3-34 0-4 0-8-1-12 0-5 1-6 6-6 4 0 8-1 10 2 2 2 1 8 1 11l0 155c0 1-2 2-4 2z m-143 7c-7-2-12-1-20-4-12-4-20-8-30-16-6-5-14-12-18-19l-4-5c-2-5-5-10-7-16-4-11-7-26-6-40 1-6 2-13 4-19 2-5 4-11 7-16 6-11 7-13 16-22l1-1c0 0 0 0 0 0l9-8c12-9 28-16 43-17 1 0 1 0 2-1 4 0 13 0 17 0 18 1 37 9 50 19 7 6 15 14 19 21 4 6 8 12 10 19 5 14 7 25 6 40-1 19-10 40-22 53l-4 4c-1 0-1 0-1 1 0 0 0 0 0 0l-4 3c-3 3-7 6-9 8-1 0-2 1-2 1-3 2-6 4-9 5-10 5-16 7-26 9-6 1-17 1-22 1z m-45-130c0-1 0 0 0-1 1-1 1 0 1-1l8-9c2-1 4-2 5-3 1-1 1-1 2-2 0 0 9-6 19-8 8-2 16-4 25-2 11 1 22 5 30 12l8 6c3 3 7 8 9 12 1 2 2 3 2 4 4 6 6 14 7 22 1 9 0 17-2 25-2 10-8 18-9 19 0 1-1 1-1 2-2 4-6 7-9 10 0 0-1 1-1 1-1 1-1 1-2 2 0 0-1 0-1 0l0 1c0 0 0 0 0 0-2 0-8 6-19 10-8 2-18 3-26 2-19-2-30-9-40-18-4-4-9-12-12-17-3-6-5-14-6-22-2-13 1-28 8-39l2-4c1-1 1-1 2-2z m47 96c-13-2-20-5-31-13-1 0-3-2-4-3-6-6-12-13-14-22-3-7-5-17-4-25 1-10 3-15 7-22 1-2 2-4 3-5 4-7 7-10 14-15 3-3 10-6 14-8 11-4 25-5 37-1 7 3 14 6 19 10 4 4 3 3 8 8 10 11 15 27 14 43-1 14-9 30-20 38-5 5-11 9-18 11-7 3-17 5-25 4z m-135-9l0-19c0-12 11-3 10-16 0-3 0-5 0-8-1-17-1-34-2-51-1-5-2-32-1-34 1-3 4-2 7-2 2 0 6-1 8 1 2 1 2 4 2 7-1 14-2 28-2 42 0 12-1 23-2 35 0 4-1 13 1 16 3 3 10 2 10 9l0 48c0 5-4 4-5 3 0-1 0-2 0-3l0-25c0-2 1-10-2-9-3 0-2 6-2 10l0 24c0 2-1 4-3 4-2 0-2-3-2-5l0-29c0-2 0-4-2-4-2 0-2 2-2 4l0 31c0 2-1 3-3 3-2-2-2-5-2-10l0-24c0-2 0-4-1-4-3-1-3 4-3 7l0 25c0 3 1 7-2 6-3-1-2-4-2-7z"/>
<glyph glyph-name="zoo-elephant" unicode="&#81;" d="M119 355l0-10c4-9 5-27 8-38 4-16-2-21 2-37 2-5 1-11-1-17-1-4-10-18 17-23 11-1 9 0 17 3 0 11-7 8-3 20 1 5 4 16 7 19 0-7-2-9-2-15 0-7 2-8 3-13 1-6-6-16 7-19 5-2 23-2 28 2 8 6-3 15-6 19-2 5-4 18-6 25-4 11 0 16 5 23 7 13 17 13 30 17 4 2 7 4 11 5 8-23 3-40-2-63-2-6 0-8-1-13-1-5-2-4-1-10 9-5 28-5 36 2-2 17-17 1-5 34 5 14 7 24 11 38 3-8 4-24 3-34-1-9-1-10 0-17 0-7-3-8-1-16 6-2 23-2 30-1l4 2c5 6-8 12-9 12-5 5-2 11-1 17 4 13 2 24 2 39 1 11 2 30 1 41 0 5-2 13 1 18 5 7 7 0 7 15l18-9-1-13c7-2 5 2 9 6 4-10 1-14 7-24 3-6 7-12 11-19 11-20 18-29 9-41l-10 0c-2-7 2-1-1-10l-1-2c11 1 26 5 26 17 1 35-11 37-14 58 8-3 10-9 20-7-2 4-6 5-10 8-3 3-5 4-8 9 7-3 11-6 20-6-2 5 0 2-4 5-11 7-24 15-22 31 1 8-1 20-2 28-3 21-2 11-9 22-11 15-9 31-35 19-26-12-18-11-46-3-15 4-40 1-57 0-16-1-33-11-45-17-14-7-20-20-28-34-15-26-13-32-19-43z m16-86l1 2c7 10 8 27 5 39-1 6-3 14-5 20l-8 16c-1-18 3-22 5-38 1-7 0-14 1-20 1-10 3-6 1-19z"/>
<glyph glyph-name="garden" unicode="&#82;" d="M407 288c-16 0-27-3-34-8 0 5-1 9-2 13 6 7 12 13 21 17-9-3-17-7-23-11-3 7-8 14-16 21 5 10 11 21 19 31-11-8-19-17-25-27-2 2-5 3-7 4 2-1 4-3 6-5-6-12-10-24-13-36 0 9-1 18-3 27 0 5 0 13 1 20 1 3 2 5 3 8 3 1 5 4 5 8 1 0 1 1 1 1 4-3 9-1 13 7 3 9 1 16-4 18 6 1 7 9 3 17-3 8-9 10-13 6 1 6-3 12-10 12-8 0-12-6-10-13-5 5-10 3-14-5-4-8-2-15 3-17-5-2-7-9-3-18 3-9 10-11 14-4-2-8 1-14 9-14 0 0 0 0 0-1-2-2-4-5-5-7-5 9-13 18-23 24 10-7 16-18 19-31-8-16-12-33-15-48 0 18-2 39-9 58 3 6 6 11 10 16-4-4-8-8-11-11-5 10-11 20-19 29 6-10 11-23 13-36-2-3-4-6-5-10-4 5-10 10-16 14 6-5 10-11 13-19-5-9-8-19-10-28-1 0-1 1-1 1 0 19-1 39-3 40 3-3-3-30-5-41-1 7-2 15-3 23 0 3 0 6 0 8 1 11 3 25 3 39 9 1 13 8 12 17 5-8 13-5 18 6 5 12 2 21-5 24 8 2 10 13 5 24-6 11-13 13-18 7 1 9-4 16-14 17-10 0-16-8-14-18-5 7-13 5-18-6-5-11-3-21 5-24-8-3-10-12-5-23 5-13 13-15 19-6-3-10 2-18 11-19 0 1 0 1 0 1 0 0 0 0 0 0 0-1 0-2 0-3-3-7-3-15-7-24-5 9-13 17-23 23 10-7 16-18 19-30-7-16-11-33-14-48 1 19-1 40-9 60 3 4 5 9 8 13-3-3-6-6-9-10-3 6-6 11-9 16 0 1 0 1 0 1 4 9 2 16-4 18 6 1 8 9 4 17-4 8-9 10-14 6 1 6-2 12-10 12-7 0-12-6-10-13-4 5-10 4-14-5-4-8-2-15 4-17-6-2-7-9-4-18 4-9 10-11 14-4-2-8 2-14 9-14 0-1 0-3 0-5-1-2-3-4-4-6-5 8-10 15-18 20 6-9 10-18 14-28-4-8-6-17-7-26-3 22-13 44-35 55 10-10 16-22 20-35-6-4-10-8-13-12-8 8-19 15-32 20 11-9 19-19 26-29-2-4-3-8-4-12-8 6-19 10-37 11 57-18 32-61 32-61l252 0c0 1-33 38 25 56z m-252-41c-4 9-8 20-9 32 5-12 8-24 9-32z m8 22c-2 9-7 20-14 29 2 5 5 11 9 15 4-15 6-31 5-44z m11-22c0 3 0 7 1 10 0-3 1-7 1-10z m7 128c0 6 3 11 8 11 5 0 9-5 9-11 0-5-4-10-9-10-5 0-8 5-8 10z m10-35c1 0 2 1 3 1-1-1-2-2-3-2 0 0 0 1 0 1z m-4-51c1-6 2-11 2-17-2 6-2 11-2 17z m-3 16c1-1 1-2 1-4 0-1 0-3 0-4 0-2 0-3 0-3 0 0 0 0-1 0 0-9 0-18 3-27 0-1 1-1 2-1 0-6 0-12-1-17-3 14-6 35-4 56z m6 12c1 5 1 11 1 16 1 3 3 6 4 9 4 2 5 6 4 11 4-5 9-4 12 2 3-6 5-12 7-19-3-4-6-8-8-12-4 5-10 10-17 14 7-5 11-11 14-19-4-8-7-16-9-25-2 8-4 16-8 23z m13-68c0 14 1 35 7 56 2-19-3-41-7-56z m13-2l-2 0c2 5 4 11 5 17-1-6-2-12-3-17z m6 38c0 11-2 22-8 32 2 5 3 9 5 13 4-15 4-31 3-45z m26 122c0 8 5 14 11 14 6 0 11-6 11-14 0-8-5-15-11-15-6 0-11 7-11 15z m8-74c0-4-1-8-1-11 0 0 0-1 0-1 0 1 0 2-1 3 1 3 2 6 2 9z m-12-86l-1 0c0 14 1 36 6 59 2-21-2-44-5-59z m25 18c0 1 0 2 0 4 0-2 0-3 0-4z m7-13c0 13 2 32 7 51 1-17-3-37-7-51z m14-5l-3 0c1 4 3 10 4 15 0-5-1-11-1-15z m-3 69c1 3 2 6 3 8 1-7 2-13 2-20-1 4-3 8-5 12z m29-66c-1 14 0 35 5 57 2-20-2-42-5-57z m23 103z m-19 22c0 6 4 11 9 11 4 0 8-5 8-11 0-5-4-10-8-10-5 0-9 5-9 10z m7-50c0-1 0-2 0-2 0 0 0 0-1 1 1 0 1 0 1 1z m3-78c0 1 0 2 0 2 0 0 0-1 0-2z m22 69c5-8 8-15 9-23-9-8-15-16-19-25 1 14 4 31 10 48z m-1-69l-1 0c2 9 5 20 11 31-1-12-5-23-10-31z"/>
<glyph glyph-name="gate" unicode="&#83;" d="M375 416c-1-1-3-1-5-1-2 0-4 0-6 1l-1-4-2 0 0-172 17 0 0 172-2 0z m-38-4l-2 0c-7 2-15 4-21 9-15 12-26 33-60 33 0 0-1 0-1 0l0 0c0 0 0 0 0 0-35 0-45-21-61-33-6-5-14-7-21-9l-1 0c-7-1-12-1-16-1-2 0-3 0-3 0l0-171 205 0 0 171c-1 0-2 0-4 0-3 0-9 0-15 1z m-167-166l-13 0 0 15 13 0z m0 22l-13 0 0 97 13 0z m0 103l-13 0 0 33c3 1 8 1 13 2z m20-125l-17 0 0 15 17 0z m0 22l-17 0 0 97 17 0z m0 103l-17 0 0 35c5 1 11 3 17 6z m43 74c4 1 9 2 14 3l0-77-14 0z m-23-199l-17 0 0 15 17 0z m0 22l-17 0 0 97 17 0z m0 103l-17 0 0 43c1 0 2 1 3 2 4 3 8 7 12 11 0 0 1 1 2 1z m19-125l-16 0 0 15 16 0z m0 22l-16 0 0 97 16 0z m0 103l-16 0 0 60c4 5 10 9 16 12z m18-125l-14 0 0 15 14 0z m27 0l-15 0 0 15 15 0z m0 22l-15 0 0 39-12 0 0-39-14 0 0 97 14 0 0-11 12 0 0 11 15 0z m0 103l-15 0 0 77c6-1 10-2 15-3z m20-125l-17 0 0 15 17 0z m0 22l-17 0 0 97 17 0z m0 103l-17 0 0 72c7-3 12-7 17-12z m20-125l-17 0 0 15 17 0z m0 22l-17 0 0 97 17 0z m0 103l-17 0 0 57c0 0 1-1 2-1 4-4 7-8 11-11 1-1 2-2 4-2z m20-125l-17 0 0 15 17 0z m0 22l-17 0 0 97 17 0z m0 103l-17 0 0 41c5-3 11-5 17-6z m15-125l-12 0 0 15 12 0z m0 22l-12 0 0 97 12 0z m0 103l-12 0 0 35c5-1 9-1 12-2z m-110-61l27 0 0 40-27 0z m14 30c2 0 4-2 4-5 0-1-1-3-2-4l0-11-5 0 0 11c-1 1-2 3-2 4 0 3 2 5 5 5z m129 90c0-7-5-13-12-13-7 0-13 6-13 13 0 7 6 13 13 13 7 0 12-6 12-13z m-241-14c-2-1-4-1-6-1-2 0-4 0-5 1l-1-4-2 0 0-172 17 0 0 172-2 0z m7 14c0-7-6-13-13-13-7 0-12 6-12 13 0 7 5 13 12 13 7 0 13-6 13-13z"/>
<glyph glyph-name="zoo-giraffe" unicode="&#84;" d="M207 244c2 3 4 6 5 9 0 2 1 5 2 7 0 1 0 2 1 3 0-1 0-1 1-1 0 0 0 0 0 0 3 0 6 0 7 0 1 0 2 0 3 0 4 0 7 2 10 4 2 0 4 1 6 2 3 1 5 2 7 2 0-1 0-2 0-4 1-6 2-17 2-22 1-7 1-15 0-18 0-4 0-11 1-15 2-4 0-29-1-35-1-6 0-8 1-11 1-1 0-3 0-5 0 0 0-1 0-2 0 0 0-1-1-2 0-1-1-3 1-4 1-1 3-1 5-1 2 0 5 0 8 1 2 0 4 0 4 1 1 1 0 3 0 3-1 1-1 3-2 4 0 2 0 3-1 4 0 1-1 3 0 5 0 2 0 4 0 6-1 2-1 13-1 18-1 1-1 2-1 3 0 1 0 3 0 5 0 3 1 5 0 7 0 3 0 2 1 4 0 1 0 3 0 4 1 2 0 7 0 11 0 3 0 7 1 9 0 2 0 7 1 11 0-6 2-13 1-15 0-4 0-11 1-15 2-4-1-28-2-34-1-5 1-8 2-10 0 0 2-5 1-8l0 0c0-3-1-7 2-8 1 0 2-1 4-1 1 0 2 0 4 1 1 0 2 0 3 0 3 0 5 1 6 2 0 1 0 1 0 2-1 1-2 2-3 4-2 2-4 4-4 6-1 1 0 3 0 5 0 2 1 4 0 5 0 3-1 13-2 18 0 2 0 3 0 3 0 2 0 3 0 5 0 3 0 6 0 8 0 3 0 5 1 8 0 0 0 1 0 2 1 6 0 14 0 22 0 6 0 11 0 14 1 7 5 20 8 25 4 4 5 10 3 15-3 8-4 14-4 17 0 1 0 3 2 5 0 1 1 1 1 2 2 2 4 5 5 7 0 1 1 2 1 2 0 1 1 2 1 3 2 3 4 6 5 10l1 2c0 0 0 0 0 0l0 0 0 2c1 1 1 3 2 4 0 4 3 12 3 12 1 6 3 11 3 15 1 6 5 15 10 26 4 10 6 10 8 10 0 0 0 0 1 0 2 0 4-1 6-3 1 0 3-1 4-1 3-2 8-3 10-3l1 0c1 0 3-2 4-3 1-1 2-2 2-2 1-1 2-1 3-1 1 0 2 0 2 0 1 0 2 0 3-1 0 0 1 0 1 0 1 0 1 0 1 0 0 1 0 1 0 6 0 4-4 9-8 12-2 2-2 4-3 7-1 2-1 3-1 5-2 4-5 6-7 7-1 1-1 1-2 2 0 3 0 7 1 8 0 0 0 1 0 1 0 1 0 2 1 3 1 1 1 2 0 2-1 2-4 3-7 3-1-1-1-1-2-2 0-1 0-2 1-3 0 0 0-1 0-1l0 0c0-5 0-7 0-8-1 1-1 2-2 3 0 1 0 2 0 2-1 1-1 2-1 2 1 1 1 2 1 3 0 1-1 3-3 3-2 1-5 0-6-2 0-1 0-2 0-2 2-2 3-7 3-9l0-1c0 0 0 0 0 0 0 0 0 0 0 0l-1 0c-1 0-2-1-3-1 0-1-1-1-2-1-2 2-8 5-12 6-3 1-4 0-5-1 0-1 0-2 2-4 1-1 2-3 4-5 0-1 1-1 1-2 0 0-78-101-80-103-10-6-13-8-25-11-5-1-11-3-17-4-19-6-24-14-25-15-3-3-4-7-6-13-1-1-1-2-1-3-2-4-2-11-3-16 0-3 0-7-1-9-1-5-3-10-4-13l-1 0 0-1c0 0-1-2-1-3-2-2-4-6-4-8 0-2 0-3 0-4 0-2 0-3-1-5-1-1-2-2-2-2-2-2-3-4-2-7 0-1 1-2 1-3 1-3 1-5 1-6-1 0-2-1-1-2 0-1 1-1 1-1 2 0 4 1 4 3 1 0 1 1 2 2 1 1 3 3 3 9 0 4-4 4-3 6 1 1 1 4 2 7 1 6 1 7 5 12 0 0 0 1 0 1 0 1 1 2 3 8 3 7 6 17 8 25 0-4 1-9 2-14 0-2 1-4 1-6 1-6 2-18 0-25-1-3-2-4-2-6-1-2-2-4-1-7 1-4 3-18 5-31 1-8 0-14-1-17 0-1 0-2 0-3 0-3 1-6 2-8 1-1 1-2 1-2 1-2 1-4 0-5 0 0 0-1 1-2 0 0 1-2 8-2 5 0 8 2 9 2 0 0 0 1 0 1 0 0 0 1 0 1 0 0-2 2-6 6-3 3-3 6-4 12 0 1 0 3-1 4-1 8 0 34 2 39 0 1 0 2 0 2 1-3 4-7 5-8 1-2 4-13 7-21 1-5 3-10 3-11 1-2 1-5 2-7 0-4 1-6 2-7 1 0 1 0 1-1 2-1 3-2 4-3 1-1 0-4 0-5 0-1 0-2 1-2 0 0 2-1 7-1l1 0c4 0 5 0 6 2 0 0 1 1 0 2 0 0-4 6-6 8-3 2-6 7-6 8 0 1 0 3 0 4-1 1-1 2-1 3-1 1-1 4-2 8-3 8-8 22-8 25 0 1 0 3 1 4 0 3 0 6 0 10 0 5 0 8 1 10 1 1 2 4 3 6z"/>
<glyph glyph-name="zoo-gorilla" unicode="&#85;" d="M158 448c-4-2-5-3-9-5-3-4-3-5-5-9-3-5-5-4-3-10 4-14-3-8-9-17-4-7-2-16 3-23 4-7 16-3 24-2 2-20-2-31 3-52 5-17-6-9-1-50 2-18 8-28 11-45 1-9 0-13 8-20 5-5 12-7 21-5 5 11-1 8-5 9 0 0 0 0 0 0 2 5 2 7 2 14 10-2 14-2 13 9-4 0-3-2-6 0l14 56c2 11 0 11-3 20 16-6 22-14 44-15 25-1 29 6 46 12l5-8c2-5 3-6 3-12 1-8 9-41-1-47-11-6-14 3-18-11 12-3 12-3 26-2 0-9-3-10-11-12-10-2-12 1-14-9 10-7 21-4 34-4 12 0 26-4 35 0 2 9-3 13 0 21 3 9 4 12 4 22 3 31-12 24-2 41 17 28 9 96-32 105-27 5-53-14-84 9-25 19-8 1-25 28l-6 4c-3 1-4 2-7 4-7 16-22 27-41 16-7-5-4-7-14-12z"/>
<glyph glyph-name="zoo-hippo" unicode="&#86;" d="M112 363l0-10c3-5 0-2 4-5 4-3 1 3 4-5 4-11 4-6 8-12-4-9-10-48-6-55 4-2 16-3 21 1 0 6-1 5-6 7 2 11 6 21 12 27 4-10 17-34 27-36 4 0 18-1 21 2 7 9-5 8-12 10-8 12-5 21 0 33 11 0 16-6 41-6 12 0 37 5 45 4 16-15-11-22 1-42 6-1 12-2 16 2 1 7-2 3-7 7 3 3 6 9 9 11 3-7 4-14 7-21 7 0 19-2 25 2 1 10-8 8-14 11l1 30 15 4c10-14 10-12 19-17 7-4-1-9 13-20 6-5 12-13 24-10 8 3 16 10 20 16l0 5c-3 5-13 23-13 29 3 6 4 3 6 9-2 8-3 6-11 9 2 6 7 11 4 18l-5-2c-15 17-22 26-40 40-5 4-9 6-15 10-23 13-47 22-79 24-43 4-90-6-118-37-15-17-12-22-17-33z"/>
<glyph glyph-name="zoo-lion" unicode="&#87;" d="M238 376c-24 0-43 0-57-14-22-23-19-57-29-73-11-17-32-8-26 24 2 13 11 13 8 23-10 3-14 0-17-8-8-21-7-49 12-59 24-11 34 12 39 18 0-9-2-14 0-25 1-9 3-16 4-25-1-5 2-13 4-18 23-10 29 2 23 8-5 4-6 0-12 2-2 8-1 40 8 51 3 4 6 8 9 12l3-51c3-8 0 5 6-12 6-3 22-6 22 4l-2 5c-11 1-17-4-9 32 1 7 12 30 14 34 9-5 12-9 25-12 14-2 19 3 29 6l3-12c1-6 0-14 2-22 3-7 5-13 7-21 2-10 1-30 27-21 0 11-8 11-11 13-6 4-3 14-3 21l-3 41c2 9 6 5 7-3 1-4 1-9 1-13 0-8 3-16 4-24 3-19 0-23 18-25 5-1 9-1 11 2 4 9-6 9-13 11-1 6-4 29 0 36-1 8 1 17 5 22 2 4 3 4 6 7 2 3 3 5 6 8l-2-14c10 6 7 14 12 24l3-13c9 16 3 32 2 38 0 0 1 0 1 0l1 1c5 3-1 7-4 18 8-2 9-8 19-5 4 1 9 20 9 20-3 8-10 8-15 14-2 3-2 5-5 8-4 4-2-1-5 8-2 10-6 5-14 12-5 3-9 9-17 7 0-4 1-4 2-6l-10-1 2-5-15-1c1-1 4-4 5-5l-10-5c-1-6 2 2 0-2-7-2-9-4-14-6l7-3c-4-1-14-3-16-6l6-2-15-8 9-1c-20-10-19-19-57-9z"/>
<glyph glyph-name="zoo-manatee" unicode="&#88;" d="M161 318c5-6 1-18 12-29 6-6 15-15 26-6 1 12-4 16-9 25 15 10-8 16-2 22 7 2 24 0 33 1 17 1 27 4 42 9 5 2 9 1 15 1 7 1 5 3 14 2 9-1 8 1 16 1 18 1 32-13 44-24 4-4 33-27 44-25 4 17-33 40-53 59-7 7-12 10-19 18-28 33-61 46-108 43-18-2-44-10-56-19-11-7-29-27-34-41-3-5-3-8-6-13-6-14-8-59 12-52 28 9 8 13 29 28z"/>
<glyph glyph-name="zoo-monkey" unicode="&#89;" d="M214 402c-1 0-2-1-3-1-4-2-17-3-21-1l-5 3c-5 3-16 5-22 3-3-1-5-1-7-2-2-1 0 0-1-1-1 0-1 0-2-1l-2-2c-1-1-3-4-4-5 0-1-1-3-1-4-4-8 1-13 0-18 0-1-2-4-2-6 0-4 1-8 3-10 3-5 9-6 15-2l2 2c1 0 1 0 1 0 3 3 6 5 10 4 2-1 5-3 6-4 1-5-1-14-1-19-1-14 2-30-6-41l-21-24c0 0 0 0 0 0l-6-7c-6-5-16-3-23-9-1-1-2-2-3-2-1-2-2-1-2-4 5-1 8 6 12 3l-3-2c-1-1-1-1-1-1l-2-4c4-2 6 3 10 4 2 0 4 0 5 1 11 0 17 0 22 5 0 0 0 0 0 0l26 28c0 0 1 1 1 1 3 3 6 6 8 9 1 2 1 3 2 4 1 1 1 3 1 4 3 9 2 13 3 20 1 5 0 15 3 19 2-1 2-2 3-3l12-16c0 0 0-1 0-1 1 0 1-1 2-1l2-4c8-10 6-22 6-35 0-4 1-13-1-16-3-5-13-2-20-6-3-1-5-1-5-4 5-4 9 2 13 0-1-2-2 0-2-4 5-1 11 0 16 1 3 1 5 2 6 3l3 3c0 0 0 0 0 0 1 1 1 0 2 1 5 6 2 23 4 31 1 3 1 12 1 16l-1 2c0 0 0 0 0 0 0 1 0 1 0 1 0 0 0 0 0 0l-4 9c-2 2-1 1-2 3-1 1-1 2-1 3l-4 6c0 1-5 9-4 12l1 1c5 2 9 4 13 7 0 0 0 0 0 0l20 14c0 0 0 0 0 0 0-2-1-5-2-7-1-2-2-5-3-8-3-8-3-19-1-27 0-3 1-5 2-9 0-1 1-2 1-3 1-3 1-2 1-4 2-5 3-11 5-16 1-4 4-13 1-17-1-1-4-3-6-4l-7-3c0 0 0 0 0 0l-2-2c-2-2-7-5-8-7-2-3 0-3 1-5 1-1 0-1 1-2 4 0 5 1 7 2 3 2 6 3 9 4 3 2 8 3 11 4 3 1 6 2 9 5l2 2c4 3 2 10 2 15 0 16-1 11-4 23-3 9-5 14-4 24 1 3 3 13 5 14 1-1 0-7 1-10 0-2 0-2 1-4l4-7c11-11 39-5 52-12 1-7 1-17-2-22-2-3-5-5-8-8l-1-2c0-1 0-3 0-5 1 0 1 0 2 0l1 1c0 0 0 0 1 1 0-3-1-2 1-3 2 0 0 0 2 0 2 0 0-1 2-2 3 1 2 4 7 8l1 1c4 4 3 2 7 7 1 2 3 4 3 7 1 5 3 21 0 25-3 4-8 5-13 7-1 1 0 0-2 1-1 1-2 1-3 1-1 0-2 0-3 1-15 6-34 3-25 22 12 28 12 23 11 56 6 3 14 2 21 0l8-4c3-2 7-4 9-7l3-3c1-1 1-1 1-1l11-15c4-5 7-11 10-18l4-9c1-3 2-6 2-10 0-7 0-16-6-19-3-2-7-1-9 1-5 4-3 11-1 15l1 1c1 2 1 1 1 3-4 1-4 0-7-1-4-2-6-6-7-11 0-6 0-9 3-14 1-4 4-8 9-8 5-1 10 0 14 1 6 2 11 8 13 14 2 9 2 15 2 23-1 3-1 5-1 8-1 7-3 14-5 21 0 3-1 4-2 6-1 5-6 14-9 18l-3 4c0 0 0 0 0 0l-2 3c0 0-1 0-1 0l-16 15c-41 30-115 5-154-18z"/>
<glyph glyph-name="zoo-orangutan" unicode="&#90;" d="M265 486l11-3c1-3 4 1 8-7 1-3 4-10 5-12l0-7c-1-4 0-8-1-11-2-3 0-5-2-8-1-1-4 0-1-5 5-6 6-11 10-17 1-2 0 0 1-1 7-1 11 0 17-2 28-10 16-20 27-34 0 0 0 0 0-1 0-1-3-2 3-9 0-3-1-1-2-3 1-2 4-4 4-5 2-3-3-1 2-6 1-1 2-1 2-2 0-4-1 3-1-2 0-3 4-3 3-5 0-2-3 0 1-5 4-7 10-9 17-14 0 0 0 0 0 0-1-3-2-1 0-3 3-3 1-2 0-4 1-1 3-2 3-2l3-6c3-2 2 1 3-3l-1-1c1-2 3-3 4-5 1-3 1-6 3-8 0-1 1-2 1-3 2-4-1 1 1-2 0-1 3-4 4-5 0-3-3 1 1-4 5-6 1-4 3-8l1-3c0-2-1 1 0-3 0-1 1-2 1-4-3 2 1 1-3 3 3-17 1-15-4-28-5-12-7-13-16-20-7-6-11-5-19-4-3 0-6-1-9-1-4 1-9 5-9 8-1 2 0 17 0 18l5-1c1 3 1 3 3 5 4 0 2-1 4-1 3-1 4 0 6-3 1-3 0-2 2-3l5-4 2 13c-10 5-14-2-19 0-2 5 5 8 10 9 9 1 8 2 14 5l-2 5c0-1 0 0-1 0 0 0-1-2-2 3l-2-1-3 4-3-7c-2 1-2 1-4-5-2 1 0 0-1 1 0 0-1 0-1 0l-1 1c-1-3-1-5-3-7-1 1-1 2-2 0-1-3-2-4-3-6-2 0 0-1-2 2-2-3-3-6-5-8l-1 4c-1-2-3-7-5-7-4 0 1-1-1 1 0 0 0 0 0 0 0 0-1 0-1 0 0 1 0 1 0 1l-3-6c0 0 0 0 0 0 0-1 0 1-1 1 0 2 1 1-1 2 0-3-1-6-3-8l0 7-4-4-2 4c-3-7-5-4-6-5-7-6-6-16-14-22-4-4-11-3-13 1l-1 3c0 0 0 0 0 0-3 4-6 2-4 10-2 2-4 3-3 8 1 3 0 6 1 11-10-1-16-2-24 3l-2-4c-8 0-6 11-13 6 2-6 5 0 4-7 0-4-3-3-6-4-2-3 0-4-4-6-7-3-1-1-4-6-3-1-9-3-14-2-5 3-3 14-9 18-4 2 2-2-2 0-1 1-1 1-1 3-2-1-1-1-2-1l-1 5c-1-1-2-2-3-1-1 9-1 4-3 3l0 4c0 0 0 0-1 0l0 0c-2 0 1-1-2 0l-2 6c0 0 0 0 0 0l-1 5c-1 1-1-2-2 3-1 2 0 2-1 3-2 0-1-1-1-1-2 10-8 24-1 32 8 10 19 1 29-1-3 18 1 23 6 38 1 2 5 16 5 18 0 2-2 6-3 8-4 6-2 5-5 3l-1 5-3-6-2 10c-1-3-3-5-5-7l-1 6-3-4c0 3 1 4 0 6-3-5-1-3-4-3-2 1-1 1-2 0l-1 3-5-7 0 7c-1-1 0 0-1-1-1-1-1-1-1-1l0 3-4-3-1 3c-1-2 0-3-2-3l0 4c-1-2-3-4-5-5l1 5c-2-1-4-3-6-5l0 2c0 0 0 0 0 0 0 1 0 1 0 1l0 1c-2-3-3-6-6-7 1 4 1 5 2 9-3-1-3-2-5-4l1 6c-2-3-4-5-7-8 0 4 0 5 1 9-2-1-3-1-4-3 0 0 0 0 0 0l-1 4-3-3c0 0 0 1 0 1 0 0 0 0 0 0l-1 2c-1-1-4-3-6-4l2 6c-3-1-4-2-7-3l0 3c-2-1-1 0-3-1l1 3c-2-1-2-1-4-2l1 5-3-2-1 7-2-3-1 4c-1 5 1 14 3 18 6 13 16 24 29 31l7 4c1 1 3 3 4 4 4 2-4-1 1 0 2 1-1-3 3 1 1 2 0 2 1 3 2-1 0 0 2-2 1 1 2 2 3 4 3-1-3 1 1-1 1 0 0 0 2 0 3 5 3 1 6 3 6 4-2 5 6 3 2 3 3 3 9 5 0 0 1 0 1 0 2 0 1-1 4 2 5 0 1 0 8 2l20 6c3 1 0 1 3 1 3 0 12 4 16 6 9 3 11 0 20-1z m13-46c-8 0-4 1-6 1-2 0 0-1-3 0l-1 0c0 0 0 0 0 0-6 2 2 1-4 0l-2 0c-2 0-2-1-4 2-3-3 2-2-5-3-1-1-1 0-2-1l-3-2c0 0 0 0 0 0-2-1-1 0-2-1 0 0-2-3-2-3-1-1-4 0-7-10-22 6-10 8-41 1-3 0-8-1-12 0-1 0-1 1-1 1l3 5c3-1 1-1 8 4 0-1 0-1 0-1 0-1 1-1 1-1l0-1c1 2 2 4 3 5 0-1 0 0 0-1l1-3c1 5 4 7 5 12 0 0 0 0 0-1l1-2c0 0 0 0 1-1l2 4c2-3 0-4 4 2 1 1 1 1 1 2l2-5c1 2 2 6 4 8 0 0 0-2 0-2l1-3c1 1 1 4 2 5 2 2 1 1 2 1 3 0-2-1 1-1l2 4c1-2 1-3 1-6 2 3 1 3 3 6 2 0-1 0 2-1 0 0 0-1 0-1l2 9c1-1 10-3 11-3 2-2 3-8 8-5 1 3 0 5-1 7 6 5 22 4 24-1 1-3 1-17 1-20z"/>
<glyph glyph-name="zoo-pig" unicode="&#48;" d="M121 372c-4 1-10 5-12 5 5-9 13-17 22-22 0-3-1-7-1-11-1-7 1-8-8-16-2-1-5-3-6-5-2 1-2 3-6 3 0-2-1-3-1-4l0-3c0-1 1-2 1-3 1-1 2-2 4-3 1-1 2-2 4-3 7-4 13-7 20-5 4 1 23-4 34 3 3 2 6 4 7 8 8-1 5-6 21-6 3 0 5 1 8 1 5-9 5-13 9-21 2-4 1-10-1-12-2-3-6-5-6-10l11 0c0 2 0 1 2 3 2 2 1 1 2 2 5 2 9-1 13 7 1 2 1 2 2 3 1 1 2 1 4 2-1 4-5 10-4 18 0 2 1 5 1 7 12 0 8 0 21-2 9-1 10-2 19-1 6 0 14 2 19 3 13 4 15 7 24 10 3 1 5 3 8 0 5-3 5-9 7-15 3-12-11-21-13-31 3 0 6 0 7 0 3 0 5 0 7 1 6 9 4 7 8 4 1 4 2 8 3 12 1 4 3 9 5 11 2-1 5-4 6-6 5-6-3-19-3-25 3 0 7-1 10-1 1 2 3 4 5 6 3-1 0-1 3-1 3 10 0 10 0 17 0 3 3 14 4 17-6 3-10 10-9 13 0 7 10 16 13 32 1 4 3 15 1 20 5-1 7-6 7-11 2 1 3 3 3 5l0 2c0 4-2 8-5 10-2 1-4 0-5 1-2 1 0-1-2 5-10 40-56 35-89 30-11-2-9-3-23-3-3 0-4 0-5 0l-18 1c-12 2-21 4-35 3-9-1-20-7-28-10-22-10-27-20-45-31-6-3-8-2-18 4-2 2-5 4-8 5 1-4 4-9 6-13z"/>
<glyph glyph-name="zoo-reptile" unicode="&#49;" d="M357 399c7 1 21 10 27 10 1-1 2-2 2-4l0-1c0-1-1-3-2-4-6-6-18-7-29-13-1-1-2-2-4-3-12-7-17-11-26-21-6-7-6-8-14-13-2-2-5-5-6-8-5-12 14-14 24-15 5-1 8 0 13 0 8-1 12-7 3-9-6-1-19-1-24 0-5 1-28 4-30 6-4 2-5 6-8 9-3 3-12 2-17 2-1 0-2 0-4 0l-13 0c-7 0-7-4-7-11 5-3 16-3 23-4 2 0 12 1 12-7 0-4-4-7-7-6-2 0-3 1-5 2-7 3-19 2-25 3-14 2-12 11-21 19-3 3-4 3-11 3-2 0-5 0-7 0-3 0-4-1-6-1-11-1-25-2-29-13-1-3 0-7 2-10 2-5 8-13 10-16 3-5 5-15 4-24-2-6-7-11-12-16-6-5-18-11-26-15-3-1-6-2-9-4-2 0-10-5-9 0 1 5 19 15 24 18 7 5 9 5 15 12 2 2 5 5 4 9-1 6-13 18-17 23-5 6-10 7-12 16-2 6-1 19 1 24 2 3 3 5 5 9 5 5 8 8 14 13l9 5c3 1 6 2 10 4l10 3c8 2 14 4 22 5 8 1 41 5 49 5 38 0 26-2 52 16 7 4 10 7 19 9 3 0 9-1 13 0 4 1 7 2 11 3 3 1 7 3 9 5 2 2 4 4 8 5 5 1 8-2 9-4-4-5-21-12-24-16z"/>
<glyph glyph-name="zoo-rhino" unicode="&#50;" d="M170 253l0 0c-1 0-4 0-9 0-1 1-2 2-2 4-1 2-3 3-6 3-2 0-5 4-8 12-3 8-5 13-5 16 0 0 2 5 7 14-6 8-12 16-17 23-7 9-10 18-12 27 0-1-1-4-3-8-1-4-1-7-1-9 0-3 0-5 1-7l-2-11-1 1c-2 6-3 10-3 12 0 1 0 3 1 6 0 2 1 4 1 8 6 16 13 31 22 45 1 1 6 2 15 5 10 2 16 4 18 4 12-6 22-9 31-9 5 0 11 1 18 2 6 0 12 1 17 2 3 0 8 1 15 3 6 3 11 3 14 3 5 0 12-2 23-7 12-5 20-8 24-9 0 1 1 1 2 2 1 1 1 1 1 2l2 5c1 1 3 2 4 2 1 0 2-1 3-2 1-2 1-4 1-5 0 0 0-1-1-2-2-1-2-2-2-2 0-1 1-2 1-3l4-2 2 0 0 4c1 2 3 4 5 6 3 2 5 3 7 3 0 0 0-1 0-3 1-1 1-2 1-2 0-3-1-6-3-8-1 0-3-2-7-4 2-6 3-10 5-12 2-5 6-7 10-7 4 0 9 5 15 17 0-3 1-7 1-10 0-2-1-4-1-6-1-3-1-5-1-7l1-3c1 0 2 0 2 0 6 0 13 5 19 16 0 1 4 9 10 24l0-5c0-8-1-14-3-20-1-4-4-9-8-15-4-6-7-12-9-16l2-3c-1-1-1-2-1-3 0-1 0-2 0-3 0-9-2-14-5-16l-2 2c-1 1-7 1-18 2-9 1-15 3-18 6-3 2-5 4-7 7-3 2-6 4-8 5-6-2-11-5-14-7-4-4-7-6-8-7-7-11-11-21-11-28 0-6 1-11 3-14 1-1 3-3 6-5 2-2 4-4 4-6l0-1c-5-2-9-3-12-3-2 0-5 0-11 0-2 1-3 2-3 5 1 1 1 3 1 4 0 2 0 3-1 6-1 3-2 8-3 15 0 7-1 12-2 15-6-7-9-18-9-32 0-2 1-3 3-3 2-2 3-4 3-6l-1-2-2 1c-1 0-2 0-4 0-2 1-4 1-5 1-2 0-3-1-5-2l-5 5c1 1 2 7 2 16 1 6 1 12 1 18 0 1 0 2-1 2-2 0-7 0-13-1-5-1-9-2-12-2-6 0-15 2-26 4-2 1-4 2-7 3-2 2-4 3-5 3l-5-6c0-1 0-3-1-6 0-3 0-5 0-6 0-5 2-11 7-17 7-8 10-13 11-15l-1-2c-4 0-9-1-16-1z"/>
<glyph glyph-name="spl-safespot" unicode="&#51;" d="M137 210l76 0 0 29-47 0 0 48-29 0z m0 163l29 0 0 45 47 0 0 31-76 0z m160 71c0-33-9-26 47-26l0-45 31 0 0 71c0 4-1 5-5 5l-68 0c-3 0-5-1-5-5z m-113-109c0-23 2-39 20-57 34-33 95-28 118 23 2 6 6 21 6 29-2 29-17 53-43 65-26 12-58 7-78-13-7-7-10-10-15-19-4-8-8-16-8-28z m72 43c14 0 26-12 26-26 0-15-12-26-26-26-14 0-26 11-26 26 0 14 12 26 26 26z m11-50c-3-1-7-2-11-2-4 0-7 1-11 2l0 0 22 0z m-22 0l22 0 0-45-22 0z m99-89l-47 0 0-29 78 0 0 77-31 0z"/>
<glyph glyph-name="zoo-sloth" unicode="&#52;" d="M288 321c1 1 1 1 1 3l4 11c2 7 1 10 1 19 7 3 20 5 28 1 5-9 0-26 0-38 9 13 10 55 8 68l-3 35c-2 9-1 8 0 16 1 7-1 10-1 17 11-3-2-3 10-5-3 4-4 5-5 10 24-5 47-54 54-75 20-56 18-136-41-162-35-16-108-8-139 8 1-4 1-4 3-8-17 1-35 33-37 36-4 4-14 5-19 6 2-4 3-5 5-9-18 2-27 22-35 31-17 21-19 59 2 81 29 29 77 21 92-1 6-8 4-27 4-41-3 3-4 3-5 8-14-7-28-14-40-8 0 13 11 19 21 18l8-2c6 1-4 7-6 9-26 16-56-11-62-25-4-9-3-23 4-28 2 7 4 36 28 25 0-17-16-23-23-34 13-18 61 5 71 22 3 6 8 21 8 29 2 14 1 16 1 31-2 23-7 47-3 69 3 15 5 8 5 19 0 5 0 3 1 8 8-3 1-7 12-5l-7 8c15 0 8-1 18-7 13-8 14-14 22-31 10-22 21-60 17-85-1-7-2-19-2-24z m-108-32c-5 0-5 1-8 2 4 6 0 0 13 7 4 2 4 3 7 5 5 3 2 3 8 4-3-12-14-18-20-18z m7 22c0-7-7-7-14-7 0 7 1 5 2 12 4-1 12-2 12-5z"/>
<glyph glyph-name="zoo-visiting-spot" unicode="&#53;" d="M372 278l0 162c-3-1-7-4-9-5-3-2-6-3-9-5-7-3-13-5-20-7-37-12-54-3-89 11-6 3-13 5-21 6-4 1-8 2-12 2-4 0-11 0-14 0-3 9-3 7-8 10l-6 0-3-2c-4-3-5-6-5-11l0-234c0-13-1-29 0-42 1-15 21-15 22-2 1 5 1 95 1 107 0 3-1 7-1 10 1 3 2 3 9 3 40-1 66-28 102-25 18 1 34 7 49 15 5 2 9 6 14 7z"/>
<glyph glyph-name="zoo-wolf" unicode="&#54;" d="M158 451l0-2c5-12 9-16 11-31 0-5-1-8 1-16 1-2 2-4 3-6 0-2 0-5 1-7 0-4 2-3 1-7-2-16 4-12-2-21-1-3-3-9-4-13-1-2-3-4-2-6 1 0 1 1 3 1-2-5-4-9-4-15 0 0 1 0 1 0 1 0 1 0 1 0 0-6-1-11 0-17 1 1 1 1 2 1 1-7 1-10 5-17 2-5 4-11 7-15 3-4 2-1 4-7 1-6 4-13 4-19 0-3-1-7-1-11 0-5 1-18 0-21-2-3-2-6-2-9-1-3 1-11-12-11-4 0-11-1-13-4-2-1-5-9-4-13 3-1 6 0 9 0-1-6-1-3 1-7 9 0 5 0 7-1 5 2 19 4 25 6 0 0-5-5-5-6 3-1 3 0 6-2-1-1-2-2-2-3 4-2 8-1 12-2l-2-1c13-4 14-4 26-2 3 1 8 1 11 1-1-2-2-1-2-3l7 0 7 0 21 3c-1-1-1-1-1-1l-1-1c3 0 4-1 6 0l-1-1 0 0 13 3c1 1 3 1 4 2 1 0-1-2 4-1-1-1-1-1-2-2 6 1 25 6 29 8 0 0 0 0 0 0l1-2c1 1 3 3 4 4l1-2c2 2 2 2 3 4 2 0 0 0 2-1 0 1 1 2 2 3 1 2 3 7 5 9 1-1 0-1 2-1l1 4c1 0 1 0 2-1 0 0 1 0 1 0 0 4-2 9-3 12 2 0 2 0 3-1l-1 4 1-1c-1 3-3 5-5 7-3 3 2-1 0 2-1 2-2 3-3 3 0 1 1 0 1 1-4 4-9 4-10 6-2 3 0 16-5 27-2 4-3 8-5 12-5 9-2 7-8 16-5 9-11 15-19 21l1 1c-1 2-3 2-5 3-2 1-4 3-5 4 0 0 1 0 1 0-1 2-1 2-3 3-4 3-5 2-9 6-1 2-3 3-4 4-2 3-3 5-5 9-2 3-2 7-4 11-4 10-6 8-9 12-6 7-6 10-9 13-1 2-5 5-7 7 1 1 8 1 11 6-1 7-14 16-20 20-5 3-4 8-6 14-4 11-8 17-16 25-7 7-8 1-12 7-3 6-8 15-9 22-1 3-1 5-4 5-2 0-3 0-4-1-1-1-1-1-2-2-1-1 0 0-1-1-4-3-5-3-5-6-2-5 2-21-2-22 0 0 0 0 0 0-1 0-2 1-3 2-6 5-1 9-1 12-6-1-6 2-10-4z m43-268l5 6-2 4c3-1 6 0 8 1 7 3 6 0 7 4 0 2 0 2 1 3 0 1 2 1 3 2 6 4 10-1 14 3 2 1 3 2 4 3 2 1 5 3 7 5 0 4-2 12 5 20 1 1 1 1 2 2l-27 18c-4 3-8 7-12 10-1-3-1-17-1-23-1-4 0-7 0-11-1-4-2-14-1-18 1-6 2-5-1-9-1-1-2-2-3-4-1-3-3-4-6-6-4-4-3-9-3-10z"/>
<glyph glyph-name="academic" unicode="&#55;" d="M249 426l-49-22c-4-2-5-3-5-6 0-4 4-4 7-4l0-15-88 0c-4 0-5-2-5-5 0-2 8-11 8-14l0-48c0-4-8-9-8-15 0-1 2-3 4-3l286 0c3 0 5 1 5 4 0 4-7 9-7 14l0 50c0 2 7 9 7 14l0 0c0 2-2 4-7 3l-86 0c1 3 0 12 0 15 3 0 8 0 8 5 0 3-3 4-6 5l-40 19c-3 1-14 6-16 6l0 4 34 0c3 0 5 3 5 6l0 20c0 3-2 6-5 6l-42 0z m7 33l32 0 0-16-32 0z m-40-55l40 19 41-19z m-83-40l21 0 0-21-21 0z m31 0l21 0 0-21-21 0z m-31-30l21 0 0-21-21 0z m31 0l21 0 0-21-21 0z m163 30l21 0 0-21-21 0z m31 0l21 0 0-21-21 0z m-31-30l21 0 0-21-21 0z m31 0l21 0 0-21-21 0z m-112 34l21 0 0-21-21 0z m-3-65c0 7 1 13 1 20 1 7 8 9 12 9 4-1 7 2 12-9l0-20z m-35 93l96 0 0-8-96 0z m-2-13l23 0 0-81-23 0z m76 0l23 0 0-81-23 0z"/>
<glyph glyph-name="athletic" unicode="&#56;" d="M112 419l0-172 281 0 0 172z m270-145c-29 2-51 26-51 55 0 30 22 53 51 56z m-134 39c-9 2-16 10-16 20 0 10 7 19 16 21z m9 41c9-2 16-11 16-21 0-10-7-18-16-20z m-134 34c27-4 48-27 48-55 0-27-21-51-48-55z m0-121c33 4 59 32 59 66 0 34-26 62-59 67l0 8 125 0 0-46c-14-2-25-14-25-29 0-14 11-26 25-29l0-46-125 0z m134-9l0 46c14 3 25 15 25 29 0 15-11 27-25 29l0 46 125 0 0-12c-35-2-62-31-62-67 0-35 27-64 62-66l0-5z"/>
<glyph glyph-name="drawingroom" unicode="&#57;" d="M202 374c0 1 0 1-2 0l-25 20c-4-2-4-2-5-5 3-4 17-15 22-17-2-4-12-16-16-21-8-10-6-11-11-12-5-2-7 3-7-7l81 0c-5-1-49 0-60 0l-17-1c-3 0-2 0-4-1 5-4 25-2 34-2l-2-131c-6-2-31-1-39-1l0-5c0 0 0 0 1 0 0-1 0-1 1-1 4-1 5-1 10 0l93 0c16 0 96-1 105 0l0 6-25 0c3 3 7 7 10 12 5 8 6 7 10 13-4 13-29 32-31 38-1 3 0 18 0 23 13 7 7 3 19 6l-1 10c9 6 8 16 7 26-1 4 1 8 0 15-4 25-2 47-19 71l-17 18c-1 0-8 0-6 11 0 6 1 9-2 14-2 4-5 6-9 8-6 4-9 2-15 1-12-3-15-8-20-18 1 0 1 0 1 0 1-2 4 0 6-7 5-15-2-8 6-14 1-1 1-2 2-3 3-2 4-4 7-6 4 2 3 3 7 4l3-6c-1-2-2-4-5-5 0 0 1 0 1-1 1-6 0 1 1-2 0 0 3-1-2-9-5-7-10-9-14-18-1-2-2-6-8-10-8-5-21 2-28 5-4 2-7 4-10 6-5 4-5 5-11 7 4 6 7 7 8 12-3-1-3-2-6-4-1-2-4-5-5-6-9-6-6 4-11-11 7-3 5-9 20-8 6 1 4 0 6-1 0 0 4-3 5-4 10-8 15-11 29-14 11-3 25 14 34 18 2-8-1-10-7-13-15-9-20-13-33-10-11 3-10-1-18-2-8 8-34 26-38 32z m123-178c6 1 1-1 6 9 3 5 4 5 4 12-4 2-7 4-10 5z m-41 0l31 0 0 14z m-113 143l60 0c-6 5-12 9-18 14l-18 15z m67-11l-38 0-2-132 73 0c2 2 0 4 8 10 7 5 13 8 10 12-14 20-14 29-23 42-10 14-18 29-23 46 8 10 12 10 25 13 11 3 20 4 31 6 1 1 1 1 2 2 0 1 0 2 1 3 1 2 1 3 2 6-9-5-24-3-36-3-5 0-2-1-7-1-4-1-5 0-9 0-6 0-2 0-6-3-3-2-3-1-8-1z"/>
<glyph glyph-name="hall" unicode="&#33;" d="M158 330c8-12 7-11 7-29 0-32-4-24 14-40 15-15 85-18 110-15 25 3 37 8 58 15l0 11c-16-1-54-4-48 17 4 14 24 9 37 12 6 1 6 3 11 6 1 19 0 16 8 29-6 2-14 6-21 9-53 19-132 14-176-15z m52 41c-4 2-15 13-19 17-20 19-36 4-13-17 24-22 3-19 37-13 13 2 9 0 16 8l2-6c35 3 25 2 60 0l2 8c5-5 4-8 11-10 6-2 12-3 18-3 1 11-12 24-18 30-7 10-12 22-28 23l-8-26c-5 8-4 17-3 26l-8-1c2-8 2-17-2-24l-9 25c-13 0-15-7-21-15-6-8-10-14-17-22z m144-57c7 4 7 9 15 7 0-6-2-6-11-13-4-4-9-8-14-11-11-8-36 3-39-12 3-7 8-6 17-6 7 0 18-1 23 0 9 3 22 19 31 18 1-7 3-3-10-12-5-3-8-4-13-9l0-22 47 0c0 13 2 63-1 71-5 9-15 9-27 9-14-1-18-6-18-20z m-242-65l39 0c-3 3-1 1-5 4-3 2-3 2-6 4-9 9-18 36-14 41 10-2 8-28 17-35l15-11c21-16 25-1 13 8-5 5-8 7-14 13-7 6-5 8-8 18-1 7-5 17-2 22 6-1 3 1 5-4 1-3 3-19 6-24 1 11 2 32-4 39-6 6-26 7-35 2-10-5-7-21-7-35 0-14 0-28 0-42z m257 144c-36-12-16-61 17-50 32 11 16 62-17 50z m-241-6c-34-11-18-61 16-50 32 10 18 61-16 50z m126 75c-31-13-12-57 17-46 11 4 19 17 15 31-3 11-17 21-32 15z"/>
<glyph glyph-name="kitchen" unicode="&#34;" d="M251 118l13 0c2 1 14 3 18 4 14 5 28 14 38 25 1 1 8 9 9 12 1 2-4 55-5 58-5 1-13 2-19 3-19 4-33 9-51 17-5 2-10 5-14 8-10 6-8 7-16 5-38-11-36-66-30-99 0-1 0-4 1-5 0-2 1-2 2-3 2-2 4-3 6-5 24-20 44-18 48-20z m-20 51c-2 0-5-3-5-6 0-4 3-5 6-6 5-3 9-5 16-6 13-3 27 1 36 6 3 2 5 3 4 7 0 3-3 5-6 5-4 0-21-15-43-3-2 2-4 4-8 3z m-8 39c-15-4-7-26 6-21 15 5 8 26-6 21z m59 0c-5-1-9-7-7-14 1-4 7-10 14-7 14 4 8 26-7 21z m-20 256l-16 0c-2 0-23-3-28-4-18-4-41-12-53-26-3-4-4-2-11-5-9-2-16-5-22-9-16-14-10-29 7-38 8-4 16-6 25-7 2-9 8-42 12-54 4-17 3-13 3-30 0-5 0-11 0-16 0-5-4-8-6-11-18-36-8-74 11-102 0 10-2 18-1 34 2 29 11 59 43 66 7 1 7-1 12-4 10-7 24-14 36-19 14-5 26-9 41-12 4 0 14-1 16-2l5-55c1 0 1 0 2 2 0 0 0 2 1 2 1 3 1 4 2 6 11 30 10 61-3 90-2 4-4 6-4 11 1 8 0 24 1 30 2 10 14 62 15 64 2 1 9 2 12 3 4 1 8 3 12 5 5 3 13 8 15 16 4 17-19 28-33 31-11 3-5 0-10 6-15 14-35 21-55 25z m-69-190l126 0 0 25c-6 2-53 1-62 1-21 0-42 0-64 0z m-18 149c-9-1-16-2-23-5-6-3-14-8-13-16 1-14 27-18 38-19l16-70c12-1 49 0 64 0l59 0c2 0 3-1 3 0 2 1 11 45 14 53 6 22 0 16 16 19 5 1 7 2 11 3 18 8 18 21 0 30-7 3-14 4-23 5-5 11-19 19-32 24-15 5-32 8-49 8-21 0-50-6-68-18-4-3-11-8-13-14z m133-40c-1 0-2 1-3-5-1-3-1-5-1-8l-6-29c-1-2-2-5-1-7 2-1 5-2 7-1 4 2 4 10 5 13l6 30c0 2 2 5 0 7-2 1-5 1-7 0z m-55 0l0-42c0-2 0-6 6-5 4 0 5 2 5 6-1 13 0 32 0 44-1 4-3 5-7 4-4 0-4-3-4-7z m-45 1c-3-1-4-2-3-5l8-37c1-5 1-11 8-9 5 1 2 9 1 13l-6 29c-1 5-1 11-8 9z"/>
<glyph glyph-name="residence-halls" unicode="&#35;" d="M123 388l0-170 266 0 0 170-100 57-33-37-47 40z m41-28l24 0 0-25-24 0z m32 0l23 0 0-25-23 0z m-32-37l24 0 0-24-24 0z m32 0l23 0 0-24-23 0z m41 31l24 0 0-25-24 0z m32 0l23 0 0-25-23 0z m-32-36l24 0 0-25-24 0z m32 0l23 0 0-25-23 0z m33 36l24 0 0-25-24 0z m32 0l23 0 0-25-23 0z m-32-36l24 0 0-25-24 0z m32 0l23 0 0-25-23 0z m-97-35l24 0 0-25-24 0z m32 0l24 0 0-25-24 0z m34 0l23 0 0-25-23 0z m31 0l24 0 0-25-24 0z"/>
<glyph glyph-name="restrooms" unicode="&#36;" d="M159 449l194 0c12 0 22-10 22-23l0-193c0-12-10-23-22-23l-194 0c-12 0-22 11-22 23l0 193c0 13 10 23 22 23z m45-64c8 0 14 6 14 14 0 7-6 13-14 13-7 0-13-6-13-13 0-8 6-14 13-14z m-2-85l0-47c0-8-12-8-12 0l0 47-17 0 18 63-3 0-10-36c-3-8-14-5-11 4l12 38c1 5 7 13 16 13l18 0c10 0 16-8 17-13l12-38c2-8-8-12-11-4l-11 36-3 0 19-63-17 0 0-47c0-8-13-8-13 0l0 47z m98 82c-9 0-17-8-17-18l0-41c0-8 12-8 12 0l0 37 2 0 0-105c0-10 16-10 16 0l0 62 3 0 0-62c0-10 15-10 15 0l0 105 3 0 0-37c0-9 11-9 11 0l0 41c0 9-6 18-17 18z m14 3c8 0 14 6 14 14 0 7-6 13-14 13-7 0-13-6-13-13 0-8 6-14 13-14z m-46 26l0-163-15 0 0 163z"/>
<glyph glyph-name="seat" unicode="&#37;" d="M194 282l0 51z m0 51l0 18c0 0-2 27-30 27-27 0-35-20-34-29 0-9 0-102 0-102 0 0-1-23 29-24 15 0 36-1 54-1 18 0 37 0 37 0l0 60-56 0z m124 17c0 0 2 27 30 27 27 0 35-20 34-29 0-9 0-102 0-102 0 0 1-23-29-24-29 0-108 0-108 0l0 60 73-1z m-73-128l5 0 0 60-5 0z m-50 241l124 0c19 0 35-16 35-35l0-61-195 0 0 61c0 19 16 35 36 35z m-8-96c-4 6-11 11-23 11-1 0-3 0-5 0l0-11z m167 9l0-9-29 0c5 5 12 10 23 10 2 0 4 0 6-1z m-182-143l14 0c5 0 10-4 10-10l0-24c0-5-5-10-10-10l-14 0c-5 0-10 5-10 10l0 24c0 6 5 10 10 10z m-10-10c10 0 22 0 34-1l0 1c0 6-5 10-10 10l-14 0c-5 0-10-4-10-10z m164 10l14 0c5 0 10-4 10-10l0-24c0-6-5-10-10-10l-14 0c-5 0-10 4-10 10l0 24c0 6 5 10 10 10z m0 0l14 0c5 0 10-4 10-10l0-1c-9 0-21 0-34 0l0 1c0 6 5 10 10 10z m-132 117l124 0 0-20-124 0z"/>
<glyph glyph-name="shield" unicode="&#38;" d="M256 323l0-112c-20 5-46 25-59 39-14 15-24 45-24 73z m0 0l0 102c30-20 57-26 93-23 0-27-7-54-7-79z m-79 107c-24 0-29 6-47 10 6-77 4-182 62-226 11-9 47-34 64-34 15 0 53 24 63 32 44 34 50 83 56 138 3 30 5 61 7 90-32-8-54-19-93 1-28 14-23 18-33 25-13-10-30-36-79-36z"/>
<glyph glyph-name="spl-fireexit" unicode="&#39;" d="M345 282l-212 0 0-59 212 0 0-20c3 2 25 29 30 36 3 3 8 10 11 12-2 3-8 10-10 13-8 10-24 30-31 38z m-88-53l15 0 0 47-15 0z m28 34l14 0 0-34 15 0 0 34 13 0 0 13-42 0z m-73-11l-14-22 17 0c2 4 5 9 8 12 10-15 4-12 23-12l-14 22 15 23-14 0c-5-2-7-9-11-12-9 15-7 12-24 12z m-66-23l40 0 0 12-25 0 0 5 22 0 0 12-22 0 0 5 25 0 0 13-40 0z m55 100c-2 2-8 12-14 19-5 6-11 11-16 17-14 21-3 47-4 55-3-4-13-23-15-30-22-59 35-49 44-89 13 5 38 30 41 46 6 22-9 53-18 68-2-4-3-16-4-21 0-8 2-14 5-19 7-12 8-30 0-40-5 22-3 13-11 33-5 16-5 20-1 36 8 25 7 46-18 60-1-20 0-15-9-35-6-11-10-21-6-37 6-20 31-35 26-63z m73 22l1-4 31 18c0-2-8-21-9-23l-34-35c-3-4-4-5-8-9-3-2-7-7-8-9l27 0c-2 3-6 4-9 8l41 33c2-1 9-7 10-8l-11-15c-2-3-4-5-6-7-2-3-4-5-5-8l23 0c-2 2-3 3-6 4 1 4 19 24 20 24-2 6-12 17-15 23 4 4 8 10 12 13l1-13c8-2 15-9 24-11l3 4c-2 4-4 4-9 7-11 8-8 1-10 36-5 0-16 5-20 3l-41-30c-2-1-1-1-2-1z m64 54c-13-4-8-23 6-20 4 2 8 8 6 13-1 4-6 9-12 7z"/>
<glyph glyph-name="spl-fireextinguisher" unicode="&#40;" d="M218 435c0-6-5-11-11-11-7 0-12 5-12 11 0 6 5 12 12 12 6 0 11-6 11-12z m161 6c0 2-1 3-2 4-1 1-3 2-4 2 0 0-1 0-1 0l-81-18c-2 0-4-2-4-5l-54 0c2 3 2 7 2 11 0 16-12 29-28 29-16 0-29-13-29-29 0-6 2-11 4-15-36-12-54-46-55-48-2-6 0-13 5-16 2-1 4-1 6-1 4 0 8 3 10 6 0 1 20 40 59 40l5 0 0-20c-23-7-40-29-40-55l0-143c0-6 5-11 12-11l91 0c7 0 12 5 12 11l0 143c0 28-20 51-46 57l0 18 46 0c0-3 2-5 4-6l81-17c0 0 1 0 1 0 1 0 3 0 4 1 1 1 2 3 2 5z"/>
<glyph glyph-name="spl-firstaid" unicode="&#41;" d="M189 451l0-19c26 0 22-1 22 8 0 7-1 17 4 22 5 4 9 2 16 2l17 1c9 0 20 0 29-1 4 0 18 3 19-7 1-3 1-5 1-8 0-3 0-6 0-9 0-9-4-8 22-8 0 22 4 40-19 51-4 2-8 3-14 3l-65 0c-14 0-25-9-29-20-2-4-3-9-3-15z m-75-69l0-121c0-19 14-33 29-33 7 0 12 0 20 0l184 0c7 0 12 0 19 0 14 0 28 15 28 32l0 128c0 11-2 16-7 23-4 5-15 11-20 11l-198 0c-5 0-9-1-13-1-11 0-20 2-28-5-7-5-12-12-13-21-1-4-1-8-1-13z m129-46l-21 0 0-22 21 0 0-22 22 0 0 22 22 0 0 22-22 0 0 21-22 0z m10 53c37 0 66-29 66-66 0-36-29-66-66-66-36 0-66 30-66 66 0 37 30 66 66 66z"/>
<glyph glyph-name="spl-restroom-female" unicode="&#42;" d="M233 359c0-4-20-61-21-67l22-1c0-21 0-46 0-67 0-7 3-13 11-12 7 1 9 6 9 13 0 14-1 51 0 62 0 3 0 3 2 4 1-3 1-54 1-65 0-19 19-17 20-2 0 22-1 45 0 67l22 0-14 52c-1 3-5 15-4 17 2 0 1 0 2-1l5-18c3-7 5-15 8-21 5-11 13-5 14 0 2 8-8 33-11 42-2 7-4 14-6 20-3 8-5 13-11 16-5 2-21 1-27 1-7 0-18 1-24-2-7-4-8-9-11-17-4-13-9-27-13-40-2-5-7-16-5-21 0-4 4-6 8-5 8 3 14 28 18 37 1 3 1 8 5 8z m20 87c-9-3-20-13-17-27 3-9 14-20 27-16 9 3 20 13 17 26-3 10-14 21-27 17z m-90 17l186 0c15 0 26-12 26-27l0-213c0-15-11-26-26-26l-186 0c-15 0-26 11-26 26l0 213c0 15 11 27 26 27z"/>
<glyph glyph-name="spl-restroom-male" unicode="&#43;" d="M257 291c2-3 1-26 1-31 0-10 0-21 0-32 0-6 1-13 8-15 2-1 5-2 7 0 9 3 8 12 8 23l0 123c0 3 0 2 2 3 4-8-6-55 11-47 4 2 5 10 5 15 0 6 1 56 0 60-2 4-6 8-11 9-7 1-30 0-39 0-17 0-27 3-34-7-4-5-2-28-2-37 0-8-1-33 2-39 2-4 10-4 12 1 3 6 1 40 2 43 0 2 1 3 2 1 1-2 0-113 0-131 0-7 0-12 5-16 4-3 12-2 16 1 4 4 3 10 3 17l0 40c0 5-2 17 2 19z m-5 156c-10-2-21-13-19-26 1-10 13-21 26-18 10 2 21 13 18 25-2 10-13 21-25 19z m-89 16l186 0c15 0 26-12 26-27l0-213c0-15-11-26-26-26l-186 0c-15 0-26 11-26 26l0 213c0 15 11 27 26 27z"/>
<glyph glyph-name="staircase" unicode="&#44;" d="M145 372c0-4 0-6 3-9 4-5 14-5 18 3 2 4 4 8 6 12 2 4 11 21 12 24l26 0c-3-7-9-20-13-26-2-4-12-23-12-26 0-7 5-9 10-11 12-6 26-15 38-20 2-1 3-2 4-3l15-8c1-1 3-2 5-2 0-10 0-19 0-29 0-6-1-10 1-13 7-11 21-5 21 5l0 43c0 8-9 12-18 17l-21 14 12 25c2 4 7 11 8 15 3-2 28-28 31-30 6-5 11-1 21 3 7 2 34 10 37 13 8 9 0 19-6 19-11 0-36-13-43-13l-25 25c-3 3-5 6-9 8-1-1-1-1-3-3-4-3-4-4-7-7-4-3-8-8-11-9l2 20c0 2 0 5 0 7-3 2-16 8-19 8l-53 0c-5 0-8-7-10-10-3-7-20-39-20-42z m191-80l0-18-37 0c-6 0-9-4-9-9l0-18-37 0c-3 0-7-4-7-7l0-17c0-5 3-8 8-8l121 0c4 0 7 3 7 7l0 71c0 4-3 7-6 7l-33 0c-3 0-7-3-7-8z m-234 42c0-7 4-7 10-11l26-13c14-8 17-12 25 4 0 2 1 3 2 5 2 3 9 15 9 19 0 2-1 4-3 5l-39 21c-4 3-7 5-12 3-3-1-10-16-13-21-1-2-5-9-5-12z m57-81c0-6 1-10 8-12 5-2 9 1 12 4l28 28c5 5 4 7 4 14 0 12 0 24 0 36-3 1-15 7-18 8-3 2-4 3-4-1 0-5 1-42-1-44l-22-22c-2-2-7-7-7-11z m83 188c0-6 2-10 4-14 2-3 6-7 9-8 10-5 21-3 29 4 10 9 9 28-1 35-3 2-3 3-7 5-17 7-34-7-34-22z"/>
<glyph glyph-name="storeroom" unicode="&#45;" d="M137 222l0-4 13 0 0 4-4 0 0 11 2 0 0 7 103 0 0-7 1 0 0-11-4 0 0-4 13 0 0 4-4 0 0 11 2 0 0 7 106 0 0-7 1 0 0-11c0 0-2 0-2 0-1 0-2 0-2 0l0-4 6 0 4 0 3 0 0 4-4 0 0 11c1 0 1 0 1 1l0 192-7 0 0-6-7 0 0 42-44 0-1-42-2 0 0 42-44 0 0-42-8 0 0 6-8 0 0-6-4 0 0 42-44 0 0-42-3 0 0 42-44 0-1-42-7 0 0 6-8 0c0-32 0-64 0-96l0-73c0-8 0-16 0-24l0 0c0 0 1 0 1 0l0-11z m31 110c0-1 0-1 1-1 1 0 1 1 2 0 1 0 0 0 1 1 1 0 1-1 2-1 0 0 1 1 1 1 1-1 1-1 2-1 1 1 0 1 1 0 1 0 1 0 2 1l0 11-12 0z m158 0c2-2 1 0 3-1 1 0 0 0 1 1 1 0 1-1 2-1 0 0 1 1 1 1 1-1 1-1 2-1 1 1 0 1 1 0 1 0 1 0 2 1l0 11-12 0z m-47 0l1-1c0 0 1 1 1 1 1-1 1-1 2-1 1 1 0 1 1 0 1 0 1 0 2 1 0 0 1-1 1-1 1 0 1 1 1 1 1 0 1-1 1-1 1 0 1 0 2 1l0 11-12 0z m-64 0c0-1 0-1 1-1 1 0 0 1 2 0 1 0 0 0 1 1 1 0 1-1 2-1 0 0 0 1 1 1 1-1 1-1 2-1 1 1 0 1 1 0 1 0 1 0 2 1 0 3 0 8 0 11l-12 0z m125-25l6 0 0 5-6 0z m-166 0l6 0 0 5-6 0z m-8 0l6 0 0 5-6 0z m47 0l6 0 0 5-6 0z m8 0l6 0 0 5-6 0z m111 0l6 0 0 5-6 0z m-150 0l6 0 0 5-6 0z m95 0l6 0 0 5-6 0z m47 0l6 0 0 5-6 0z m-95 0l6 0 0 5-6 0z m56 0l6 0 0 5-6 0z m8 4l0-4 6 0 0 1 0 3 0 1-6 0z m-14 136c1-2 1 0 2 0 1 0 1-1 2 0 1 0 0 0 1 0 1-1 0-1 1 0 1 0 1 0 2 0 1-1 0 0 1 0 1 0 1 0 2-1l1 1 0 11-12 0z m47 0c0-1 0-1 1 0 2 0 1 0 2-1 2 1 1 1 3 0 2 1 1 0 2 0 1 0 1 1 1 1 1 0 1 0 2-1l1 1 0 11-12 0z m-157-1c0 1 1 1 1 1 1 0 1-1 1-1 1 0 1 1 1 1 1 0 1 0 2-1 1 1 0 1 2 0 1 1 1 1 2 1 1-1 1-1 2 0l0 11-12 0c-1-2 0-7 0-9 0-2-1-2 1-3z m46 1c1-2 1 0 3 0 1-1 0-1 1 0 1 0 1 0 2-1 0 0 0 1 1 1 1 0 1-1 2 0 2 1 0-2 3 0l0 11c-2 1-11 1-12 0z m-49-25l6 0 0 6-6 0z m8 0l6 0 0 6-6 0z m39 0l6 0 0 6-6 0z m127 0l6 0 0 6-6 0z m-119 0l6 0 0 6-6 0z m-39 0l6 0 0 6-6 0z m111 0l6 0 0 6-6 0z m39 0l6 0 0 6-6 0z m-8 0l6 0 0 6-6 0z m-47 0l6 0 0 6-6 0z m-48 0l6 0 0 6-6 0z m56 0l6 0 0 6-6 0z m47-57l6 0 0 6-6 0z m-166 0l6 0 0 5-6 1z m111 0l6 0 0 5-6 1z m-56 0l6 0 0 5-6 1z m-39 0l6 0 0 5-6 1z m111 0l6 0 0 6-6 0z m-119 0l6 0 0 5-1 1-4 0-1-1z m166 0l6 0 0 5-6 1z m-127 4l0-4 6 0 0 5-6 1z m111-4l6 0 0 6-6 0z m-95 0l6 0 0 6-6 0z m56 0l6 0 0 6-6 0z m-6 25c1-1 1-1 2 0 1 0 0-1 2 0 1 0 1-1 2-1 0 1 0 1 1 1 1 0 1-1 1-1 1 0 1 1 1 1 2-1 2-1 3 0l0 11-12 0z m47 0c1-1 0-1 2 0 0 0 1-1 1-1 1 0 1 1 1 1 1 0 1-1 2-1 0 0 0 1 1 1 1 0 0-1 1-1 1 0 1 1 1 1 2 0 1-1 3 0l0 11-12 0z m-111 0c2-2 1 1 3-1 1 0 0 1 1 1 1 0 1-1 2-1 1 0 0 1 1 1 2-1 1-1 2 0 1 0 1-2 3 0l0 11-12 0z m-47 10l0-10c1-1 1-1 2 0 0 0 1 0 1-1 1 0 1 1 1 1 1 0 1-1 2-1 0 0 0 1 1 1 1 0 1-1 1-1 1 0 1 1 2 1 1-1 0-1 2 0l0 11-12 0z m91-37l8 0 0 42 34 0 0-42 2 0 0 42c1 0 7 0 8 0l0-42 3 0-1 42 35 0 0-42 2 0 0 42 8 0 0-42 7 0 0 50-106-1z m-111 47l0-47 8 0 0 42 34 0 0-42 2 0c0 2 0 10 0 13l0 29 8 0 0-42 3 0 0 42 34 0 0-42 2 0 0 42 8 0 0-42 4 0c0 2 0 40 0 42l0 7-103 0z m111-97l0-8 7 0c1 2 1 14 1 16l0 26 34 0c0-5 0-13 0-19l0-21c0-1 0-1 0-1l0-1 2 0 0 42 8 0 0-42 2 0c1 2 0 5 0 8l0 34c7 0 15 0 21 0l14 0 0-42 2 0c0 2 0 35 0 42l8 0 0-20c0-6 0-17 0-22l6 0c1 16 1 34 1 50l-106 0z m-111 41l0-49 8 0c0 4 0 14 0 17l0 25 34 0 0-42 2 0 0 42 8 0 0-42 3 0c0 4 0 12 0 16l0 26c11 0 23 0 34 0l0-42 2 0c0 11 0 22 0 32 0 2 0 3 0 5l0 5 8 0c0-13 0-28 0-41l0-1 4 0 0 50c-34 0-69 0-103 0z m18-105l5 0 0 6-5 0z m8 0l5 0 0 6-5 0z m7 0l6 0 0 6-6 0z m32 0l6 0 0 6-6 0z m7 0l6 0 0 6-6 0z m8 0l6 0 0 6-6 0z m-14 25c2-1 1 1 3 0 1-1 0 0 1 0 1 0 1 0 2 0 1 0 1 0 1 0 2 0 1-1 2 0 1 0 1 0 2 0 0-1 0 0 1 0l0 12-12 0z m-47 0l1 0c1 0 1 0 2 0 0 0 0-1 1 0 1 0 0 0 1 0 1 0 0-1 2 0 1 0 0 0 1 0 1-1 1 0 1 0 2 1 1-1 3 0l0 12-12 0z m62 16c1 1 0 4 0 5 2 0 6 0 7 0 0-1 0-4 0-5l0 0c0 0 0 0 1 0 0-5-1-41 0-42l1 0 0 42 8 0 0-42 5 0 0 49-103 0 0-49 7 0 0 42 35 0 0-42 1 0 0 42 8 0 0-42 3 0 0 42z m96-16c2-1 1 1 3 0 1-1 0 0 1 0 1 0 1 0 2 0 1 0 1 0 2 0 1 0 0-1 1 0 2 1 1-1 3 0l0 12-12 0z m-1-25l5 0 0 6-5 0z m7 0l6 0 0 6-5 0z m8 0l6 0 0 6-6 0z m-62 0l6 0 0 6-6 0z m7 0l6 0 0 6-6 0z m8 0l6 0 0 6-6 0z m-14 25c2-1 1-1 2 0 1 0 1-1 2 0 2 1 1-1 2 0 2 0 0 0 3 0 1 0 0 0 1 0 1-1 1 0 2 0l0 12-12 0z m-19-26l7 0 0 42 34 0 0-42 2 0 0 42 8 0 0-42 3 0 0 42 35 0 0-42 1 0 0 42 8 0 0-42 8 0 0 49-106 0z"/>
<glyph glyph-name="waitingroom" unicode="&#46;" d="M177 363c-1-11 3-25 4-36 3-21 5-48 10-68 0-1 0-3 1-4 1-2 1-2 2-3 5-12 12-13 20-16 2-1-1-1 2-1l79-5-6-84c-1-24 36-30 39 1l6 101c1 16-3 20-9 26-2 2-2 2-4 3-4 3-5 3-12 4-21 1-38 3-58 4-2 10-6 45-7 53l-4 25c-5 38-48 35-59 13-2-3-4-9-4-13z m-34-23c0-3 1-8 1-11l4-28c0-3 1-2 1-5 6-35 1-64 36-87 6-5 16-8 26-9l54-4c14 0 23 14 12 26-4 4-3 4-12 5-14 0-51 1-62 7-15 7-18 18-20 33l-2 10c-2 9-7 63-10 70-5 11-27 11-28-7z m31 95c-1-11 3-20 8-26 8-10 16-11 29-12 4-1 10 1 13 2 4 2 7 4 10 7 10 9 14 26 9 39-1 2-2 4-3 6-10 15-29 20-43 14-4-1-8-3-11-6-7-6-11-15-12-24z"/>
<glyph glyph-name="phone" unicode="&#47;" d="M42 501c-9-6-22-20-29-33l-13-22 0-374 13-22c8-14 22-28 36-36l22-13 369 0 22 13c14 8 28 22 36 36l13 22 0 374-13 23c-7 12-21 26-30 32-17 10-24 11-213 11-190 0-196-1-213-11z m152-107c12-7 33-45 33-57 0-9-7-21-18-31-10-10-18-23-18-29 0-27 62-95 87-95 6 0 20 7 30 15 13 12 21 15 29 13 16-5 43-27 54-42 8-14 8-14-14-33-32-29-71-33-117-12-30 14-101 87-118 122-27 55-23 102 11 135 18 18 30 22 41 14z"/>
<glyph glyph-name="plus" unicode="&#58;" d="M50 499c-13-7-28-23-35-35l-13-22 0-377 13-22c7-12 20-27 30-32 16-10 24-11 210-11 187 0 195 1 211 11 10 5 23 20 30 32l13 22 0 377-13 22c-8 13-22 28-35 35l-22 13-368 0z m243-154l1-58 58-1 57-2 0-66-57-2-58-1-3-115-66 0-2 57-1 58-58 1-57 2 0 66 58 2 57 1 0 56c0 30 2 56 4 58 2 2 17 3 35 2l30-1z"/>
<glyph glyph-name="sign-out" unicode="&#59;" d="M48 499c-13-7-28-23-35-35l-13-22 0-367 13-22c7-13 22-27 35-35l22-13 367 0 22 13c13 8 27 22 35 35l13 22 0 367-13 22c-8 13-22 28-35 35l-22 13-368 0z m176-111c-1-11-4-12-45-13-36-1-45-4-55-13-11-10-11-13-11-101 0-87 0-91 11-101 10-9 19-12 55-13 41-1 44-2 45-12 2-12 1-12-44-12-39 0-48 1-63 12-25 17-29 35-29 126 0 91 4 110 29 127 15 10 24 11 63 11 45 0 46 0 44-11z m145-63l64-64-64-64c-36-35-68-64-73-64-7 0-9 6-10 37l-2 37-55 2-55 1 0 102 55 1 55 2 2 37c1 31 3 37 10 37 5 0 37-29 73-64z"/>
<glyph glyph-name="sign-in" unicode="&#60;" d="M59 504c-23-12-44-33-52-52-9-21-10-366-1-389 7-19 34-47 54-56 23-10 368-10 392 0 23 9 54 45 57 66 2 9 3 97 2 197-2 202 0 189-42 224l-19 15-188 2c-163 1-190 0-203-7z m335-149c21-15 26-37 26-112 0-106-9-120-80-120-33 0-43 1-45 8-2 6 4 7 40 7 65 0 64-1 64 105 0 105 0 105-65 105-35 0-41 1-39 8 5 11 82 11 99-1z m-104-55l60-57-61-57c-34-32-64-58-67-58-4 0-7 12-8 35l-2 34-52 2-52 1 0 86 52 2 52 1 2 35c1 27 3 35 9 33 3-1 34-26 67-57z"/>
<glyph glyph-name="cancel" unicode="&#61;" d="M48 499c-13-7-28-23-35-35l-13-22 0-372 13-22c7-13 22-28 35-35l22-13 367 0 22 13c13 7 27 22 35 35l13 22 0 372-13 22c-8 13-22 28-35 35l-22 13-368 0z m157-159l54-53 53 53c34 34 58 54 65 54 5 0 16-5 22-13l13-13-118-117 54-53 53-54-14-18c-8-10-16-18-18-18-1 0-26 23-54 51-28 28-53 51-56 51-3 0-29-24-58-52l-53-53-17 18-18 17 54 56 56 55-56 55-54 55 16 17c9 9 18 16 19 16 2 0 27-24 57-54z"/>
<glyph glyph-name="extend" unicode="&#62;" d="M42 499c-11-7-26-20-31-30-10-16-11-24-11-213 0-190 1-197 11-213 5-10 20-23 32-30l22-13 377 0 22 13c13 7 28 22 35 35l13 22 0 372-13 22c-7 13-22 28-35 35l-22 13-378 0z m146-93c-10-11-19-22-19-25 0-3 19-24 43-48l44-44 44 44c24 24 43 45 43 47 0 2-8 11-18 20-10 9-18 18-18 20 0 3 25 5 56 5l56 0 2-58c1-64 0-66-26-37-7 7-16 13-19 13-6 0-84-79-84-86 0-2 19-23 43-47l44-43 19 19c11 10 21 19 22 19 1 0 2-27 2-59l0-59-57 0c-32 0-58 2-58 4 0 2 9 12 19 23l19 19-44 45-45 45-45-45-44-45 19-19c10-11 19-21 19-23 0-2-25-4-57-4l-56 0 0 120 41-40 44 43c24 24 43 44 43 47 0 5-84 86-90 86-4 0-12-7-19-15-7-9-14-16-16-16-1 0-3 26-3 57l0 56 115 0z"/>
<glyph glyph-name="registered" unicode="&#63;" d="M48 499c-13-7-28-23-35-35l-13-22 0-372 13-22c7-13 22-28 35-35l22-13 367 0 22 13c13 7 27 22 35 35l13 22 0 372-13 22c-8 13-22 28-35 35l-22 13-368 0z m276-64c31-12 70-41 87-65 28-40 36-67 36-117 1-44 0-49-18-85-85-172-338-134-367 55-23 146 122 264 262 212z m-125-22c-68-25-107-78-111-150-3-55 7-85 41-122 37-41 72-57 124-57 71 1 122 33 153 94 14 30 16 39 16 75 0 34-3 47-13 70-16 33-49 67-81 83-28 14-100 18-129 7z m111-71c30-14 36-53 13-77-18-17-19-19-9-19 12 0 15-9 19-47l3-35-17 0c-16 0-16 0-19 30-3 15-5 31-6 34-2 7-26 13-54 13l-20 0 0-77-33 0 0 184 55 0c31 0 60-2 68-6z m-90-50l0-31 27 0c37 0 52 9 54 31 3 23-9 31-49 31l-32 0z"/>
<glyph glyph-name="envelope" unicode="&#64;" d="M48 494c-13-8-28-23-35-35l-13-22 0-372 13-22c7-12 20-27 30-32 16-10 24-11 210-11 187 0 194 1 211 11 10 5 23 20 30 32l13 22 0 372-13 22c-8 13-22 27-35 35l-22 13-368 0z m354-147c-73-53-133-91-143-91-7 0-28 11-47 24-54 36-120 84-120 87 0 1 76 2 170 2l170 0z m43-114l0-100-185 1-186 2 2 94c1 53 3 96 3 97 1 1 37-22 79-51 43-28 83-53 90-55 16-7 39 4 123 63 40 27 72 49 73 49 1 0 1-45 1-100z"/>
<glyph glyph-name="repeat" unicode="&#91;" d="M475 439l0-128c0-5-1-9-5-13-4-4-8-5-13-5l-128 0c-8 0-13 3-17 11-3 7-2 14 4 20l40 39c-28 26-62 39-100 39-20 0-39-4-57-11-18-8-33-18-46-32-14-13-24-28-32-46-7-18-11-37-11-57 0-20 4-39 11-57 8-18 18-33 32-46 13-14 28-24 46-32 18-7 37-11 57-11 23 0 44 5 64 15 20 9 38 23 51 42 2 1 4 3 7 3 3 0 5-1 7-3l39-39c2-2 3-3 3-6 0-2-1-4-2-6-21-25-46-45-76-59-29-14-60-20-93-20-30 0-58 5-85 17-27 12-51 27-70 47-20 19-35 43-47 70-12 27-17 55-17 85 0 30 5 58 17 85 12 27 27 51 47 70 19 20 43 35 70 47 27 12 55 17 85 17 28 0 55-5 81-15 26-11 50-26 70-45l37 37c6 6 12 7 20 4 8-4 11-9 11-17z"/>
<glyph glyph-name="ticket" unicode="&#93;" d="M142 257c14 8 30 15 45-1 15-17 11-29 1-45 31-27 30-43 68-4l118 117c39 39 21 39-5 68-14-8-30-15-45 1-14 16-11 29 0 45-31 27-30 43-69 4l-117-117c-8-7-24-19-22-36 1-10 20-25 26-32z m139 159c-17 0-32-22-50-40-79-80-79-65-47-97 6-6 43-45 47-46 10-2 39 31 49 41 101 102 77 53 1 142z m-99-115l50-50c8 5 93 89 97 97l-50 49c-8-4-92-88-97-96z"/>
<glyph glyph-name="elevator" unicode="&#94;" d="M209 386c-9 0-17-8-17-18l0-42c0-8 12-8 12 0l0 38 3 0 0-106c0-11 15-11 15 0l0 62 3 0 0-62c0-11 16-11 16 0l0 106 3 0 0-38c0-8 11-8 11 0l0 42c0 9-7 18-17 18z m28 17c0-7-6-13-13-13-8 0-14 6-14 13 0 7 6 13 14 13 7 0 13-6 13-13z m125 42l-212 0c-4 0-6-2-6-6l0-212c0-4 2-6 6-6l212 0c4 0 6 2 6 6l0 212c0 4-2 6-6 6z m-70-212l-136 0 0 200 136 0z m55 58l-14-15c-1-1-2-1-3-1-1 0-2 0-3 1l-14 15c-1 1-2 2-1 4 0 1 2 2 3 2l9 0 0 14c0 3 3 6 6 6 3 0 6-3 6-6l0-14 9 0c1 0 3-1 3-2 1-2 0-3-1-4z m-2 78l-9 0 0-14c0-3-3-6-6-6-3 0-6 3-6 6l0 14-9 0c-1 0-3 1-3 3-1 1 0 3 1 4l14 14c2 2 4 2 6 0l14-14c1-1 2-2 2-3 0-2-2-4-4-4z"/>
<glyph glyph-name="graduation" unicode="&#95;" d="M166 333l0-1c0-1 0 0 0-1l1-4 1-1c3-3 4-5 8-8 11-7 24-10 37-13 33-6 86-5 116 10 7 3 15 9 17 16 0 3 0 28 0 33l-55-13-7-2-3-1c-7-2-13-4-19-5-1 0-2 0-3 0-10 0-11 1-16 2l-8 2c-6 2-11 3-17 4-6 2-12 3-18 5-5 1-30 8-33 9-1-1-1 1-1-4l0-12c0-5 0-11 0-16z m-50 60l0-3c1-1 0-2 2-3l11-3c39-12 78-22 117-32 7-2 10-2 16-1l60 16c10 2 20 5 30 7l0-71c-10-3-14-21-1-28-1-2-3-9-5-13-2-7-4-8 1-12l20 0c1 1 1 1 1 1 1 1 1 0 2 1 2 5-5 15-6 24 4 1 8 8 8 15-1 6-6 11-11 12l0 73c1 1 23 6 27 7 6 2 5 1 8 5l0 2c-2 4-2 3-7 5-19 6-39 12-59 17-12 3-23 7-35 9l-35 9-6 0c-1 0-7-1-10-2-3 0-5-1-8-2-6-1-12-3-18-4-23-6-47-12-70-18-6-1-12-3-17-5-3 0-6-1-9-2-6-2-4-1-6-4z"/>
<glyph glyph-name="parking" unicode="&#96;" d="M200 240l32-1 0 56c20 1 43-2 60 5 52 21 42 104-13 109l-79 1z m32 132l0-45 34 0c22 0 36 19 25 39-10 17-35 14-59 12z m24 83c72 0 130-59 130-130 0-72-58-130-130-130-72 0-130 58-130 130 0 71 58 130 130 130z"/>
<glyph glyph-name="carnegie-mellon" unicode="&#123;" d="M147 450l218 0 0-234-218 0z m177-214c9-1 5 2 6-14l14 0 0 78-14 0c-6-79-108-111-108 7 0 42-6 128 47 128 32 0 59-41 61-71l10 0 0 75c-18-2-10-7-16-7-12 0-82 41-127-19-73-96-3-246 127-177z"/>
<glyph glyph-name="construction" unicode="&#124;" d="M260 458c-36-14-14-60 16-50 35 12 13 61-16 50z m-37-264c9-4 148-2 172-2l-1 6c-7 5-4 6-14 9-1 0-4 1-4 1-6 2-2 1-4 2 0 0-6 5-7 5-10 12 0 24-25 22-8 11-8 17-20 19-16 2-22-6-28-13-9 4-27 20-37 27-12 10-23 19-35 29 3 9 17 32 21 41 11 20 19 23 4 44-14 19-19 32-32 33-14 1-52 3-62-2-12-8-10-34-16-47-7 2-7 6-11 5-12-3 9-12 16-27-11-11-12-8-12-28 0-15 0-29 0-44 0-20-16-56-13-70 2-12 19-14 25-4l18 68c2 13 0 28 1 42 12-13 22-26 33-40-7-14-14-31-22-46-4-7-10-16-6-24 4-8 16-10 23-2 5 5 20 36 24 45 24 45 8 28 4 48 7-3 55-44 65-52-3-3-15-15-16-16-5-3-4 0-9-5-5-4-3-8-7-10-17-5-16-1-25-14z m-40 135c4-6 11-9 17-13 4 9 10 17 13 26z m-24 38c7 3 21 17 24 23l-18 0z"/>
<glyph glyph-name="costumes" unicode="&#125;" d="M324 321l3 0c1-8 3-59 10-61 8-2 53 1 62 7 2 12-9 99-19 119-39-9-79-3-110 1-9-15-21-116-18-120 2-3 48-12 62-8 6 2 7 51 10 62z m-193 119c0 4-4 4-4 0 0-46-11-57-11-78 0-16 18-30 19-59 1-33-16-54-16-54 0 0 41-17 56-56l16 0c15 39 56 56 56 56 0 0-17 21-16 54 1 29 19 43 19 59 0 21-11 32-11 78 0 4-4 4-4 0 0-29-18-56-52-56-34 0-52 27-52 56z"/>
<glyph glyph-name="family-rides" unicode="&#126;" d="M204 257c-2 3-9 8-11 10-9 8-22 24-29 33-18 24-27 51-28 53l-19 0c2-18 19-43 33-58 13-14 30-29 54-38z m-8-12l0-20 82 0 0 20c6 5 32 9 59 41 2 3 4 5 7 8 4-2 7-7 18-10 9-3 19-2 27 2 33 13 32 58 4 73-14 7-37 5-55 5-19 0-228 1-240 0 8-35 36-83 63-100 3-1 5-3 7-5 6-4 16-9 23-12z m159 66c6-13 29-14 38 1 5 11 4 32-23 33-1-8-11-26-15-34z m-47 94c2 3 5 10 9 11 7 3 12-2 13-7 0-8-8-16-12-20-3-3-3-3-6-5l2-17c4-1 29-1 33 0 1 15-2 38-9 48-12 15-34 11-30-10z m-181-38l34 0 1 17c-3 2-3 2-6 5-1 2-3 3-5 5-15 20 0 25 6 22 4-1 5-5 9-11 5 18-16 28-29 10-8-11-10-32-10-48z m82 1c3-2 52-1 53-1 0 8-8 1-7 15l-35 0c0-7-2-9-7-11-5-2-3 1-4-3z m109 47c-5-2-4-4-7-8-5-9-16-15-26-17-11-3-34 0-28-14 5-10 41 0 54 9 21 15 20 35 7 30z m-167 0c-14-5 5-25 16-32 8-5 34-14 46-11 6 2 9 15-5 15-9 0-16 1-24 4-12 4-18 10-23 20-2 3-5 5-10 4z m142 47c-26-5-20-46 8-41 27 5 20 47-8 41z m-121 0c-27-6-17-47 10-41 10 3 18 13 15 26-2 9-12 18-25 15z"/>
<glyph glyph-name="gents-change-room" unicode="&#92;" d="M283 488c-15-3-28-17-24-36 2-15 18-28 36-24 15 3 27 18 24 36-3 15-18 28-36 24z m-38-114l6 0c0-71 0-143 0-214 0-8 0-16 4-23 3-5 10-9 19-6 14 4 11 27 11 42 0 35 1 71 0 106l7 1c0-36 0-71 0-107 0-16-2-37 12-42 8-3 16 0 19 6 4 6 4 15 4 23 0 71-1 142 0 214l6 0c0-13-1-74 0-82 5-18 22-13 24-7 2 5 1 33 1 40 0 19 3 63-4 78-10 20-38 18-65 18-26 0-53 2-64-17-8-15-5-58-5-77 0-9-1-33 1-40 1-5 6-8 13-7 6 1 9 5 10 11 2 7 1 71 1 83z m-119-24l77 0 0-7 4 0c2 0 4 2 4 5 0 1 0 3-2 3l-40 19c-1 0-1 1-1 2 0 1 1 2 2 2 1 0 1 0 1 0l40-18c3-2 5-5 5-8 0-6-4-10-9-10l-4 0 0-41-77 0 0 41-6 0c-5 0-9 4-9 10 0 3 2 6 5 8l51 24c0 0 1 0 1 0 1 0 2-1 2-2 0-1 0-2-1-2l-51-25c-2 0-2-2-2-3 0-3 2-5 4-5l6 0z m29 50c2 0 3 1 3 2 0 3 2 6 5 6 4 0 6-3 6-6 0-3-2-6-6-6-1 0-2-1-2-2l0-3c0-2 1-3 2-3 2 0 3 1 3 3l0 1c5 1 8 5 8 10 0 6-5 11-11 11-5 0-10-5-10-11 0-1 1-2 2-2z m12-12l-9-5c-1 0-2-1-2-2 0-1 2-2 3-2 0 0 1 0 1 0l9 5c1 0 1 1 1 2 0 1-1 2-2 2 0 0-1 0-1 0z"/>
<glyph glyph-name="information-desk" unicode="&#57344;" d="M251 460c-45-7-35-74 10-68 18 3 32 19 29 39-3 17-19 32-39 29z m-36-127l83 0c-2 17 1 24-8 37-8 10-21 11-34 11-13 0-25-1-34-11-8-11-7-21-7-37z m-88-32c11-3 169-1 194-1 13 0 54-2 64 1 2 4 3 10 4 15 1 9-2 11-9 11-14 0-28 0-41 0-28 0-56 0-83 0l-122 0c-8 0-12-1-11-10 1-5 2-13 4-16z m239-7l-220 0c2-16 4-31 6-47 7-62-4-55 50-55l133 0c25 0 19 3 25 54 2 16 4 32 6 48z m-113-8c-16-5-8-27 7-23 14 5 8 27-7 23z m-16-43l9 0 0-27-9 0 0-10 38 0 0 10-9 0 0 27 9 0 0 10-38 0z"/>
<glyph glyph-name="kids-rides" unicode="&#57345;" d="M301 348c-5-1-8-4-2-9 0 0 0-1 0-1-2-4-2-4-5-6 1-10 6-23 9-33 1-5 4-13 3-18-1-6-5-11-10-12-16-3-17 12-21 22-3 11-6 23-9 34-5 3-37 7-44 7-11-2-7-6-20-5-49 8-45-49-76-37-2 1-5 2-7 2 0 0-1 0-1 0-11-3 20-43 39-16 3 4 5 7 8 11 3 4 5 7 9 10 8 6 14 10 26 13-3-9-5-9-2-21 1-7 4-15 5-22-4-2-13-7-17-9-5-3-4-1-10-1-4 0-6-1-9-5 3-8 21-35 25-38l-1-7-8-3 3-16c1 1 12 7 12 8 3 3 3 14 4 18 1 5 1 4-2 8-2 4-11 18-11 20 10 2 31 3 39 7 3 2 12 6 14 8 3 4 5 10 9 14l31 1c3-8 5-13 14-13 11 0 12 6 15 12 2-1 4-3 5-5 2-2 4-4 5-6 13 2 4 4 25-1 6-1 22-4 26-6l-11-14c-5-6-9-6-19-6-2-2-8-11-9-13 18 1 9-5 28 4 5 2 4 2 6 5 6 8 15 18 20 26-5 12-6 11-18 16-4 1-8 3-12 4-5 2-5 5-8 9 0 2-5 10-6 11 0 1 8 39 10 43 0 1 0 1 0 3l16 0c5-4 8-9 14-13 11 2 16 10 12 21-4 9-8 16-13 23-6 10-8 11-19 17-7 4-15 19-18 16l-1-1c0 0 0-1 0-1-2-4 1-7 0-13-9 0-24-2-32-6-3-2-7-6-2-8 2-1 3-1 6-2-3-1-8-2-10-4-5-4 0-7 4-8-4-3-8-2-10-7 2-4 3-3 6-5z m66 26c3 0 6-3 6-6 0-3-3-6-6-6-4 0-6 3-6 6 0 3 2 6 6 6z m-110-19l0 18c-6 3-20 19-20 31 1 7 8 12 15 9 6-3 4-11 10-17 5 18-6 33-23 24-19-11-26-71-11-84 6-4 25-6 33-8 7-1 6 0 8-7l12-42c5-13 29-12 22 12-4 15-8 29-12 43-2 8-3 14-11 16-7 2-18 2-23 5z m-12 56c-14-4 2-25 9-33 6-7 28-17 42-13 7 2 7 14-1 15-9 2-26-1-37 18-3 6-4 16-13 13z m25 53c-11-3-20-13-18-26 5-29 49-22 44 7-2 11-12 21-26 19z"/>
<glyph glyph-name="ladies-change-room" unicode="&#57346;" d="M299 474c-36-8-23-63 13-54 13 3 24 17 20 34-3 13-16 25-33 20z m-33-103l5 0-29-118 29 0c0-19 0-39 0-59 0-16-4-44 15-45 20 0 16 26 16 45 0 19-1 40 0 59l6 0c1-19 0-39 1-59 0-16-5-44 15-45 20 0 16 25 16 45 0 19-1 40 0 59l28 0-28 118 5 0c3-16 14-45 18-64 1-4 3-11 6-13 3-3 12-3 15 0 5 5-3 26-5 33-3 10-6 21-9 31-5 20-9 46-28 53-10 4-26 2-38 2-31 0-45 2-55-24-4-10-7-21-10-31-3-11-6-21-9-32-2-7-9-26-4-32 4-3 12-3 16 0 3 2 5 8 6 14 3 10 6 21 9 31 1 5 7 30 9 32z m-140-21l77 0 0-7 4 0c2 0 4 2 4 5 0 1 0 3-2 3l-40 19c-1 0-1 1-1 2 0 1 1 2 2 2 1 0 1 0 1 0l40-18c3-2 5-5 5-8 0-6-4-10-9-10l-4 0 0-41-77 0 0 41-6 0c-5 0-9 4-9 10 0 3 2 6 5 8l51 24c0 0 1 0 1 0 1 0 2-1 2-2 0-1 0-2-1-2l-51-25c-2 0-2-2-2-3 0-3 2-5 4-5l6 0z m29 50c2 0 3 1 3 2 0 3 2 6 5 6 4 0 6-3 6-6 0-3-2-6-6-6-1 0-2-1-2-2l0-3c0-2 1-3 2-3 2 0 3 1 3 3l0 1c5 1 8 5 8 10 0 6-5 11-11 11-5 0-10-5-10-11 0-1 1-2 2-2z m12-12l-9-5c-1 0-2-1-2-2 0-1 2-2 3-2 0 0 1 0 1 0l9 5c1 0 1 1 1 2 0 1-1 2-2 2 0 0-1 0-1 0z"/>
<glyph glyph-name="lockers" unicode="&#57347;" d="M123 298c4 0 7 2 9 4 2 3 2 6 2 11l0 58c0 3 1 4 1 6 0 6-1 12 1 12 3 0 2-6 2-11l0-143c0-10-2-29 3-36 3-2 6-4 9-4l2 0c6 0 12 5 12 11l0 104 6 0 0-103c0-7 5-11 11-12l3 0c3 0 6 2 8 4 6 6 4 24 4 35 0 17-1 33-1 51 0 35 0 70 0 105 2-2 3-4 4-7 1-2 2-3 3-6 3-5 15-30 18-32 4-4 10-3 14 0 2 2 4 3 6 5l26 20c14 11 0 28-14 17l-18-14c-1-1-1-1-3-2-1 3-5 9-7 13-1 4-4 9-6 13-4 8-10 16-23 16l-54 0c-7 0-10-1-15-3-4-2-6-4-8-7-7-9-5-24-5-39 0-6 0-13 0-19 0-8-2-33 0-38 1-6 5-9 10-9z m176 67l0-71c0-1 2-3 2-3 2-1 3-1 5-1l52 0c4 0 7 2 7 7l0 66c0 5-3 7-8 7-8 0-52 1-56-2 0 0-2-1-2-3z m0-99l0-67c0-2 2-4 4-4l57 0c3 0 5 3 5 6l0 62c0 5-3 7-8 7-8 0-52 1-56-1 0 0-2-2-2-3z m0 194l0-67c0-3 4-4 7-4l51 0c5 0 8 2 8 7l0 62c0 3-2 6-4 6l-58 0c-2 0-4-2-4-4z m-87-196l0-64c0-2 2-5 5-5l57 0c1 0 2 2 3 2 1 2 1 3 1 5l0 60c0 6-2 8-8 8l-50 0c-2 0-4 0-5-1-2-1-3-3-3-5z m0 153c7-2 15-18 18-25 2-4 1-3 10-3 1 0 3 2 4 3 8 6 9 7 19 7 7 0 12-6 14-7 1 1 1 3 1 5l0 60c0 2 0 3-1 5-1 1-2 2-3 2l-57 0c-7 0-5-14-5-21 0-9 0-18 0-26z m17-85c0-9 2-17-4-17-6 0-4 9-4 18-4 1-6 5-9 6l0-42c0-5 2-7 7-7l51 0c6 0 8 2 8 8l0 64c0 2 0 4-1 5l-34-27c-4-3-9-8-14-8z m-84 112c0-11 4-19 14-23 2-1 6-2 9-1 6 0 11 2 15 6 9 9 9 22 1 31-4 4-9 7-14 7l-6 0c-2 0-5-1-7-2-3-2-4-3-6-5-3-3-6-7-6-13z m82-195c3 0 5-2 5-4l0-25c0-3-2-5-5-5-3 0-5 2-5 5l0 25c0 2 2 4 5 4z m86 0c3 0 5-2 5-4l0-25c0-3-2-5-5-5-2 0-4 2-4 5l0 25c0 2 2 4 4 4z m-2 100c2 0 5-2 5-5l0-24c0-3-3-5-5-5-3 0-5 2-5 5l0 24c0 3 2 5 5 5z m0 95c2 0 5-2 5-5l0-24c0-3-3-5-5-5-3 0-5 2-5 5l0 24c0 3 2 5 5 5z m-87 0c3 0 5-2 5-5l0-24c0-3-2-5-5-5-2 0-4 2-4 5l0 24c0 3 2 5 4 5z"/>
<glyph glyph-name="lost-and-found" unicode="&#57348;" d="M155 362c1-3 4-4 7-3 3 1 4 4 3 7l-13 28c-1 3 0 6 3 7l50 23c1 0 3 0 4 0 2-1 3-2 3-3l27-59c1-3 3-4 5-4 1 0 1 0 2 1 3 1 4 4 3 7l-27 59c-2 4-5 7-9 9-4 2-9 1-13 0l-50-23c-8-4-12-13-8-22z m10 37c-3 0-6-3-6-6 0-3 3-5 6-5 3 0 5 2 5 5 0 3-2 6-5 6z m212-52l-242 0c-3 0-5-2-5-5l0-99c0-27 22-49 49-49l154 0c27 0 49 22 49 49l0 99c0 3-2 5-5 5z m-117-119c-1-1-3-2-4-2-1 0-3 1-4 2-1 1-1 3-1 4 0 1 0 3 1 4 2 2 6 2 8 0 1-1 1-3 1-4 0-1 0-3-1-4z m1 35l0-9c0-3-2-5-5-5-3 0-5 2-5 5l0 14c0 2 1 4 4 5l1 0c8 2 16 5 16 15 0 9-7 15-16 15-9 0-16-6-16-14-1-3-3-5-6-5-3 0-6 3-5 6 0 14 12 24 27 24 15 0 27-11 27-26 0-12-7-20-22-25z m64 177c0-4 4-7 8-7 3 0 5 4 7 6 1 2 2 4 4 5 4 2 10 0 10-7 0-2-12-19-14-22-1-2-2-3-3-4l-8 5c-4 3-21 16-25 16-1 0-2-3-2-4l-14-52c-2-6-4-12-5-18 20 0 40 0 60 0 8 0 7-2 12 2 3 3 25 19 25 21 0 3-4 5-7 7l-24 15c0 2 1 3 2 4l8 13c6 9 11 15 7 26-3 7-10 13-17 13-11 0-15-4-21-12-1-2-3-4-3-7z"/>
<glyph glyph-name="pram" unicode="&#57349;" d="M127 333c5-49 36-77 77-90 6-2 30-19 33-22-44-31-19-9-45-17-42-14-18-78 23-60 7 4 13 9 16 17 5 12 2 17 0 28 3 3 21 16 26 18l27-18c-3-11-6-16-2-27 10-26 47-28 59-2 9 19-2 37-16 43-19 7-16-10-48 17 2 3 5 5 8 7 10 6 18 14 28 17 46 14 76 53 76 106 0 38-6 57-29 82-12 13-41 33-67 36 13-44 13-71 5-109l-175 3z"/>
<glyph glyph-name="thrill-rides" unicode="&#57350;" d="M177 424c-16-3-11-28 5-24 4 1 6 3 8 5 1 2 2 7 2 10-2 6-8 11-15 9z m43-41l15-2c-2 3-8 9-5 14 2 2 7 5 10-2l3-3c0 17-19 17-23-7z m-69 0l15-1c-1 0-8 8-5 13 1 2 5 3 8 1 1-1 3-4 4-6 0 12-7 14-13 10-6-3-10-14-9-17z m35-4l0-7c2-1 10-2 14-2 5 1 5 8 0 9-5 1-9 0-14 2-15 4-16 13-18 15-5 2-11-3-3-12 2-2 2-3 6-3 4-1 10-1 15-2z m69 0l0-7c4-1 12-2 15-1 5 1 4 8-1 8-12 1-22 2-29 12-1 1-1 4-3 5-5 2-8-3-5-8 5-9 5-7 23-9z m24-23l-25 0 0 22-44 4 0-26-26 0 0 22-43 4 0-26-14 0 0-34c4-1 121 0 128 0 3 0 5 0 8 0 6 0 4-1 14 9 3 3 6 6 8 8 5 5 3 4 13 4 11 0 57 0 64 0 6 11-2 19-7 23-6 5-13 9-21 13-12 5-39 12-55 11z m-129-37l-23 0 0-12c50 0 102 0 152 0 22 0 30 0 49 8 12 5 28 17 32 26l-64 0c-6 0-6 0-13-8l-10-10c-5-5-2-4-11-4-37 0-75 0-112 0z m-9-22l-29 0 0-13 11-1 1-6 27 0 0 6 18 1 0-7 27 0 0 7 18-1 0-6 28 0 0 6 18 1 0-7 27 0 0 7 18 0 0-7 27 0 0 6 18 0 0-6 28 0 0 6 15 1 0 13-105 0c2 3 3 4 4 8l-5 0c-2-3-4-8-11-8-8 0-9 6-11 8l-5 0c0-4 2-5 3-8l-97 0c1 3 3 5 4 9l-6-1c-2-3-3-8-11-8-2 0-5 1-7 2-1 2-2 3-3 5 0 1 0 0-1 1l-5 0c1-4 2-5 4-8z m105 127c-17-4-10-28 5-24 6 1 12 7 10 15-1 6-8 11-15 9z m9-66l16 0c0 2-3 5-5 6-2 2-7 1-11 1z m-69 0l16 0c-1 2-3 5-5 6-3 2-8 1-11 1z"/>
<glyph glyph-name="accounting-services" unicode="&#57351;" d="M203 367c1 0 2 0 3 0-1 0-2 0-3 0z m-4-1c1 0 2 1 3 1-1 0-2-1-3-1z m32-53c0 0 0 1 0 1 0 0 0-1 0-1z m43 31c-1 0-1 0-1-1 0 1 0 1 1 1z m1 2c-1 0-1-1-1-1 0 0 0 1 1 1z m-2-3c0 0-1-1-1-1 0 0 1 1 1 1z m-39-31c-1 1-1 1-1 1 0 0 0 0 1-1z m38 30c0 0 0-1-1-1 1 0 1 1 1 1z m-24-6c1 0 2 0 3 0-1 0-2 0-3 0z m23 5c0-1-1-1-1-1 0 0 1 0 1 1z m-2-1c0 0 0 0-1 0 1 0 1 0 1 0z m-3-1c1 0 2 0 2 0 0 0-1 0-2 0z m-110 72c-1-1-6-1-12-4-11-4-18-13-19-27 0-10 4-17 9-22 6-4 14-6 22-8l0-28c-3 1-6 3-8 5-3 4-3 6-4 10l-20 0c0-11 4-18 9-23 6-5 13-8 23-10l0-10 19 0 0 10c18 3 32 12 33 31 0 7-1 13-5 18-1 1-3 3-4 4-7 5-15 7-24 9l0 25c2 0 5-3 7-5 2-3 1-4 2-8l21 0c0 8-4 17-9 22-3 2-5 4-9 6-4 2-7 3-12 4l0 14-19 0z m0-41l0 23c-2-1-6-3-7-4-2-1-4-4-4-7 0-4 1-7 3-8 2-2 6-3 8-4z m19-48c12 1 17 13 9 20-2 1-6 3-9 3z m187 143l-141 0c-3-2-4-2-6-5-1-2-1-6-1-9 0-7 0-14 0-20 0-14 0-28 0-41l154 0c1 13 0 27 0 40 0 5 1 27-1 30-1 3-3 3-5 5z m-132-56l122 0c1 2 0 36 0 40l-122 0c0-4 0-38 0-40z m-10-165l142 0c4 3 6 1 6 12l0 130-154 0 0-130c0-11 2-9 6-12z m13 130c-9-2-8-13-6-16 2-3 4-4 8-4 7 0 16-2 18 6 2 6 0 14-9 14-3 0-8 0-11 0z m35 0c-3-1-5-3-6-6-2-6 0-14 9-14 6 0 16-2 18 6 1 3 0 8-1 11-2 2-5 3-9 3-3 0-8 0-11 0z m35 0c-9-2-6-14-4-17 2-2 4-3 8-3 3 0 9 0 12 0 7 2 6 13 4 17-2 2-4 3-8 3-3 0-9 0-12 0z m36 0c-3-1-6-3-6-6-2-7 0-14 9-14 7 0 16-2 18 6 1 4 0 8-1 10-2 3-4 4-9 4-3 0-8 0-11 0z m1-8l1-4 3 0 0-4 4 0 0 4 4 0 0 4-4 0 0 4-3 0c-1-5 1-4-5-4z m-107-24c-9-1-8-12-6-16 2-2 4-3 8-3 8-1 16-2 18 5 1 3 1 8-1 10-1 3-4 4-8 4-3 0-8 1-11 0z m35 0c-9-2-7-14-5-16 1-2 4-3 8-3 6 0 16-2 18 5 1 4 0 8-1 11-2 3-4 3-9 3-3 0-8 1-11 0z m36 0c-10-1-7-13-6-16 2-2 4-3 8-3 7-1 16-2 18 5 2 6 1 14-9 14-3 0-9 1-11 0z m37-19c10 0 19-2 19 9 0 12-8 10-18 10-7 0-10-3-10-9 0-7 3-10 9-10z m-1 8l12 0 0 3-11 0z m-114-29c0-13 6-11 18-11 12 0 12 15 5 19-2 1-12 1-15 1-5 0-8-4-8-9z m42 9c-3-1-5-3-6-6-2-7 0-14 9-14 6 0 16-2 18 6 1 3 0 8-1 10-2 3-4 4-9 4-3 0-9 0-11 0z m35 0c-8-2-7-13-4-17 1-2 4-3 7-3 8 0 16-2 18 6 1 3 1 8-1 10-1 3-4 4-8 4-3 0-10 0-12 0z m-70-32c-10-2-7-14-6-16 2-2 4-4 8-4 8 0 16-1 18 6 2 6 1 14-9 14-2 0-9 0-11 0z m35 0c-9-2-7-13-5-16 1-2 4-4 8-4 6 0 16-1 18 6 1 3 0 8-1 11-2 2-4 3-8 3-3 0-9 0-12 0z m36 0c-10-2-7-14-6-16 2-3 4-4 8-4 3 0 10 0 12 1 8 1 7 13 5 16-1 2-4 3-8 3-3 0-9 0-11 0z m34 31c-6-2-6-6-6-13 0-7 0-14 0-20 0-7-1-13 4-16 3-2 5-2 9-2 6 0 12-1 15 6 1 2 0 6 0 9 0 6 0 13 0 19 0 14 1 18-12 18-3 0-7 0-10-1z m2-23l12 0 0 4-11 0z m0-8l12 0 0 4-11 0z"/>
<glyph glyph-name="ambulance" unicode="&#57352;" d="M203 367c1 0 2 0 3 0-1 0-2 0-3 0z m-4-1c1 0 2 1 3 1-1 0-2-1-3-1z m32-53c0 0 0 1 0 1 0 0 0-1 0-1z m43 31c-1 0-1 0-1-1 0 1 0 1 1 1z m1 2c-1 0-1-1-1-1 0 0 0 1 1 1z m-2-3c0 0-1-1-1-1 0 0 1 1 1 1z m-39-31c-1 1-1 1-1 1 0 0 0 0 1-1z m38 30c0 0 0-1-1-1 1 0 1 1 1 1z m-24-6c1 0 2 0 3 0-1 0-2 0-3 0z m23 5c0-1-1-1-1-1 0 0 1 0 1 1z m-2-1c0 0 0 0-1 0 1 0 1 0 1 0z m-3-1c1 0 2 0 2 0 0 0-1 0-2 0z m-164 14l0-5 280 0 0 73-2 5c-5 9-16 15-27 15l-146 0c-45 0-47-2-60-37-10-26-7-22-20-28-28-13-19-9-25-23z m58 27c20 1 39 1 58 0 14 0 14 2 14 15 0 34 3 30-28 30-28 0-26 2-36-23-2-5-7-16-8-22z m139 27c-11 0-20 0-20-11 1-10 10-10 20-10 0-10 0-19 10-19 11 0 10 9 11 19 10 1 19 0 19 10 0 13-15 11-19 12 0 28-18 17-20 13-2-4-1-9-1-14z m-197-111c8-14 3-11 35-12-10 47 63 48 54 1l114-1c-8 33 32 48 49 26 6-8 7-15 5-25 7 0 12 0 15 4 5 4 5 8 8 13l0 28-280 0z m227 14c-23-6-14-39 8-33 20 5 13 38-8 33z m-172-1c-4-2-7-4-9-8-6-13 6-30 23-23 19 7 8 40-14 31z m39 139l32 0c-3 26-29 24-32 0z m38 12c4-1 17 3 13 7-3 2-6 0-8-1-4-1-6-1-5-6z m-10 10c4-1 7 0 11 7 0 2 2 2 0 4-4 4-11-6-11-11z m-14 3c6 1 5 0 5 8 0 7 1 7-5 7-1-4-1-11 0-15z m-10-3c3 3 1 5-4 10-4 5-9 2-4-5 2-3 3-5 8-5z m-13-4c-11 5-12-1-5-5 5-1 6-2 9-1 1 4 1 4-4 6z"/>
<glyph glyph-name="ambulatory-care" unicode="&#57353;" d="M203 367c1 0 2 0 3 0-1 0-2 0-3 0z m-4-1c1 0 2 1 3 1-1 0-2-1-3-1z m32-53c0 0 0 1 0 1 0 0 0-1 0-1z m43 31c-1 0-1 0-1-1 0 1 0 1 1 1z m1 2c-1 0-1-1-1-1 0 0 0 1 1 1z m-2-3c0 0-1-1-1-1 0 0 1 1 1 1z m-39-31c-1 1-1 1-1 1 0 0 0 0 1-1z m38 30c0 0 0-1-1-1 1 0 1 1 1 1z m-24-6c1 0 2 0 3 0-1 0-2 0-3 0z m23 5c0-1-1-1-1-1 0 0 1 0 1 1z m-2-1c0 0 0 0-1 0 1 0 1 0 1 0z m-3-1c1 0 2 0 2 0 0 0-1 0-2 0z m101-108l12 0 0 99c-2 3-2 7-8 12-5 3-9 3-15 2-13 0-25 0-38 1 2-5 2-7 1-12 12-1 26 0 38 0 13 0 10-2 10-27 0-25 0-50 0-75z m-147 121l47 0c0 8 4 30 7 35 2-3 4-15 5-19l14-33c2-4 3-5 6-7 3-1 6-1 9 1 7 5 3 12 1 17-2 5-4 11-7 16-6 15-7 22-11 37-6 22-2 17-19 29-13 8-18 14-28-4-13-22-21-42-24-72z m74 125l-6 0c-3-1-9-2-14-8-3-3-6-9-6-16 0-12 11-22 23-22 12 0 22 10 23 21 0 10-4 18-12 22-3 2-5 2-8 3z m-54-159l11 0c2-4 5-17 6-21 2-6 1-6 1-12-1-11-2-32-2-40 0-8 7-14 16-11 7 3 7 10 7 19l2 40c0 3-1 8-2 11-1 3-6 21-7 21l-55 0-6-72c-1-10-1-16 7-19 8-3 14 3 15 10 1 8 1 16 2 24 2 17 4 34 5 50z m74 37l19 0c6 0 5-2 7-3l12 0c-2 6-4 10-8 12-6 4-18 3-26 3l-9 0z m26-33l0-78 12 0 0 81-12 0z m-180 30c17 0 10 0 15 2 3 2 30 0 38 1l1 12c-11 0-22 0-34 0-10 0-18-4-20-15z m0-28l0-80 12 0 0 81-12 0z m-27 6l0-99 12 0c0 20 0 41 0 61 0 10 0 20 0 30 0 13 1 11 19 11 40 0 81 0 121 0 0 2-1 4-2 6-1 2-1 5-3 6l-121-1c-6 0-13 1-17-2-7-4-7-9-9-12z"/>
<glyph glyph-name="angiography" unicode="&#57354;" d="M203 367c1 0 2 0 3 0-1 0-2 0-3 0z m-4-1c1 0 2 1 3 1-1 0-2-1-3-1z m32-53c0 0 0 1 0 1 0 0 0-1 0-1z m43 31c-1 0-1 0-1-1 0 1 0 1 1 1z m1 2c-1 0-1-1-1-1 0 0 0 1 1 1z m-2-3c0 0-1-1-1-1 0 0 1 1 1 1z m-39-31c-1 1-1 1-1 1 0 0 0 0 1-1z m38 30c0 0 0-1-1-1 1 0 1 1 1 1z m-24-6c1 0 2 0 3 0-1 0-2 0-3 0z m23 5c0-1-1-1-1-1 0 0 1 0 1 1z m-2-1c0 0 0 0-1 0 1 0 1 0 1 0z m-3-1c1 0 2 0 2 0 0 0-1 0-2 0z m-28 116l0-33 43 0c0 0 0 1 0 1 0 7 0 14 0 22 1 0 2-1 2-1 1 0 1 0 2 0 1 0 1-1 2-1l6-2c1 0 2-1 3-1l6-3c1 0 3-1 4-2 2-1 4-2 6-4 6-4 8-6 14-10l2-2c1-2 3-4 5-6 0 0 0-1 1-1 1-1 2-3 3-4 0-1 0-1 0-1l2-2c1-2 2-5 4-7 2-5 4-10 6-16 0 0 0-1 0-2 1-1 1-1 1-2 0 0 0-1 0-2 1-4 2-10 2-15 0-6-1-11-2-17-1-4-2-9-5-14l-1-3c-1-2-2-4-3-6-1-1-1-1-1-2-1 0-1-1-1-1-3-5-6-8-10-12 0-1 0-1 0-1l-6-6c-2-1-4-3-6-5-2-1-4-3-6-4-1 0-1-1-2-1-2-1-4-2-6-3l-7-4c-1 0-2-1-3-1-3-1-6-2-10-3 0 0-1 0-2 0 0 3 0 7 0 10 0 3 0 9 0 11-1 2-6 4-10 4-7 1-18 1-25-1-1 0-3-1-5-1-1-1-3-2-3-4l0-30c0-3 2-5 3-6 2-1 3-2 5-2l114 0c3 0 5 2 7 3 1 2 1 3 1 4l0 98c0 6-1 12-2 18l-1 4c0 1-1 2-1 2-1 3-3 9-4 12-1 1-2 3-2 4-1 1-1 2-1 2-1 1-1 1-1 1 0 0 0 0 0 0l-2 3c-3 5-6 9-9 14l-3 2c-2 3-5 5-7 7l-8 7c-1 0-1 1-1 1-2 1-4 2-6 4-3 2-7 4-11 6 0 0 0 0-1 0l-10 4-6 2c0 0 0 0-1 1-2 1-4 1-6 2l-3 0c-1 0-2 1-3 1-10 2-20 2-30 2-4-1-7-1-10-4 0-1-1-3-1-4z m57-93c0-5 2-8 5-12l0-1c1 0 1 0 1 0 2-2 6-4 9-5 5 0 10 0 14 3 1 1 2 1 3 2l1 1c3 4 4 7 4 11 0 4-2 10-6 12l0 1c-1 0-3 1-4 2 0 0 0 0-1 0-3 2-4 1-7 2-2 0-5-1-8-2-4-1-9-6-10-11 0-1-1-2-1-3z m-151-29l0-13c0 0 0 0 0 0l184 0 0 13-184 0c0 0 0 0 0 0z m0 36l0-25 48 0c0 2-3 4-2 11 1 1 1 2 2 4l1 1c2 2 4 4 7 5 4 1 7 1 11 1 8 0 17 0 25 0 4 0 6 0 10 1 4 1 7 1 10 2l8 1c1 0 1 1 3 1l0-3c0-1 1-3 1-4l-29-5-8 0c-7 0-14 0-21 0-4 0-6 0-9-1-1-1-2-2-3-3-3-5 1-11 7-11l68 0c2 0 6 1 7 2 2 1 3 1 4 2 1 1 3 2 3 3 1 1 1 1 1 2 3 4 4 10 2 14-1 0-1 1-1 1-1 3-4 6-6 7-1 0-1 1-2 1-2 1-5 2-8 2l-62 0-50-7c-2 0-3 0-5 0-2-1-11-2-12-2z"/>
<glyph glyph-name="behavioral-health" unicode="&#57355;" d="M116 315c0-3 0-5 4-7 5-4 16-8 16-15 0-3-5-7-5-10 0-3 6-7 9-7-1-2-3-2-4-4-1-2 0-4 1-6 4-5 9-1 5-21-1-10-5-18 9-24 7-3 12-2 19-2 5 0 14 2 19 3 6 1 26 6 31-1 1-2 3-9 3-12l7-24 32 2c4 1 10 1 15 1l47 4c10 0 23 1 32 1 0 3-4 12-5 15l-6 14c-12 29-14 46 8 72l9 10c10 12 20 35 20 52 0 15 1 21-4 35-4 11-8 19-14 27-18 25-58 45-88 48-17 2-19 2-37-1-21-2-47-14-64-26-1-2-3-3-5-4-5-5-9-9-13-15-6-7-9-16-10-25-5-22 6-37-15-59-1-2-2-3-4-5-4-4-12-10-12-16z m193-41l-33 0 0 44c-7 18-24 19-28 20-8-4-20-5-29 3-65-18-65 46-35 57 0 12 11 26 33 24 4 10 20 18 38 8 13 18 39 0 39-2 24 8 37-15 40-20 8 0 17-8 19-38 11-23-2-31-6-37-5-25-16-26-25-32-8-7-13-14-13-27z m-126 85c2 5 4 11 10 11 7 1 13 1 20 2-2 4-6 10-13 11-1 2-1 5-1 7 9 0 17-7 20-14 8 3 12 10 14 17-2 5-6 7-11 10 1 2 2 4 3 6 5-2 10-5 14-12 8 3 14 4 21 4l4 12 8-1c-2-4-3-8-4-12 5-3 8-7 10-12 4 0 7 0 11-1 0 9 3 13 8 16 1-3 2-4 3-6-2-3-4-6-3-11 11-3 18-8 23-16 5-1 12 9 13 8 1 0 6-3 6-3-5-6-10-10-18-13 0-7-1-14-4-21 5-3 11-6 13-14-2-1-5-2-7-3-2 4-5 8-10 10-5-4-9-8-14-12-2-3-4-6-4-10l-1-38-7 0c0 14 0 29 0 43 2 5 5 8 9 11 17 10 21 34 13 44-4 4-19 11-30 9-12-5-8-18-4-26l-6-5c-2 5-4 10-5 16-7 0-12 0-18-6-2 2-3 3-5 4 4 6 13 10 24 9 0 5 4 9 7 11-3 7-7 11-14 11-6-2-11-7-18-5-4-15-25-29-41-26-4 0-9 0-9-7z"/>
<glyph glyph-name="billing-office" unicode="&#57356;" d="M203 367c1 0 2 0 3 0-1 0-2 0-3 0z m-4-1c1 0 2 1 3 1-1 0-2-1-3-1z m32-53c0 0 0 1 0 1 0 0 0-1 0-1z m43 31c-1 0-1 0-1-1 0 1 0 1 1 1z m1 2c-1 0-1-1-1-1 0 0 0 1 1 1z m-2-3c0 0-1-1-1-1 0 0 1 1 1 1z m-39-31c-1 1-1 1-1 1 0 0 0 0 1-1z m38 30c0 0 0-1-1-1 1 0 1 1 1 1z m-24-6c1 0 2 0 3 0-1 0-2 0-3 0z m23 5c0-1-1-1-1-1 0 0 1 0 1 1z m-2-1c0 0 0 0-1 0 1 0 1 0 1 0z m-3-1c1 0 2 0 2 0 0 0-1 0-2 0z m38 8l-39 38c-1 1-2 2-3 3-2 2-1 2-4 3-7-4-83-89-56-117 12-13 25-3 32 7l37 40z m-89 88c2-1 4-3 5-4l9 6c5 3 20 15 26 14 17-2 33-5 49-7-1-2-13-10-15-12-5-4-10-8-14-12-9-7-10-10-16-9l-17 3c-1 0-3 1-3 1-4-1-2 0-3-1 3-2 3-2 5-5 2-1 3-2 4-3l11-2c-1-1-2-2-2-3-2-2-1 0-2-3 3-2 1-1 2-2 2 0 0 0 2 0 4 5 24 22 29 28 17 13 39 30 59 37-2 1-6 1-8 2l-29 3c-13 2-25 5-37 0-10-4-21-9-29-14l-20-12c-4-2-4-1-6-5z m-84-122l-1 0c5 1 5 3 7 5 1 1 1 1 2 2l3-5c-3-4-3-3-2-5l43-11 3 12c-8 2-15 4-24 6-6 1-18 6-24 6z m-22-10c2 1 11 2 10 7-2-5-3-7-2-12 3-1-3 9-2 7-6-7 2 5-6-2 1-1 14-10 15-10 0 0 1 0 2 0 1-2 0-1 1-2 6 1 61-17 73-19-12 9-13 21-8 36 9 27 32 54 51 75 4 3 8 10 13 13-2 0 0 0-2 0-1 1 1 0-2 2-5 1 0-1-5-1l-13 3c-5 1 4-2-1 0l-1 1c2 2 3 3 5 4 3 3 4 1 8 1-1 1-2 2-4 3-2 3-2 3-5 5 0 1 0 1-3 2-6 1-23 3-26 5l13 10c-1 1-3 3-5 4-3 0-15-9-18-12-13-8-40-32-50-42l-22-25c-9-12-26-35-18-51 2-2 1-2 2-2z m149 88c3-1 2-1 4-3 1-1 2-2 3-3l39-38c7 4 19 12 26 17 7 7 14 15 19 25 5 8 11 20 13 30 7 32 1 54-33 32-16-11-21-14-34-25-2-2-2-1-3-3l-23-21c-3-3-8-7-11-11z"/>
<glyph glyph-name="cardiology" unicode="&#57357;" d="M189 409c-3 3 1 13-4 16-5 5-11 2-17 2-7 1-14 4-15-3-2-7 0-14-1-19-9 0-15 0-15-11 0-8 9-10 17-9l0-4c-6-1-17-2-17-11 0-3 2-8 3-10 3-1 9 1 12 1 0-9 4-24 1-28-9-13-15-18-16-37-1-12 3-51 9-65 1-5 1-3 5-6 0-3-3-5-1-8 1-4 3-4 4-6 2-13 0-48 11-51 2-1 27-2 29-2 6 2 4 6 5 11 0 5 0 10 0 15 9-1 15-6 18-5 2 1 0 1 2 1 3 0 19-5 21-6 11-6 20-14 31-17 3-1 3-1 5 0 7-4 26-9 35-10 17-1 27 2 35 11 15 16 17 51 14 77 0 6-2 13-4 19 0 4-2 5-3 8l-8 15c-3 6-1 2-2 9 0 13-5 10-6 17 0 7-1 13-3 19-5 14-17 23-30 28-3 1-7 1-10 2l0 19c1 1 0 0 1 1 4 1 13 0 18 0 3 0 7 0 8 3 1 2 0 6-1 8-3 4-8 5-15 4-2 0-6-1-8 0-4 1-2 4 0 6 8 4 23 6 21 18-1 7-8 5-13 2-4-1-9-5-13-7-2 2-1 12-13 23-3 4-8 8-7 12 1 10 12 20 9 27-2 4-6 8-11 8-4 0-7-7-9-10l-7-13c1 8 6 21-2 24-4 1-10 1-13-1-2-3-2-9-2-13-3-24 1-19-10-20-15-3-16-12-21-7-4 5-6 15-10 20-5 8-16-3-18-7-3-8 5-10 11-18 9-11 2-13 0-22z m7-95c5-7 4-22-1-28l-7-9c-13-14-2-12 1-13 3-1 5-2 6-3 9-7 5-17 19-19 6-1 13 2 17 0 3-2 7-5 12-7 7-2 9 1 15 2 8 1 17-2 24-4 1-1 2-1 3-2 0 0 1 0 1-1 1-1 1-1 1-2-7-1-22 6-29 3-6-2-3-8 7-11 3-1 5-1 5-4-4-2-11 1-15 2-12 5-11 14-40 15-9 0-9 2-12 6-8 7-3 3-9 10-10 13-15 6-21-2-8-9-2-17 4-25 5-7 12-12 20-16 11-4 21-3 32-1 12 2 14-1 30 1 3 1 3 0 4 0-1-2-2-2-4-3l-4-2c3-2 21-6 22-11-2-1-10 3-12 3-11 4-42 8-48 4 2-4 18-11 22-13 7-4 10-6 15-12 4-5 9-6 16-10 4-2 8-4 13-6 8-3 18-6 28-7 24-3 38 8 43 27 6 16 7 47 4 65l0-4c-3 0-2 1-3 3-8 22-18 22-35 30-3 2-5 3-7 5-3 2-4 5-7 5-6-6 6-20 8-23 7-10 1-22 13-38 6-8 11-6 22-13 3-2 9-5 8-9-7-3-14 5-19 5-7-8 2-28-1-38-12-3-4 20-8 35-2 6-5 11-7 16-2 6-4 11-8 15-4-9 7-29 5-42-2-12-13-23-15-20-3 2 6 11 6 29 0 8-3 13-3 21-1 17 3 12-4 21l-10 14c-7 9-14 17-20 28-6 11-12 21-20 29-6 7-12 10-19 16-2 1-6 5-7 6-5 1-20-9-24-12-2-2-4-4-7-6z m-38-77c4 9 8 10 11 25 1 6 1 8 5 13 6 10 18 22 18 36 0 10-6 19-10 26-1-1 0 0-1-1l-5-9c-14-24-25-62-18-90z m-8-9c-6 19-4 46 0 65 4 17 10 29 19 44 1 2 3 4 3 5-10 5-18-10-22-16-7-8-10-15-11-29-1-12 4-64 11-69z m55-44c-1 3-8 10-11 12-4 4-5 6-12 11-8 6-13 7-17 18-1 2-1 5-2 8-4-3-5-15-1-19 2-1 5-1 5-4 0-3-1 0 0-2 0-1 7-7 9-9 8-6 19-12 29-15z m30-6c0 0-1 1-2 2-16 14-29 12-20 4 3-2 4-2 7-3 4-1 13-3 15-3z m114 87c-2 5-5 10-7 15l-10 13c-4 4-8 6-12 10-3 2-11 9-15 9-1-5 0-14 2-20 5-13 29-17 42-27z m-86 48c7-9 13-17 19-28 4-7 13-24 19-28-1 3-3 5-4 9-5 15 4 44-2 53-2 1-8 4-10 5-1-6-2-13-7-16-5-3-12 3-15 5z m22 23c6 0 16-8 20-10 5-4 10-6 14-9 2-2 3-3 5-4-1 11-6 17-14 20-8 4-15 7-25 8z m-1 15c1-2-1-1 4-2 11-2 24-6 32-13 15-12 8-26 16-34-2 19-4 26-15 36-8 8-22 13-34 13z m0 2l9 0 0 18c-3 0-8-2-9-5 0-3 0-10 0-13z m-42 2c6 0 2-2 10-2 2 0 2-1 4-1 2-1 3-1 5-1 2 0 2 0 4 0 2-1 3 0 5 0 5-1 5-1 9-1l4 0c0 5-2 14 0 18 5 8 26 5 33 6 4 0 5 2 4 5-3 11-18 6-22 6-2 0-5 2-5 5 1 2 3 4 6 5 4 2 8 4 12 6 10 6 4 13 4 13-5 1-14-4-17-6-5-4-11-6-18-8-25-7-17-2-31-1-3 1-8 2-11 1-5-8-7-9-10-22-1-7-1-10 3-13 3-2 6-5 7-9 2 0 3 0 4-1z m39-13c-5 0-4 1-5 1-3 1-4 0-4 0-3-1-3 0-4 1-2 0-4 0-5-1-1 0-2 0-3 1-4 2-3 0-6 1-3 0-2 1-5 1-2 0-1-1-4 0-2 0 1 0-5 1 0-23 1-12 16-27 3-3 12-10 17-11 5-2 7 2 8 5 3 6 3 19 2 27z m-125-5c7 5 2 9 18 7 1 1 4 7 5 9 0 8-4 20 2 38 2 4 3 7 4 10 1 3 2 2 2 6 0 2 0 4 0 6-1 5 0 9-3 12-4 2-8 2-13 1-12-1-17 7-17-9 0-9 1-18 1-26 0-10-1-17-1-27 0-9 1-18 2-27z m-15 24c4 0 8 1 11 2l1 16c-5 0-11-1-13-5-3-3-1-10 1-13z m13 25l-1 17c-9 1-14 0-15-8 0-8 8-9 16-9z m44-201c-3 2-8 4-11 5-4 2-7 4-10 7-4 3-6 5-9 8-4 4-2 3-12 5 0-5 1-9 1-14 1-42 7-34 22-36 5 0 10-1 14 0 5 1 4 2 4 10 1 5 1 11 1 15z"/>
<glyph glyph-name="cardiopulmonary-cardiac" unicode="&#57358;" d="M202 397l-30 0 0 30-26 0 0-30-30 0 0-27 30 0 0-29 26 0 0 29 30 0z m8-101c0 13-11 24-24 24-13 0-24-11-24-24 0-13 11-24 24-24 13 0 24 11 24 24z m41-6c-3 14-31 38-65 39-36 1-68-27-68-41 0-14 15-16 15-16 1 0 16 0 34 0-7 6-12 14-12 24 0 17 14 31 31 31 17 0 31-14 31-31 0-10-5-18-12-24 18 0 32 0 32 0 9 0 16 6 14 18z m-48 127c-11 9-13 26-3 38 9 11 26 13 38 4 11-10 13-27 3-39-9-11-26-13-38-3z m178-114l-61 0 46 50c0 0 4 5 6 7 5 9 5 20 0 29 0 0 0 0 0 0-7 13-22 35-48 46-25 11-40 7-48 4-12-5-19-14-24-21 0 0-26-46-26-46l-40-16c-7-3-10-11-7-17 2-6 7-9 12-9 2 0 3 0 5 1l44 18c1 1 1 1 1 1 1 0 2 1 2 1 1 0 1 1 1 1 1 0 2 1 2 2 0 0 1 0 1 1l20 33 0-23-26-36c-4-6-3-15 4-20 2-1 5-2 8-2 4 0 9 2 12 6l28 39c2 3 3 6 3 8l0 20c2-1 4-2 5-3 4-2 8-6 12-10l-40-65c-2-3-6-7-3-17 1-7 9-13 15-13l96 0c8 0 15 7 15 15 0 9-7 16-15 16z"/>
<glyph glyph-name="cath-lab" unicode="&#57359;" d="M203 367c1 0 2 0 3 0-1 0-2 0-3 0z m-4-1c1 0 2 1 3 1-1 0-2-1-3-1z m32-53c0 0 0 1 0 1 0 0 0-1 0-1z m43 31c-1 0-1 0-1-1 0 1 0 1 1 1z m1 2c-1 0-1-1-1-1 0 0 0 1 1 1z m-2-3c0 0-1-1-1-1 0 0 1 1 1 1z m-39-31c-1 1-1 1-1 1 0 0 0 0 1-1z m38 30c0 0 0-1-1-1 1 0 1 1 1 1z m-24-6c1 0 2 0 3 0-1 0-2 0-3 0z m23 5c0-1-1-1-1-1 0 0 1 0 1 1z m-2-1c0 0 0 0-1 0 1 0 1 0 1 0z m-3-1c1 0 2 0 2 0 0 0-1 0-2 0z m-28 116l0-33 43 0c0 0 0 1 0 1 0 7 0 14 0 22 1 0 2-1 2-1 1 0 1 0 2 0 1 0 1-1 2-1l6-2c1 0 2-1 3-1l6-3c1 0 3-1 4-2 2-1 4-2 6-4 6-4 8-6 14-10l2-2c1-2 3-4 5-6 0 0 0-1 1-1 1-1 2-3 3-4 0-1 0-1 0-1l2-2c1-2 2-5 4-7 2-5 4-10 6-16 0 0 0-1 0-2 1-1 1-1 1-2 0 0 0-1 0-2 1-4 2-10 2-15 0-6-1-11-2-17-1-4-2-9-5-14l-1-3c-1-2-2-4-3-6-1-1-1-1-1-2-1 0-1-1-1-1-3-5-6-8-10-12 0-1 0-1 0-1l-6-6c-2-1-4-3-6-5-2-1-4-3-6-4-1 0-1-1-2-1-2-1-4-2-6-3l-7-4c-1 0-2-1-3-1-3-1-6-2-10-3 0 0-1 0-2 0 0 3 0 7 0 10 0 3 0 9 0 11-1 2-6 4-10 4-7 1-18 1-25-1-1 0-3-1-5-1-1-1-3-2-3-4l0-30c0-3 2-5 3-6 2-1 3-2 5-2l114 0c3 0 5 2 7 3 1 2 1 3 1 4l0 98c0 6-1 12-2 18l-1 4c0 1-1 2-1 2-1 3-3 9-4 12-1 1-2 3-2 4-1 1-1 2-1 2-1 1-1 1-1 1 0 0 0 0 0 0l-2 3c-3 5-6 9-9 14l-3 2c-2 3-5 5-7 7l-8 7c-1 0-1 1-1 1-2 1-4 2-6 4-3 2-7 4-11 6 0 0 0 0-1 0l-10 4-6 2c0 0 0 0-1 1-2 1-4 1-6 2l-3 0c-1 0-2 1-3 1-10 2-20 2-30 2-4-1-7-1-10-4 0-1-1-3-1-4z m57-93c0-5 2-8 5-12l0-1c1 0 1 0 1 0 2-2 6-4 9-5 5 0 10 0 14 3 1 1 2 1 3 2l1 1c3 4 4 7 4 11 0 4-2 10-6 12l0 1c-1 0-3 1-4 2 0 0 0 0-1 0-3 2-4 1-7 2-2 0-5-1-8-2-4-1-9-6-10-11 0-1-1-2-1-3z m-151-29l0-13c0 0 0 0 0 0l184 0 0 13-184 0c0 0 0 0 0 0z m0 36l0-25 48 0c0 2-3 4-2 11 1 1 1 2 2 4l1 1c2 2 4 4 7 5 4 1 7 1 11 1 8 0 17 0 25 0 4 0 6 0 10 1 4 1 7 1 10 2l8 1c1 0 1 1 3 1l0-3c0-1 1-3 1-4l-29-5-8 0c-7 0-14 0-21 0-4 0-6 0-9-1-1-1-2-2-3-3-3-5 1-11 7-11l68 0c2 0 6 1 7 2 2 1 3 1 4 2 1 1 3 2 3 3 1 1 1 1 1 2 3 4 4 10 2 14-1 0-1 1-1 1-1 3-4 6-6 7-1 0-1 1-2 1-2 1-5 2-8 2l-62 0-50-7c-2 0-3 0-5 0-2-1-11-2-12-2z"/>
<glyph glyph-name="chaplains" unicode="&#57360;" d="M203 367c1 0 2 0 3 0-1 0-2 0-3 0z m-4-1c1 0 2 1 3 1-1 0-2-1-3-1z m32-53c0 0 0 1 0 1 0 0 0-1 0-1z m43 31c-1 0-1 0-1-1 0 1 0 1 1 1z m1 2c-1 0-1-1-1-1 0 0 0 1 1 1z m-2-3c0 0-1-1-1-1 0 0 1 1 1 1z m-39-31c-1 1-1 1-1 1 0 0 0 0 1-1z m38 30c0 0 0-1-1-1 1 0 1 1 1 1z m-24-6c1 0 2 0 3 0-1 0-2 0-3 0z m23 5c0-1-1-1-1-1 0 0 1 0 1 1z m-2-1c0 0 0 0-1 0 1 0 1 0 1 0z m-3-1c1 0 2 0 2 0 0 0-1 0-2 0z m-44 59l-67 0 0-68 67 0 0-157 68 0 0 157 67 0 0 68-67 0 0 67-68 0z"/>
<glyph glyph-name="clinical-consultants" unicode="&#57361;" d="M312 440l23-22c1 1 20 20 23 23 5 4 4 6-2 11l-14 14c-4 2-7-2-11-7-2-2-18-17-19-19z m-18-71c-3 5-4 10 1 14 1 2 4 3 7 3 3 0 5-1 7-2l22 22c5 5 1 7-5 13l-17 16c-1 2-4 5-7 3l-56-55c-2-2-3-4-5-6-2-1-5-3-4-7 0-2 19-20 22-22 8-9 6-8 24 10z m-66-13c-8 0-17 2-17-3-1-7 8-5 16-5l2 0 2-4c-1-2-6-6-8-8-2-2-7-5-4-9 4-4 7 0 10 3 2 2 5 5 7 7 2 0 4-2 6-2l0-12c0-3 1-7 5-6 5 0 4 8 4 14l0 3c2 1 5 1 8 4 0 0 0 0 1 0l-27 27-1-1c-2-2-3-6-4-8z m73 27c-10-2-8-17 3-15 3 1 7 5 6 9-1 4-5 7-9 6z m12-5c0-6-2-8-4-11-2-1-3-2-5-2-4-1-4 1-6-2 11-8 20-22 23-36 1-9-1-18-4-26-1-3-3-7-5-9-2-4-4-6-6-9-19-19-52-25-77-11-3 1-7 4-9 6l32 0 0 18-101 0 0-18 34 0c1-1 4-5 5-6 2-3 6-6 8-9 3-2 5-4 8-6l9-5-11-7c-7-4-11-8-17-14-2-2-9-10-10-13l160 0c0 3-7 10-9 12-4 6-14 14-20 18-2 1-4 2-6 3 13 7 19 12 28 23 19 21 22 53 9 78-3 6-9 15-13 19-4 4-4 5-10 9-2 0-3-2-3-2z m24-179l0 14-160 0c0-4 0-8 0-11 0-4 1-3 8-3 51 0 102 1 152 0z"/>
<glyph glyph-name="ct-scan" unicode="&#57362;" d="M123 342l0-82c0-5 3-11 6-13 5-4 9-5 17-5 13 0 27 0 40 0 1 3 5 9 6 13l6 13c-11 6-25 27-30 39-13 32-8 70 14 96 2 2 4 4 6 6 0 1 0 1 1 2l7 6c2 1 2 2 4 3 1 1 2 1 3 2l11 7c17 8 28 9 47 9 10 0 24-3 30-6 16-7 33-19 42-33 4-6 8-12 10-18 1-3 2-5 3-7 9-24 5-56-7-77-12-20-24-27-26-30 1-3 4-10 6-13 1-2 2-4 3-6 0-2 2-6 4-6l43 0c12 0 20 9 20 18l0 82c0 34-15 67-38 91-13 12-22 19-38 27-16 7-32 12-49 12l-13 0c-26-1-51-9-72-24-33-23-56-65-56-106z m69-98l126 0-26 55-73 0-4-7c-1-2-2-4-3-7-2-4-4-8-6-14-1-2-3-4-4-6-1-3-2-4-3-7z m-26 102c0-23 7-46 21-61 5-5 8-9 13-13l7 14c9 17 6 12 6 36 0 2-8 17-2 36 1 4 3 8 5 11 8 12 23 21 38 21 12 0 18-1 27-7 2-1 3-2 5-3 4-4 7-7 11-13 6-11 8-24 4-37-5-17-4 0-4-28 0-3 2-5 3-8l10-22c3 0 6 4 8 5 2 2 7 8 9 11 32 39 23 99-19 129-4 3-10 7-15 9-19 7-36 10-57 5-7-1-11-3-17-5-9-4-19-11-26-18-2-2-3-4-5-6-2-2-4-4-6-6-9-15-16-31-16-50z m26-118c0-2 2-5 4-6 2-2 4-3 7-3l105 0c12 0 10 12 10 20l-126 0z m30-26c0-4 5-8 9-8l49 0c5 0 9 5 9 9l0 12-67 0z m-3 124l0-23 73 0 0 23c0 6-5 10-11 10l-50 0c-7 0-12-3-12-10z"/>
<glyph glyph-name="digestive-health-center" unicode="&#57363;" d="M283 319c0-11-2-15-8-24-1-2-1-2-2-3-1-1-1-1-2-2-6-7-16-13-25-13-3 0-5 3-8 5-11 10-28 16-42 9-2-1-3-2-5-3-9-6-19-18-23-27-6-12-11-23-16-34-1-2-2-3-2-6-1-13 13-23 27-21 4 0 8 3 10 6 4 4 15 44 23 45 6 0 13-28 30-28 5 0 6 1 12 1 5 0 10-13 40-13 36 0 71 21 86 53 7 14 11 27 14 42 4 17 3 23 3 40 0 10-2 19-4 27-3 15-8 21-16 31-6 8-19 14-32 14-23 0-49-17-65-4-14 11-1 29-1 37l0 2c0 7-15 13-22 13-5 0-9 1-14-4-4-5-5-12-6-20-1-10 0-26 3-36 5-20 18-33 28-50 6-10 17-25 17-37z"/>
<glyph glyph-name="emergency" unicode="&#57364;" d="M180 268c6-1 146-1 152 0 0 32 4 66-10 92-23 43-81 54-120 16-5-4-8-9-11-15-15-27-11-60-11-93z m-32-66l216 0c-1 52 3 44-107 44-110 0-109 8-109-44z m201 130c-10-4-9-19 4-20 6-1 33-1 37 1 9 4 9 18-4 20-5 1-33 1-37-1z m-7 93c-2-2-8-9-11-11-4-5-7-7-11-10-12-12-4-28 10-21 4 1 19 17 23 21 13 14-1 27-11 21z m-91 38c-10-5-6-46-4-48 3-5 9-6 14-4 11 5 6 46 4 49-2 3-8 7-14 3z m-92-39c-3-1-4 0-5-5-1-4 0-7 1-10 2-3 8-9 11-11 5-6 16-21 27-15 6 3 6 10 3 16-2 5-6 6-11 10-6 5-14 21-26 15z m-37-92c-11-6-7-19 4-20 5-1 34-1 37 0 10 4 10 20-4 22-6 0-33 0-37-2z m123 44c-26-6-45-31-43-54 1-11 13-14 19-7 3 5 2 17 7 25 2 2 2 3 4 4 17 18 35 6 35 22-1 12-12 12-22 10z"/>
<glyph glyph-name="emergency-waiting" unicode="&#57365;" d="M203 367c1 0 2 0 3 0-1 0-2 0-3 0z m-4-1c1 0 2 1 3 1-1 0-2-1-3-1z m32-53c0 0 0 1 0 1 0 0 0-1 0-1z m43 31c-1 0-1 0-1-1 0 1 0 1 1 1z m1 2c-1 0-1-1-1-1 0 0 0 1 1 1z m-2-3c0 0-1-1-1-1 0 0 1 1 1 1z m-39-31c-1 1-1 1-1 1 0 0 0 0 1-1z m38 30c0 0 0-1-1-1 1 0 1 1 1 1z m-24-6c1 0 2 0 3 0-1 0-2 0-3 0z m23 5c0-1-1-1-1-1 0 0 1 0 1 1z m-2-1c0 0 0 0-1 0 1 0 1 0 1 0z m-3-1c1 0 2 0 2 0 0 0-1 0-2 0z m62 118c-13-2-21-8-27-16-15-17-12-45 6-59 13-11 32-13 48-4 14 8 23 25 21 42-2 13-9 22-15 27-8 6-20 12-33 10z m4-19c-6-1-3-10-3-19-1-5-8-8-11-13-2-4 2-9 6-7 2 0 6 5 8 7 2 2 6 5 7 9 0 4 0 10 0 15 0 5-1 10-7 8z m-176-201l140 0c0 7 1 16-3 22-4 6-9 6-18 6-16 0-33 0-49 0-16 0-32 0-48 0-10 0-15 0-19-6-4-6-3-15-3-22z m22 79l0-37 96 0 0 38c1 5-2 14-4 19-3 5-7 10-10 14-8 7-19 13-34 13-20 0-36-12-44-27-2-5-5-14-4-20z m45 33c-18-2-30-16-32-32 0-4 0-6 2-8 2-2 6-3 9-1 6 4 0 18 16 26 6 2 12 0 14 6 2 3 0 6-1 7-2 2-5 3-8 2z m63-28c-7-3-6-13 1-14 3 0 22 0 24 1 7 2 6 12-1 13-2 1-22 1-24 0z m-3 60c-3-1-8-7-11-10l-4-4c-2-2-5-5-5-9 1-4 4-7 9-6 3 1 6 5 8 6 2 3 4 5 7 8 2 2 5 4 5 9-1 4-4 7-9 6z m-58 24c-8-1-6-10-6-18 0-3 0-10 1-12 1-3 3-5 7-5 8 2 6 12 6 19 0 3 0 10-1 12-1 3-4 5-7 4z m-59-24c-4-1-6-4-6-9 1-3 5-6 7-8 2-2 4-5 7-7 2-2 5-6 9-5 4 0 7 4 6 8-1 4-8 10-10 12-4 4-8 10-13 9z m-25-60c-7-2-6-12 1-14 1 0 22 0 24 0 6 2 6 13-1 14-2 1-22 1-24 0z"/>
</font>
</defs>
</svg>
